<svg xmlns="http://www.w3.org/2000/svg" viewBox="0 0 30.28 109.96"><defs><style>.a,.b,.c{stroke:#000;stroke-miterlimit:10;}.a{stroke-width:0.34px;}.b{fill:#fff;stroke-width:0.25px;}.c{stroke-width:0.4px;}</style></defs><title>define_2</title><path class="a" d="M16,31.54l1.45-3-2.57-4,1.6-4-.2-4.6v-.81a3.3,3.3,0,1,0-.57,0v.81l.21,4.62-1.55,4,2.57,4L15.5,31.55"/><path class="b" d="M13.26,11.76A2.73,2.73,0,1,1,16,14.49a2.72,2.72,0,0,1-2.72-2.73"/><circle cx="15.8" cy="1.1" r="1.1"/><circle cx="15.78" cy="3.91" r="1.1"/><circle cx="15.8" cy="6.75" r="1.1"/><path class="c" d="M15.55,31.5a12.76,12.76,0,0,1-1.49,2c-.84-.23-1.42-.27-1.73-.05a.58.58,0,0,0-.24.49.62.62,0,0,0,.32.57,1.54,1.54,0,0,0,1.43-.25,2.7,2.7,0,0,0,.34-.25c.71.2,1.53.49,2.22.73l.54.19c-.71.18-1.51.4-2.41.65-.64.17-1.35.37-2,.54-1.57-.47-2.66-.62-3.18-.26a.74.74,0,0,0-.32.64.48.48,0,0,0,.2.4c.42.33,1.54.15,3.29-.29,1.5.46,3.31,1.16,4.83,1.75l1.28.49-2.38.66c-1.43.39-3.1.86-4.55,1.19-1.82-.59-3-.8-3.56-.42A.74.74,0,0,0,7.8,41,.53.53,0,0,0,8,41.4c.48.36,1.73.23,3.62-.2,1.44.48,3.16,1.16,4.77,1.8,1.24.49,2.46,1,3.59,1.39l-.69.29a41.31,41.31,0,0,1-9.63,3,16.57,16.57,0,0,0-4.11-1.29,1.13,1.13,0,0,0-1.1.43.92.92,0,0,0-.09.93,1.2,1.2,0,0,0,1.07.61,21.25,21.25,0,0,0,4.17-.2l2.28,1a61.8,61.8,0,0,0,6.76,2.69c-2.82.82-6.22,1.77-9.21,2.47a19.22,19.22,0,0,0-5.25-1.06h0A1.42,1.42,0,0,0,2.9,54.37a1.07,1.07,0,0,0,.68,1.26,1.56,1.56,0,0,0,.84.11,46.35,46.35,0,0,0,5-1c2.25.72,4.73,1.68,7,2.59l3.06,1.17c-1.86.46-3.91,1-5.92,1.62-1.63.47-3.35,1-4.89,1.34-2.48-.76-4.42-1.11-5.21-.56a1,1,0,0,0-.41.86.76.76,0,0,0,.31.62c.7.53,2.68.22,5.3-.43,1.87.58,4,1.37,6.06,2.12,1.7.62,3.38,1.24,4.91,1.75-1.18.34-2.44.73-3.77,1.14-.72.23-1.41.45-2,.62s-1.2.38-1.9.61l-1.95.62c-2.72-1.07-5-1.62-6-.94a1.37,1.37,0,0,0-.58,1.31,1,1,0,0,0,.45.84c1,.66,3.24.16,6.09-.72,2,.78,4,1.76,5.47,2.46.9.43,1.67.8,2.17,1s.84.39,1.42.67l.82.39c-1,.27-2.08.58-3.16.89s-2.28.66-3.4.95c-2.65-1.22-5-1.91-6.17-1.39a1.3,1.3,0,0,0-.76,1.29,1.22,1.22,0,0,0,.48,1c1,.75,3.45.34,6.39-.43a48,48,0,0,1,9.84,6.15,19.44,19.44,0,0,1,5.52,7.92,13.67,13.67,0,0,1,.27,9.29,13.25,13.25,0,0,1-6.93,8,16.29,16.29,0,0,1-12.69.84A12.45,12.45,0,0,1,.73,97.62a12.94,12.94,0,0,1,7-12.75A11.85,11.85,0,0,1,15.21,84a11.27,11.27,0,0,1,6.49,3.82,11.15,11.15,0,0,1,2.52,6.57,10.31,10.31,0,0,1-4.66,9.14,8.69,8.69,0,0,1-10-.71,7.46,7.46,0,0,1-1.19-9.65,6.56,6.56,0,0,1,4.67-2.51,6,6,0,0,1,4.68,1.46,5,5,0,0,1,1.6,4.44A4.56,4.56,0,0,1,15,100.45a3,3,0,0,1-2.22-1,2.57,2.57,0,0,1-.68-2,2.36,2.36,0,0,1,1.47-1.79,2.06,2.06,0,0,1,2,.13.23.23,0,0,0,.32,0,.24.24,0,0,0-.05-.33,2.54,2.54,0,0,0-2.5-.18,2.84,2.84,0,0,0-1.75,2.16,3,3,0,0,0,.79,2.37,3.48,3.48,0,0,0,2.54,1.2h0a5.06,5.06,0,0,0,4.82-4.24,5.45,5.45,0,0,0-1.74-4.86,6.47,6.47,0,0,0-5-1.59,7,7,0,0,0-5,2.7A7.93,7.93,0,0,0,9.27,103.2,9,9,0,0,0,19.8,104a10.67,10.67,0,0,0,4.89-9.56,11.51,11.51,0,0,0-9.38-10.83,12.43,12.43,0,0,0-7.83.87A13.4,13.4,0,0,0,.27,97.67a12.88,12.88,0,0,0,8.89,11.16A16.78,16.78,0,0,0,22.21,108a13.69,13.69,0,0,0,7.16-8.25,14.14,14.14,0,0,0-.27-9.6A20,20,0,0,0,23.44,82,48.27,48.27,0,0,0,14,76c.93-.25,1.9-.53,2.88-.81,1.22-.35,2.49-.72,3.69-1a26.41,26.41,0,0,0,2.47,1c1.65.58,2.76.67,3.37.28A1.3,1.3,0,0,0,27,74.29a1.12,1.12,0,0,0-.47-1c-.92-.69-3.16-.34-5.89.36l-1.32-.63c-.58-.28-1.08-.53-1.44-.67s-1.26-.58-2.15-1c-1.7-.81-3.4-1.6-5-2.25l1.43-.46c.69-.23,1.34-.44,1.88-.6l2-.62c1.33-.42,2.9-.91,4.43-1.33,2.93.95,5.27,1.44,6.21.8a1.1,1.1,0,0,0,0-1.77c-.92-.68-3.23-.31-6.22.49-1.77-.57-3.72-1.29-5.57-2s-3.72-1.36-5.36-1.9c1.28-.34,2.69-.74,4.16-1.16,2.2-.63,4.52-1.3,6.58-1.78C23.64,60,25.78,60.6,26.68,60a1,1,0,0,0,.42-.84,1.23,1.23,0,0,0-.48-1c-.95-.72-3.33-.45-6.27.22-1.19-.44-2.45-.93-3.7-1.42-2.08-.81-4.28-1.67-6.35-2.35,3.07-.75,6.47-1.7,9.2-2.5a14.78,14.78,0,0,0,6.93.5,1.18,1.18,0,0,0,.88-.79A1.28,1.28,0,0,0,27,50.53a2.39,2.39,0,0,0-2.43-.48h0c-.06,0-2.17.68-5.08,1.53a54.55,54.55,0,0,1-7.39-2.88L10.49,48a43.92,43.92,0,0,0,9-2.89l1.18-.48c2.34.83,4.21,1.28,4.94.76a.86.86,0,0,0,.34-.8v0a1.71,1.71,0,0,0-.8-1.23c-.91-.49-2.43,0-4.48.8-1.33-.47-2.76-1-4.08-1.56C15,42,13.66,41.41,12.49,41c1.12-.27,2.41-.62,3.86-1,1-.29,2.08-.58,3-.81a18,18,0,0,0,3,.91,1.37,1.37,0,0,0,1.36-.5.81.81,0,0,0,.07-.87c-.13-.23-.49-.61-1.48-.58a16.66,16.66,0,0,0-2.88.55c-.6-.22-1.24-.47-1.89-.73-1.59-.61-3-1.14-4.16-1.53l1.32-.36c1-.28,2.12-.59,3.12-.82,1.4.47,2.32.67,2.73.36a.53.53,0,0,0,.21-.48.56.56,0,0,0-.24-.44c-.4-.3-1.31-.22-2.68.08l-1.23-.42c-.76-.27-1.43-.5-2-.67A11,11,0,0,0,16,31.49m4.21,3.73c-.18.14-.78,0-1.49-.18a6.39,6.39,0,0,1,1-.1.86.86,0,0,1,.51.11.11.11,0,0,1,.05.08c0,.07,0,.08,0,.09m2.16,4.39A14.31,14.31,0,0,1,20.16,39a12.77,12.77,0,0,1,2.12-.37h.11c.47,0,.82.12.94.33a.37.37,0,0,1,0,.39.93.93,0,0,1-.91.3m3,5.4c-.52.37-2.1,0-4-.64,1.64-.63,2.92-1,3.59-.63a1.21,1.21,0,0,1,.56.89.4.4,0,0,1-.15.38m1,7.11a13.4,13.4,0,0,1-6-.3c2.45-.72,4.18-1.27,4.34-1.32a4.29,4.29,0,0,1,.77-.08,1.56,1.56,0,0,1,1.2.42.85.85,0,0,1,.2.81.7.7,0,0,1-.54.47m.09,7.49c-.68.46-2.74-.08-5.25-1a18.46,18.46,0,0,1,3.6-.49,2.7,2.7,0,0,1,1.57.35.73.73,0,0,1,.29.64.52.52,0,0,1-.21.47m0,6.93c-.72.48-2.68.1-5.1-.64a17.49,17.49,0,0,1,3.89-.64,2.23,2.23,0,0,1,1.23.26.58.58,0,0,1,.24.49.63.63,0,0,1-.26.53m-.27,8.57c-.82.52-3-.26-4.87-1.11A17.59,17.59,0,0,1,25,73.42a2.2,2.2,0,0,1,1.27.28.74.74,0,0,1,.28.6.87.87,0,0,1-.35.81M7.38,74.75c.9-.42,2.9.12,5.24,1.15-2.49.62-4.65,1-5.43.37a.76.76,0,0,1-.3-.66.84.84,0,0,1,.49-.86m-3-6.45c.82-.54,2.81,0,5,.77-2.17.64-4.37,1.13-5.13.61A.56.56,0,0,1,4,69.2a.93.93,0,0,1,.37-.9m-.54-7c.57-.4,2.09-.15,4,.4-2,.48-3.64.7-4.13.33a.29.29,0,0,1-.13-.26.54.54,0,0,1,.22-.47m.42-7.61a16.51,16.51,0,0,1,4.34.8,40.57,40.57,0,0,1-4.18.77,1.16,1.16,0,0,1-.6-.07.63.63,0,0,1-.42-.74,1,1,0,0,1,.86-.76h0m1.31-6.88a13.44,13.44,0,0,1,3.24,1,19.74,19.74,0,0,1-3.27.09.76.76,0,0,1-.68-.34.45.45,0,0,1,.05-.46.67.67,0,0,1,.66-.24m2.86-6.15c.33-.23,1.21-.1,2.36.24A4.42,4.42,0,0,1,8.31,41a.11.11,0,0,1-.05-.09.27.27,0,0,1,.12-.26m1.2-4.42a3.13,3.13,0,0,1,2,.11,4.09,4.09,0,0,1-2.08.18s0,0,0,0a.29.29,0,0,1,.12-.26m3-2.41a1.53,1.53,0,0,1,1,0h0a1.15,1.15,0,0,1-1,.24.16.16,0,0,1-.08-.16c0-.08,0-.1,0-.11"/><path d="M18.32,10.34h0a2.87,2.87,0,0,0-1-.95A2.94,2.94,0,0,0,16,9h0a2.9,2.9,0,0,0-1.31.4,2.87,2.87,0,0,0-1,.95h0a3,3,0,0,0-.32,1.35A3,3,0,0,0,13.64,13h0a3.06,3.06,0,0,0,1,.95,2.9,2.9,0,0,0,1.32.39h0A2.93,2.93,0,0,0,17.31,14a3.06,3.06,0,0,0,1-.95s0,0,0,0a3.05,3.05,0,0,0,.31-1.33,3,3,0,0,0-.32-1.35ZM17.25,9.5a2.84,2.84,0,0,1,.89.8A2.84,2.84,0,0,1,17,9.93a2.73,2.73,0,0,1-.89-.8A2.78,2.78,0,0,1,17.25,9.5Zm-.66,2.15a2.79,2.79,0,0,0,.72-.29,3.11,3.11,0,0,0,.72-.58,3,3,0,0,0-.14.91,3.09,3.09,0,0,0,.14.91,3.11,3.11,0,0,0-.72-.58,2.79,2.79,0,0,0-.72-.29v-.08Zm.66-.4a3.05,3.05,0,0,1-.68.28.63.63,0,0,0-.16-.26,2.93,2.93,0,0,1,.59-.46,2.82,2.82,0,0,1,1.14-.36A3.1,3.1,0,0,1,17.25,11.25ZM16.2,9.44a2.82,2.82,0,0,0,.73.6,2.79,2.79,0,0,0,.87.33,3.39,3.39,0,0,0-.87.33,3,3,0,0,0-.62.49l-.07,0a2.88,2.88,0,0,0,.11-.78A2.92,2.92,0,0,0,16.2,9.44Zm.06,2.81.07,0a2.83,2.83,0,0,0,.61.47,2.79,2.79,0,0,0,.87.33,3.09,3.09,0,0,0-.87.34,2.55,2.55,0,0,0-.72.58,3.16,3.16,0,0,0,.14-.92A2.78,2.78,0,0,0,16.26,12.25ZM16,9.2a2.77,2.77,0,0,1,.25,1.17,2.64,2.64,0,0,1-.1.74.32.32,0,0,0-.14,0l-.16,0a2.64,2.64,0,0,1-.1-.74A2.77,2.77,0,0,1,16,9.2Zm-.61,2.53a3,3,0,0,0-.7.29,2.66,2.66,0,0,0-.73.6,3.22,3.22,0,0,0,.14-.93,2.75,2.75,0,0,0-.14-.91,3.11,3.11,0,0,0,.72.58,2.87,2.87,0,0,0,.71.29v.08Zm-.64.4a2.7,2.7,0,0,1,.66-.27.57.57,0,0,0,.16.27,2.71,2.71,0,0,1-.57.44,2.87,2.87,0,0,1-1.14.36A3.1,3.1,0,0,1,14.72,12.13Zm.31.55a3.15,3.15,0,0,0,.61-.46l.07,0a2.71,2.71,0,0,0-.1.75,3.16,3.16,0,0,0,.14.92,2.87,2.87,0,0,0-.72-.58,3.09,3.09,0,0,0-.87-.34A2.79,2.79,0,0,0,15,12.68Zm.67-1.53,0,0A3.66,3.66,0,0,0,15,10.7a3.47,3.47,0,0,0-.86-.33A2.83,2.83,0,0,0,15,10a2.92,2.92,0,0,0,.7-.56,2.86,2.86,0,0,0,0,1.67Zm-1-1.65a2.78,2.78,0,0,1,1.14-.37,2.73,2.73,0,0,1-.89.8,2.84,2.84,0,0,1-1.13.37A2.7,2.7,0,0,1,14.71,9.5ZM15,10.81a3.28,3.28,0,0,1,.59.45.63.63,0,0,0-.16.27,3.36,3.36,0,0,1-.68-.28,2.94,2.94,0,0,1-.88-.8A2.83,2.83,0,0,1,15,10.81Zm-1.51.88a2.77,2.77,0,0,1,.25-1.17,2.86,2.86,0,0,1,0,2.34A2.77,2.77,0,0,1,13.45,11.69Zm1.27,2.2a2.84,2.84,0,0,1-.89-.8,2.74,2.74,0,0,1,1.14.37,2.84,2.84,0,0,1,.89.8A2.84,2.84,0,0,1,14.72,13.89Zm1.26.29A2.89,2.89,0,0,1,15.73,13a2.82,2.82,0,0,1,.09-.71l.16,0,.16,0a2.82,2.82,0,0,1,.09.71A2.73,2.73,0,0,1,16,14.18Zm1.27-.29a2.89,2.89,0,0,1-1.14.37,2.84,2.84,0,0,1,.89-.8,2.69,2.69,0,0,1,1.14-.37A3,3,0,0,1,17.25,13.89ZM17,12.57a3.59,3.59,0,0,1-.57-.44.57.57,0,0,0,.14-.28,3.36,3.36,0,0,1,.68.28,3.1,3.1,0,0,1,.89.8A2.87,2.87,0,0,1,17,12.57Zm1.26.29a2.86,2.86,0,0,1,0-2.34,2.86,2.86,0,0,1,0,2.34Z"/></svg>