<svg xmlns="http://www.w3.org/2000/svg" viewBox="0 0 74.34 168.46"><g id="Layer_2" data-name="Layer 2"><g id="Dream_Catcher" data-name="Dream Catcher"><path d="M38,16.49a1.41,1.41,0,1,0-.89-2.67,1.4,1.4,0,0,0-.89,1.78A1.41,1.41,0,0,0,38,16.49Z"/><path d="M37.82,24.45a1.29,1.29,0,0,0,.82-1.64A1.28,1.28,0,0,0,37,22a1.29,1.29,0,1,0,.81,2.46Z"/><path d="M65.63,48.72a27.52,27.52,0,0,0-9,.09,29.68,29.68,0,0,0,4.84-17h0a.17.17,0,0,0,0-.07v0s0,0,0,0a.17.17,0,0,0,0-.05l0,0h0l0-.05s0,0,0,0h0l0,0-.05,0a.09.09,0,0,0-.07,0H60.8a38.25,38.25,0,0,0-11.69,5.78,27.28,27.28,0,0,0-9.74-16.49,3.52,3.52,0,0,0-1-.55A1.29,1.29,0,0,0,37,18a1.31,1.31,0,0,0-.83,1.64,1.23,1.23,0,0,0,.17.32,3.49,3.49,0,0,0-1.37.66,27.25,27.25,0,0,0-9.75,16.49,38.2,38.2,0,0,0-11.68-5.78h-.29l-.07,0a.05.05,0,0,0,0,0l0,0h0l-.06.06,0,.05h0l0,0s0,0,0,.06,0,0,0,0v0s0,0,0,.07h0a29.75,29.75,0,0,0,4.84,17,27.46,27.46,0,0,0-9-.09A18.06,18.06,0,0,0,.17,52.53a.49.49,0,0,0-.1.63.11.11,0,0,0,0,.05.49.49,0,0,0,.62.3,11.94,11.94,0,0,1,10.13,1.18,23.84,23.84,0,0,1,4.78,4.45,29.52,29.52,0,0,0,4,4,15.61,15.61,0,0,0,9.47,3.34,13.83,13.83,0,0,0,4.79-.86c.91,3.18,2,5.2,2.74,5.73A55.73,55.73,0,0,0,39.16,89a16.21,16.21,0,0,0,.92,2.43l-.36.29a17.49,17.49,0,0,1-4.4,2.48L32,91.73a10,10,0,0,0-4.76-2.38,4.37,4.37,0,0,0-3.19,1,2.91,2.91,0,0,0-.29,4.3,6.78,6.78,0,0,0,4.5,1.78,18.62,18.62,0,0,0,6.89-1.07l6.93,5.23-.59.51-1.11.94c-.27.22-.55.43-.83.64a13.88,13.88,0,0,0-13-2.92c-2.21.72-4.37,2.5-4.24,4.84a4.48,4.48,0,0,0,3.47,3.82,9.83,9.83,0,0,0,5.08-.33,28.63,28.63,0,0,0,8.65-4.14,14.32,14.32,0,0,1,1.45,1.56c3.06,3.87,6.38,9.42,5.62,15.23-.6,4.6-2.33,9.28-5.62,15.17-.64,1.15-1.32,2.31-2,3.43l-1.32,2.27h0a79.1,79.1,0,0,1-4-8.66C32.21,129,31,123.34,33,118.18c.77-1.92,2.44-4.13,4.66-4.05s3.58,2.22,3.81,4.24c.26,2.22-.59,4.48-1.34,6.47a.49.49,0,0,0,.29.64.5.5,0,0,0,.63-.29c.79-2.1,1.68-4.48,1.4-6.93s-2.13-5-4.76-5.11-4.72,2.45-5.6,4.66c-2.17,5.46-.87,11.41.6,15.44A77.87,77.87,0,0,0,36.76,142l.3.59a52.08,52.08,0,0,0-3.18,6.55c-1.5,3.84-2.87,9.56-.88,15,.49,1.36,1.68,3.73,4,4.21a3.48,3.48,0,0,0,.79.09,5,5,0,0,0,3.77-1.92A8.94,8.94,0,0,0,43.29,162c.63-4.45-.34-9.28-3-15.2-.65-1.42-1.36-2.82-2.06-4.19.54-.95,1.09-1.89,1.63-2.82.66-1.13,1.34-2.29,2-3.45,3.35-6,5.12-10.79,5.73-15.53.8-6.06-2.6-11.88-5.82-16a16,16,0,0,0-1.41-1.55l.7-.55c.38-.31.76-.64,1.13-1l.75-.64,2.1,1.58a10.73,10.73,0,0,0,3.19,1.87A4,4,0,0,0,52,104a3.1,3.1,0,0,0,.94-2.66,4,4,0,0,0-1.86-3c-1.92-1.17-4.37-.67-6,.19a13.6,13.6,0,0,0-2.2,1.47l-6.63-5a18.51,18.51,0,0,0,4.1-2.4l.24-.19a7.59,7.59,0,0,0,.59.78,4.62,4.62,0,0,0,4.37,1.67,3.34,3.34,0,0,0,2.15-1.73,2.67,2.67,0,0,0,.12-2.27c-.7-1.6-2.8-2-4.35-1.5a8.45,8.45,0,0,0-2.58,1.55,17.31,17.31,0,0,1-.77-2.1,54.45,54.45,0,0,1-2.48-17.38s.05,0,.08,0c.78-.52,1.84-2.55,2.76-5.74a13.74,13.74,0,0,0,4.78.86,15.63,15.63,0,0,0,9.48-3.34,30.71,30.71,0,0,0,4-4,23.57,23.57,0,0,1,4.78-4.45,11.91,11.91,0,0,1,10.12-1.18.5.5,0,0,0,.63-.3v-.05a.49.49,0,0,0-.1-.63A18,18,0,0,0,65.63,48.72ZM28.3,95.43A5.7,5.7,0,0,1,24.48,94a2,2,0,0,1-.55-1.46,2,2,0,0,1,.76-1.42,3.33,3.33,0,0,1,2.13-.77l.32,0a9.18,9.18,0,0,1,4.27,2.18l2.79,2.11A17.65,17.65,0,0,1,28.3,95.43Zm2.28,11.69a8.93,8.93,0,0,1-4.57.33,3.56,3.56,0,0,1-2.74-2.92c-.1-1.82,1.78-3.27,3.56-3.86a10.76,10.76,0,0,1,3.35-.52,13.86,13.86,0,0,1,8.54,3.12A27.89,27.89,0,0,1,30.58,107.12Zm8.76,40.11c2.63,5.75,3.58,10.4,3,14.67a7.84,7.84,0,0,1-1.53,4,3.83,3.83,0,0,1-3.59,1.49c-1.85-.38-2.84-2.42-3.27-3.59-1.88-5.14-.56-10.61.87-14.29a48.43,48.43,0,0,1,2.81-5.86C38.2,144.84,38.79,146,39.34,147.23Zm6.17-47.9c1.41-.74,3.48-1.18,5.05-.22A3.13,3.13,0,0,1,52,101.42a2.14,2.14,0,0,1-.62,1.83,3,3,0,0,1-2.87.44A9.89,9.89,0,0,1,45.57,102l-1.9-1.44A12.16,12.16,0,0,1,45.51,99.33Zm-1.75-9.12c1.15-.39,2.68-.09,3.14,1a1.69,1.69,0,0,1-.1,1.43,2.29,2.29,0,0,1-1.49,1.22,3.65,3.65,0,0,1-3.41-1.35,8.26,8.26,0,0,1-.56-.76A8.17,8.17,0,0,1,43.76,90.21Zm12.5-42.68a.45.45,0,0,0-.11,0,.33.33,0,0,0-.24.55c-.24.35-.48.69-.73,1l-1.54.32a.32.32,0,1,0-.4.09c-1,.23-1.93.48-2.84.76a.22.22,0,0,0-.08-.15l-.27-.21a.38.38,0,0,0-.17-.08.3.3,0,0,0-.28-.18.33.33,0,0,0-.06.65l.05.07.14.11c-.26.08-.5.17-.75.26a.28.28,0,0,0-.24-.11.29.29,0,0,0-.27.15.27.27,0,0,0-.22-.1h-.06a.33.33,0,0,0-.29.46l-.76.31a.3.3,0,0,0-.3-.23h-.05a.33.33,0,0,0-.28.49l-.13.06a.32.32,0,0,0-.29-.44l-.08,0a.3.3,0,0,0-.3-.23.28.28,0,0,0-.13,0l1.63-2a.29.29,0,0,0-.05.14v.06a.33.33,0,0,0,.64.11l.08-.05.27-.21a.33.33,0,0,0,0-.47.34.34,0,0,0-.46,0l-.27.22s0,0,0,0l-.1.07,1.41-1.69a.32.32,0,0,0,.25.52.33.33,0,0,0,0-.66.29.29,0,0,0-.21.09L49.81,46a.29.29,0,0,0,.28.17.33.33,0,0,0,.11-.63l1.14-1.36,1.26-1.5a.3.3,0,0,0,.3.25.33.33,0,0,0,0-.65c2.66-3.17,5.3-6.34,7.53-9.12A29.11,29.11,0,0,1,56.26,47.53Zm-10.6,4.19h.05l.07,0a.33.33,0,0,0,.22.21l-.32.15a.28.28,0,0,0,0-.13v0A.31.31,0,0,0,45.66,51.72ZM59.54,32.78c-2.64,3.28-5.84,7.1-9,10.81C49,45.44,47.46,47.31,46,49.13a.32.32,0,0,0-.3-.44.33.33,0,0,0,0,.66.32.32,0,0,0,.14,0l-1.45,1.75a.29.29,0,0,0-.3-.25.32.32,0,0,0-.3.44.35.35,0,0,0,0,.53l-.35.42a.32.32,0,0,0-.27-.48.33.33,0,0,0-.25.53.29.29,0,0,0-.23-.1.3.3,0,0,0-.3.23h-.06c0-.57,0-1.14,0-1.73,0-.41,0-.82,0-1.23a.33.33,0,0,0,.31.15.34.34,0,0,0,.14.63h.06a.32.32,0,0,0,.31-.36h0a.33.33,0,0,0,0-.66.3.3,0,0,0-.22.09.33.33,0,0,0-.55-.31l0,0a.2.2,0,0,0,0,.08c0-.59-.08-1.19-.15-1.77a.35.35,0,0,0,.18,0,.3.3,0,0,0,.28-.18.3.3,0,0,0,.29-.31v-.16a.33.33,0,0,0-.66,0h0a.36.36,0,0,0-.14.1L42,46.14a.25.25,0,0,0,.13,0,.33.33,0,0,0,0-.65A35.38,35.38,0,0,1,59.54,32.78Zm-14.1,18.8a.32.32,0,0,0-.39.31v0a.16.16,0,0,0-.08-.06l.44-.54A.38.38,0,0,0,45.44,51.58Zm-.86.76a.32.32,0,0,0-.12.25v.1l-.32.18.44-.54Zm-1.26,0-.07.09s0,0,0,0Zm-.47.57-.16.2a.31.31,0,0,0-.3.22l0,.07,0,0-.08.05c0-.12,0-.23,0-.34l.13,0a.35.35,0,0,0,.35-.29h0A.39.39,0,0,0,42.85,52.89ZM42,57.25l.08.08-.08,0H42a.28.28,0,0,0,0-.09Zm1-16.48a.39.39,0,0,0,.18,0,.36.36,0,0,0,0,.42l-.1,0a.25.25,0,0,0-.13,0A.35.35,0,0,0,43,40.77Zm-14.09.86a.32.32,0,0,0,.07.64.3.3,0,0,0,.3-.26c.34.36.66.72,1,1.09a.33.33,0,0,0,.24.54.24.24,0,0,0,.18-.06l.44.55a.33.33,0,0,0,.12.63.29.29,0,0,0,.27-.15c.2.26.39.53.58.79a.33.33,0,0,0,.19.59l.11,0c0,.06,0,.12,0,.19a.33.33,0,0,0-.54.24v0a.32.32,0,0,0,.47.28,1.49,1.49,0,0,0,0,.21h0a.32.32,0,0,0-.06.64c0,.21-.05.41-.07.62a.29.29,0,0,0-.28-.18.33.33,0,0,0,0,.65.32.32,0,0,0,.25-.12c0,.17,0,.34,0,.51a.32.32,0,0,0-.52.25v0a.33.33,0,0,0,.5.27c0,.35,0,.69,0,1a.33.33,0,0,0-.44.48h0a.33.33,0,0,0,0,.66h0a.33.33,0,0,0,.23-.56.34.34,0,0,0,.21-.09c0,.16,0,.32,0,.48a.32.32,0,0,0,0,.64c0,.22,0,.44,0,.65h0a.3.3,0,0,0-.3.27,1.15,1.15,0,0,1-.14-.17h0a.33.33,0,0,0,0-.65.3.3,0,0,0-.31.27L31,52.25a.33.33,0,0,0-.23-.56.28.28,0,0,0-.18.06L30,51h0a.29.29,0,0,0,.25.12h0a.33.33,0,0,0,0-.65h0a.29.29,0,0,0-.14,0,.34.34,0,0,0-.54,0l-.09-.11a.33.33,0,0,0,0-.65.31.31,0,0,0-.31.27l-.42-.52h.06a.33.33,0,0,0,0-.65.3.3,0,0,0-.31.34l-.5-.6.1,0a.33.33,0,0,0,0-.65.31.31,0,0,0-.3.39L25,45.1a.26.26,0,0,0,.2.08h.08a.33.33,0,0,0,0-.66h-.08A.33.33,0,0,0,25,45c-.26-.3-.51-.61-.76-.91a.26.26,0,0,0,.2.08.33.33,0,1,0-.26-.14l-.39-.47c-3.11-3.71-6.32-7.53-9-10.81A35.83,35.83,0,0,1,28.92,41.63Zm1.9.6h0l.13,0a.3.3,0,0,0,.27.28.41.41,0,0,0,0,.19Zm.64.74h0v0Zm.75,0,.1,0v.39h0l0-.06,0,0A.4.4,0,0,0,32.21,42.94Zm.15,14.38,0,0,0,0Zm-.22-1.17a.29.29,0,0,0,.11-.06c0,.11,0,.22,0,.32l0-.06,0,0a.33.33,0,0,0-.56.25l-.13,0h0a.33.33,0,0,0,.14-.34.3.3,0,0,0,.21,0,.28.28,0,0,0,.13,0ZM32,53.57h.05v.07Zm.25,3.12a.19.19,0,0,1,0,.08l0,0A.08.08,0,0,0,32.29,56.69Zm-2.08-3.82-.05,0h0ZM13.88,33.2c2.68,3.33,5.95,7.23,9.13,11l1.34,1.6H24.3a.33.33,0,0,0,0,.66.31.31,0,0,0,.32-.33l.45.54a.33.33,0,0,0-.25.43.33.33,0,0,0-.15,0,.33.33,0,0,0,0,.65.32.32,0,0,0,.3-.44.33.33,0,0,0,.15,0,.3.3,0,0,0,.3-.22l1.89,2.27a.36.36,0,0,0-.06.19v0s0,.06,0,.09a.28.28,0,0,0-.24-.12.33.33,0,1,0,.3.22.35.35,0,0,0,.41.08l.84,1a.29.29,0,0,0-.17.28v0a.33.33,0,0,0,.59.19l.78,1a.33.33,0,0,0-.1.23l-.23-.12a.25.25,0,0,0,.06-.17v0a.32.32,0,0,0-.64-.07L28.48,52a.33.33,0,0,0-.24-.55.31.31,0,0,0-.31.29c-.57-.26-1.15-.5-1.74-.73a.4.4,0,0,0,0-.32h0a.33.33,0,0,0,0-.66.32.32,0,0,0-.3.45h0a.32.32,0,0,0-.32.33l-1-.36a.3.3,0,0,0,.1-.24v0a.33.33,0,0,0-.65,0v0s0,.05,0,.07c-1.17-.36-2.41-.69-3.72-1a.33.33,0,0,0-.2-.58h0a.33.33,0,0,0-.28.48l-.66-.13L19.1,49a.3.3,0,0,0,.22.09.33.33,0,1,0-.25-.13A28.33,28.33,0,0,1,13.88,33.2ZM32.79,64.92a.3.3,0,0,0-.28-.18.31.31,0,0,0-.32.34l-.65.14a.31.31,0,0,0-.31-.31.32.32,0,0,0-.31.41,12.15,12.15,0,0,1-1.81.13.31.31,0,0,0-.3-.41.31.31,0,0,0-.3.4l-.59,0a.31.31,0,0,0-.15-.21.33.33,0,0,0,0-.65.29.29,0,0,0-.29.2.31.31,0,0,0-.3-.22.33.33,0,0,0,0,.65.29.29,0,0,0,.29-.2.3.3,0,0,0,.13.18.31.31,0,0,0-.26.18A14.77,14.77,0,0,1,25.59,65a.32.32,0,0,0-.3-.42.29.29,0,0,0-.3.24,15.1,15.1,0,0,1-4.25-2.12l.09,0a.33.33,0,1,0-.26-.14l-.35-.25a30.51,30.51,0,0,1-3.88-3.83,24.69,24.69,0,0,0-5-4.63,13,13,0,0,0-8.88-1.78,17.86,17.86,0,0,1,6.41-2.39,26.56,26.56,0,0,1,9,.13c1,.17,1.9.36,2.8.56a.3.3,0,0,0-.07.2v0a.33.33,0,0,0,.65,0v0a.11.11,0,0,0,0-.06,34.2,34.2,0,0,1,6.83,2.36.33.33,0,0,0,.5.42l0,0a.49.49,0,0,0,.07-.11c.36.18.71.37,1.06.56a.32.32,0,0,0,.26.5.29.29,0,0,0,.29-.19c.29.17.57.35.85.53a.32.32,0,0,0,.29.45.28.28,0,0,0,.24-.11l.25.16a.43.43,0,0,0,0,.12.28.28,0,0,0-.24-.11.33.33,0,0,0-.21.57.31.31,0,0,0-.06.28c-.29-.11-.62.28-.35.54l0,0a.32.32,0,0,0,.23.1.33.33,0,0,0,.2.58h0a.33.33,0,0,0,0,.24h-.14a.33.33,0,0,0-.24.1.31.31,0,0,0-.3-.38.33.33,0,0,0,0,.65.29.29,0,0,0,.23-.1.32.32,0,0,0,.31.38h.05l.11,0a.31.31,0,0,0,.17.05A.29.29,0,0,0,32,58a.33.33,0,0,0,.47-.17c0,.17,0,.34,0,.5a.35.35,0,0,0-.12,0h-.13a.31.31,0,0,0-.61.09l-.05,0a.3.3,0,0,0-.3-.25h-.05a.33.33,0,0,0-.11.63.3.3,0,0,0,.35.25.33.33,0,0,0,.22.57.33.33,0,0,0,0-.65h0a.32.32,0,0,0,.09-.23h0a.26.26,0,0,0,.18.06H32a.33.33,0,0,0,0,.15V59a.33.33,0,0,0,.62.14c0,.11,0,.21.05.32a.32.32,0,0,0-.32-.13h-.07a.31.31,0,0,0-.3.39s0,0,0,0v0A.31.31,0,0,0,32,60a.34.34,0,0,0,.46.36h0l0,0a0,0,0,0,0,0,0,.32.32,0,0,0-.49.27v.05a.32.32,0,0,0,.07.2l0,0,0,.05-.07.09h0a.33.33,0,0,0-.23.56h0a.33.33,0,0,0-.13.63.34.34,0,0,0,.07.22l0,.06v.19a.3.3,0,0,0,.09.13.34.34,0,0,0-.15.46.33.33,0,0,0,.25.53.31.31,0,0,0,.24-.1.31.31,0,0,0,.31.36.29.29,0,0,0,.21-.09.33.33,0,0,0,.2.51.29.29,0,0,0,.28.17.3.3,0,0,0,.27-.16.27.27,0,0,0,.09.2Zm.4-.56a.3.3,0,0,0-.26-.27.27.27,0,0,0-.27-.17.31.31,0,0,0-.22.08.32.32,0,0,0-.25-.52.31.31,0,0,0-.24.1.29.29,0,0,0,0-.18.35.35,0,0,0,0-.37.71.71,0,0,0,.09.07l.09,0c.38.19.71-.37.33-.56l-.09,0a.33.33,0,0,0-.29,0s0,0,0-.05a.34.34,0,0,0-.19-.49.38.38,0,0,0-.09-.24h0a.3.3,0,0,0,.29-.2.3.3,0,0,0,.29-.08l0,0a.31.31,0,0,0,0-.44.25.25,0,0,0,.14-.16.33.33,0,0,0,.29,0c0,.13,0,.26.07.4a.31.31,0,0,0-.26.45.35.35,0,0,0-.18-.05.31.31,0,0,0-.31.35.33.33,0,0,0,.27.49.32.32,0,0,0,.32-.35.35.35,0,0,0,0-.3.32.32,0,0,0,.18,0H33c0,.19.07.37.11.55a.35.35,0,0,0-.18-.06.34.34,0,0,0-.15.63.33.33,0,0,0,.09.23.34.34,0,0,0-.15.45l0,0a.26.26,0,0,0,.32.15.33.33,0,0,0,.19.39A.26.26,0,0,0,33.19,64.36Zm-.54-19.87h0v0Zm.66,18.86-.05-.06s0,0,0,0l0,.13Zm0,.3a.28.28,0,0,0,0-.09l0,.08Zm3.35,6.28-.09-.13.1-.06A1.28,1.28,0,0,0,36.7,69.93Zm.06-.92a.29.29,0,0,0-.19.08h0a.48.48,0,0,0-.14.05l-.13.08c-.08-.17-.17-.34-.26-.54a.35.35,0,0,0,.18,0,.29.29,0,0,0,.29-.19.32.32,0,0,0,.14,0h.06l.08,0C36.77,68.71,36.77,68.86,36.76,69ZM36.82,68l-.12,0h-.06a.3.3,0,0,0-.22.09s0,0,0-.09v-.05a.31.31,0,0,0-.42-.3.42.42,0,0,0,.14-.09.32.32,0,0,0,.28-.28.29.29,0,0,0,.21.08.32.32,0,0,0,.23-.09C36.86,67.45,36.84,67.7,36.82,68ZM37,65.56a.21.21,0,0,0-.08-.11l0-.06a.3.3,0,0,0-.17-.08.38.38,0,0,0,0-.36.33.33,0,0,0-.15-.62.32.32,0,0,0-.25.52.33.33,0,0,0,.09.61.31.31,0,0,0,0,.4l0,0a.32.32,0,0,0,.53-.12c0,.32,0,.66,0,1a.32.32,0,0,0-.26-.13.29.29,0,0,0-.3.26.35.35,0,0,0-.49,0,.31.31,0,0,0-.29.31v.06a.32.32,0,0,0,.41.3.29.29,0,0,0-.19.29v.05a.28.28,0,0,0,.18.28.64.64,0,0,0-.06.18c-.18-.42-.36-.89-.55-1.43a.32.32,0,0,0-.05-.64.24.24,0,0,0-.15,0c-.12-.39-.25-.8-.37-1.23a.33.33,0,1,0,.2-.58.3.3,0,0,0-.3.22A55.14,55.14,0,0,1,33,50.67a25,25,0,0,1,3.69-13.55A258.2,258.2,0,0,1,37,65.56Zm.32-30.37a.38.38,0,0,0-.21,0,.47.47,0,0,0-.31.14h-.09a.33.33,0,0,0-.26.52l-.45.66a.31.31,0,0,0-.29-.19.25.25,0,0,0-.16,0,.31.31,0,0,0-.31-.25.33.33,0,0,0,0,.65.31.31,0,0,0,.17,0,.3.3,0,0,0,.28.25c-.06.09-.11.19-.16.28a.38.38,0,0,0-.21-.13A.3.3,0,0,0,35,37l-.13,0a.32.32,0,0,0-.28-.46.33.33,0,0,0,0,.65l.12,0a.32.32,0,0,0,.24.45.29.29,0,0,0,.22.12c-.15.28-.31.54-.45.82a.38.38,0,0,0-.08-.11l0,0a.32.32,0,0,0-.46,0,.3.3,0,0,0-.24-.1.33.33,0,0,0,0,.65.31.31,0,0,0,.24-.1h0l0,0a.28.28,0,0,0,.34.07c-.09.18-.16.37-.24.55a.29.29,0,0,0-.19-.06.31.31,0,0,0-.27.15l-.05,0a.33.33,0,0,0-.21-.57.3.3,0,0,0-.22.09.3.3,0,0,0-.31-.27.31.31,0,0,0-.31.32.29.29,0,0,0-.22-.08.31.31,0,0,0-.31.29.33.33,0,0,0,.14.63.31.31,0,0,0,.31-.29.32.32,0,0,0,.18-.3.29.29,0,0,0,.21.09.3.3,0,0,0,.22-.09.3.3,0,0,0,.23.25.32.32,0,0,0,0,.48l.08.08a.3.3,0,0,0,.42,0c-.1.26-.19.53-.29.79a.26.26,0,0,0-.16-.2.33.33,0,1,0-.36,0,.31.31,0,0,0-.11.25v0a.29.29,0,0,0,0,.09.29.29,0,0,0-.19-.07.33.33,0,0,0,0,.65.32.32,0,0,0,.3-.42.35.35,0,0,0,.37,0c0,.14-.09.27-.14.41l-.12,0a.32.32,0,0,0-.09.63l0,.13a.29.29,0,0,0-.29-.21.27.27,0,0,0-.25.13l-.05,0a.32.32,0,0,0-.06-.64h0a.33.33,0,0,0-.19.58h0a.32.32,0,0,0-.51-.09l0,0-.05.06h-.1a.32.32,0,0,0-.27-.5.28.28,0,0,0-.13,0,.3.3,0,0,0-.31-.29h0a.3.3,0,0,0-.31.3c-.1-.12-.21-.23-.31-.34l.1,0a.33.33,0,0,0,.26-.51h.07a.32.32,0,0,0,.31-.41.32.32,0,0,0,.42-.3v0a.33.33,0,0,0-.63-.12.33.33,0,0,0-.16-.41.35.35,0,0,0,.15-.36.3.3,0,0,0,.31.28.33.33,0,0,0,0-.65.31.31,0,0,0-.31.36.3.3,0,0,0-.31-.24h0a.27.27,0,0,0-.25.13.31.31,0,0,0-.17-.05.32.32,0,0,0-.3.43.33.33,0,0,0-.63.14v0a.33.33,0,0,0,.66,0v0a.35.35,0,0,0,0-.12.3.3,0,0,0,.3.2.3.3,0,0,0,.25-.13l.05,0a.33.33,0,0,0,.17.6.3.3,0,0,0,.3-.21.27.27,0,0,0,0,.12v0a.24.24,0,0,0,0,.08l-.09,0a.33.33,0,0,0-.26.51H30.3a.32.32,0,0,0-.31.42l-.36-.39a.45.45,0,0,0,0-.28.28.28,0,0,0,.25.14.33.33,0,0,0,0-.66.31.31,0,0,0-.29.43.3.3,0,0,0-.26-.13.35.35,0,0,0-.18.05l-.59-.57.12,0a.33.33,0,1,0-.28-.18c-.67-.63-1.37-1.23-2.09-1.81a.31.31,0,0,0,.22-.35h0a.31.31,0,0,0,.3.38.29.29,0,0,0,.19-.06l0,.06-.06.15a.32.32,0,0,0,.23.4.34.34,0,0,0,.4-.23l.06-.15a.32.32,0,0,0-.23-.4.28.28,0,0,0-.28.07.32.32,0,0,0-.28-.49l-.09,0a.31.31,0,0,0-.08-.28L26.66,37a.31.31,0,0,0-.41,0l.15-.69a.29.29,0,0,0,.29.2.33.33,0,0,0,.15,0,.33.33,0,0,0,.65-.06v0a.33.33,0,0,0-.5-.28.29.29,0,0,0-.3-.26.33.33,0,0,0-.21.08c.05-.23.13-.46.19-.69a.3.3,0,0,0,.31.33.33.33,0,0,0,0-.66.31.31,0,0,0-.31.32,26.42,26.42,0,0,1,2.56-6.33.3.3,0,0,0,.3.24h0a.33.33,0,0,0,0-.65h-.11a25.88,25.88,0,0,1,6.13-7.09,2.54,2.54,0,0,1,3.16,0A25.82,25.82,0,0,1,45.2,29a.35.35,0,0,0,.14.25,26.38,26.38,0,0,1,1.56,3.42.32.32,0,0,0,.05.64.25.25,0,0,0,.16-.05c0,.1.07.2.1.3a.33.33,0,0,0,0,.66.29.29,0,0,0,.19-.07c.05.15.09.3.13.44a.33.33,0,0,0,.16.59c.06.22.11.44.17.66a.3.3,0,0,0-.3.31v0a.32.32,0,0,0,.44.3c0,.23.09.47.13.71a.3.3,0,0,0-.27-.17.33.33,0,0,0,0,.66.31.31,0,0,0,.31-.28v.05a.36.36,0,0,0,0,.37L48,38a.28.28,0,0,0-.29-.19.36.36,0,0,0-.19.06.32.32,0,0,0-.28-.47.33.33,0,0,0,0,.65A.36.36,0,0,0,47.4,38a.34.34,0,0,0,.09.4l-.21.17,0,0c.13-.41-.5-.58-.64-.18l0,.09a.3.3,0,0,0,0,.25.36.36,0,0,0,0,.4l-.49.43a.15.15,0,0,0-.05-.07.33.33,0,0,0-.26-.52.33.33,0,0,0-.16.61.35.35,0,0,0,0,.4l-.23.22a.31.31,0,0,0-.3-.41h-.06l-.08,0a.36.36,0,0,0,0-.25.43.43,0,0,0,.16-.09l0,0c.3-.3-.17-.76-.47-.46l0,0a.31.31,0,0,0,0,.39.33.33,0,0,0,.07.64l.08,0a.32.32,0,0,0,.3.43h.12l-.39.37a.29.29,0,0,0-.17,0h0a.33.33,0,0,0-.25.53l-.36.38a.3.3,0,0,0-.3-.24.32.32,0,0,0-.25.52.2.2,0,0,0-.09.06.31.31,0,0,0-.17-.15.35.35,0,0,0,.07-.46l.09,0a.32.32,0,0,0,.3-.42.31.31,0,0,0,.3.2h0a.33.33,0,0,0,.24-.54l.09,0a.33.33,0,0,0,0-.65.3.3,0,0,0-.31.27.32.32,0,0,0-.31-.39h0a.32.32,0,0,0-.3.45.39.39,0,0,0-.26-.15.33.33,0,1,0-.21.06.24.24,0,0,0-.08.09l0,0a.3.3,0,0,0,0,.35.27.27,0,0,0-.12,0,.33.33,0,0,0,0,.66.28.28,0,0,0,.18-.06.33.33,0,0,0,0,.6.34.34,0,0,0-.09.42.29.29,0,0,0-.19-.06.32.32,0,0,0-.27.5l-.11,0a.31.31,0,0,0-.3-.41H42a.29.29,0,0,0-.3-.22.32.32,0,0,0-.3.41.28.28,0,0,0-.17.11c-.1-.36-.23-.72-.35-1.08a.3.3,0,0,0,.24-.33.32.32,0,0,0,.3-.17.31.31,0,0,0,.1.05.29.29,0,0,0-.07.27.32.32,0,0,0-.43.3v.09a.33.33,0,0,0,.66,0v-.09s0,0,0,0h.09a.28.28,0,0,0,.22-.09.28.28,0,0,0,.08.11.33.33,0,0,0,.17.6h0a.3.3,0,0,0,.18,0,.33.33,0,0,0,.44-.3v0a.32.32,0,0,0-.35-.32.32.32,0,0,0-.18-.46.36.36,0,0,0,0-.43.29.29,0,0,0,.22-.09h0a.33.33,0,0,0-.46-.47v0a.3.3,0,0,0,0,.43.29.29,0,0,0-.19.07.32.32,0,0,0-.14-.16.33.33,0,0,0-.08-.64.32.32,0,0,0-.18.06.31.31,0,0,0-.32-.29.28.28,0,0,0-.24.11.31.31,0,0,0-.31-.29.33.33,0,0,0,0,.66.28.28,0,0,0,.24-.12.31.31,0,0,0,.31.29.36.36,0,0,0,.19-.06.32.32,0,0,0,.15.25.28.28,0,0,0-.23.19.42.42,0,0,0-.31,0,.32.32,0,0,0-.29-.44.28.28,0,0,0-.27.16c-.11-.27-.24-.53-.36-.79h0a.33.33,0,0,0,0-.66.3.3,0,0,0-.25.12,21.2,21.2,0,0,0-2.16-3.6A.46.46,0,0,0,37.27,35.19Zm6.21,5.19a.29.29,0,0,0,.25.12h0a.3.3,0,0,0,.31-.24.35.35,0,0,0,.06.24H44a.31.31,0,0,0-.3.41.31.31,0,0,0-.3-.2h0l0-.06v0A.33.33,0,0,0,43.48,40.38ZM42,58.57a.22.22,0,0,0,.1.09v0l-.12,0a.24.24,0,0,0-.09,0c0-.1,0-.21,0-.32A.28.28,0,0,0,42,58.57Zm-.18.71,0,0v-.05S41.76,59.28,41.77,59.28Zm-1-18.36a.27.27,0,0,0-.12,0l-.06-.17.1,0,.1,0a.3.3,0,0,0,0,.1v0Zm-3.08,29c0-.23,0-.46,0-.68a.38.38,0,0,0,.21.07l0,0h0C37.9,69.52,37.79,69.71,37.68,69.88Zm1.21-2.62a.31.31,0,0,0-.22.3v0a.58.58,0,0,0,0,.14c0,.12-.09.23-.13.34a.33.33,0,0,0-.55-.18L38,68c-.3.29.15.75.45.47l-.12.28-.1,0-.06,0a.37.37,0,0,0-.38,0c0-.26,0-.51.05-.77l.12,0a.33.33,0,0,0,0-.65h-.08c0-.18,0-.36,0-.55l.18.19.11.07a.31.31,0,0,0,.29.18.33.33,0,0,0,.13-.63.47.47,0,0,0-.06-.09l0,0a.3.3,0,0,0,.18.06.35.35,0,0,0,.1.24.29.29,0,0,0,.3.07Zm1.61-6.94h.1a43.73,43.73,0,0,1-1.21,5.43.3.3,0,0,0-.24.17L39,66l0,0a.33.33,0,0,0-.65,0v.06a.35.35,0,0,0,.06.18l-.09-.09a.29.29,0,0,0-.41,0,261.47,261.47,0,0,0-.24-29,25,25,0,0,1,3.67,13.52c0,1.71-.07,3.32-.18,4.83h-.07a.33.33,0,0,0,0,.65h0c-.11,1.26-.25,2.45-.42,3.56a.28.28,0,0,0-.13,0H40.5A.33.33,0,0,0,40.5,60.32Zm1.18,1.88a.4.4,0,0,0,0,.22.58.58,0,0,0-.14,0h0a.29.29,0,0,0-.19.07.26.26,0,0,0-.1-.11c0-.1.05-.2.07-.3A.34.34,0,0,0,41.68,62.2Zm-.9,2.17v0A0,0,0,0,0,40.78,64.37Zm.1-.43.06-.21a.21.21,0,0,0,.09.15A.34.34,0,0,0,40.88,63.94Zm.33.86h0s0,0,0,0Zm.73.22-.31-.08a.3.3,0,0,0,.26-.16l.1,0a.24.24,0,0,0,.15,0,.16.16,0,0,0,.09,0A.3.3,0,0,0,41.94,65ZM63,53.86a25,25,0,0,0-5,4.63c-.87,1-1.76,2-2.73,2.85l0,0,.05-.1c.19-.37-.38-.7-.57-.33l0,.1a.34.34,0,0,0,.43.46c-.34.3-.68.6-1,.87l-.42.31a.31.31,0,0,0-.17-.05.32.32,0,0,0-.31.38,9.61,9.61,0,0,1-.87.53.29.29,0,0,0-.22-.08h0a.32.32,0,0,0-.31.39,14.4,14.4,0,0,1-5.09,1.58.32.32,0,0,0-.3-.42.32.32,0,0,0-.29.46l-.46,0a.29.29,0,0,0,.06-.19v0a.33.33,0,0,0-.65,0v0a.36.36,0,0,0,.06.19,10.48,10.48,0,0,1-1.25-.07.28.28,0,0,0,.05-.16v0a.33.33,0,0,0-.66,0v0a.29.29,0,0,0,0,.09l-.58-.11a.33.33,0,0,0,0-.62.31.31,0,0,0-.3-.39.38.38,0,0,0-.16,0,.31.31,0,0,0-.48.08l-.1,0h-.14a.2.2,0,0,0-.11,0,.37.37,0,0,0-.1-.36.29.29,0,0,0,.28-.2.35.35,0,0,0,.56,0h.06a.33.33,0,0,0,0-.66h-.05a.34.34,0,0,0-.24.11.32.32,0,0,0-.33.17.32.32,0,0,0-.3-.42.38.38,0,0,0-.16,0l0-.09a.29.29,0,0,0,.14,0,.3.3,0,0,0,.27.16h0a.32.32,0,0,0,.27-.49.57.57,0,0,0,.15,0h.08a.33.33,0,1,0,.3-.18.29.29,0,0,0,.17-.28.31.31,0,0,0,.23.1.26.26,0,0,0,.2-.08.31.31,0,0,0,.31.26.31.31,0,0,0,.32-.33.28.28,0,0,0,.19-.09l0,0a.33.33,0,0,0-.46-.47l0,.05a.29.29,0,0,0-.09.24.34.34,0,0,0-.15.06.31.31,0,0,0-.31-.26.3.3,0,0,0-.31.3.34.34,0,0,0-.53.06.33.33,0,0,0-.54-.31l0,0c0-.13.05-.27.07-.4a.33.33,0,0,0,.61-.16V61a.29.29,0,0,0-.08-.21.33.33,0,0,0-.26-.52.29.29,0,0,0-.11,0c0-.16,0-.33.07-.49,0,0,0,0,0,0a.28.28,0,0,0,0,.18.34.34,0,0,0,.3.24.31.31,0,0,0,.29.36.35.35,0,0,0,.15.26.3.3,0,0,0,.31.29.34.34,0,0,0,.17-.61.31.31,0,0,0-.29-.28.32.32,0,0,0-.1-.22l.08-.08a.31.31,0,0,0,.25-.26.32.32,0,0,0-.07-.64h0a.36.36,0,0,0-.12-.08h0a.24.24,0,0,0,.06-.18v0a.28.28,0,0,0-.18-.28.38.38,0,0,0-.08-.34.29.29,0,0,0-.25-.12.31.31,0,0,0-.29.19l0-.25L42,58a.3.3,0,0,0,.3-.21.31.31,0,0,0,.3.39.31.31,0,0,0,.32-.32v.07a.33.33,0,0,0,.65,0v-.07a.33.33,0,0,0-.65,0,.31.31,0,0,0-.32-.33h0A.32.32,0,0,0,42.7,57l-.08-.08a.33.33,0,0,0,.44-.26.32.32,0,0,0,.5.07l.09-.09a.33.33,0,0,0-.46-.46l-.09.09a.28.28,0,0,0-.08.12.33.33,0,0,0-.61.17v.07a.28.28,0,0,0,0,.13h0a.31.31,0,0,0-.36-.16c0-.17,0-.35,0-.53a.29.29,0,0,0,.29.22.32.32,0,0,0,.31-.36.31.31,0,0,0,.36-.31v-.06a.51.51,0,0,0,0-.13.33.33,0,0,0,.57-.22v0l.07,0h.07a.33.33,0,0,0,0-.66h-.07a.31.31,0,0,0-.31.32.32.32,0,0,0-.42.3v0a.28.28,0,0,0,0,.13.25.25,0,0,0-.12-.07.28.28,0,0,0-.18-.06.29.29,0,0,0-.17.05.36.36,0,0,0-.36.09.28.28,0,0,0,0-.09l0,0h0c.56-.39,1.13-.75,1.72-1.1a.33.33,0,0,0,.64-.07v0a.3.3,0,0,0-.08-.2l.78-.43a.31.31,0,0,0,.31.36.33.33,0,0,0,.17-.6,35.87,35.87,0,0,1,8.93-3,.32.32,0,0,0,.32.33A.32.32,0,0,0,55.3,50l1.16-.22a26.56,26.56,0,0,1,9-.13,17.86,17.86,0,0,1,6.41,2.39A13,13,0,0,0,63,53.86Z"/><path d="M30.06,56.24v-.05a.33.33,0,0,0-.65,0v.05A.33.33,0,0,0,30.06,56.24Z"/><path d="M29.65,58.22a.33.33,0,0,0,0-.65A.33.33,0,0,0,29.65,58.22Z"/><path d="M30.61,55.74a.33.33,0,0,0,0,.65A.33.33,0,0,0,30.61,55.74Z"/><path d="M30.39,55a.33.33,0,0,0,0-.66A.33.33,0,0,0,30.39,55Z"/><path d="M30.47,59.74a.33.33,0,0,0,0-.65A.33.33,0,0,0,30.47,59.74Z"/><path d="M30,57v0a.33.33,0,0,0,.65,0v0A.33.33,0,0,0,30,57Z"/><path d="M30.21,58.7a.33.33,0,0,0,0-.66A.33.33,0,0,0,30.21,58.7Z"/><path d="M29.13,60.35a.29.29,0,0,0-.19-.07.33.33,0,1,0,.25.14.3.3,0,0,0,.2.07h0a.33.33,0,0,0,0-.66h0A.33.33,0,0,0,29.13,60.35Z"/><path d="M30.69,60.79a.33.33,0,0,0,0,.65A.33.33,0,0,0,30.69,60.79Z"/><path d="M31.08,60.12v0a.3.3,0,0,0,.28.31.33.33,0,1,0,.21,0,.28.28,0,0,0,.16-.27v0a.3.3,0,0,0-.23-.3.32.32,0,0,0-.32-.32A.33.33,0,0,0,31.08,60.12Z"/><path d="M30,61.08v0a.33.33,0,0,0-.66,0v0A.33.33,0,0,0,30,61.08Z"/><path d="M29.55,61.76a.33.33,0,0,0,0,.65A.33.33,0,0,0,29.55,61.76Z"/><path d="M30.8,62.05l-.05,0a.31.31,0,0,0-.23,0,.31.31,0,0,0,0-.44l0,0A.33.33,0,0,0,30,62l0,0a.29.29,0,0,0,.3.07.3.3,0,0,0,.07.49l0,0C30.85,62.8,31.18,62.24,30.8,62.05Z"/><path d="M31.94,64.17a.33.33,0,0,0,0,.66A.33.33,0,0,0,31.94,64.17Z"/><path d="M31,63.88a.33.33,0,0,0,0,.65A.33.33,0,0,0,31,63.88Z"/><path d="M30.19,62.92a.33.33,0,0,0,0,.65A.33.33,0,0,0,30.19,62.92Z"/><path d="M29.41,63.07v0a.33.33,0,0,0-.65,0v0A.33.33,0,0,0,29.41,63.07Z"/><path d="M27.7,63.56v0a.33.33,0,0,0,.65,0v0A.33.33,0,0,0,27.7,63.56Z"/><path d="M28.71,64.12a.33.33,0,0,0,0,.66A.33.33,0,0,0,28.71,64.12Z"/><path d="M29.26,64.14a.33.33,0,0,0,0-.66A.33.33,0,0,0,29.26,64.14Z"/><path d="M29.33,64.49a.33.33,0,0,0,0,.66A.33.33,0,0,0,29.33,64.49Z"/><path d="M30.36,64.54a.33.33,0,0,0,0,.66A.33.33,0,0,0,30.36,64.54Z"/><path d="M28.29,61.59a.33.33,0,0,0,.65,0v0a.33.33,0,0,0-.65,0Z"/><path d="M28.44,62.78a.33.33,0,0,0,0-.65A.33.33,0,0,0,28.44,62.78Z"/><path d="M26.94,62.28h0a.33.33,0,0,0,0,.65h0A.33.33,0,0,0,26.94,62.28Z"/><path d="M26.91,63.41a.33.33,0,0,0,0,.65A.33.33,0,0,0,26.91,63.41Z"/><path d="M27.78,61.09a.33.33,0,0,0,0,.66A.33.33,0,0,0,27.78,61.09Z"/><path d="M26.18,61.59a.33.33,0,0,0,0,.65A.33.33,0,0,0,26.18,61.59Z"/><path d="M25.73,62.77a.33.33,0,0,0,0,.65A.33.33,0,0,0,25.73,62.77Z"/><path d="M25.93,63.75a.33.33,0,0,0,0,.66A.33.33,0,0,0,25.93,63.75Z"/><path d="M24.7,63.53a.33.33,0,0,0,0,.66A.33.33,0,0,0,24.7,63.53Z"/><path d="M26.59,60.6a.33.33,0,0,0,0,.66A.33.33,0,0,0,26.59,60.6Z"/><path d="M27.26,59.15a.33.33,0,0,0,0,.65A.33.33,0,0,0,27.26,59.15Z"/><path d="M28,60.76a.33.33,0,0,0,0-.65A.33.33,0,0,0,28,60.76Z"/><path d="M28.69,59.9h0a.33.33,0,0,0,0-.65h0A.33.33,0,0,0,28.69,59.9Z"/><path d="M28.74,59.16a.33.33,0,0,0,0-.65A.33.33,0,0,0,28.74,59.16Z"/><path d="M29.63,59.26h0a.33.33,0,0,0,0-.66h0A.33.33,0,0,0,29.63,59.26Z"/><path d="M28.15,57.57a.33.33,0,0,0,0,.66A.33.33,0,0,0,28.15,57.57Z"/><path d="M27.09,57.62a.33.33,0,0,0,0,.65A.33.33,0,0,0,27.09,57.62Z"/><path d="M27.58,56.24a.28.28,0,0,0-.28.18.36.36,0,0,0-.19-.06.33.33,0,0,0,0,.66.3.3,0,0,0,.29-.19.26.26,0,0,0,.18.06A.33.33,0,0,0,27.58,56.24Z"/><path d="M28.57,56.65a.33.33,0,0,0,0-.66A.33.33,0,0,0,28.57,56.65Z"/><path d="M28.53,57.16v.1a.33.33,0,0,0,.66,0v-.1A.33.33,0,0,0,28.53,57.16Z"/><path d="M29.21,55.05a.33.33,0,0,0,0-.66A.33.33,0,0,0,29.21,55.05Z"/><path d="M27.85,54.75a.33.33,0,0,0,0-.65A.33.33,0,0,0,27.85,54.75Z"/><path d="M28,55c-.29.29.17.76.47.46l0,0c.3-.29-.16-.76-.46-.46Z"/><path d="M26.52,55.56a.33.33,0,0,0,0-.65A.33.33,0,0,0,26.52,55.56Z"/><path d="M29,54.09a.33.33,0,0,0,0-.66A.33.33,0,0,0,29,54.09Z"/><path d="M26.36,59.79v-.07a.33.33,0,0,0-.66,0v.07A.33.33,0,0,0,26.36,59.79Z"/><path d="M26.4,58.46a.33.33,0,0,0-.65,0v0a.33.33,0,0,0,.65,0Z"/><path d="M28.13,58.51v0a.33.33,0,0,0-.66,0v0A.33.33,0,0,0,28.13,58.51Z"/><path d="M25.1,59.11v0a.33.33,0,0,0-.66,0v0a.29.29,0,0,0,.09.21.3.3,0,0,0-.2-.07.33.33,0,1,0,.24.11A.33.33,0,0,0,25.1,59.11Z"/><path d="M22.41,60.91a.33.33,0,0,0,0-.65A.33.33,0,0,0,22.41,60.91Z"/><path d="M23.22,61.93a.33.33,0,0,0,0,.66A.33.33,0,0,0,23.22,61.93Z"/><path d="M24.13,60.75a.33.33,0,0,0,0,.65A.33.33,0,0,0,24.13,60.75Z"/><path d="M25.14,61.19h0a.33.33,0,0,0,0,.66h0A.33.33,0,0,0,25.14,61.19Z"/><path d="M25.51,60.57a.33.33,0,0,0,0-.66A.33.33,0,0,0,25.51,60.57Z"/><path d="M21.32,61.14a.33.33,0,0,0,0,.66A.33.33,0,0,0,21.32,61.14Z"/><path d="M19.84,60.23a.33.33,0,0,0,0,.66A.33.33,0,0,0,19.84,60.23Z"/><path d="M22.08,63.17v0a.33.33,0,0,0,.65,0v0A.33.33,0,0,0,22.08,63.17Z"/><path d="M23.51,63.56a.33.33,0,0,0,0,.65A.33.33,0,0,0,23.51,63.56Z"/><path d="M22,61.54a.33.33,0,0,0,0,.65A.33.33,0,0,0,22,61.54Z"/><path d="M24.45,62.7h.05a.33.33,0,1,0-.17-.05h0a.33.33,0,0,0,0,.65A.33.33,0,0,0,24.45,62.7Z"/><path d="M23.27,59.36a.33.33,0,0,0,0-.66h0a.33.33,0,0,0,0,.66Z"/><path d="M21,59.41a.33.33,0,0,0,0-.66A.33.33,0,0,0,21,59.41Z"/><path d="M21,60.06a.33.33,0,0,0,0,.65A.33.33,0,0,0,21,60.06Z"/><path d="M19.7,58.56a.33.33,0,0,0,0,.65A.33.33,0,0,0,19.7,58.56Z"/><path d="M17.74,59v0a.33.33,0,0,0,.66,0v0A.33.33,0,0,0,17.74,59Z"/><path d="M18.54,57a.33.33,0,0,0,0,.65A.33.33,0,0,0,18.54,57Z"/><path d="M19.84,57a.33.33,0,0,0,0-.65A.33.33,0,0,0,19.84,57Z"/><path d="M21.79,57.35a.33.33,0,0,0,0,.65A.33.33,0,0,0,21.79,57.35Z"/><path d="M20.39,57.62a.33.33,0,0,0,0,.65A.33.33,0,0,0,20.39,57.62Z"/><path d="M21.74,56.45a.33.33,0,0,0,0-.65A.33.33,0,0,0,21.74,56.45Z"/><path d="M21.05,55.17a.33.33,0,0,0,0-.66A.33.33,0,0,0,21.05,55.17Z"/><path d="M22.6,54.68a.33.33,0,0,0,0-.66A.33.33,0,0,0,22.6,54.68Z"/><path d="M24,55a.33.33,0,0,0,0,.65A.33.33,0,0,0,24,55Z"/><path d="M23.45,56.69v0a.33.33,0,0,0-.66,0v0A.33.33,0,0,0,23.45,56.69Z"/><path d="M24.33,57.33a.33.33,0,0,0-.21.55l0,0c.29.3.76-.17.46-.47h0a.33.33,0,0,0,0-.65A.33.33,0,0,0,24.33,57.33Z"/><path d="M25.93,57.22a.33.33,0,0,0,0-.66A.33.33,0,0,0,25.93,57.22Z"/><path d="M24.82,54.9a.33.33,0,0,0,0-.66A.33.33,0,0,0,24.82,54.9Z"/><path d="M24.06,53.2a.33.33,0,0,0,0-.66A.33.33,0,0,0,24.06,53.2Z"/><path d="M22.8,53a.33.33,0,0,0,0-.66A.33.33,0,0,0,22.8,53Z"/><path d="M23.61,54.21a.33.33,0,0,0,0-.66A.33.33,0,0,0,23.61,54.21Z"/><path d="M25.36,53.41a.33.33,0,0,0,0,.65A.33.33,0,0,0,25.36,53.41Z"/><path d="M25.31,52.48a.33.33,0,0,0,0-.65A.33.33,0,0,0,25.31,52.48Z"/><path d="M26.74,53.1a.33.33,0,0,0,0-.65A.33.33,0,0,0,26.74,53.1Z"/><path d="M26.72,54.28a.33.33,0,0,0,0-.65A.33.33,0,0,0,26.72,54.28Z"/><path d="M25.17,55.5a.33.33,0,0,0,0,.66A.33.33,0,0,0,25.17,55.5Z"/><path d="M25.49,58.42a.33.33,0,0,0,0-.65A.33.33,0,0,0,25.49,58.42Z"/><path d="M23.56,58a.33.33,0,0,0,0,.65A.33.33,0,0,0,23.56,58Z"/><path d="M23.39,60.91a.33.33,0,0,0,0-.65A.33.33,0,0,0,23.39,60.91Z"/><path d="M30.54,60.08a.33.33,0,0,0,0,.66h0a.33.33,0,0,0,0-.66Z"/><path d="M29.7,55.37c.14.4.77.23.64-.17l0-.08c-.13-.39-.77-.22-.63.18Z"/><path d="M31,55.61A.33.33,0,0,0,31,55,.33.33,0,0,0,31,55.61Z"/><path d="M31,62.79a.33.33,0,0,0,0,.66A.33.33,0,0,0,31,62.79Z"/><path d="M30.42,64.06V64a.33.33,0,0,0-.65,0v.08A.33.33,0,0,0,30.42,64.06Z"/><path d="M25.12,50.34a.32.32,0,0,0,.3-.44.33.33,0,0,0,.59-.19v0a.33.33,0,0,0-.66,0v0a.24.24,0,0,0,0,.09.29.29,0,0,0-.25-.12A.33.33,0,0,0,25.12,50.34Z"/><path d="M27.49,51.15a.38.38,0,0,0,.16,0,.33.33,0,0,0,0-.65l-.12,0a.33.33,0,0,0-.51.27v0A.33.33,0,0,0,27.49,51.15Z"/><path d="M26.43,49.46l0,0c.3-.3-.17-.76-.47-.46l0,0C25.67,49.29,26.13,49.76,26.43,49.46Z"/><path d="M31.07,50.09a.33.33,0,0,0-.16.61.33.33,0,1,0,.24,0A.33.33,0,0,0,31.07,50.09Z"/><path d="M31.7,50.56a.33.33,0,0,0,0-.66A.33.33,0,0,0,31.7,50.56Z"/><path d="M31.07,49a.33.33,0,0,0-.27.5.3.3,0,0,0-.22.25.31.31,0,0,0-.29-.19h0a.33.33,0,0,0,0,.66h0a.3.3,0,0,0,.3-.27.3.3,0,0,0,.29.19A1,1,0,0,0,31.07,49Z"/><path d="M30,49.11a.33.33,0,1,0-.3-.23l-.11,0a.33.33,0,0,0,0,.66.32.32,0,0,0,.3-.43Z"/><path d="M28.91,48.12a.33.33,0,0,0,0,.65A.33.33,0,0,0,28.91,48.12Z"/><path d="M23.11,49.31a.33.33,0,0,0,0,.65A.33.33,0,0,0,23.11,49.31Z"/><path d="M23.15,48.42a.29.29,0,0,0-.19.06.28.28,0,0,0-.29-.21h0a.33.33,0,0,0,0,.65h0a.26.26,0,0,0,.18-.06.3.3,0,0,0,.3.21A.33.33,0,0,0,23.15,48.42Z"/><path d="M24.08,49.12a.33.33,0,0,0,0,.66A.33.33,0,0,0,24.08,49.12Z"/><path d="M24.75,49.29h0a.33.33,0,0,0,0-.65h0A.33.33,0,0,0,24.75,49.29Z"/><path d="M25.53,48.63a.33.33,0,0,0,0-.66A.33.33,0,0,0,25.53,48.63Z"/><path d="M28.06,47.08a.33.33,0,0,0,0,.65A.33.33,0,0,0,28.06,47.08Z"/><path d="M28.91,47.7a.29.29,0,0,0,.19-.07.32.32,0,0,0,.3.44h0a.33.33,0,0,0,0-.66h0a.29.29,0,0,0-.19.07.32.32,0,0,0-.3-.44A.33.33,0,0,0,28.91,47.7Z"/><path d="M29.8,46.78a.33.33,0,0,0,0,.66h0a.33.33,0,0,0,0-.66Z"/><path d="M30.18,47.64a.33.33,0,0,0,0,.65A.33.33,0,0,0,30.18,47.64Z"/><path d="M31.18,48.63a.33.33,0,0,0,0-.66A.33.33,0,0,0,31.18,48.63Z"/><path d="M31.17,47l0,0c-.3.3.17.76.47.46l0,0C31.93,47.12,31.47,46.65,31.17,47Z"/><path d="M30.18,45.59a.33.33,0,0,0,0,.66A.33.33,0,0,0,30.18,45.59Z"/><path d="M31.18,46a.33.33,0,0,0,0,.66A.33.33,0,0,0,31.18,46Z"/><path d="M30.7,46.82a.33.33,0,0,0,0,.65A.33.33,0,0,0,30.7,46.82Z"/><path d="M30.51,45.28a.33.33,0,0,0,0-.65A.33.33,0,0,0,30.51,45.28Z"/><path d="M31.1,45.88a.33.33,0,0,0,0-.66A.33.33,0,0,0,31.1,45.88Z"/><path d="M30.1,44.35a.33.33,0,0,0,0-.65A.33.33,0,0,0,30.1,44.35Z"/><path d="M29.24,45.36l-.07.07a.33.33,0,0,0,.46.47l.08-.08A.33.33,0,0,0,29.24,45.36Z"/><path d="M28.17,46.22a.33.33,0,0,0,0,.66A.33.33,0,0,0,28.17,46.22Z"/><path d="M26.79,46.19a.33.33,0,0,0,0,.65A.33.33,0,0,0,26.79,46.19Z"/><path d="M27.39,47a.33.33,0,0,0,0,.66A.33.33,0,0,0,27.39,47Z"/><path d="M22.85,47.64a.33.33,0,0,0,0,.65A.33.33,0,0,0,22.85,47.64Z"/><path d="M24.19,48.66a.33.33,0,0,0,0-.65A.33.33,0,0,0,24.19,48.66Z"/><path d="M21.78,48.9a.33.33,0,0,0,0,.65A.33.33,0,0,0,21.78,48.9Z"/><path d="M19.54,47.85a.33.33,0,0,0,0-.66A.33.33,0,0,0,19.54,47.85Z"/><path d="M20.79,48.32c.38-.19,0-.75-.33-.56l-.08,0c-.37.19,0,.76.33.57Z"/><path d="M20.83,48.5l-.07,0c-.38.19-.05.76.33.56l.07,0C21.54,48.88,21.21,48.31,20.83,48.5Z"/><path d="M21.4,48a.31.31,0,0,0,.29-.18.19.19,0,0,0,0,.08v0a.33.33,0,0,0,.66,0v0a.33.33,0,0,0-.62-.15.32.32,0,0,0-.31-.4A.33.33,0,0,0,21.4,48Z"/><path d="M21,47.25a.33.33,0,0,0,0-.65h0a.33.33,0,0,0,0,.65Z"/><path d="M23,46.51a.33.33,0,0,0,0-.66A.33.33,0,0,0,23,46.51Z"/><path d="M23.87,47.23l0,0a.33.33,0,0,0-.46-.46l0,0C23.1,47.06,23.57,47.53,23.87,47.23Z"/><path d="M22.33,47.1a.33.33,0,0,0,0-.65A.33.33,0,0,0,22.33,47.1Z"/><path d="M26.71,45.84v0a.33.33,0,0,0-.65,0v0A.33.33,0,0,0,26.71,45.84Z"/><path d="M28.5,45.29a.33.33,0,0,0,0,.66A.33.33,0,0,0,28.5,45.29Z"/><path d="M29.21,46h0a.33.33,0,0,0,0,.65h0A.33.33,0,0,0,29.21,46Z"/><path d="M28,43.81a.33.33,0,0,0,0,.65A.33.33,0,0,0,28,43.81Z"/><path d="M27,44.72c-.31.29.15.75.47.47l0,0c.31-.28-.16-.74-.47-.46Z"/><path d="M25.57,43.29a.33.33,0,0,0,0,.65A.33.33,0,0,0,25.57,43.29Z"/><path d="M26.87,42.66a.33.33,0,0,0,0,.65h0a.33.33,0,0,0,0-.65Z"/><path d="M26.16,42a.33.33,0,0,0,0-.65A.33.33,0,0,0,26.16,42Z"/><path d="M25.53,42a.33.33,0,0,0,0,.65h0a.33.33,0,0,0,0-.65Z"/><path d="M24.15,43.16h0a.33.33,0,0,0,0-.65h0A.33.33,0,0,0,24.15,43.16Z"/><path d="M23.63,41.8a.33.33,0,0,0,0,.66A.33.33,0,0,0,23.63,41.8Z"/><path d="M27.8,42.16a.33.33,0,0,0,0-.66A.33.33,0,0,0,27.8,42.16Z"/><path d="M29.54,43.24v0a.33.33,0,0,0-.66,0v0A.33.33,0,0,0,29.54,43.24Z"/><path d="M28.87,44.69a.33.33,0,0,0,0-.66A.33.33,0,0,0,28.87,44.69Z"/><path d="M19.05,46.51a.33.33,0,0,0-.65,0v.08a.33.33,0,0,0,.65,0Z"/><path d="M17.72,45.67a.33.33,0,0,0,0,.65A.33.33,0,0,0,17.72,45.67Z"/><path d="M18.21,44.29a.33.33,0,0,0,0,.66A.33.33,0,0,0,18.21,44.29Z"/><path d="M19,44.11c.19.38.76,0,.57-.33l0-.07c-.19-.38-.75-.05-.57.33Z"/><path d="M20.4,45.73a.33.33,0,0,0,0-.66A.33.33,0,0,0,20.4,45.73Z"/><path d="M18.47,42.34a.33.33,0,0,0,0-.65A.33.33,0,0,0,18.47,42.34Z"/><path d="M17,41.58a.33.33,0,0,0,0,.65A.33.33,0,0,0,17,41.58Z"/><path d="M18.21,40.52a.33.33,0,0,0,0-.65A.33.33,0,0,0,18.21,40.52Z"/><path d="M20.66,43a.33.33,0,0,0,0-.65A.33.33,0,0,0,20.66,43Z"/><path d="M22.15,45.21a.33.33,0,0,0,0-.66A.33.33,0,0,0,22.15,45.21Z"/><path d="M21,44.35a.33.33,0,0,0,0-.65A.33.33,0,0,0,21,44.35Z"/><path d="M18.47,45.44v0a.33.33,0,0,0,.66,0v0A.33.33,0,0,0,18.47,45.44Z"/><path d="M16.72,43a.33.33,0,0,0,0,.65A.33.33,0,0,0,16.72,43Z"/><path d="M22.3,39.93v0A.33.33,0,0,0,23,40v0A.33.33,0,0,0,22.3,39.93Z"/><path d="M21,38.23a.33.33,0,0,0,0,.66A.33.33,0,0,0,21,38.23Z"/><path d="M20.59,36.86a.33.33,0,0,0,0,.65A.33.33,0,0,0,20.59,36.86Z"/><path d="M23.37,38.63a.33.33,0,0,0,0-.66h0a.33.33,0,0,0,0,.66Z"/><path d="M22.44,40.8a.33.33,0,0,0,0,.65A.33.33,0,0,0,22.44,40.8Z"/><path d="M24.72,40.65l0,0c.3-.3-.17-.76-.47-.46l0,0C24,40.48,24.42,41,24.72,40.65Z"/><path d="M26.61,41a.33.33,0,0,0,0-.66A.33.33,0,0,0,26.61,41Z"/><path d="M25.34,39.85h0a.33.33,0,0,0,0-.65h0A.33.33,0,0,0,25.34,39.85Z"/><path d="M26.27,43.92a.33.33,0,0,0,0,.65A.33.33,0,0,0,26.27,43.92Z"/><path d="M28.24,43.12a.33.33,0,0,0,0-.65A.33.33,0,0,0,28.24,43.12Z"/><path d="M36,65.62a.32.32,0,0,0-.27-.48.33.33,0,0,0,0,.65.32.32,0,0,0,.28.48h0a.33.33,0,0,0,0-.65Z"/><path d="M34.82,63.15a.33.33,0,0,0,0,.66A.33.33,0,0,0,34.82,63.15Z"/><path d="M35.41,63.06a.33.33,0,0,0,0-.66A.33.33,0,0,0,35.41,63.06Z"/><path d="M36.05,63.69a.33.33,0,0,0,0,.65A.33.33,0,0,0,36.05,63.69Z"/><path d="M36.64,63a.33.33,0,0,0,0,.66A.33.33,0,0,0,36.64,63Z"/><path d="M36.59,61.22a.33.33,0,0,0,0,.66A.33.33,0,0,0,36.59,61.22Z"/><path d="M36.7,60a.33.33,0,0,0,0,.65A.33.33,0,0,0,36.7,60Z"/><path d="M38.7,65l-.15.06h0a.33.33,0,0,0,0,.65h0a.3.3,0,0,0,.16,0l.16,0C39.27,65.48,39.1,64.85,38.7,65Z"/><path d="M39,64.45v0a.33.33,0,0,0,.65,0v0A.33.33,0,0,0,39,64.45Z"/><path d="M38.47,64.88a.32.32,0,0,0,.3-.42.38.38,0,0,0,0-.15,1.74,1.74,0,0,1-.05-.22c-.1-.41-.73-.23-.63.18l0,.21s0,0,0,0A.31.31,0,0,0,38.47,64.88Z"/><path d="M38.52,63.16a.33.33,0,0,0,0-.65A.33.33,0,0,0,38.52,63.16Z"/><path d="M39.16,62.9a.33.33,0,0,0,0-.66A.33.33,0,0,0,39.16,62.9Z"/><path d="M39.38,63.26a.33.33,0,0,0,0,.66A.33.33,0,0,0,39.38,63.26Z"/><path d="M39.42,61.82v0a.33.33,0,0,0,.66,0v0A.33.33,0,0,0,39.42,61.82Z"/><path d="M38.63,62a.33.33,0,0,0,0-.66A.33.33,0,0,0,38.63,62Z"/><path d="M39,60.43a.33.33,0,0,0,0-.66A.33.33,0,0,0,39,60.43Z"/><path d="M39.54,59.08a.33.33,0,0,0,0,.65A.33.33,0,0,0,39.54,59.08Z"/><path d="M40.24,58.54a.33.33,0,0,0,0,.66A.33.33,0,0,0,40.24,58.54Z"/><path d="M27.55,55.94l.11-.1c.3-.3-.16-.76-.47-.47l-.11.11C26.78,55.77,27.24,56.23,27.55,55.94Z"/><path d="M26.08,56.3h.05a.33.33,0,0,0,0-.65h-.05A.33.33,0,0,0,26.08,56.3Z"/><path d="M34.82,59.63a.33.33,0,0,0,0-.66A.33.33,0,0,0,34.82,59.63Z"/><path d="M34.77,61.55v-.11a.33.33,0,0,0-.65,0v.11A.33.33,0,0,0,34.77,61.55Z"/><path d="M34.5,62.24a.33.33,0,0,0,0,.66A.33.33,0,0,0,34.5,62.24Z"/><path d="M35.84,61.5v-.11a.33.33,0,0,0-.65,0v.11A.33.33,0,0,0,35.84,61.5Z"/><path d="M36.27,63a.33.33,0,0,0,0-.65A.33.33,0,0,0,36.27,63Z"/><path d="M35.73,60a.33.33,0,0,0,0,.66A.33.33,0,0,0,35.73,60Z"/><path d="M35.09,63.8a.33.33,0,0,0,0,.65A.33.33,0,0,0,35.09,63.8Z"/><path d="M34.34,60.36a.33.33,0,0,0,0,.66A.33.33,0,0,0,34.34,60.36Z"/><path d="M35.78,59.41a.33.33,0,0,0,0-.65A.33.33,0,0,0,35.78,59.41Z"/><path d="M36.64,58.12a.33.33,0,0,0,0-.65A.33.33,0,0,0,36.64,58.12Z"/><path d="M34.55,58.29a.33.33,0,0,0,0-.66A.33.33,0,0,0,34.55,58.29Z"/><path d="M33.8,57a.33.33,0,0,0,0,.65A.33.33,0,0,0,33.8,57Z"/><path d="M33.85,55.82h.06a.33.33,0,0,0,0-.66h-.06A.33.33,0,0,0,33.85,55.82Z"/><path d="M35.19,56.41a.33.33,0,0,0,0-.66A.33.33,0,0,0,35.19,56.41Z"/><path d="M36.11,54.68a.33.33,0,0,0,0,.66A.33.33,0,0,0,36.11,54.68Z"/><path d="M35.78,53.55h-.05a.33.33,0,0,0,0,.66h.05A.33.33,0,0,0,35.78,53.55Z"/><path d="M34.61,52.8a.33.33,0,0,0,0,.66A.33.33,0,0,0,34.61,52.8Z"/><path d="M39.06,58a.33.33,0,0,0,0-.66A.33.33,0,0,0,39.06,58Z"/><path d="M39.7,61.07a.33.33,0,0,0,0-.65h-.05a.33.33,0,0,0,0,.65Z"/><path d="M40.24,57.16a.33.33,0,0,0,0-.66A.33.33,0,0,0,40.24,57.16Z"/><path d="M38.57,56.52a.33.33,0,0,0,0-.66A.33.33,0,0,0,38.57,56.52Z"/><path d="M39.22,54.75a.33.33,0,0,0,0-.66A.33.33,0,0,0,39.22,54.75Z"/><path d="M40.5,54a.33.33,0,0,0,0,.65A.33.33,0,0,0,40.5,54Z"/><path d="M40,55.11a.33.33,0,0,0,0,.66A.33.33,0,0,0,40,55.11Z"/><path d="M39.7,53a.33.33,0,0,0,0-.66A.33.33,0,0,0,39.7,53Z"/><path d="M39,52.28a.33.33,0,0,0,0-.66A.33.33,0,0,0,39,52.28Z"/><path d="M38.84,50.13a.29.29,0,0,0,.27-.15.46.46,0,1,0,.64-.66.3.3,0,0,0-.31.28.34.34,0,0,0-.29.15.3.3,0,0,0-.31-.27A.33.33,0,0,0,38.84,50.13Z"/><path d="M40.5,51.53a.33.33,0,0,0,0-.66A.33.33,0,0,0,40.5,51.53Z"/><path d="M40.83,52a.33.33,0,0,0,0,.66A.33.33,0,0,0,40.83,52Z"/><path d="M35,51.74a.33.33,0,0,0,0-.65A.33.33,0,0,0,35,51.74Z"/><path d="M36.48,50.71a.33.33,0,0,0,0,.66A.33.33,0,0,0,36.48,50.71Z"/><path d="M36.48,52.21a.33.33,0,0,0,0,.66A.33.33,0,0,0,36.48,52.21Z"/><path d="M36.7,55.76v0a.33.33,0,0,0-.65,0v0A.33.33,0,0,0,36.7,55.76Z"/><path d="M35.62,56.83a.33.33,0,0,0,0,.65A.33.33,0,0,0,35.62,56.83Z"/><path d="M33.69,53.83v.05a.33.33,0,0,0,.65,0v-.05A.33.33,0,0,0,33.69,53.83Z"/><path d="M33.91,51.48a.33.33,0,0,0,0-.66A.33.33,0,0,0,33.91,51.48Z"/><path d="M35.25,50.08a.33.33,0,0,0,0-.65A.33.33,0,0,0,35.25,50.08Z"/><path d="M34.34,48a.33.33,0,0,0,0-.65A.33.33,0,0,0,34.34,48Z"/><path d="M35.62,45.31a.33.33,0,0,0,0-.66A.33.33,0,0,0,35.62,45.31Z"/><path d="M36.14,47.41a.33.33,0,0,0,.47-.46l-.06-.06a.33.33,0,0,0-.46.47Z"/><path d="M36.43,43.1a.33.33,0,0,0,0,.65h0a.33.33,0,0,0,0-.65Z"/><path d="M38.84,48.1a.33.33,0,0,0,0-.66A.33.33,0,0,0,38.84,48.1Z"/><path d="M39.38,50.87a.33.33,0,0,0,0,.66A.33.33,0,0,0,39.38,50.87Z"/><path d="M40.83,48.85a.33.33,0,0,0,0-.66A.33.33,0,0,0,40.83,48.85Z"/><path d="M40,46.17a.33.33,0,0,0,0-.66A.33.33,0,0,0,40,46.17Z"/><path d="M40.13,44.5a.33.33,0,0,0,0-.65A.33.33,0,0,0,40.13,44.5Z"/><path d="M43.2,51a.33.33,0,0,0-.23-.56.33.33,0,0,0-.29.46l-.1.07-.06.05a.33.33,0,0,0,.35.54l0,0c.35.24.68-.33.33-.56Z"/><path d="M44.2,49.64h-.05a.68.68,0,0,0,0,1.06.7.7,0,0,0,.06-1.06Z"/><path d="M43.12,48c-.1-.41-.73-.23-.63.18l.06.21a.33.33,0,0,0,.63-.17Z"/><path d="M43.24,46.17a.33.33,0,0,0,0-.66A.33.33,0,0,0,43.24,46.17Z"/><path d="M43.56,47.56a.33.33,0,0,0,0-.65A.33.33,0,0,0,43.56,47.56Z"/><path d="M44.2,48a.33.33,0,0,0,0,.65h.06a.33.33,0,0,0,0-.65Z"/><path d="M45.22,48.19a.33.33,0,0,0,0,.66A.33.33,0,0,0,45.22,48.19Z"/><path d="M45.38,47.55a.33.33,0,0,0,0,.65A.33.33,0,0,0,45.38,47.55Z"/><path d="M44.69,47a.33.33,0,0,0,0-.65A.33.33,0,0,0,44.69,47Z"/><path d="M45,49.21a.33.33,0,0,0,0,.66A.33.33,0,0,0,45,49.21Z"/><path d="M43.51,48.57a.33.33,0,0,0,0,.65A.33.33,0,0,0,43.51,48.57Z"/><path d="M43.92,45.78v0a.33.33,0,0,0,.65,0v0A.33.33,0,0,0,43.92,45.78Z"/><path d="M45.49,46.43a.33.33,0,0,0,0-.66A.33.33,0,0,0,45.49,46.43Z"/><path d="M46,47.46a.33.33,0,0,0,0-.66A.33.33,0,0,0,46,47.46Z"/><path d="M47.28,46.15a.33.33,0,0,0,0,.66A.33.33,0,0,0,47.28,46.15Z"/><path d="M46.25,47.61a.33.33,0,0,0,0,.66A.33.33,0,0,0,46.25,47.61Z"/><path d="M46.68,50.1a.31.31,0,0,0-.31.36.32.32,0,0,0,.26.51.31.31,0,0,0,.31-.35A.33.33,0,0,0,46.68,50.1Z"/><path d="M47.28,49.83a.33.33,0,0,0-.15.62.33.33,0,0,0,.2.58.33.33,0,0,0,.15-.62A.33.33,0,0,0,47.28,49.83Z"/><path d="M48.84,49.67a.29.29,0,0,0-.26.15v-.09a.33.33,0,0,0-.66,0v.1a.33.33,0,0,0,.61.17.3.3,0,0,0,.31.32A.33.33,0,0,0,48.84,49.67Z"/><path d="M49.17,49a.33.33,0,0,0,0,.65A.33.33,0,0,0,49.17,49Z"/><path d="M49,48.48v.06a.33.33,0,0,0,.65,0v-.06A.33.33,0,0,0,49,48.48Z"/><path d="M48.41,48.1a.33.33,0,0,0,0,.66A.33.33,0,0,0,48.41,48.1Z"/><path d="M49.82,47.5a.33.33,0,0,0,0,.66A.33.33,0,0,0,49.82,47.5Z"/><path d="M50.64,48.41c-.29-.3-.76.17-.46.47l.06,0c.29.3.76-.16.46-.46Z"/><path d="M51.77,49.13a.34.34,0,0,1-.44,0,.33.33,0,0,0,0,.65.34.34,0,0,1,.44,0A.33.33,0,0,0,51.77,49.13Z"/><path d="M50.3,49h0a.33.33,0,0,0,0,.65h0A.33.33,0,0,0,50.3,49Z"/><path d="M51.28,48.76a.33.33,0,0,0,0-.66A.33.33,0,0,0,51.28,48.76Z"/><path d="M52.81,48a.28.28,0,0,0-.15-.08.33.33,0,1,0-.38.19.3.3,0,0,0,.06.35l.06.06c.3.3.76-.17.46-.47Z"/><path d="M54,49.08h.05a.33.33,0,0,0,0-.66H54A.33.33,0,0,0,54,49.08Z"/><path d="M51.44,47.62v-.06a.09.09,0,0,0,0-.05.31.31,0,0,0,.17.05.33.33,0,0,0,0-.65.31.31,0,0,0-.3.39.32.32,0,0,0-.51.26v.06A.33.33,0,0,0,51.44,47.62Z"/><path d="M50.74,46.59a.33.33,0,0,0,.26-.51l.06,0c.38.19.71-.38.33-.57l-.11,0a.34.34,0,0,0-.44.47l-.1,0A.33.33,0,0,0,50.74,46.59Z"/><path d="M49.76,47.29a.28.28,0,0,0,.25-.11.36.36,0,0,0,.19.06.33.33,0,0,0,0-.65.28.28,0,0,0-.25.11.36.36,0,0,0-.19-.06A.33.33,0,0,0,49.76,47.29Z"/><path d="M53.28,47.56a.33.33,0,0,0,0-.65A.33.33,0,0,0,53.28,47.56Z"/><path d="M44.74,49a.33.33,0,0,0-.66,0V49a.33.33,0,0,0,.66,0Z"/><path d="M45.65,45.18a.33.33,0,0,0,0-.65A.33.33,0,0,0,45.65,45.18Z"/><path d="M44,44.76l0,0a.33.33,0,0,0-.46-.46l0,0A.33.33,0,0,0,44,44.76Z"/><path d="M45.81,43.08a.33.33,0,0,0,0-.66A.33.33,0,0,0,45.81,43.08Z"/><path d="M47.38,43.94a.33.33,0,0,0,0-.65A.33.33,0,0,0,47.38,43.94Z"/><path d="M48.63,44a.33.33,0,0,0,0,.66A.33.33,0,0,0,48.63,44Z"/><path d="M47.53,45c-.3.3.17.77.46.47l.17-.16c.29-.3-.17-.77-.47-.47Z"/><path d="M50.14,43a.33.33,0,0,0,0-.65A.33.33,0,0,0,50.14,43Z"/><path d="M48.3,43.08a.33.33,0,0,0,0-.66A.33.33,0,0,0,48.3,43.08Z"/><path d="M48.74,41.24a.33.33,0,0,0,0-.66A.33.33,0,0,0,48.74,41.24Z"/><path d="M49.55,40.26a.33.33,0,0,0,0,.65A.33.33,0,0,0,49.55,40.26Z"/><path d="M46.84,41.66a.33.33,0,0,0,0,.66h.06a.33.33,0,0,0,0-.66Z"/><path d="M46.63,41.29a.33.33,0,0,0,0-.66A.33.33,0,0,0,46.63,41.29Z"/><path d="M50.3,39.83a.33.33,0,0,0,0-.66A.33.33,0,0,0,50.3,39.83Z"/><path d="M52.41,38.37a.33.33,0,0,0,0-.66A.33.33,0,0,0,52.41,38.37Z"/><path d="M52,40.48a.33.33,0,0,0,0-.66A.33.33,0,0,0,52,40.48Z"/><path d="M55.07,37.07a.33.33,0,0,0,0-.65A.33.33,0,0,0,55.07,37.07Z"/><path d="M51,42.26a.33.33,0,0,0,0-.65A.33.33,0,0,0,51,42.26Z"/><path d="M52.67,44.19l-.05.06a.33.33,0,0,0,.46.46l.05-.05C53.43,44.36,53,43.89,52.67,44.19Z"/><path d="M52.36,46.75a.33.33,0,0,0,0-.65A.33.33,0,0,0,52.36,46.75Z"/><path d="M54.2,46.59a.33.33,0,0,0,0-.65A.33.33,0,0,0,54.2,46.59Z"/><path d="M52.85,45.94a.33.33,0,0,0,0-.65A.33.33,0,0,0,52.85,45.94Z"/><path d="M51.82,44.91a.33.33,0,0,0,0-.65A.33.33,0,0,0,51.82,44.91Z"/><path d="M54.85,46.42a.33.33,0,0,0,0,.66A.33.33,0,0,0,54.85,46.42Z"/><path d="M54,48.27a.33.33,0,0,0,0-.66A.33.33,0,0,0,54,48.27Z"/><path d="M55.62,47.49c-.3-.3-.76.17-.46.47l.05,0a.33.33,0,0,0,.47-.46Z"/><path d="M56.58,46.37a.33.33,0,0,0,0-.65A.33.33,0,0,0,56.58,46.37Z"/><path d="M55.55,46.05a.33.33,0,0,0,0-.65A.33.33,0,0,0,55.55,46.05Z"/><path d="M54.52,44.58a.33.33,0,0,0,0,.66A.33.33,0,0,0,54.52,44.58Z"/><path d="M55.88,43.78a.33.33,0,0,0,0-.66A.33.33,0,0,0,55.88,43.78Z"/><path d="M54.64,42.42v-.05a.33.33,0,0,0-.66,0v.05A.33.33,0,0,0,54.64,42.42Z"/><path d="M54.25,44.1a.33.33,0,0,0,0-.65A.33.33,0,0,0,54.25,44.1Z"/><path d="M57,41.83h.06a.33.33,0,0,0,0-.65H57A.33.33,0,0,0,57,41.83Z"/><path d="M58.26,39.29a.33.33,0,0,0,0-.66A.33.33,0,0,0,58.26,39.29Z"/><path d="M56.63,39.61a.33.33,0,0,0,0-.65A.33.33,0,0,0,56.63,39.61Z"/><path d="M55.07,41.78h0a.33.33,0,0,0,0-.66h0A.33.33,0,0,0,55.07,41.78Z"/><path d="M57.82,42.7a.33.33,0,0,0,0-.66A.33.33,0,0,0,57.82,42.7Z"/><path d="M59.66,37a.33.33,0,0,0,0-.66A.33.33,0,0,0,59.66,37Z"/><path d="M57,43.56a.33.33,0,0,0,0,.65A.33.33,0,0,0,57,43.56Z"/><path d="M53.34,36.36v0a.33.33,0,0,0-.66,0v0A.33.33,0,0,0,53.34,36.36Z"/><path d="M53.71,39.07a.33.33,0,0,0,0-.65A.33.33,0,0,0,53.71,39.07Z"/><path d="M49.49,39.45a.33.33,0,0,0,0-.65A.33.33,0,0,0,49.49,39.45Z"/><path d="M43.88,55.55a.33.33,0,0,0,0,.65A.33.33,0,0,0,43.88,55.55Z"/><path d="M44.29,57.08a.33.33,0,0,0,0-.66A.33.33,0,0,0,44.29,57.08Z"/><path d="M43.41,58.88a.31.31,0,0,0,.24.11.33.33,0,0,0,0-.66.3.3,0,0,0-.27.16.28.28,0,0,0-.24-.11.33.33,0,0,0,0,.65A.29.29,0,0,0,43.41,58.88Z"/><path d="M43.28,59.66a.33.33,0,0,0,0,.66A.33.33,0,0,0,43.28,59.66Z"/><path d="M45,55.56v0a.29.29,0,0,0-.08-.21.24.24,0,0,0,.12,0,.42.42,0,0,0-.7.18v0A.33.33,0,0,0,45,55.56Z"/><path d="M45.82,54.32v0a.33.33,0,0,0-.65,0v0A.33.33,0,0,0,45.82,54.32Z"/><path d="M45.61,56.64l-.09,0a.32.32,0,0,0-.3-.43.33.33,0,1,0,.15.62.24.24,0,0,0,0,.08v0A.33.33,0,0,0,46,57v0a.3.3,0,0,0,0-.1.33.33,0,0,0-.08-.64A.32.32,0,0,0,45.61,56.64Z"/><path d="M46.56,53.86l.08,0a.28.28,0,0,0,.24.11.33.33,0,0,0,0-.65H46.8a.31.31,0,0,0-.24-.11A.33.33,0,0,0,46.56,53.86Z"/><path d="M46.56,55.24v-.05a.4.4,0,0,0,0-.15l.07,0a.33.33,0,0,0,.3-.46.26.26,0,0,0,.21.09.33.33,0,0,0,0-.65.32.32,0,0,0-.29.45.3.3,0,0,0-.22-.09.33.33,0,0,0-.27.49.32.32,0,0,0-.42.3v.05A.33.33,0,0,0,46.56,55.24Z"/><path d="M48.64,54.78a.33.33,0,0,0,0-.65A.33.33,0,0,0,48.64,54.78Z"/><path d="M47.16,53.17a.33.33,0,0,0,0-.66A.33.33,0,0,0,47.16,53.17Z"/><path d="M47.76,53.67a.33.33,0,0,0,0-.65A.33.33,0,0,0,47.76,53.67Z"/><path d="M44.62,57.36a.29.29,0,0,0-.17,0,.31.31,0,0,0-.29-.19.33.33,0,0,0,0,.66.32.32,0,0,0,.17-.06.3.3,0,0,0,.29.2A.33.33,0,0,0,44.62,57.36Z"/><path d="M44.62,58.79a.33.33,0,0,0,0,.66A.33.33,0,0,0,44.62,58.79Z"/><path d="M43.69,56.71a.33.33,0,0,0,0,.66A.33.33,0,0,0,43.69,56.71Z"/><path d="M43.19,64.33a.33.33,0,0,0,0,.66A.33.33,0,0,0,43.19,64.33Z"/><path d="M43.17,63.59a.32.32,0,0,0-.26-.5.3.3,0,0,0-.31.28.33.33,0,0,0,.26.51A.3.3,0,0,0,43.17,63.59Z"/><path d="M44,63.09V63a.33.33,0,0,0-.66,0v.05A.33.33,0,0,0,44,63.09Z"/><path d="M43.88,60.5a.33.33,0,0,0,0,.66A.33.33,0,0,0,43.88,60.5Z"/><path d="M44.76,61.62a.33.33,0,0,0,0-.66A.33.33,0,0,0,44.76,61.62Z"/><path d="M44.8,62.26a.33.33,0,0,0,0,.65A.33.33,0,0,0,44.8,62.26Z"/><path d="M44.11,60a.33.33,0,0,0,0-.65A.33.33,0,0,0,44.11,60Z"/><path d="M45.45,58.05a.33.33,0,0,0,0,.66A.33.33,0,0,0,45.45,58.05Z"/><path d="M44.2,63.87A.28.28,0,0,0,44,64a.33.33,0,0,0,.1.63.31.31,0,0,0,.25-.11A.33.33,0,0,0,44.2,63.87Z"/><path d="M45.17,63.64a.33.33,0,0,0,0,.66A.33.33,0,0,0,45.17,63.64Z"/><path d="M44.57,64.56a.33.33,0,0,0,0,.66A.33.33,0,0,0,44.57,64.56Z"/><path d="M46,64.29a.33.33,0,0,0,0,.65A.33.33,0,0,0,46,64.29Z"/><path d="M47.34,64.47l-.07,0A.33.33,0,0,0,47,64H47a.33.33,0,0,0,0,.66h.12a.32.32,0,0,0,.25.52A.33.33,0,0,0,47.34,64.47Z"/><path d="M46.14,62.3a.33.33,0,0,0,0,.66A.33.33,0,0,0,46.14,62.3Z"/><path d="M46.93,63.33a.33.33,0,0,0,0-.66A.33.33,0,0,0,46.93,63.33Z"/><path d="M48.27,62.86a.33.33,0,0,0,0,.65A.33.33,0,0,0,48.27,62.86Z"/><path d="M47.2,61.39a.33.33,0,0,0,0-.66A.33.33,0,0,0,47.2,61.39Z"/><path d="M45.73,60.92a.33.33,0,0,0,0-.65A.33.33,0,0,0,45.73,60.92Z"/><path d="M45.91,59.72a.33.33,0,0,0,0-.65A.33.33,0,0,0,45.91,59.72Z"/><path d="M47.09,58.89c.38-.18,0-.75-.33-.56l-.07,0a.32.32,0,0,0-.32-.32h0a.33.33,0,0,0,0,.66h.09a.34.34,0,0,0,.49.29Z"/><path d="M47.53,57.18a.33.33,0,0,0,0,.65A.33.33,0,0,0,47.53,57.18Z"/><path d="M47.2,55.93a.33.33,0,0,0,0,.65A.33.33,0,0,0,47.2,55.93Z"/><path d="M48.13,55.71a.33.33,0,0,0,0-.66A.33.33,0,0,0,48.13,55.71Z"/><path d="M48.73,52.61a.33.33,0,0,0,0-.65A.33.33,0,0,0,48.73,52.61Z"/><path d="M46.42,56.81l-.05,0c-.3.29.17.76.47.46l0,0A.33.33,0,0,0,46.42,56.81Z"/><path d="M48.64,59h0a.33.33,0,0,0,0,.65h0A.33.33,0,0,0,48.64,59Z"/><path d="M47.44,60.18v0a.33.33,0,0,0-.66,0v0A.33.33,0,0,0,47.44,60.18Z"/><path d="M46,61.8l.09-.1c.3-.29-.16-.76-.46-.46l-.09.09A.33.33,0,0,0,46,61.8Z"/><path d="M45.59,62.62a.33.33,0,0,0,0,.66A.33.33,0,0,0,45.59,62.62Z"/><path d="M47.94,61.47a.33.33,0,0,0,0,.66A.33.33,0,0,0,47.94,61.47Z"/><path d="M49.74,62.26a.33.33,0,0,0,0-.65A.33.33,0,0,0,49.74,62.26Z"/><path d="M50.94,61.61a.33.33,0,0,0,0,.65A.33.33,0,0,0,50.94,61.61Z"/><path d="M49.79,63.22h0a.33.33,0,0,0,0,.66h0A.33.33,0,0,0,49.79,63.22Z"/><path d="M48.54,64.34l0,0a.33.33,0,0,0,.46.47l0,0A.33.33,0,0,0,48.54,64.34Z"/><path d="M50.25,56.9a.33.33,0,0,0,0,.65A.33.33,0,0,0,50.25,56.9Z"/><path d="M49.05,57.14a.33.33,0,0,0,0-.66A.33.33,0,0,0,49.05,57.14Z"/><path d="M49.74,56.07l.1-.09c.3-.3-.17-.76-.47-.46l-.09.09C49,55.91,49.45,56.37,49.74,56.07Z"/><path d="M50.67,54a.33.33,0,0,0,0,.65A.33.33,0,0,0,50.67,54Z"/><path d="M50.44,53a.33.33,0,0,0,0-.66A.33.33,0,0,0,50.44,53Z"/><path d="M51,51.59a.33.33,0,0,0,0,.65A.33.33,0,0,0,51,51.59Z"/><path d="M52.79,52.94a.33.33,0,0,0,0-.66A.33.33,0,0,0,52.79,52.94Z"/><path d="M49.7,53.81h0a.33.33,0,0,0,0-.65h0A.33.33,0,0,0,49.7,53.81Z"/><path d="M52.33,55.51a.33.33,0,0,0,0,.66A.33.33,0,0,0,52.33,55.51Z"/><path d="M49.79,57.59a.33.33,0,0,0,0,.66A.33.33,0,0,0,49.79,57.59Z"/><path d="M51.68,60a.33.33,0,0,0,0-.65A.33.33,0,0,0,51.68,60Z"/><path d="M53,58.79a.33.33,0,0,0,0,.66A.33.33,0,0,0,53,58.79Z"/><path d="M49.51,59.67a.33.33,0,0,0,0,.65A.33.33,0,0,0,49.51,59.67Z"/><path d="M49.65,61a.33.33,0,0,0-.46-.47l0,0c-.3.3.17.76.47.46Z"/><path d="M52.93,60.41a.33.33,0,0,0,0,.65A.33.33,0,0,0,52.93,60.41Z"/><path d="M51.92,61.84a.33.33,0,0,0-.47.47l0,0a.33.33,0,0,0,.46-.46Z"/><path d="M50.71,63.36h0a.33.33,0,0,0,0,.66h0A.33.33,0,0,0,50.71,63.36Z"/><path d="M55.75,59l-.09.1c-.3.29.17.76.46.46l.1-.09C56.51,59.2,56.05,58.73,55.75,59Z"/><path d="M55.42,56a.33.33,0,0,0,0,.66A.33.33,0,0,0,55.42,56Z"/><path d="M56.67,54.54a.33.33,0,0,0,0,.66A.33.33,0,0,0,56.67,54.54Z"/><path d="M57.87,53.53a.33.33,0,0,0,0,.65A.33.33,0,0,0,57.87,53.53Z"/><path d="M57.46,51.26a.33.33,0,0,0,0,.66A.33.33,0,0,0,57.46,51.26Z"/><path d="M59.26,51.17a.33.33,0,0,0,0,.66A.33.33,0,0,0,59.26,51.17Z"/><path d="M55.29,53a.33.33,0,0,0,0,.65A.33.33,0,0,0,55.29,53Z"/><path d="M42.34,61a.33.33,0,0,0,0,.66A.33.33,0,0,0,42.34,61Z"/><path d="M45.29,60.29l0,0c.19-.38-.38-.71-.57-.33l0,.05C44.54,60.33,45.1,60.66,45.29,60.29Z"/><path d="M44.25,62.22a.33.33,0,0,0,0-.66A.33.33,0,0,0,44.25,62.22Z"/><path d="M46.75,60.4v0a.33.33,0,0,0-.65,0v0A.33.33,0,0,0,46.75,60.4Z"/><path d="M44.3,63.66a.33.33,0,0,0,0-.66A.33.33,0,0,0,44.3,63.66Z"/><path d="M48.14,60.42v0a.33.33,0,0,0,.66,0v0A.33.33,0,0,0,48.14,60.42Z"/><path d="M50.82,59.37a.33.33,0,0,0,0-.66A.33.33,0,0,0,50.82,59.37Z"/><path d="M52.55,57.23a.33.33,0,0,0,0,.65A.33.33,0,0,0,52.55,57.23Z"/><path d="M30,38.53a.33.33,0,0,0-.46-.46l0,0a.32.32,0,0,0,.09.51.33.33,0,1,0,.27,0,.3.3,0,0,0,.1-.07Z"/><path d="M30.65,38.5a.33.33,0,0,0,0,.66A.33.33,0,0,0,30.65,38.5Z"/><path d="M28.89,38.62h0a.33.33,0,0,0,0,.65h0A.33.33,0,0,0,28.89,38.62Z"/><path d="M28.21,37.3a.33.33,0,0,0,0,.65A.33.33,0,0,0,28.21,37.3Z"/><path d="M29.37,37.63a.33.33,0,0,0,0-.65l-.11,0a.33.33,0,1,0-.27.16l.11,0a.37.37,0,0,0,0,.31.32.32,0,0,0-.21.09l-.12.12a.33.33,0,0,0,.47.46l.12-.12A.29.29,0,0,0,29.37,37.63Z"/><path d="M27.86,38.35a.33.33,0,0,0,0,.66A.33.33,0,0,0,27.86,38.35Z"/><path d="M32.23,38.38a.33.33,0,0,0,0,.66A.33.33,0,0,0,32.23,38.38Z"/><path d="M32.73,37.68a.33.33,0,0,0,0,.65A.33.33,0,0,0,32.73,37.68Z"/><path d="M31.94,40a.28.28,0,0,0-.15-.08.3.3,0,0,0,.21-.3v0a.33.33,0,0,0-.65,0v0a.31.31,0,0,0,.26.31.32.32,0,0,0-.14.53l0,0,.07,0a.32.32,0,0,0-.23.43l-.14,0c-.29-.12-.63.27-.36.53l0,0a.28.28,0,0,0,.36.06.32.32,0,0,0,.46-.29v-.06a.3.3,0,0,0,0-.1.31.31,0,0,0,.28-.27l0,0s0,0,.05,0a.33.33,0,0,0,0,.15h0a.29.29,0,0,0,.07.19H32a.33.33,0,1,0,.25.13.32.32,0,0,0,.42-.31h0a.27.27,0,0,0-.13-.25l.06-.05a.33.33,0,0,0-.13-.63.32.32,0,0,0-.25.12l-.07,0-.15.12a.25.25,0,0,0-.08.17.47.47,0,0,0-.1-.1A.32.32,0,0,0,32,40Z"/><path d="M34.34,38.19a.33.33,0,0,0,0-.66A.33.33,0,0,0,34.34,38.19Z"/><path d="M30.85,37.15a.31.31,0,0,0-.31.32.31.31,0,0,0-.3-.23.33.33,0,0,0,0,.66.31.31,0,0,0,.31-.32.31.31,0,0,0,.3.23A.33.33,0,0,0,30.85,37.15Z"/><path d="M31.84,38.8l0-.12a.3.3,0,0,0-.19-.37.33.33,0,0,0-.21-.57.33.33,0,0,0-.15.62.42.42,0,0,0-.08.15l0,.11C31.11,39,31.74,39.21,31.84,38.8Z"/><path d="M32.1,37.44l0-.06c.19-.38-.37-.71-.57-.33l0,.06C31.34,37.48,31.91,37.81,32.1,37.44Z"/><path d="M33,36.1a.33.33,0,0,0,0,.65A.33.33,0,0,0,33,36.1Z"/><path d="M33.34,36.57v0a.27.27,0,0,0,.17.27.33.33,0,0,0,.07.64.33.33,0,0,0,.16-.61.29.29,0,0,0,.26-.3v0A.33.33,0,0,0,33.34,36.57Z"/><path d="M33.58,37.74a.33.33,0,0,0,0,.65A.33.33,0,0,0,33.58,37.74Z"/><path d="M35.81,35.57a.33.33,0,0,0,0,.65A.33.33,0,0,0,35.81,35.57Z"/><path d="M34.37,35.89a.33.33,0,0,0,0,.66A.33.33,0,0,0,34.37,35.89Z"/><path d="M33.64,36a.33.33,0,0,0,0-.66A.33.33,0,0,0,33.64,36Z"/><path d="M33.32,34.37a.33.33,0,0,0,0,.65A.33.33,0,0,0,33.32,34.37Z"/><path d="M35.31,34.66a.33.33,0,0,0,0,.65A.33.33,0,0,0,35.31,34.66Z"/><path d="M34.64,34.54a.33.33,0,0,0,0,.66A.33.33,0,0,0,34.64,34.54Z"/><path d="M37.16,34.37a.29.29,0,0,0-.29.19l-.09,0a.33.33,0,0,0,0,.66.31.31,0,0,0,.29-.2l.09,0A.33.33,0,0,0,37.16,34.37Z"/><path d="M42.55,38.82a.33.33,0,0,0-.26.51.33.33,0,1,0,.32.14A.33.33,0,0,0,42.55,38.82Z"/><path d="M44,39.12a.31.31,0,0,0-.29.18.32.32,0,0,0-.3-.42.33.33,0,0,0,0,.66.31.31,0,0,0,.29-.19.32.32,0,0,0,.3.42A.33.33,0,0,0,44,39.12Z"/><path d="M44.6,38.24a.33.33,0,0,0,0,.65A.33.33,0,0,0,44.6,38.24Z"/><path d="M43.31,38.86a.32.32,0,0,0,.28-.49.32.32,0,1,0-.37-.14A.32.32,0,0,0,43.31,38.86Z"/><path d="M41.55,39a.34.34,0,0,0-.14-.63.33.33,0,0,0,0,.65.31.31,0,0,0-.19.29h0a.33.33,0,0,0,.66,0h0A.3.3,0,0,0,41.55,39Z"/><path d="M40.06,38.8a.33.33,0,0,0,0-.65A.33.33,0,0,0,40.06,38.8Z"/><path d="M40,37.48a.33.33,0,0,0-.22-.56.3.3,0,0,0-.28.16.29.29,0,0,0-.19-.07.33.33,0,0,0,0,.65.28.28,0,0,0,.13,0,.31.31,0,0,0,.31.38A.33.33,0,0,0,40,37.48Z"/><path d="M46.22,38.21a.33.33,0,0,0,0,.65A.33.33,0,0,0,46.22,38.21Z"/><path d="M45.25,38.09a.33.33,0,0,0,0,.66A.33.33,0,0,0,45.25,38.09Z"/><path d="M45.54,37.3a.33.33,0,0,0,0,.65A.33.33,0,0,0,45.54,37.3Z"/><path d="M44.66,37a.33.33,0,0,0,0,.66A.33.33,0,0,0,44.66,37Z"/><path d="M45.1,36.33a.33.33,0,0,0,0,.66A.33.33,0,0,0,45.1,36.33Z"/><path d="M45.87,36.45a.33.33,0,0,0,0,.65A.33.33,0,0,0,45.87,36.45Z"/><path d="M46.57,37.12a.33.33,0,0,0,0,.66A.33.33,0,0,0,46.57,37.12Z"/><path d="M40.68,37.75a.31.31,0,0,0,.31-.32.28.28,0,0,0,.24.11.32.32,0,0,0,0-.64A.33.33,0,1,0,41,37a.29.29,0,0,0-.07.2.28.28,0,0,0-.24-.12A.33.33,0,0,0,40.68,37.75Z"/><path d="M39.42,36.57v0a.31.31,0,0,0-.27-.31.33.33,0,0,0-.29-.46h0a.33.33,0,0,0,0,.65.53.53,0,0,0,0,.12v0A.33.33,0,0,0,39.42,36.57Z"/><path d="M38.77,35.75a.33.33,0,0,0,0-.65A.33.33,0,0,0,38.77,35.75Z"/><path d="M38,34.87a.33.33,0,0,0,0,.65A.33.33,0,0,0,38,34.87Z"/><path d="M38,34a.33.33,0,0,0,0,.65A.33.33,0,0,0,38,34Z"/><path d="M39.18,34.76a.33.33,0,0,0,0-.66A.33.33,0,0,0,39.18,34.76Z"/><path d="M39.8,35.55a.33.33,0,0,0,0-.66A.33.33,0,0,0,39.8,35.55Z"/><path d="M40,36.31a.33.33,0,0,0,0-.65A.33.33,0,0,0,40,36.31Z"/><path d="M40.76,38.66a.33.33,0,0,0,0-.66h0a.33.33,0,0,0,0,.66Z"/><path d="M42.05,37.51v0a.33.33,0,0,0,.65,0v0A.33.33,0,0,0,42.05,37.51Z"/><path d="M40.85,38.68a.33.33,0,0,0,0,.65A.33.33,0,0,0,40.85,38.68Z"/><path d="M43.35,36.92a.33.33,0,1,0-.37-.05.33.33,0,0,0,.16.61A.32.32,0,0,0,43.35,36.92Z"/><path d="M41.67,35a.33.33,0,0,0,0,.66A.33.33,0,0,0,41.67,35Z"/><path d="M43.29,33.57a.33.33,0,0,0-.13.63.33.33,0,1,0,.19,0A.33.33,0,0,0,43.29,33.57Z"/><path d="M43.93,34.63h0a.33.33,0,0,0,0,.66h0A.33.33,0,0,0,43.93,34.63Z"/><path d="M40.59,34.46a.33.33,0,0,0,0-.65A.33.33,0,0,0,40.59,34.46Z"/><path d="M40.73,36a.33.33,0,0,0,0-.66A.33.33,0,0,0,40.73,36Z"/><path d="M42.85,35.6a.33.33,0,0,0,0,.65A.33.33,0,0,0,42.85,35.6Z"/><path d="M41.71,36.7l.06,0c.38.19.71-.37.33-.56l-.06,0C41.67,36,41.34,36.51,41.71,36.7Z"/><path d="M44.46,36.28a.33.33,0,0,0,0-.65A.33.33,0,0,0,44.46,36.28Z"/><path d="M45.69,34.63a.33.33,0,0,0,0,.66A.33.33,0,0,0,45.69,34.63Z"/><path d="M46.63,35.34h0a.33.33,0,0,0,0,.66.32.32,0,0,0,.26-.5h0a.33.33,0,0,0,0-.65A.32.32,0,0,0,46.63,35.34Z"/><path d="M47.1,36.84a.33.33,0,0,0,0-.66A.33.33,0,0,0,47.1,36.84Z"/><path d="M46.25,32.38a.33.33,0,0,0,0-.65A.33.33,0,0,0,46.25,32.38Z"/><path d="M45.57,33.53a.33.33,0,0,0,0-.66A.33.33,0,0,0,45.57,33.53Z"/><path d="M46.39,34.76a.33.33,0,0,0,0-.66A.33.33,0,0,0,46.39,34.76Z"/><path d="M44.85,33.8a.32.32,0,0,0-.15-.36.33.33,0,1,0-.33,0,.32.32,0,0,0,.18.59.38.38,0,0,0,.16,0,.31.31,0,0,0,.31.4.33.33,0,0,0,0-.66A.31.31,0,0,0,44.85,33.8Z"/><path d="M45,35a.33.33,0,0,0,0,.66.28.28,0,0,0,.13,0,.33.33,0,0,0,.16.61.33.33,0,0,0,0-.65.32.32,0,0,0-.14,0A.33.33,0,0,0,45,35Z"/><path d="M43.81,36.48a.33.33,0,0,0,0,.65A.33.33,0,0,0,43.81,36.48Z"/><path d="M42.29,38.77a.33.33,0,0,0,0-.65A.33.33,0,0,0,42.29,38.77Z"/><path d="M42,34.4v0a.33.33,0,0,0,.66,0v0A.33.33,0,0,0,42,34.4Z"/><path d="M41.58,33.11a.33.33,0,0,0,0,.65A.33.33,0,0,0,41.58,33.11Z"/><path d="M43.26,34.87a.33.33,0,0,0,0,.65A.33.33,0,0,0,43.26,34.87Z"/><path d="M44.39,32.23v0a.33.33,0,0,0,.66,0v0A.33.33,0,0,0,44.39,32.23Z"/><path d="M45.66,31.68a.33.33,0,0,0,0-.66A.33.33,0,0,0,45.66,31.68Z"/><path d="M43.64,33.09a.33.33,0,0,0,0-.66A.33.33,0,0,0,43.64,33.09Z"/><path d="M42.49,33.38a.33.33,0,0,0,0-.66A.33.33,0,0,0,42.49,33.38Z"/><path d="M31,35.61A.33.33,0,0,0,31,35,.33.33,0,0,0,31,35.61Z"/><path d="M30.38,36.75a.33.33,0,0,0,0-.65A.33.33,0,0,0,30.38,36.75Z"/><path d="M31.26,36.69a.33.33,0,0,0,0-.65A.33.33,0,0,0,31.26,36.69Z"/><path d="M32.58,35.26l-.06,0c-.38-.2-.71.36-.33.56l.05,0C32.62,36,33,35.45,32.58,35.26Z"/><path d="M32.35,34.7a.33.33,0,0,0,0-.66A.33.33,0,0,0,32.35,34.7Z"/><path d="M32.53,36.39v0a.33.33,0,0,0-.66,0v0A.33.33,0,0,0,32.53,36.39Z"/><path d="M27.93,37v0a.33.33,0,0,0-.66,0v0A.33.33,0,0,0,27.93,37Z"/><path d="M28.16,34.1H28.1a.29.29,0,0,0-.3-.21.33.33,0,0,0,0,.65h.06a.29.29,0,0,0,.3.22A.33.33,0,0,0,28.16,34.1Z"/><path d="M28.36,35.52a.33.33,0,0,0,0-.65A.33.33,0,0,0,28.36,35.52Z"/><path d="M29.12,34.85a.33.33,0,0,0,.07-.65.33.33,0,1,0-.28.08A.33.33,0,0,0,29.12,34.85Z"/><path d="M27.6,33.82a.33.33,0,0,0,0-.66A.33.33,0,0,0,27.6,33.82Z"/><path d="M27.92,35.17l0,0a.33.33,0,0,0-.46.46l0,0C27.75,35.93,28.22,35.46,27.92,35.17Z"/><path d="M28.39,36.13a.33.33,0,0,0,0,.65A.33.33,0,0,0,28.39,36.13Z"/><path d="M29.89,34.84a.33.33,0,0,0,0,.65A.33.33,0,0,0,29.89,34.84Z"/><path d="M29.21,36.52a.33.33,0,0,0,0-.66A.33.33,0,0,0,29.21,36.52Z"/><path d="M30.09,34h.06a.33.33,0,0,0,.17-.61.29.29,0,0,0-.26-.14.32.32,0,0,0-.27.49A.3.3,0,0,0,30.09,34Z"/><path d="M30.79,34.58a.33.33,0,0,0,0-.65A.33.33,0,0,0,30.79,34.58Z"/><path d="M31.08,33.08v0a.33.33,0,0,0,.66,0v0A.33.33,0,0,0,31.08,33.08Z"/><path d="M29.3,33.23a.33.33,0,0,0,0-.65A.33.33,0,0,0,29.3,33.23Z"/><path d="M28.54,32.82v0a.33.33,0,0,0-.65,0v0A.33.33,0,0,0,28.54,32.82Z"/><path d="M28.36,32a.3.3,0,0,0,.3-.21h0a.33.33,0,0,0,0-.66.29.29,0,0,0-.29.21h0A.33.33,0,0,0,28.36,32Z"/><path d="M31.59,35.11a.33.33,0,0,0,0-.66A.33.33,0,0,0,31.59,35.11Z"/><path d="M33,33.15a.33.33,0,0,0,0-.66A.33.33,0,0,0,33,33.15Z"/><path d="M33.93,33.46h0a.33.33,0,0,0,0,.65h0A.33.33,0,0,0,33.93,33.46Z"/><path d="M35.25,34.05a.33.33,0,0,0,0-.65A.33.33,0,0,0,35.25,34.05Z"/><path d="M36.13,33.87a.33.33,0,0,0,0,.65A.33.33,0,0,0,36.13,33.87Z"/><path d="M37.31,33.08v0a.33.33,0,0,0-.66,0v0A.33.33,0,0,0,37.31,33.08Z"/><path d="M35.22,32.26l0,0a.33.33,0,0,0,.47-.47l0,0A.33.33,0,0,0,35.22,32.26Z"/><path d="M35.81,33.5h0a.33.33,0,0,0,0-.66h0A.33.33,0,0,0,35.81,33.5Z"/><path d="M34.4,32.43a.33.33,0,0,0,0,.66h0a.33.33,0,0,0,0-.66Z"/><path d="M38.8,32a.33.33,0,0,0,0,.66A.33.33,0,0,0,38.8,32Z"/><path d="M39.12,33.88h0a.33.33,0,0,0,0-.66h0A.33.33,0,0,0,39.12,33.88Z"/><path d="M37.77,32.7a.33.33,0,0,0,0,.65A.33.33,0,0,0,37.77,32.7Z"/><path d="M39.91,33.79a.33.33,0,0,0,0-.66A.33.33,0,0,0,39.91,33.79Z"/><path d="M40.88,32.05h0a.33.33,0,0,0,0,.66h0A.33.33,0,0,0,40.88,32.05Z"/><path d="M40.76,33.5h0a.33.33,0,0,0,0-.66h0A.33.33,0,0,0,40.76,33.5Z"/><path d="M41.29,34.79a.33.33,0,0,0,0-.66A.33.33,0,0,0,41.29,34.79Z"/><path d="M33.3,40v0a.33.33,0,0,0-.66,0v0A.33.33,0,0,0,33.3,40Z"/><path d="M44.18,38.25a.33.33,0,0,0,0-.65A.33.33,0,0,0,44.18,38.25Z"/><path d="M41.6,37.5a.33.33,0,0,0,0,.66A.33.33,0,0,0,41.6,37.5Z"/><path d="M32.67,37.54a.33.33,0,0,0,0-.66A.33.33,0,0,0,32.67,37.54Z"/><path d="M36.82,33.86v0a.33.33,0,0,0,.65,0v0A.33.33,0,0,0,36.82,33.86Z"/><path d="M30.26,32.21l.07,0c.38-.19.05-.75-.33-.56l-.07,0C29.55,31.84,29.88,32.4,30.26,32.21Z"/><path d="M31.32,31.68a.33.33,0,0,0,0,.65A.33.33,0,0,0,31.32,31.68Z"/><path d="M31.58,30.43l0,0c-.3.3.17.76.46.46l0,0C32.34,30.6,31.88,30.13,31.58,30.43Z"/><path d="M30.58,31.25a.33.33,0,0,0,0-.65A.33.33,0,0,0,30.58,31.25Z"/><path d="M29.42,30.58a.33.33,0,0,0,0-.66A.33.33,0,0,0,29.42,30.58Z"/><path d="M31.7,28a.33.33,0,0,0,0-.66A.33.33,0,0,0,31.7,28Z"/><path d="M31.21,26.88a.33.33,0,0,0,0-.65A.33.33,0,0,0,31.21,26.88Z"/><path d="M34.16,26.47a.33.33,0,0,0,0-.65A.33.33,0,0,0,34.16,26.47Z"/><path d="M31.14,29a.33.33,0,0,0,0-.65A.33.33,0,0,0,31.14,29Z"/><path d="M35.1,29.35a.33.33,0,0,0,0-.66A.33.33,0,0,0,35.1,29.35Z"/><path d="M33.64,31.1a.33.33,0,0,0,0-.65A.33.33,0,0,0,33.64,31.1Z"/><path d="M33.49,29.08a.33.33,0,0,0,0-.65A.33.33,0,0,0,33.49,29.08Z"/><path d="M37.19,30.19a.33.33,0,0,0,0,.65A.33.33,0,0,0,37.19,30.19Z"/><path d="M36.78,31.49a.33.33,0,0,0,0,.66A.33.33,0,0,0,36.78,31.49Z"/><path d="M39.73,31.21a.33.33,0,0,0,0-.65A.33.33,0,0,0,39.73,31.21Z"/><path d="M38.57,28.86a.33.33,0,0,0,0-.65A.33.33,0,0,0,38.57,28.86Z"/><path d="M37.34,26.86a.33.33,0,0,0,0,.66A.33.33,0,0,0,37.34,26.86Z"/><path d="M40.74,28.19a.33.33,0,0,0,0-.66A.33.33,0,0,0,40.74,28.19Z"/><path d="M41.6,30.09a.33.33,0,0,0,0-.65A.33.33,0,0,0,41.6,30.09Z"/><path d="M42.9,30.82a.33.33,0,0,0,0,.66A.33.33,0,0,0,42.9,30.82Z"/><path d="M42.23,32.48a.33.33,0,0,0,0-.65A.33.33,0,0,0,42.23,32.48Z"/><path d="M44.58,31a.33.33,0,0,0,0-.65A.33.33,0,0,0,44.58,31Z"/><path d="M43.35,29.35a.33.33,0,0,0,0-.66A.33.33,0,0,0,43.35,29.35Z"/><path d="M42.87,27.22a.33.33,0,0,0,0-.66A.33.33,0,0,0,42.87,27.22Z"/><path d="M42.12,28.6a.33.33,0,0,0,0-.66A.33.33,0,0,0,42.12,28.6Z"/><path d="M44.32,28.75a.33.33,0,0,0,0-.66A.33.33,0,0,0,44.32,28.75Z"/><path d="M44.21,31.89a.33.33,0,0,0,0-.66A.33.33,0,0,0,44.21,31.89Z"/><path d="M41.22,31.29a.33.33,0,0,0,0-.66A.33.33,0,0,0,41.22,31.29Z"/><path d="M39.09,30.21a.33.33,0,0,0,0-.66A.33.33,0,0,0,39.09,30.21Z"/><path d="M38.35,31.12a.33.33,0,0,0,0,.65A.33.33,0,0,0,38.35,31.12Z"/><path d="M16.55,57.64l0,0c-.3.3.17.76.47.47l0,0C17.32,57.8,16.85,57.34,16.55,57.64Z"/><path d="M17.25,56a.33.33,0,0,0,0,.66A.33.33,0,0,0,17.25,56Z"/><path d="M15.7,55.07a.33.33,0,0,0,0,.66A.33.33,0,0,0,15.7,55.07Z"/><path d="M16.28,53a.33.33,0,0,0,0,.66A.33.33,0,0,0,16.28,53Z"/><path d="M14.31,51.47h0a.33.33,0,0,0,0,.65h0A.33.33,0,0,0,14.31,51.47Z"/><path d="M17.33,50.67a.33.33,0,0,0,0,.65A.33.33,0,0,0,17.33,50.67Z"/><path d="M18.17,53.84a.33.33,0,0,0,0-.66A.33.33,0,0,0,18.17,53.84Z"/><path d="M19,54.65a.33.33,0,0,0,0,.66A.33.33,0,0,0,19,54.65Z"/><path d="M21.4,52.79a.33.33,0,0,0,0-.65A.33.33,0,0,0,21.4,52.79Z"/><path d="M19.67,51.83v0a.33.33,0,0,0-.65,0v0A.33.33,0,0,0,19.67,51.83Z"/><path d="M11.13,51.42a.33.33,0,0,0,0,.66A.33.33,0,0,0,11.13,51.42Z"/><path d="M13.31,53.56a.33.33,0,0,0,0,.66A.33.33,0,0,0,13.31,53.56Z"/><path d="M16,51.49a.33.33,0,0,0,0-.65A.33.33,0,0,0,16,51.49Z"/><path d="M20.18,53.67a.33.33,0,0,0,0-.65A.33.33,0,0,0,20.18,53.67Z"/><path d="M58.27,56.46h-.11a.33.33,0,0,0,0,.66h.11A.33.33,0,0,0,58.27,56.46Z"/><path d="M61.61,51.39a.33.33,0,0,0,0,.66A.33.33,0,0,0,61.61,51.39Z"/><path d="M37.19,9.77A1.5,1.5,0,1,0,38.9,11,1.49,1.49,0,0,0,37.19,9.77Z"/><path d="M37.34,5a1.68,1.68,0,1,0,1.92,1.4A1.68,1.68,0,0,0,37.34,5Z"/><path d="M37.42,0a1.78,1.78,0,1,0,2,1.48A1.77,1.77,0,0,0,37.42,0Z"/></g></g></svg>