<svg xmlns="http://www.w3.org/2000/svg" viewBox="0 0 74.34 123.69"><defs><style>.cls-1{stroke:#000;stroke-miterlimit:10;}.cls-2{fill:#fff;}</style></defs><g id="Layer_2" data-name="Layer 2"><g id="Dream_Catcher" data-name="Dream Catcher"><path d="M37.73,2.73A1.41,1.41,0,0,0,38.61,1a1.4,1.4,0,1,0-2.66.9A1.41,1.41,0,0,0,37.73,2.73Z"/><path d="M37.5,10.41a1.12,1.12,0,1,0-1.42-.7A1.12,1.12,0,0,0,37.5,10.41Z"/><path d="M37.74,57.3l.08,0c.77-.53,1.83-2.56,2.72-5.76a13.8,13.8,0,0,0,4.79.83,15.59,15.59,0,0,0,9.45-3.41,29.43,29.43,0,0,0,4-4,24,24,0,0,1,4.76-4.49,11.94,11.94,0,0,1,10.11-1.24.5.5,0,0,0,.63-.31v-.05a.48.48,0,0,0-.1-.62,18.06,18.06,0,0,0-8.57-3.76,27.62,27.62,0,0,0-9,.15,29.65,29.65,0,0,0,4.73-17,0,0,0,0,0,0,0,.13.13,0,0,0,0-.06v-.05l0,0s0,0,0-.06l0,0h0l0-.05,0-.05h0l-.05,0-.07,0h-.29A38,38,0,0,0,49,23,27.25,27.25,0,0,0,39.15,6.57a3.27,3.27,0,0,0-1-.53,1.32,1.32,0,0,0,.24-1.26A1.3,1.3,0,0,0,36,5.62a1.41,1.41,0,0,0,.17.32,3.63,3.63,0,0,0-1.37.66,27.24,27.24,0,0,0-9.63,16.56,38,38,0,0,0-11.73-5.7h-.28l-.07,0,0,0,0,0s0,0,0,0h0a.34.34,0,0,0-.06.06l0,0v0l0,0s0,0,0,.05l0,0v0s0,0,0,.06v0a29.57,29.57,0,0,0,5,17,27.41,27.41,0,0,0-9,0A18,18,0,0,0,.17,38.74a.48.48,0,0,0-.1.62s0,0,0,0a.5.5,0,0,0,.63.3,11.93,11.93,0,0,1,10.13,1.11,23.81,23.81,0,0,1,4.81,4.42,30.05,30.05,0,0,0,4,3.93,15.53,15.53,0,0,0,9.5,3.28A13.77,13.77,0,0,0,34,51.56c.93,3.17,2,5.19,2.78,5.71M56.22,33.36l-.11,0a.34.34,0,0,0-.24.55c-.23.35-.47.69-.71,1-.52.11-1,.21-1.54.33a.33.33,0,1,0-.41.1c-1,.23-1.92.49-2.82.77A.23.23,0,0,0,50.3,36L50,35.74a.53.53,0,0,0-.17-.08.31.31,0,0,0-.28-.17.32.32,0,0,0-.06.64.22.22,0,0,0,0,.08l.14.11-.75.26a.31.31,0,0,0-.24-.11.29.29,0,0,0-.26.15.32.32,0,0,0-.23-.09h0a.32.32,0,0,0-.29.45l-.76.32a.29.29,0,0,0-.3-.22h0a.33.33,0,0,0-.28.49l-.13.06a.32.32,0,0,0-.3-.44l-.07,0a.31.31,0,0,0-.31-.23.42.42,0,0,0-.12,0l1.62-2a.27.27,0,0,0,0,.15v.05a.33.33,0,0,0,.63.11l.09-.05.27-.22a.33.33,0,0,0-.47-.46l-.27.22,0,0a.33.33,0,0,0-.1.06l1.4-1.69a.32.32,0,0,0,.26.51.33.33,0,0,0,0-.65.29.29,0,0,0-.21.08l1.06-1.28a.31.31,0,0,0,.28.17.33.33,0,0,0,.11-.64l1.13-1.36,1.25-1.51a.3.3,0,0,0,.3.24.33.33,0,0,0,0-.65C55.5,25,58.12,21.8,60.33,19A29.06,29.06,0,0,1,56.22,33.36ZM45.65,37.62h.13a.27.27,0,0,0,.21.2l-.32.15a.21.21,0,0,0,0-.12v-.06A.31.31,0,0,0,45.65,37.62Zm13.75-19c-2.61,3.29-5.79,7.13-8.88,10.86C49,31.32,47.42,33.21,45.93,35a.33.33,0,1,0-.3.22l.13,0L44.33,37a.3.3,0,0,0-.3-.25.33.33,0,0,0-.3.45.35.35,0,0,0,0,.53l-.34.42a.32.32,0,0,0-.28-.48.33.33,0,0,0-.25.53.29.29,0,0,0-.23-.1.31.31,0,0,0-.3.24h-.05c0-.57,0-1.14,0-1.73,0-.42,0-.83-.06-1.24a.34.34,0,0,0,.32.15.33.33,0,0,0,.14.63h.06a.31.31,0,0,0,.31-.36h0a.33.33,0,0,0,0-.66.34.34,0,0,0-.23.09.33.33,0,0,0-.54-.31l-.06.06s0,.05,0,.08c0-.6-.09-1.19-.16-1.78a.28.28,0,0,0,.18.06.28.28,0,0,0,.28-.18.31.31,0,0,0,.29-.32v-.16a.33.33,0,0,0-.66,0h0a.28.28,0,0,0-.14.1c0-.24-.06-.49-.1-.72l.14,0a.32.32,0,0,0,0-.64A35.31,35.31,0,0,1,59.4,18.6Zm-14,18.89a.31.31,0,0,0-.38.31v0l-.09,0,.44-.55A.42.42,0,0,0,45.43,37.49Zm-.85.76a.32.32,0,0,0-.12.25v.1l-.33.19c.15-.18.3-.36.44-.55Zm-1.26,0-.08.09s0,0,0,0Zm-.47.57-.16.2a.3.3,0,0,0-.3.23l0,.07s0,0,0,0l-.09,0c0-.11,0-.22,0-.33a.25.25,0,0,0,.13,0,.35.35,0,0,0,.35-.28h0A.39.39,0,0,0,42.85,38.81Zm-.79,4.37.08.08-.08,0H42s0-.06,0-.09Zm.87-16.49a.39.39,0,0,0,.18,0,.36.36,0,0,0,0,.42l-.09,0a.29.29,0,0,0-.14,0A.35.35,0,0,0,42.93,26.69Zm-14.08.95a.32.32,0,0,0,.07.64.3.3,0,0,0,.3-.26c.34.36.66.71,1,1.08a.33.33,0,0,0,.24.55.27.27,0,0,0,.18-.07l.44.55a.33.33,0,0,0,.13.63.29.29,0,0,0,.26-.15l.59.78a.33.33,0,0,0,.2.59l.1,0,0,.19a.34.34,0,0,0-.55.25v0a.32.32,0,0,0,.47.29,1.23,1.23,0,0,0,0,.2h0a.32.32,0,0,0-.06.64c0,.21,0,.41-.06.62a.3.3,0,0,0-.28-.18.33.33,0,0,0,0,.66.29.29,0,0,0,.25-.13c0,.17,0,.34,0,.51a.33.33,0,0,0-.52.26v0a.33.33,0,0,0,.51.26c0,.35,0,.69,0,1a.3.3,0,0,0-.21-.08.33.33,0,0,0-.23.56h0a.33.33,0,0,0,0,.65h0a.33.33,0,0,0,.23-.56.29.29,0,0,0,.21-.09c0,.16,0,.32,0,.48a.33.33,0,0,0,0,.65c0,.21,0,.43,0,.65h0a.3.3,0,0,0-.3.27L31.59,39h0a.33.33,0,0,0,0-.66.3.3,0,0,0-.3.28L31,38.25a.33.33,0,0,0-.24-.56.29.29,0,0,0-.17.06c-.2-.24-.4-.47-.59-.71h0a.27.27,0,0,0,.25.13h0a.33.33,0,0,0,0-.66h0a.33.33,0,0,0-.14,0,.33.33,0,0,0-.54,0l-.08-.11a.33.33,0,0,0,0-.65.31.31,0,0,0-.31.27l-.43-.51h.07a.33.33,0,0,0,0-.66.32.32,0,0,0-.31.35l-.5-.6.11,0a.33.33,0,0,0,0-.65.31.31,0,0,0-.3.39L25,31.14a.26.26,0,0,0,.2.08h.08a.33.33,0,0,0,0-.66h-.07a.32.32,0,0,0-.26.51l-.77-.9a.33.33,0,0,0,.21.08.33.33,0,0,0,0-.66.33.33,0,0,0-.25.52l-.4-.47c-3.14-3.69-6.37-7.49-9-10.75A35.84,35.84,0,0,1,28.85,27.64Zm1.9.6h0a.5.5,0,0,0,.13,0,.31.31,0,0,0,.27.28.41.41,0,0,0,0,.19Zm.65.73h0s0,0,0,0Zm.74,0,.11,0v.39h0l-.06-.06,0,0A.34.34,0,0,0,32.14,28.93Zm.25,14.38,0,0v0Zm-.23-1.17a.29.29,0,0,0,.11-.06l0,.33,0-.06,0-.05a.33.33,0,0,0-.55.26.32.32,0,0,0-.14,0h0a.35.35,0,0,0,.14-.35.3.3,0,0,0,.21,0H32ZM32,39.56h.05v.07Zm.28,3.12a.22.22,0,0,0,0,.08l0,0Zm-2.11-3.8-.05,0h0ZM13.75,19.32c2.7,3.31,6,7.19,9.2,11l1.35,1.6h0a.33.33,0,0,0,0,.65.3.3,0,0,0,.31-.32c.16.17.31.35.46.53a.33.33,0,0,0-.25.43.32.32,0,0,0-.14,0,.33.33,0,0,0,0,.66.32.32,0,0,0,.29-.45.4.4,0,0,0,.15,0,.29.29,0,0,0,.3-.22c.65.75,1.28,1.51,1.91,2.25a.3.3,0,0,0-.07.2v0a.3.3,0,0,0,0,.1.27.27,0,0,0-.25-.13.33.33,0,0,0,0,.66.31.31,0,0,0,.29-.43.36.36,0,0,0,.42.07l.85,1a.29.29,0,0,0-.17.28v0a.33.33,0,0,0,.59.19l.78.94a.36.36,0,0,0-.09.24l-.23-.12a.25.25,0,0,0,0-.17v0a.33.33,0,0,0-.64-.07L28.47,38a.33.33,0,0,0-.24-.55.31.31,0,0,0-.31.29c-.57-.26-1.15-.5-1.75-.72a.33.33,0,0,0,0-.32h0a.33.33,0,0,0,0-.65.32.32,0,0,0-.3.44h0a.32.32,0,0,0-.31.34l-1-.35a.34.34,0,0,0,.11-.24v0a.33.33,0,0,0-.66,0v0a.19.19,0,0,0,0,.07c-1.18-.36-2.42-.67-3.73-1a.32.32,0,0,0-.21-.57h0a.32.32,0,0,0-.27.47l-.67-.12-.06-.08a.32.32,0,0,0,.23.09A.33.33,0,1,0,19,35,28.41,28.41,0,0,1,13.75,19.32ZM32.87,50.9a.32.32,0,0,0-.29-.17.31.31,0,0,0-.31.34c-.21.06-.43.1-.65.15a.31.31,0,0,0-.32-.31.32.32,0,0,0-.3.41,12,12,0,0,1-1.8.14.32.32,0,0,0-.31-.41.32.32,0,0,0-.3.41l-.59,0a.31.31,0,0,0-.15-.21.33.33,0,0,0-.05-.65.3.3,0,0,0-.29.2.29.29,0,0,0-.3-.22.33.33,0,0,0,0,.66.3.3,0,0,0,.29-.2.31.31,0,0,0,.13.17.32.32,0,0,0-.25.18A12.72,12.72,0,0,1,25.67,51a.32.32,0,0,0-.31-.42.31.31,0,0,0-.3.25,15.32,15.32,0,0,1-4.26-2.09l.09,0a.33.33,0,1,0-.26-.14l-.35-.25a29.86,29.86,0,0,1-3.9-3.81,25.27,25.27,0,0,0-5-4.6,13,13,0,0,0-8.89-1.71,17.76,17.76,0,0,1,6.39-2.44,27,27,0,0,1,9,.07c1,.17,1.9.35,2.8.55a.29.29,0,0,0-.07.19v0a.33.33,0,0,0,.66,0v0s0,0,0-.06a34.74,34.74,0,0,1,6.84,2.32.33.33,0,0,0,.5.42l0,0a.19.19,0,0,0,.07-.11c.36.18.71.37,1.06.56a.33.33,0,0,0,.27.5.29.29,0,0,0,.29-.19l.85.52a.32.32,0,0,0,.3.45.31.31,0,0,0,.24-.11l.25.16a.35.35,0,0,0,0,.11.3.3,0,0,0-.24-.1.32.32,0,0,0-.2.57.35.35,0,0,0-.07.28.33.33,0,0,0-.34.54l0,0a.3.3,0,0,0,.24.09.33.33,0,0,0,.2.59h0a.34.34,0,0,0,0,.24l-.09,0h0a.34.34,0,0,0-.24.11.31.31,0,0,0-.31-.38.33.33,0,0,0,0,.66.34.34,0,0,0,.23-.11.32.32,0,0,0,.31.38h0l.11,0a.43.43,0,0,0,.17,0A.29.29,0,0,0,32,44a.33.33,0,0,0,.47-.17l.06.5a.5.5,0,0,0-.13,0h-.13a.3.3,0,0,0-.3-.22.31.31,0,0,0-.31.31l0,0a.3.3,0,0,0-.31-.24h0a.33.33,0,0,0-.12.63.31.31,0,0,0,.36.25.33.33,0,0,0,.22.57.33.33,0,0,0,0-.66h0a.31.31,0,0,0,.1-.23h0a.32.32,0,0,0,.18.06l.08,0a.33.33,0,0,0,0,.15V45a.33.33,0,0,0,.62.14c0,.11,0,.21.05.32a.32.32,0,0,0-.32-.13h-.07a.31.31,0,0,0-.3.4v.06A.31.31,0,0,0,32,46a.33.33,0,0,0,.46.36h0l0,.05a0,0,0,0,0,0,0,.32.32,0,0,0-.49.27v0a.3.3,0,0,0,.07.2L32,47l0,0a.21.21,0,0,0-.06.1h-.06a.33.33,0,0,0-.22.56h0a.33.33,0,0,0-.12.63.36.36,0,0,0,.07.22s0,0,0,.06,0,0,0,0v0a.07.07,0,0,0,0,.05s0,0,0,0a.26.26,0,0,0,.08.13.34.34,0,0,0-.14.46.33.33,0,0,0,.25.53.36.36,0,0,0,.24-.11.31.31,0,0,0,.31.36.34.34,0,0,0,.22-.09.33.33,0,0,0,.2.51.3.3,0,0,0,.54,0,.31.31,0,0,0,.09.19C33.16,50.8,33,50.86,32.87,50.9Zm.39-.55a.3.3,0,0,0-.25-.28.3.3,0,0,0-.28-.16.29.29,0,0,0-.21.08.32.32,0,0,0-.26-.51.31.31,0,0,0-.24.1.31.31,0,0,0,0-.19A.38.38,0,0,0,32,49a.22.22,0,0,0,.09.07l.09,0c.38.19.71-.38.33-.56l-.1,0a.31.31,0,0,0-.28,0l0-.05a.32.32,0,0,0-.19-.48.34.34,0,0,0-.09-.24h0a.3.3,0,0,0,.29-.2.28.28,0,0,0,.29-.08l0,0a.31.31,0,0,0,0-.44.24.24,0,0,0,.13-.16.36.36,0,0,0,.29,0c0,.13,0,.26.07.39a.34.34,0,0,0-.26.46.29.29,0,0,0-.17,0,.31.31,0,0,0-.31.35.32.32,0,0,0,.28.49.31.31,0,0,0,.31-.35.41.41,0,0,0,0-.31.24.24,0,0,0,.17.06l.08,0,.12.56a.26.26,0,0,0-.18-.06.33.33,0,0,0-.14.62.36.36,0,0,0,.09.24.33.33,0,0,0-.15.45l0,0a.27.27,0,0,0,.33.15.32.32,0,0,0,.18.39A.26.26,0,0,0,33.26,50.35ZM32.6,30.48h0v0Zm.78,18.85-.05,0s0,0,0,0l0,.14Zm0,.3a.25.25,0,0,0,0-.09.29.29,0,0,1,0,.09Zm3.39,6.27-.09-.14.1-.06A1.34,1.34,0,0,0,36.81,55.9Zm0-.93a.28.28,0,0,0-.18.09h0a.25.25,0,0,0-.14,0l-.13.08c-.09-.17-.18-.34-.27-.54a.29.29,0,0,0,.19.06.29.29,0,0,0,.28-.2.32.32,0,0,0,.14,0h.06l.09,0Zm.06-1.06-.13,0h0a.31.31,0,0,0-.23.1.3.3,0,0,0,0-.1v0a.32.32,0,0,0-.42-.3.28.28,0,0,0,.13-.09.29.29,0,0,0,.28-.28.3.3,0,0,0,.22.09.27.27,0,0,0,.22-.1C37,53.41,36.93,53.66,36.92,53.91ZM37,51.52a.34.34,0,0,0-.07-.11l-.06,0a.26.26,0,0,0-.17-.09.38.38,0,0,0,0-.36.33.33,0,0,0-.15-.61.33.33,0,0,0-.26.52.33.33,0,0,0,.1.6.31.31,0,0,0,0,.4l.06,0a.32.32,0,0,0,.53-.12c0,.33,0,.66,0,1a.32.32,0,0,0-.26-.13.29.29,0,0,0-.3.26.36.36,0,0,0-.49,0,.3.3,0,0,0-.28.31v.06a.32.32,0,0,0,.41.3.29.29,0,0,0-.19.29v0a.28.28,0,0,0,.18.28.37.37,0,0,0-.05.18c-.19-.42-.38-.89-.57-1.43a.32.32,0,0,0,0-.64.24.24,0,0,0-.15,0c-.13-.39-.25-.79-.38-1.23a.28.28,0,0,0,.2.08.33.33,0,0,0,0-.66.3.3,0,0,0-.3.23A55.36,55.36,0,0,1,33,36.66a25,25,0,0,1,3.59-13.58A256.73,256.73,0,0,1,37,51.52Zm.13-30.38a.53.53,0,0,0-.22,0,.46.46,0,0,0-.31.15l-.09,0a.32.32,0,0,0-.25.52l-.45.67a.3.3,0,0,0-.29-.19.25.25,0,0,0-.16.05.31.31,0,0,0-.31-.25.33.33,0,0,0,0,.66l.16-.05a.3.3,0,0,0,.28.24c-.06.09-.1.19-.16.28a.28.28,0,0,0-.21-.12.27.27,0,0,0-.25-.13.21.21,0,0,0-.12,0,.33.33,0,1,0-.29.19.21.21,0,0,0,.12,0,.34.34,0,0,0,.25.46.28.28,0,0,0,.22.11c-.15.28-.31.55-.45.83a.41.41,0,0,0-.07-.11l0,0a.31.31,0,0,0-.46,0,.33.33,0,0,0-.24-.1.33.33,0,0,0,0,.65.29.29,0,0,0,.23-.1h0l0,0a.28.28,0,0,0,.34.07c-.09.18-.16.36-.24.55a.29.29,0,0,0-.19-.06.31.31,0,0,0-.27.15l0,0a.33.33,0,0,0-.21-.57.3.3,0,0,0-.22.09.31.31,0,0,0-.31-.26.3.3,0,0,0-.31.32.31.31,0,0,0-.22-.08.31.31,0,0,0-.31.29.33.33,0,0,0,.14.63.3.3,0,0,0,.31-.3.31.31,0,0,0,.18-.29.29.29,0,0,0,.21.09.3.3,0,0,0,.22-.1.3.3,0,0,0,.23.25.32.32,0,0,0,0,.48l.09.09a.31.31,0,0,0,.42,0c-.1.26-.19.53-.29.79a.27.27,0,0,0-.16-.2.32.32,0,1,0-.36,0,.28.28,0,0,0-.11.24v0a.24.24,0,0,0,0,.09.29.29,0,0,0-.19-.06.33.33,0,0,0,0,.65.32.32,0,0,0,.3-.43.37.37,0,0,0,.38,0c0,.13-.1.27-.14.4l-.13,0a.33.33,0,0,0-.08.64l0,.12a.3.3,0,0,0-.29-.2.29.29,0,0,0-.25.12l-.05,0a.32.32,0,0,0-.06-.64h0a.32.32,0,0,0-.19.58h0a.32.32,0,0,0-.51-.08l0,0-.05.06-.1,0a.32.32,0,0,0-.27-.49.28.28,0,0,0-.13,0,.31.31,0,0,0-.31-.29h0a.3.3,0,0,0-.31.3l-.32-.33.1,0a.33.33,0,0,0,.26-.52l.08,0a.32.32,0,0,0,.3-.41.32.32,0,0,0,.41-.31v0a.33.33,0,0,0-.63-.12.34.34,0,0,0-.15-.41.33.33,0,0,0,.14-.36.3.3,0,0,0,.31.28.33.33,0,0,0,0-.65.31.31,0,0,0-.31.36.3.3,0,0,0-.31-.24h0a.28.28,0,0,0-.25.14.32.32,0,0,0-.17-.06.32.32,0,0,0-.3.44.33.33,0,0,0-.63.14v0a.33.33,0,0,0,.66,0v0a.2.2,0,0,0,0-.11.3.3,0,0,0,.3.2.3.3,0,0,0,.26-.14l0,0a.33.33,0,0,0,.18.6.29.29,0,0,0,.29-.21.51.51,0,0,0,0,.13v0s0,0,0,.07l-.08,0a.33.33,0,0,0-.26.52l-.07,0a.32.32,0,0,0-.3.42L29.55,27a.45.45,0,0,0,0-.28.28.28,0,0,0,.25.14.33.33,0,0,0,0-.66.32.32,0,0,0-.3.43.27.27,0,0,0-.25-.13.32.32,0,0,0-.18.05l-.59-.56.12,0a.33.33,0,1,0-.29-.18c-.67-.62-1.38-1.21-2.1-1.79a.31.31,0,0,0,.22-.35h0a.31.31,0,0,0,.31.38.27.27,0,0,0,.18-.07L27,24l-.06.14a.33.33,0,0,0,.23.4.33.33,0,0,0,.4-.23l.06-.14a.33.33,0,0,0-.23-.41.3.3,0,0,0-.28.07.32.32,0,0,0-.28-.48H26.7a.28.28,0,0,0-.09-.27L26.55,23a.3.3,0,0,0-.4,0c0-.23.09-.46.14-.69a.3.3,0,0,0,.29.2.33.33,0,0,0,.15,0,.33.33,0,0,0,.65-.06v0a.33.33,0,0,0-.5-.27.29.29,0,0,0-.3-.26.33.33,0,0,0-.21.08c.05-.23.12-.46.18-.69a.31.31,0,0,0,.32.33.33.33,0,0,0,0-.66.3.3,0,0,0-.3.31,26.27,26.27,0,0,1,2.51-6.34.3.3,0,0,0,.31.24h0a.33.33,0,0,0,0-.65H29.3a25.86,25.86,0,0,1,6.08-7.13A2.67,2.67,0,0,1,37,6.8a2.61,2.61,0,0,1,1.59.54A26,26,0,0,1,45.05,15a.28.28,0,0,0,.13.24,25.67,25.67,0,0,1,1.58,3.41.33.33,0,0,0,.06.65A.25.25,0,0,0,47,19.2c0,.1.07.2.1.3a.33.33,0,0,0,0,.65.36.36,0,0,0,.19-.06c0,.14.09.29.13.43a.33.33,0,0,0,.17.59c.05.22.11.44.16.66a.3.3,0,0,0-.29.31v0a.32.32,0,0,0,.44.3c0,.23.09.47.14.71a.29.29,0,0,0-.28-.17.33.33,0,0,0,0,.66.31.31,0,0,0,.31-.29v.06a.36.36,0,0,0,0,.37l-.16.13a.28.28,0,0,0-.29-.19.3.3,0,0,0-.18.06.33.33,0,0,0-.29-.47.33.33,0,0,0,0,.66.27.27,0,0,0,.18-.07.37.37,0,0,0,.09.41l-.21.17,0-.05c.13-.4-.5-.57-.63-.17l0,.09a.27.27,0,0,0,0,.25.35.35,0,0,0,0,.4l-.49.43a.15.15,0,0,0,0-.07.33.33,0,0,0-.26-.52.33.33,0,0,0-.16.61.33.33,0,0,0,0,.4c-.08.08-.16.15-.23.23a.32.32,0,0,0-.31-.41h-.06l-.08,0a.33.33,0,0,0,0-.26.27.27,0,0,0,.16-.08l0,0a.33.33,0,0,0-.47-.46l0,0a.31.31,0,0,0,0,.39.33.33,0,0,0,.07.64l.09,0a.31.31,0,0,0,.3.42h.12l-.39.38a.29.29,0,0,0-.17-.05h0a.33.33,0,0,0-.25.53c-.11.13-.24.25-.35.38a.3.3,0,0,0-.3-.23.33.33,0,0,0-.26.52l-.08.05a.39.39,0,0,0-.17-.14.34.34,0,0,0,.06-.46h.1a.31.31,0,0,0,.29-.41.31.31,0,0,0,.3.2h0a.33.33,0,0,0,.24-.54h.09a.33.33,0,0,0,0-.65.3.3,0,0,0-.3.27.3.3,0,0,0-.31-.38h0a.33.33,0,0,0-.3.45.33.33,0,0,0-.25-.15.33.33,0,1,0-.21.06.38.38,0,0,0-.09.09v0a.28.28,0,0,0,0,.34.27.27,0,0,0-.12,0,.33.33,0,0,0,0,.66.28.28,0,0,0,.18-.06.34.34,0,0,0,0,.61.32.32,0,0,0-.09.41.36.36,0,0,0-.19-.06.33.33,0,0,0-.27.5.19.19,0,0,0-.1,0,.32.32,0,0,0-.31-.4H41.9a.3.3,0,0,0-.3-.22.31.31,0,0,0-.3.41.33.33,0,0,0-.17.12c-.11-.37-.23-.72-.35-1.08a.31.31,0,0,0,.24-.33.33.33,0,0,0,.29-.18l.1.05a.37.37,0,0,0-.07.27.32.32,0,0,0-.42.31v.09a.33.33,0,0,0,.65,0V27.6s0,0,0,0h.09a.3.3,0,0,0,.22-.09.44.44,0,0,0,.08.11.33.33,0,0,0,.18.6h0a.24.24,0,0,0,.18-.06.32.32,0,0,0,.44-.3v0a.31.31,0,0,0-.35-.31.32.32,0,0,0-.18-.46.38.38,0,0,0,0-.43.32.32,0,0,0,.22-.1h0c.3-.3-.17-.76-.47-.46h0a.31.31,0,0,0,0,.44.29.29,0,0,0-.19.07.29.29,0,0,0-.15-.16.33.33,0,0,0-.07-.64.29.29,0,0,0-.19.07.3.3,0,0,0-.31-.3.29.29,0,0,0-.25.12.3.3,0,0,0-.31-.29.33.33,0,0,0,0,.65.29.29,0,0,0,.25-.12.32.32,0,0,0,.5.23.32.32,0,0,0,.15.25.31.31,0,0,0-.24.2.32.32,0,0,0-.3,0,.32.32,0,0,0-.3-.44.3.3,0,0,0-.27.16c-.11-.27-.24-.53-.36-.79h0a.33.33,0,0,0,0-.66.27.27,0,0,0-.25.13,20.85,20.85,0,0,0-2.19-3.59A.5.5,0,0,0,37.16,21.14Zm6.23,5.16a.3.3,0,0,0,.25.12h0a.29.29,0,0,0,.3-.25.43.43,0,0,0,.07.25l-.09,0h0a.32.32,0,0,0-.29.42.31.31,0,0,0-.3-.2h-.06l.06-.06v0A.29.29,0,0,0,43.39,26.3ZM42,44.5a.43.43,0,0,0,.1.09v0l-.13,0s-.05,0-.08,0l0-.32A.33.33,0,0,0,42,44.5Zm-.16.71,0,0v-.05S41.8,45.21,41.82,45.21ZM40.68,26.86a.27.27,0,0,0-.12,0l-.06-.17h.1l.1,0a.43.43,0,0,0,0,.11v0Zm-2.88,29,0-.67a.39.39,0,0,0,.21.06l.05,0h0C38,55.47,37.9,55.67,37.8,55.83ZM39,53.21a.29.29,0,0,0-.21.29v.06a.32.32,0,0,0,0,.14c0,.12-.09.23-.13.34a.33.33,0,0,0-.55-.17l-.06.05a.33.33,0,0,0,.46.47l-.12.28-.1-.05-.06,0a.33.33,0,0,0-.37,0c0-.26,0-.52,0-.78a.24.24,0,0,0,.12,0,.33.33,0,0,0,0-.66l-.07,0,0-.56.18.19.11.07a.31.31,0,0,0,.29.18.33.33,0,0,0,.13-.63l-.07-.09,0,0a.28.28,0,0,0,.18.06.31.31,0,0,0,.1.23.29.29,0,0,0,.3.08Zm1.57-7h.1a42.43,42.43,0,0,1-1.18,5.43.31.31,0,0,0-.24.18.26.26,0,0,0-.11.07l0,0a.32.32,0,0,0-.64.06v.05a.28.28,0,0,0,.06.18l-.09-.09a.31.31,0,0,0-.42,0,260,260,0,0,0-.42-29,25.05,25.05,0,0,1,3.75,13.51c0,1.71,0,3.31-.15,4.82h-.06a.33.33,0,0,0,0,.65h0c-.1,1.26-.23,2.45-.39,3.56a.32.32,0,0,0-.14,0h-.05A.33.33,0,0,0,40.55,46.26Zm1.19,1.87a.4.4,0,0,0,0,.22.29.29,0,0,0-.14,0h0a.3.3,0,0,0-.2.07.26.26,0,0,0-.1-.11c0-.1.05-.2.07-.3A.34.34,0,0,0,41.74,48.13Zm-.89,2.18v0A0,0,0,0,1,40.85,50.31Zm.11-.44a1.6,1.6,0,0,1,0-.21.32.32,0,0,0,.09.16A.22.22,0,0,0,41,49.87Zm.32.87h0ZM42,51l-.31-.08a.29.29,0,0,0,.25-.16l.1,0a.42.42,0,0,0,.16,0l.09.05A.29.29,0,0,0,42,51Zm21-11.3a24.62,24.62,0,0,0-5,4.66c-.86,1-1.75,2-2.71,2.87l0,0,0-.1c.19-.37-.38-.7-.57-.32l0,.09a.34.34,0,0,0,.44.46c-.34.31-.68.6-1,.88l-.42.31a.31.31,0,0,0-.17,0,.31.31,0,0,0-.3.38l-.87.54a.29.29,0,0,0-.22-.08h0a.32.32,0,0,0-.31.4,14.33,14.33,0,0,1-5.08,1.6.31.31,0,0,0-.3-.41.32.32,0,0,0-.29.46c-.15,0-.3,0-.46,0a.26.26,0,0,0,.06-.18v0a.33.33,0,0,0-.65,0v0a.36.36,0,0,0,.06.19c-.41,0-.83,0-1.25-.06a.31.31,0,0,0,0-.17v0a.33.33,0,0,0-.66,0v0a.19.19,0,0,0,0,.08,5.86,5.86,0,0,1-.58-.1.33.33,0,0,0,0-.62.31.31,0,0,0-.31-.38.33.33,0,0,1-.37,0,.3.3,0,0,0-.27.16l-.1,0h-.14l-.11,0a.34.34,0,0,0-.1-.35.3.3,0,0,0,.28-.21.35.35,0,0,0,.56,0h.06a.33.33,0,0,0,0-.65h-.05a.28.28,0,0,0-.24.11.32.32,0,0,0-.33.17.32.32,0,0,0-.31-.41.29.29,0,0,0-.16,0l0-.1a.33.33,0,0,0,.15,0,.3.3,0,0,0,.27.16h0a.32.32,0,0,0,.26-.5.24.24,0,0,0,.15,0h.09a.31.31,0,0,0,.28.47.33.33,0,0,0,0-.65.27.27,0,0,0,.17-.27.34.34,0,0,0,.23.09.26.26,0,0,0,.2-.08.31.31,0,0,0,.62-.07.33.33,0,0,0,.2-.09l0,0c.3-.3-.17-.76-.46-.46l0,0a.29.29,0,0,0-.09.24.38.38,0,0,0-.16.06.3.3,0,0,0-.3-.26.31.31,0,0,0-.31.3.35.35,0,0,0-.53.07.33.33,0,0,0-.55-.31v0l.06-.4A.33.33,0,0,0,42.1,47v-.06a.31.31,0,0,0-.08-.22.32.32,0,0,0-.26-.51.29.29,0,0,0-.11,0c0-.16,0-.33.07-.49v0a.35.35,0,0,0,0,.18.37.37,0,0,0,.31.24.3.3,0,0,0,.29.35.36.36,0,0,0,.15.27.31.31,0,0,0,.31.28.34.34,0,0,0,.17-.61.3.3,0,0,0-.29-.27.37.37,0,0,0-.1-.23.3.3,0,0,0,.08-.08.31.31,0,0,0,.24-.26.32.32,0,0,0-.07-.64h0a.36.36,0,0,0-.12-.08h0a.36.36,0,0,0,.06-.19v0a.29.29,0,0,0-.19-.28.33.33,0,0,0-.08-.33.27.27,0,0,0-.25-.13.29.29,0,0,0-.28.2l0-.26a.2.2,0,0,0,.11,0,.31.31,0,0,0,.3-.21.32.32,0,0,0,.31.39.31.31,0,0,0,.31-.33v.07a.33.33,0,0,0,.66,0v-.06a.33.33,0,0,0-.66,0,.31.31,0,0,0-.32-.33h0a.32.32,0,0,0,.08-.52l-.07-.07a.32.32,0,0,0,.43-.27.32.32,0,0,0,.5.07l.1-.09a.33.33,0,0,0-.47-.46l-.09.09a.28.28,0,0,0-.08.12.33.33,0,0,0-.61.17v.07a.28.28,0,0,0,0,.13h0a.33.33,0,0,0-.37-.16c0-.18,0-.36,0-.53a.27.27,0,0,0,.29.21.31.31,0,0,0,.31-.36.31.31,0,0,0,.36-.31v-.06a.28.28,0,0,0,0-.13.33.33,0,0,0,.57-.22v0l.07,0h.07a.33.33,0,0,0,0-.65h-.07a.3.3,0,0,0-.31.31.32.32,0,0,0-.41.31v0a.5.5,0,0,0,0,.12.19.19,0,0,0-.12-.07.32.32,0,0,0-.18-.06.32.32,0,0,0-.17.06.33.33,0,0,0-.35.09.28.28,0,0,1,0-.09s0,0,0,0h0q.84-.59,1.71-1.11a.33.33,0,0,0,.64-.08V39.9a.29.29,0,0,0-.07-.19c.25-.15.51-.31.77-.45a.32.32,0,0,0,.31.37.33.33,0,0,0,.17-.6,35.17,35.17,0,0,1,8.91-3,.31.31,0,0,0,.32.33.32.32,0,0,0,.29-.45l1.16-.23a26.66,26.66,0,0,1,9-.19,17.87,17.87,0,0,1,6.42,2.35A13,13,0,0,0,63,39.65Z"/><path d="M30.08,42.24v0a.33.33,0,0,0-.65,0v0A.33.33,0,0,0,30.08,42.24Z"/><path d="M29.68,44.23a.33.33,0,0,0,0-.66A.33.33,0,0,0,29.68,44.23Z"/><path d="M30.62,41.74a.33.33,0,0,0,0,.65A.33.33,0,0,0,30.62,41.74Z"/><path d="M30.4,41a.33.33,0,0,0,0-.65A.33.33,0,0,0,30.4,41Z"/><path d="M30.52,45.75a.33.33,0,0,0,0-.66A.33.33,0,0,0,30.52,45.75Z"/><path d="M30,43V43a.33.33,0,0,0,.66,0v0A.33.33,0,0,0,30,43Z"/><path d="M30.25,44.7a.33.33,0,0,0,0-.65A.33.33,0,0,0,30.25,44.7Z"/><path d="M29.18,46.36a.3.3,0,0,0-.2-.07A.33.33,0,0,0,29,47a.32.32,0,0,0,.25-.52.29.29,0,0,0,.19.07h.05a.33.33,0,0,0,0-.66h0A.32.32,0,0,0,29.18,46.36Z"/><path d="M30.74,46.79a.33.33,0,0,0,0,.66A.33.33,0,0,0,30.74,46.79Z"/><path d="M31.13,46.12v0a.3.3,0,0,0,.28.31.32.32,0,1,0,.21,0,.3.3,0,0,0,.16-.28v0a.29.29,0,0,0-.24-.3.32.32,0,0,0-.32-.32A.33.33,0,0,0,31.13,46.12Z"/><path d="M30,47.08v0a.33.33,0,0,0-.66,0v0A.33.33,0,0,0,30,47.08Z"/><path d="M29.61,47.77a.33.33,0,0,0,0,.65A.33.33,0,0,0,29.61,47.77Z"/><path d="M30.86,48.05l-.05,0a.31.31,0,0,0-.23,0,.3.3,0,0,0,0-.43l0,0a.33.33,0,0,0-.46.47l0,0a.27.27,0,0,0,.3.08.3.3,0,0,0,.07.48l.05,0C30.91,48.8,31.24,48.24,30.86,48.05Z"/><path d="M32,50.17a.33.33,0,0,0,0,.65A.33.33,0,0,0,32,50.17Z"/><path d="M31.1,49.88a.33.33,0,0,0,0,.65A.33.33,0,0,0,31.1,49.88Z"/><path d="M30.26,48.92a.33.33,0,0,0,0,.66A.33.33,0,0,0,30.26,48.92Z"/><path d="M29.48,49.08v0a.33.33,0,0,0-.66,0v0A.33.33,0,0,0,29.48,49.08Z"/><path d="M27.77,49.59v0a.33.33,0,0,0,.65,0v0A.33.33,0,0,0,27.77,49.59Z"/><path d="M28.79,50.14a.33.33,0,0,0,0,.65A.33.33,0,0,0,28.79,50.14Z"/><path d="M29.33,50.15a.33.33,0,0,0,0-.66A.33.33,0,0,0,29.33,50.15Z"/><path d="M29.4,50.5a.33.33,0,0,0,0,.66A.33.33,0,0,0,29.4,50.5Z"/><path d="M30.44,50.55a.33.33,0,0,0,0,.65A.33.33,0,0,0,30.44,50.55Z"/><path d="M28.34,47.61a.33.33,0,0,0,.66,0v0a.33.33,0,0,0-.66,0Z"/><path d="M28.51,48.8a.33.33,0,0,0,0-.66A.33.33,0,0,0,28.51,48.8Z"/><path d="M27,48.3h0A.33.33,0,0,0,27,49h0A.33.33,0,0,0,27,48.3Z"/><path d="M27,49.44a.33.33,0,0,0,0,.65A.33.33,0,0,0,27,49.44Z"/><path d="M27.83,47.11a.33.33,0,0,0,0,.66A.33.33,0,0,0,27.83,47.11Z"/><path d="M26.23,47.62a.33.33,0,0,0,0,.65A.33.33,0,0,0,26.23,47.62Z"/><path d="M25.8,48.8a.33.33,0,0,0,0,.66A.33.33,0,0,0,25.8,48.8Z"/><path d="M26,49.79a.33.33,0,0,0,0,.65A.33.33,0,0,0,26,49.79Z"/><path d="M24.77,49.57a.33.33,0,0,0,0,.66A.33.33,0,0,0,24.77,49.57Z"/><path d="M26.64,46.63a.33.33,0,0,0,0,.65A.33.33,0,0,0,26.64,46.63Z"/><path d="M27.3,45.17a.33.33,0,0,0,0,.66A.33.33,0,0,0,27.3,45.17Z"/><path d="M28.07,46.78a.33.33,0,0,0,0-.65A.33.33,0,0,0,28.07,46.78Z"/><path d="M28.73,45.92h.05a.33.33,0,0,0,0-.66h-.05A.33.33,0,0,0,28.73,45.92Z"/><path d="M28.78,45.18a.33.33,0,0,0,0-.66A.33.33,0,0,0,28.78,45.18Z"/><path d="M29.67,45.27h0a.33.33,0,0,0,0-.66h0A.33.33,0,0,0,29.67,45.27Z"/><path d="M28.18,43.59a.33.33,0,0,0,0,.65A.33.33,0,0,0,28.18,43.59Z"/><path d="M27.12,43.64a.33.33,0,0,0,0,.66A.33.33,0,0,0,27.12,43.64Z"/><path d="M27.6,42.26a.28.28,0,0,0-.28.19.29.29,0,0,0-.19-.06.33.33,0,0,0,0,.65.28.28,0,0,0,.28-.18.36.36,0,0,0,.19.06A.33.33,0,0,0,27.6,42.26Z"/><path d="M28.59,42.66a.33.33,0,0,0,0-.65A.33.33,0,0,0,28.59,42.66Z"/><path d="M28.56,43.17v.1a.33.33,0,0,0,.66,0v-.1A.33.33,0,0,0,28.56,43.17Z"/><path d="M29.22,41.06a.33.33,0,0,0,0-.66A.33.33,0,0,0,29.22,41.06Z"/><path d="M27.86,40.77a.33.33,0,0,0,0-.65A.33.33,0,0,0,27.86,40.77Z"/><path d="M28,41c-.3.3.17.76.46.46l0,0A.33.33,0,0,0,28,41Z"/><path d="M26.54,41.59a.33.33,0,0,0,0-.65A.33.33,0,0,0,26.54,41.59Z"/><path d="M29,40.1a.33.33,0,0,0,0-.66A.33.33,0,0,0,29,40.1Z"/><path d="M26.4,45.83v-.08a.33.33,0,0,0-.66,0v.07A.33.33,0,0,0,26.4,45.83Z"/><path d="M26.44,44.49a.33.33,0,0,0-.65,0v0a.33.33,0,0,0,.65,0Z"/><path d="M28.17,44.53v0a.33.33,0,0,0-.66,0v0A.33.33,0,0,0,28.17,44.53Z"/><path d="M25.14,45.14v0a.33.33,0,0,0-.66,0v0a.29.29,0,0,0,.09.21.3.3,0,0,0-.2-.07.33.33,0,1,0,.24.11A.33.33,0,0,0,25.14,45.14Z"/><path d="M22.46,47a.33.33,0,0,0,0-.66A.33.33,0,0,0,22.46,47Z"/><path d="M23.28,48a.33.33,0,0,0,0,.66A.33.33,0,0,0,23.28,48Z"/><path d="M24.18,46.79a.33.33,0,0,0,0,.66A.33.33,0,0,0,24.18,46.79Z"/><path d="M25.19,47.23h0a.33.33,0,0,0,0,.66h0A.33.33,0,0,0,25.19,47.23Z"/><path d="M25.56,46.6a.33.33,0,0,0,0-.65A.33.33,0,0,0,25.56,46.6Z"/><path d="M21.38,47.21a.33.33,0,0,0,0,.65A.33.33,0,0,0,21.38,47.21Z"/><path d="M19.89,46.3a.33.33,0,0,0,0,.66A.33.33,0,0,0,19.89,46.3Z"/><path d="M22.15,49.23v0a.33.33,0,0,0,.65,0v0A.33.33,0,0,0,22.15,49.23Z"/><path d="M23.58,49.61a.33.33,0,0,0,0,.65A.33.33,0,0,0,23.58,49.61Z"/><path d="M22.09,47.6a.33.33,0,0,0,0,.65A.33.33,0,0,0,22.09,47.6Z"/><path d="M24.52,48.74h0a.33.33,0,0,0,0-.65.33.33,0,0,0-.17.6h-.05a.33.33,0,0,0,0,.65A.33.33,0,0,0,24.52,48.74Z"/><path d="M23.31,45.41a.33.33,0,0,0,0-.66h0a.33.33,0,0,0,0,.66Z"/><path d="M21.07,45.47a.33.33,0,0,0,0-.65A.33.33,0,0,0,21.07,45.47Z"/><path d="M21.05,46.12a.33.33,0,0,0,0,.66A.33.33,0,0,0,21.05,46.12Z"/><path d="M19.73,44.63a.33.33,0,0,0,0,.65A.33.33,0,0,0,19.73,44.63Z"/><path d="M17.78,45v0a.33.33,0,0,0,.66,0v0A.33.33,0,0,0,17.78,45Z"/><path d="M18.56,43.06a.33.33,0,0,0,0,.66A.33.33,0,0,0,18.56,43.06Z"/><path d="M19.87,43.07a.33.33,0,0,0,0-.66A.33.33,0,0,0,19.87,43.07Z"/><path d="M21.82,43.41a.33.33,0,0,0,0,.65A.33.33,0,0,0,21.82,43.41Z"/><path d="M20.42,43.69a.33.33,0,0,0,0,.65A.33.33,0,0,0,20.42,43.69Z"/><path d="M21.76,42.51a.33.33,0,0,0,0-.65A.33.33,0,0,0,21.76,42.51Z"/><path d="M21.07,41.24a.33.33,0,0,0,0-.66A.33.33,0,0,0,21.07,41.24Z"/><path d="M22.61,40.73a.33.33,0,0,0,0-.65A.33.33,0,0,0,22.61,40.73Z"/><path d="M24,41.05a.33.33,0,0,0,0,.66A.33.33,0,0,0,24,41.05Z"/><path d="M23.47,42.74v0a.33.33,0,0,0-.65,0v0A.33.33,0,0,0,23.47,42.74Z"/><path d="M24.36,43.37a.33.33,0,0,0-.21.56l0,0c.3.3.76-.17.46-.46v0a.33.33,0,0,0,0-.65A.34.34,0,0,0,24.36,43.37Z"/><path d="M26,43.25a.33.33,0,0,0,0-.66A.33.33,0,0,0,26,43.25Z"/><path d="M24.83,40.94a.33.33,0,0,0,0-.66A.33.33,0,0,0,24.83,40.94Z"/><path d="M24.06,39.24a.33.33,0,0,0,0-.65A.33.33,0,0,0,24.06,39.24Z"/><path d="M22.8,39a.33.33,0,0,0,0-.65A.33.33,0,0,0,22.8,39Z"/><path d="M23.62,40.26a.33.33,0,0,0,0-.66A.33.33,0,0,0,23.62,40.26Z"/><path d="M25.37,39.44a.33.33,0,0,0,0,.66A.33.33,0,0,0,25.37,39.44Z"/><path d="M25.31,38.52a.33.33,0,0,0,0-.65A.33.33,0,0,0,25.31,38.52Z"/><path d="M26.74,39.13a.33.33,0,0,0,0-.66A.33.33,0,0,0,26.74,39.13Z"/><path d="M26.73,40.31a.33.33,0,0,0,0-.65A.33.33,0,0,0,26.73,40.31Z"/><path d="M25.18,41.54a.33.33,0,0,0,0,.65A.33.33,0,0,0,25.18,41.54Z"/><path d="M25.52,44.46a.33.33,0,0,0,0-.66A.33.33,0,0,0,25.52,44.46Z"/><path d="M23.6,44.09a.33.33,0,0,0,0,.65A.33.33,0,0,0,23.6,44.09Z"/><path d="M23.44,47a.33.33,0,0,0,0-.65A.33.33,0,0,0,23.44,47Z"/><path d="M30.58,46.09a.33.33,0,0,0,0,.65h0a.33.33,0,0,0,0-.65Z"/><path d="M29.72,41.38c.13.4.77.22.63-.18l0-.07c-.13-.4-.76-.22-.63.18Z"/><path d="M31,41.61A.33.33,0,0,0,31,41,.33.33,0,0,0,31,41.61Z"/><path d="M31,48.79a.33.33,0,0,0,0,.66A.33.33,0,0,0,31,48.79Z"/><path d="M30.49,50.06V50a.33.33,0,0,0-.65,0v.07A.33.33,0,0,0,30.49,50.06Z"/><path d="M25.1,36.37a.32.32,0,0,0,.3-.43.33.33,0,0,0,.58-.2v0a.33.33,0,0,0-.65,0v0a.29.29,0,0,0,0,.09.3.3,0,0,0-.25-.12A.33.33,0,0,0,25.1,36.37Z"/><path d="M27.48,37.17a.25.25,0,0,0,.16,0,.33.33,0,0,0,0-.65l-.12,0a.33.33,0,0,0-.5.27v0A.33.33,0,0,0,27.48,37.17Z"/><path d="M26.41,35.49l0,0c.3-.3-.17-.76-.46-.46l0,0C25.64,35.33,26.11,35.79,26.41,35.49Z"/><path d="M31.05,36.09a.33.33,0,0,0-.16.61.33.33,0,1,0,.25,0A.33.33,0,0,0,31.05,36.09Z"/><path d="M31.68,36.55a.33.33,0,0,0,0-.65A.33.33,0,0,0,31.68,36.55Z"/><path d="M31,35a.33.33,0,0,0-.26.51.3.3,0,0,0-.23.25.28.28,0,0,0-.29-.19h0a.33.33,0,0,0,0,.65h0a.3.3,0,0,0,.3-.27.3.3,0,0,0,.29.19.33.33,0,0,0,.27-.5A.33.33,0,0,0,31,35Z"/><path d="M29.93,35.12a.33.33,0,0,0,0-.66.31.31,0,0,0-.29.43l-.11,0a.33.33,0,1,0,.3.22A.2.2,0,0,0,29.93,35.12Z"/><path d="M28.88,34.13a.33.33,0,0,0,0,.66A.33.33,0,0,0,28.88,34.13Z"/><path d="M23.09,35.36a.33.33,0,0,0,0,.66A.33.33,0,0,0,23.09,35.36Z"/><path d="M23.12,34.47a.3.3,0,0,0-.18.06.31.31,0,0,0-.3-.21h0a.33.33,0,0,0,0,.66h0a.29.29,0,0,0,.19-.07.28.28,0,0,0,.29.21A.33.33,0,0,0,23.12,34.47Z"/><path d="M24.05,35.17a.33.33,0,0,0,0,.65A.33.33,0,0,0,24.05,35.17Z"/><path d="M24.72,35.34h0a.33.33,0,0,0,0-.66h0A.33.33,0,0,0,24.72,35.34Z"/><path d="M25.5,34.66a.33.33,0,0,0,0-.65A.33.33,0,0,0,25.5,34.66Z"/><path d="M28,33.1a.33.33,0,0,0,0,.65A.33.33,0,0,0,28,33.1Z"/><path d="M28.88,33.71a.35.35,0,0,0,.18-.06.32.32,0,0,0,.3.43h0a.33.33,0,0,0,0-.66h0a.29.29,0,0,0-.19.07.32.32,0,0,0-.3-.44A.33.33,0,0,0,28.88,33.71Z"/><path d="M29.76,32.79a.33.33,0,0,0,0,.65h0a.33.33,0,0,0,0-.65Z"/><path d="M30.14,33.64a.33.33,0,0,0,0,.66A.33.33,0,0,0,30.14,33.64Z"/><path d="M31.15,34.62a.33.33,0,0,0,0-.65A.33.33,0,0,0,31.15,34.62Z"/><path d="M31.13,33l0,0a.33.33,0,0,0,.47.46l0,0A.33.33,0,0,0,31.13,33Z"/><path d="M30.13,31.6a.33.33,0,0,0,0,.65A.33.33,0,0,0,30.13,31.6Z"/><path d="M31.13,32a.33.33,0,0,0,0,.65A.33.33,0,0,0,31.13,32Z"/><path d="M30.66,32.82a.33.33,0,0,0,0,.66A.33.33,0,0,0,30.66,32.82Z"/><path d="M30.46,31.28a.33.33,0,0,0,0-.65A.33.33,0,0,0,30.46,31.28Z"/><path d="M31.06,31.87a.33.33,0,0,0,0-.65A.33.33,0,0,0,31.06,31.87Z"/><path d="M30,30.36a.33.33,0,0,0,0-.66A.33.33,0,0,0,30,30.36Z"/><path d="M29.19,31.37l-.07.07a.33.33,0,0,0,.47.46l.07-.07C30,31.53,29.49,31.07,29.19,31.37Z"/><path d="M28.12,32.24a.33.33,0,0,0,0,.66A.33.33,0,0,0,28.12,32.24Z"/><path d="M26.75,32.21a.33.33,0,0,0,0,.66A.33.33,0,0,0,26.75,32.21Z"/><path d="M27.35,33.06a.33.33,0,0,0,0,.66A.33.33,0,0,0,27.35,33.06Z"/><path d="M22.82,33.69a.33.33,0,0,0,0,.65A.33.33,0,0,0,22.82,33.69Z"/><path d="M24.16,34.71a.33.33,0,0,0,0-.66A.33.33,0,0,0,24.16,34.71Z"/><path d="M21.75,35a.33.33,0,0,0,0,.66A.33.33,0,0,0,21.75,35Z"/><path d="M19.51,33.92a.33.33,0,0,0,0-.65A.33.33,0,0,0,19.51,33.92Z"/><path d="M20.76,34.39c.37-.19,0-.76-.34-.57l-.07,0c-.38.19,0,.76.33.57Z"/><path d="M20.8,34.57l-.07,0c-.38.19,0,.75.33.56l.08,0C21.51,34.94,21.18,34.37,20.8,34.57Z"/><path d="M21.37,34.09a.28.28,0,0,0,.28-.18s0,.05,0,.08v0a.33.33,0,0,0,.65,0v0a.33.33,0,0,0-.62-.14.31.31,0,0,0-.3-.4A.33.33,0,0,0,21.37,34.09Z"/><path d="M21,33.32a.33.33,0,0,0,0-.66h0a.33.33,0,0,0,0,.66Z"/><path d="M23,32.56a.33.33,0,0,0,0-.66A.33.33,0,0,0,23,32.56Z"/><path d="M23.83,33.28l0,0c.3-.3-.17-.76-.46-.46l0,0C23.06,33.12,23.53,33.58,23.83,33.28Z"/><path d="M22.29,33.16a.33.33,0,0,0,0-.66A.33.33,0,0,0,22.29,33.16Z"/><path d="M26.66,31.87v0a.33.33,0,0,0-.65,0v0A.33.33,0,0,0,26.66,31.87Z"/><path d="M28.45,31.31a.33.33,0,0,0,0,.66A.33.33,0,0,0,28.45,31.31Z"/><path d="M29.16,32.05h0a.33.33,0,0,0,0,.65h0A.33.33,0,0,0,29.16,32.05Z"/><path d="M27.89,29.83a.33.33,0,0,0,0,.65A.33.33,0,0,0,27.89,29.83Z"/><path d="M26.92,30.75c-.31.29.16.75.47.46l0,0c.32-.29-.15-.75-.46-.46Z"/><path d="M25.5,29.32a.33.33,0,0,0,0,.66A.33.33,0,0,0,25.5,29.32Z"/><path d="M26.8,28.68a.33.33,0,0,0,0,.66h0a.33.33,0,0,0,0-.66Z"/><path d="M26.09,28a.33.33,0,0,0,0-.65A.33.33,0,0,0,26.09,28Z"/><path d="M25.46,28a.33.33,0,0,0,0,.66h0a.33.33,0,0,0,0-.66Z"/><path d="M24.09,29.21h0a.33.33,0,0,0,0-.66h0A.33.33,0,0,0,24.09,29.21Z"/><path d="M23.56,27.85a.33.33,0,0,0,0,.65A.33.33,0,0,0,23.56,27.85Z"/><path d="M27.73,28.18a.33.33,0,0,0,0-.66A.33.33,0,0,0,27.73,28.18Z"/><path d="M29.47,29.25v0a.33.33,0,0,0-.65,0v0A.33.33,0,0,0,29.47,29.25Z"/><path d="M28.82,30.7a.33.33,0,0,0,0-.66A.33.33,0,0,0,28.82,30.7Z"/><path d="M19,32.59a.33.33,0,0,0-.65,0v.07a.33.33,0,0,0,.65,0Z"/><path d="M17.68,31.75a.33.33,0,0,0,0,.66A.33.33,0,0,0,17.68,31.75Z"/><path d="M18.15,30.37a.33.33,0,0,0,0,.66A.33.33,0,0,0,18.15,30.37Z"/><path d="M18.94,30.19c.19.38.76,0,.57-.33l0-.08c-.19-.37-.75,0-.56.34Z"/><path d="M20.35,31.8a.33.33,0,0,0,0-.66A.33.33,0,0,0,20.35,31.8Z"/><path d="M18.4,28.43a.33.33,0,0,0,0-.66A.33.33,0,0,0,18.4,28.43Z"/><path d="M16.94,27.67a.33.33,0,0,0,0,.65A.33.33,0,0,0,16.94,27.67Z"/><path d="M18.12,26.61a.33.33,0,0,0,0-.66A.33.33,0,0,0,18.12,26.61Z"/><path d="M20.59,29.08a.33.33,0,0,0,0-.65A.33.33,0,0,0,20.59,29.08Z"/><path d="M22.1,31.26a.33.33,0,0,0,0-.65A.33.33,0,0,0,22.1,31.26Z"/><path d="M20.94,30.42a.33.33,0,0,0,0-.66A.33.33,0,0,0,20.94,30.42Z"/><path d="M18.42,31.52v0a.33.33,0,0,0,.66,0v0A.33.33,0,0,0,18.42,31.52Z"/><path d="M16.65,29.12a.33.33,0,0,0,0,.66A.33.33,0,0,0,16.65,29.12Z"/><path d="M22.22,26v0a.33.33,0,0,0,.65,0v0A.33.33,0,0,0,22.22,26Z"/><path d="M20.86,24.3a.33.33,0,0,0,0,.65A.33.33,0,0,0,20.86,24.3Z"/><path d="M20.48,22.92a.33.33,0,0,0,0,.66A.33.33,0,0,0,20.48,22.92Z"/><path d="M23.28,24.68a.33.33,0,0,0,0-.66h0a.33.33,0,0,0,0,.66Z"/><path d="M22.36,26.85a.33.33,0,0,0,0,.66A.33.33,0,0,0,22.36,26.85Z"/><path d="M24.64,26.69l0,0a.33.33,0,0,0-.47-.46l0,0A.33.33,0,0,0,24.64,26.69Z"/><path d="M26.53,27a.33.33,0,0,0,0-.65A.33.33,0,0,0,26.53,27Z"/><path d="M25.26,25.89h0a.33.33,0,0,0,0-.65h0A.33.33,0,0,0,25.26,25.89Z"/><path d="M26.21,30a.33.33,0,0,0,0,.66A.33.33,0,0,0,26.21,30Z"/><path d="M28.18,29.14a.33.33,0,0,0,0-.65A.33.33,0,0,0,28.18,29.14Z"/><path d="M36,51.59a.32.32,0,0,0-.28-.48A1.12,1.12,0,0,0,36,52.24h.06a.33.33,0,0,0,0-.65Z"/><path d="M34.89,49.13a.33.33,0,0,0,0,.65A.33.33,0,0,0,34.89,49.13Z"/><path d="M35.48,49a.33.33,0,0,0,0-.66A.33.33,0,0,0,35.48,49Z"/><path d="M36.12,49.66a.33.33,0,0,0,0,.65A.33.33,0,0,0,36.12,49.66Z"/><path d="M36.71,49a.33.33,0,0,0,0,.66A.33.33,0,0,0,36.71,49Z"/><path d="M36.64,47.19a.33.33,0,0,0,0,.65A.33.33,0,0,0,36.64,47.19Z"/><path d="M36.74,46a.33.33,0,0,0,0,.66A.33.33,0,0,0,36.74,46Z"/><path d="M38.78,50.93l-.15.06h0a.33.33,0,0,0,0,.66h0a.34.34,0,0,0,.17,0l.16-.06C39.35,51.43,39.18,50.79,38.78,50.93Z"/><path d="M39.07,50.39v.06a.33.33,0,0,0,.66,0v0A.33.33,0,0,0,39.07,50.39Z"/><path d="M38.54,50.83a.31.31,0,0,0,.3-.42.38.38,0,0,0,0-.15c0-.07,0-.15-.05-.22-.1-.41-.73-.23-.63.18l.05.22s0,0,0,0A.31.31,0,0,0,38.54,50.83Z"/><path d="M38.59,49.12a.33.33,0,0,0,0-.66A.33.33,0,0,0,38.59,49.12Z"/><path d="M39.23,48.84a.33.33,0,0,0,0-.65A.33.33,0,0,0,39.23,48.84Z"/><path d="M39.44,49.2a.33.33,0,0,0,0,.66A.33.33,0,0,0,39.44,49.2Z"/><path d="M39.48,47.76v.06a.33.33,0,0,0,.66,0v-.05A.33.33,0,0,0,39.48,47.76Z"/><path d="M38.69,47.93a.33.33,0,0,0,0-.65A.33.33,0,0,0,38.69,47.93Z"/><path d="M39.05,46.38a.33.33,0,0,0,0-.66A.33.33,0,0,0,39.05,46.38Z"/><path d="M39.58,45a.33.33,0,0,0,0,.66A.33.33,0,0,0,39.58,45Z"/><path d="M40.27,44.48a.33.33,0,0,0,0,.66A.33.33,0,0,0,40.27,44.48Z"/><path d="M27.57,42l.11-.1c.3-.3-.17-.76-.47-.46l-.11.1C26.8,41.8,27.27,42.26,27.57,42Z"/><path d="M26.1,42.33h0a.33.33,0,0,0,0-.65h0A.33.33,0,0,0,26.1,42.33Z"/><path d="M34.86,45.6a.33.33,0,0,0,0-.65A.33.33,0,0,0,34.86,45.6Z"/><path d="M34.83,47.53v-.11a.33.33,0,0,0-.66,0v.11A.33.33,0,0,0,34.83,47.53Z"/><path d="M34.56,48.22a.33.33,0,0,0,0,.65A.33.33,0,0,0,34.56,48.22Z"/><path d="M35.9,47.46v-.1a.33.33,0,0,0-.66,0v.11A.33.33,0,0,0,35.9,47.46Z"/><path d="M36.33,48.92a.33.33,0,0,0,0-.66A.33.33,0,0,0,36.33,48.92Z"/><path d="M35.78,46a.33.33,0,0,0,0,.66A.33.33,0,0,0,35.78,46Z"/><path d="M35.16,49.77a.33.33,0,0,0,0,.65A.33.33,0,0,0,35.16,49.77Z"/><path d="M34.39,46.34a.33.33,0,0,0,0,.66A.33.33,0,0,0,34.39,46.34Z"/><path d="M35.83,45.38a.33.33,0,0,0,0-.66A.33.33,0,0,0,35.83,45.38Z"/><path d="M36.68,44.09a.33.33,0,0,0,0-.66A.33.33,0,0,0,36.68,44.09Z"/><path d="M34.59,44.26a.33.33,0,0,0,0-.65A.33.33,0,0,0,34.59,44.26Z"/><path d="M33.83,43a.33.33,0,0,0,0,.65A.33.33,0,0,0,33.83,43Z"/><path d="M33.87,41.8h.06a.33.33,0,0,0,0-.66h-.05A.33.33,0,0,0,33.87,41.8Z"/><path d="M35.22,42.38a.33.33,0,0,0,0-.65A.33.33,0,0,0,35.22,42.38Z"/><path d="M36.12,40.65a.33.33,0,0,0,0,.65A.33.33,0,0,0,36.12,40.65Z"/><path d="M35.79,39.52h-.06a.33.33,0,0,0,0,.66h0A.33.33,0,0,0,35.79,39.52Z"/><path d="M34.6,38.78a.33.33,0,0,0,0,.66A.33.33,0,0,0,34.6,38.78Z"/><path d="M39.09,44a.33.33,0,0,0,0-.65A.33.33,0,0,0,39.09,44Z"/><path d="M39.75,47a.33.33,0,0,0,0-.66h-.06a.33.33,0,0,0,0,.66Z"/><path d="M40.26,43.1a.33.33,0,0,0,0-.66A.33.33,0,0,0,40.26,43.1Z"/><path d="M38.6,42.47a.33.33,0,0,0,0-.66A.33.33,0,0,0,38.6,42.47Z"/><path d="M39.23,40.69a.33.33,0,0,0,0-.65A.33.33,0,0,0,39.23,40.69Z"/><path d="M40.51,40a.33.33,0,0,0,0,.66A.33.33,0,0,0,40.51,40Z"/><path d="M40,41.05a.33.33,0,0,0,0,.66A.33.33,0,0,0,40,41.05Z"/><path d="M39.7,38.92a.33.33,0,0,0,0-.66A.33.33,0,0,0,39.7,38.92Z"/><path d="M38.94,38.23a.33.33,0,0,0,0-.66A.33.33,0,0,0,38.94,38.23Z"/><path d="M38.82,36.08a.29.29,0,0,0,.27-.15.33.33,0,0,0,.65,0,.33.33,0,0,0,0-.66.31.31,0,0,0-.31.28.32.32,0,0,0-.29.16.3.3,0,0,0-.31-.27A.33.33,0,0,0,38.82,36.08Z"/><path d="M40.49,37.47a.33.33,0,0,0,0-.66A.33.33,0,0,0,40.49,37.47Z"/><path d="M40.82,37.94a.33.33,0,0,0,0,.65A.33.33,0,0,0,40.82,37.94Z"/><path d="M35,37.72a.33.33,0,0,0,0-.66A.33.33,0,0,0,35,37.72Z"/><path d="M36.47,36.68a.33.33,0,0,0,0,.65A.33.33,0,0,0,36.47,36.68Z"/><path d="M36.48,38.18a.33.33,0,0,0,0,.65A.33.33,0,0,0,36.48,38.18Z"/><path d="M36.72,41.72v0a.33.33,0,0,0-.66,0v.06A.33.33,0,0,0,36.72,41.72Z"/><path d="M35.65,42.8a.33.33,0,0,0,0,.65A.33.33,0,0,0,35.65,42.8Z"/><path d="M33.69,39.81v0a.33.33,0,0,0,.66,0v0A.33.33,0,0,0,33.69,39.81Z"/><path d="M33.9,37.46a.33.33,0,0,0,0-.66A.33.33,0,0,0,33.9,37.46Z"/><path d="M35.23,36.05a.33.33,0,0,0,0-.65A.33.33,0,0,0,35.23,36.05Z"/><path d="M34.3,34a.33.33,0,0,0,0-.65A.33.33,0,0,0,34.3,34Z"/><path d="M35.57,31.28a.33.33,0,0,0,0-.66A.33.33,0,0,0,35.57,31.28Z"/><path d="M36.11,33.38a.33.33,0,0,0,.46-.47l-.06,0c-.3-.3-.76.17-.46.46Z"/><path d="M36.36,29.06a.33.33,0,0,0,0,.66h.05a.33.33,0,0,0,0-.66Z"/><path d="M38.81,34.05a.33.33,0,0,0,0-.66A.33.33,0,0,0,38.81,34.05Z"/><path d="M39.36,36.82a.33.33,0,0,0,0,.65A.33.33,0,0,0,39.36,36.82Z"/><path d="M40.8,34.78a.33.33,0,0,0,0-.65A.33.33,0,0,0,40.8,34.78Z"/><path d="M40,32.11a.33.33,0,0,0,0-.66A.33.33,0,0,0,40,32.11Z"/><path d="M40.07,30.44a.33.33,0,0,0,0-.65A.33.33,0,0,0,40.07,30.44Z"/><path d="M43.19,36.92a.33.33,0,0,0-.24-.55.31.31,0,0,0-.28.45l-.11.07-.05.06a.33.33,0,0,0,.35.54l0,0c.36.24.68-.33.33-.56Z"/><path d="M44.18,35.55h0a.34.34,0,0,0-.26.53.33.33,0,0,0,.25.54.32.32,0,0,0,.27-.49A.33.33,0,0,0,44.18,35.55Z"/><path d="M43.09,33.87c-.1-.41-.73-.23-.63.18l.06.21c.1.41.73.23.63-.17Z"/><path d="M43.19,32.09a.33.33,0,0,0,0-.66A.33.33,0,0,0,43.19,32.09Z"/><path d="M43.52,33.48a.33.33,0,0,0,0-.66A.33.33,0,0,0,43.52,33.48Z"/><path d="M44.17,33.89a.33.33,0,0,0,0,.66h.06a.33.33,0,0,0,0-.66Z"/><path d="M45.19,34.1a.33.33,0,0,0,0,.65A.33.33,0,0,0,45.19,34.1Z"/><path d="M45.35,33.45a.33.33,0,0,0,0,.66A.33.33,0,0,0,45.35,33.45Z"/><path d="M44.65,32.94a.33.33,0,0,0,0-.66A.33.33,0,0,0,44.65,32.94Z"/><path d="M44.93,35.12a.33.33,0,0,0,0,.66A.33.33,0,0,0,44.93,35.12Z"/><path d="M43.48,34.49a.33.33,0,0,0,0,.65A.33.33,0,0,0,43.48,34.49Z"/><path d="M43.87,31.69v.06a.33.33,0,0,0,.66,0v0A.33.33,0,0,0,43.87,31.69Z"/><path d="M45.45,32.33a.33.33,0,0,0,0-.65A.33.33,0,0,0,45.45,32.33Z"/><path d="M46,33.36a.33.33,0,0,0,0-.66A.33.33,0,0,0,46,33.36Z"/><path d="M47.23,32.05a.33.33,0,0,0,0,.65A.33.33,0,0,0,47.23,32.05Z"/><path d="M46.21,33.51a.33.33,0,0,0,0,.66A.33.33,0,0,0,46.21,33.51Z"/><path d="M46.66,36a.31.31,0,0,0-.31.36.32.32,0,0,0,.26.51.3.3,0,0,0,.31-.36A.32.32,0,0,0,46.66,36Z"/><path d="M47.25,35.72a.33.33,0,0,0-.14.62.33.33,0,1,0,.35,0A.33.33,0,0,0,47.25,35.72Z"/><path d="M48.82,35.55a.27.27,0,0,0-.26.16v-.1a.33.33,0,0,0-.65,0v.11a.33.33,0,0,0,.61.16.31.31,0,0,0,.32.33A.33.33,0,0,0,48.82,35.55Z"/><path d="M49.14,34.85a.33.33,0,0,0,0,.65A.33.33,0,0,0,49.14,34.85Z"/><path d="M48.92,34.36v.06a.33.33,0,0,0,.65,0v0A.33.33,0,0,0,48.92,34.36Z"/><path d="M48.38,34a.33.33,0,0,0,0,.65A.33.33,0,0,0,48.38,34Z"/><path d="M49.78,33.38a.33.33,0,0,0,0,.66A.33.33,0,0,0,49.78,33.38Z"/><path d="M50.61,34.28a.33.33,0,0,0-.46.47l.06,0c.3.3.76-.17.46-.46Z"/><path d="M51.74,35a.34.34,0,0,0-.22.09.29.29,0,0,0-.21-.09.33.33,0,0,0,0,.66.32.32,0,0,0,.22-.09.29.29,0,0,0,.21.09A.33.33,0,0,0,51.74,35Z"/><path d="M50.28,34.89h-.06a.33.33,0,0,0,0,.66h.05A.33.33,0,0,0,50.28,34.89Z"/><path d="M51.25,34.62a.33.33,0,0,0,0-.65A.33.33,0,0,0,51.25,34.62Z"/><path d="M52.77,33.84a.29.29,0,0,0-.15-.09.32.32,0,0,0-.3-.44.33.33,0,0,0-.07.64.3.3,0,0,0,.06.35l.06.06a.33.33,0,0,0,.46-.47Z"/><path d="M54,34.93h.06a.33.33,0,0,0,0-.66H54A.33.33,0,0,0,54,34.93Z"/><path d="M51.41,33.48v0s0,0,0,0a.29.29,0,0,0,.17,0,.33.33,0,0,0,0-.66.32.32,0,0,0-.3.4.33.33,0,0,0-.51.26v.06A.33.33,0,0,0,51.41,33.48Z"/><path d="M50.69,32.46A.32.32,0,0,0,51,32L51,32c.37.19.7-.38.32-.57l-.11-.05a.34.34,0,0,0-.44.47l-.1,0A.33.33,0,0,0,50.69,32.46Z"/><path d="M49.73,33.17a.28.28,0,0,0,.24-.12.29.29,0,0,0,.19.06.33.33,0,0,0,0-.65.28.28,0,0,0-.24.12.29.29,0,0,0-.19-.06A.33.33,0,0,0,49.73,33.17Z"/><path d="M53.24,33.42a.33.33,0,0,0,0-.66A.33.33,0,0,0,53.24,33.42Z"/><path d="M44.71,34.88a.33.33,0,0,0-.66,0v.06a.33.33,0,0,0,.66,0Z"/><path d="M45.6,31.09a.33.33,0,0,0,0-.66A.33.33,0,0,0,45.6,31.09Z"/><path d="M43.94,30.68l.05-.06c.3-.3-.17-.76-.47-.46l-.05.06C43.17,30.52,43.64,31,43.94,30.68Z"/><path d="M45.75,29a.33.33,0,0,0,0-.66A.33.33,0,0,0,45.75,29Z"/><path d="M47.32,29.83a.33.33,0,0,0,0-.65A.33.33,0,0,0,47.32,29.83Z"/><path d="M48.57,29.93a.33.33,0,0,0,0,.65A.33.33,0,0,0,48.57,29.93Z"/><path d="M47.48,30.9c-.3.3.17.76.46.46l.17-.17a.33.33,0,0,0-.47-.46Z"/><path d="M50.08,28.9a.33.33,0,0,0,0-.66A.33.33,0,0,0,50.08,28.9Z"/><path d="M48.24,29a.33.33,0,0,0,0-.65A.33.33,0,0,0,48.24,29Z"/><path d="M48.66,27.12a.33.33,0,0,0,0-.66A.33.33,0,0,0,48.66,27.12Z"/><path d="M49.46,26.13a.33.33,0,0,0,0,.66A.33.33,0,0,0,49.46,26.13Z"/><path d="M46.77,27.56a.33.33,0,0,0,0,.65h.06a.33.33,0,0,0,0-.65Z"/><path d="M46.55,27.19a.33.33,0,0,0,0-.66A.33.33,0,0,0,46.55,27.19Z"/><path d="M50.22,25.7a.33.33,0,0,0,0-.65A.33.33,0,0,0,50.22,25.7Z"/><path d="M52.32,24.23a.33.33,0,0,0,0-.66A.33.33,0,0,0,52.32,24.23Z"/><path d="M51.9,26.34a.33.33,0,0,0,0-.65A.33.33,0,0,0,51.9,26.34Z"/><path d="M55,22.91a.33.33,0,0,0,0-.65A.33.33,0,0,0,55,22.91Z"/><path d="M50.94,28.13a.33.33,0,0,0,0-.65A.33.33,0,0,0,50.94,28.13Z"/><path d="M52.61,30.05l0,.05c-.3.31.17.77.46.47l.06-.06A.33.33,0,0,0,52.61,30.05Z"/><path d="M52.32,32.61a.33.33,0,0,0,0-.65A.33.33,0,0,0,52.32,32.61Z"/><path d="M54.16,32.44a.33.33,0,0,0,0-.66A.33.33,0,0,0,54.16,32.44Z"/><path d="M52.8,31.8a.33.33,0,0,0,0-.66A.33.33,0,0,0,52.8,31.8Z"/><path d="M51.77,30.78a.33.33,0,0,0,0-.66A.33.33,0,0,0,51.77,30.78Z"/><path d="M54.8,32.27a.33.33,0,0,0,0,.65A.33.33,0,0,0,54.8,32.27Z"/><path d="M54,34.12a.33.33,0,0,0,0-.66A.33.33,0,0,0,54,34.12Z"/><path d="M55.58,33.33c-.3-.3-.76.17-.46.47l.06.05c.3.3.76-.17.46-.47Z"/><path d="M56.54,32.21a.33.33,0,0,0,0-.66A.33.33,0,0,0,56.54,32.21Z"/><path d="M55.51,31.89a.33.33,0,0,0,0-.66A.33.33,0,0,0,55.51,31.89Z"/><path d="M54.47,30.43a.33.33,0,0,0,0,.65A.33.33,0,0,0,54.47,30.43Z"/><path d="M55.82,29.61a.33.33,0,0,0,0-.65A.33.33,0,0,0,55.82,29.61Z"/><path d="M54.57,28.27v-.06a.33.33,0,0,0-.66,0v.05A.33.33,0,0,0,54.57,28.27Z"/><path d="M54.19,30a.33.33,0,0,0,0-.65A.33.33,0,0,0,54.19,30Z"/><path d="M56.94,27.66H57A.33.33,0,0,0,57,27h-.06A.33.33,0,0,0,56.94,27.66Z"/><path d="M58.17,25.11a.33.33,0,0,0,0-.66A.33.33,0,0,0,58.17,25.11Z"/><path d="M56.55,25.44a.33.33,0,0,0,0-.65A.33.33,0,0,0,56.55,25.44Z"/><path d="M55,27.62h0A.33.33,0,0,0,55,27h0A.33.33,0,0,0,55,27.62Z"/><path d="M57.76,28.52a.33.33,0,0,0,0-.65A.33.33,0,0,0,57.76,28.52Z"/><path d="M59.56,22.83a.33.33,0,0,0,0-.66A.33.33,0,0,0,59.56,22.83Z"/><path d="M57,29.39A.33.33,0,0,0,57,30,.33.33,0,0,0,57,29.39Z"/><path d="M53.23,22.22v-.06a.33.33,0,0,0-.66,0v0A.33.33,0,0,0,53.23,22.22Z"/><path d="M53.62,24.92a.33.33,0,0,0,0-.65A.33.33,0,0,0,53.62,24.92Z"/><path d="M49.4,25.33a.33.33,0,0,0,0-.66A.33.33,0,0,0,49.4,25.33Z"/><path d="M43.9,41.46a.33.33,0,0,0,0,.66A.33.33,0,0,0,43.9,41.46Z"/><path d="M44.31,43a.33.33,0,0,0,0-.66A.33.33,0,0,0,44.31,43Z"/><path d="M43.45,44.8a.3.3,0,0,0,.24.1.33.33,0,0,0,0-.65.29.29,0,0,0-.26.15.33.33,0,0,0-.24-.1.33.33,0,0,0,0,.65A.29.29,0,0,0,43.45,44.8Z"/><path d="M43.32,45.58a.33.33,0,0,0,0,.65A.33.33,0,0,0,43.32,45.58Z"/><path d="M45.05,41.47v0a.33.33,0,0,0-.07-.21l.12,0a.33.33,0,1,0-.25-.11.32.32,0,0,0-.45.3v0A.33.33,0,0,0,45.05,41.47Z"/><path d="M45.83,40.22v0a.33.33,0,0,0-.65,0v0A.33.33,0,0,0,45.83,40.22Z"/><path d="M45.64,42.55a.17.17,0,0,0-.1,0,.32.32,0,0,0-.3-.42.33.33,0,0,0,0,.65.33.33,0,0,0,.15,0s0,0,0,.07v0a.33.33,0,0,0,.65,0v0a.3.3,0,0,0,0-.1.33.33,0,0,0-.08-.64A.32.32,0,0,0,45.64,42.55Z"/><path d="M46.56,39.76l.09,0a.31.31,0,0,0,.24.11.33.33,0,0,0,0-.66l-.08,0a.31.31,0,0,0-.24-.11A.33.33,0,0,0,46.56,39.76Z"/><path d="M46.58,41.14v0a.33.33,0,0,0,0-.15l.08,0a.33.33,0,0,0,.29-.46.25.25,0,0,0,.21.08.33.33,0,1,0-.29-.19.3.3,0,0,0-.22-.09.33.33,0,0,0-.27.49.32.32,0,0,0-.42.31v0A.33.33,0,0,0,46.58,41.14Z"/><path d="M48.65,40.67a.33.33,0,0,0,0-.66A.33.33,0,0,0,48.65,40.67Z"/><path d="M47.16,39.06a.33.33,0,0,0,0-.65A.33.33,0,0,0,47.16,39.06Z"/><path d="M47.76,39.56a.33.33,0,0,0,0-.65A.33.33,0,0,0,47.76,39.56Z"/><path d="M44.65,43.27a.28.28,0,0,0-.18.06.27.27,0,0,0-.29-.19.33.33,0,0,0,0,.65.25.25,0,0,0,.17-.06.3.3,0,0,0,.29.2A.33.33,0,0,0,44.65,43.27Z"/><path d="M44.66,44.7a.33.33,0,0,0,0,.66A.33.33,0,0,0,44.66,44.7Z"/><path d="M43.72,42.63a.33.33,0,0,0,0,.66A.33.33,0,0,0,43.72,42.63Z"/><path d="M43.26,50.25a.33.33,0,0,0,0,.66A.33.33,0,0,0,43.26,50.25Z"/><path d="M43.24,49.51A.32.32,0,0,0,43,49a.3.3,0,0,0-.31.29.32.32,0,0,0,.26.5A.3.3,0,0,0,43.24,49.51Z"/><path d="M44,49v0a.33.33,0,0,0-.65,0v0A.33.33,0,0,0,44,49Z"/><path d="M43.93,46.42a.33.33,0,0,0,0,.65A.33.33,0,0,0,43.93,46.42Z"/><path d="M44.81,47.53a.33.33,0,0,0,0-.66A.33.33,0,0,0,44.81,47.53Z"/><path d="M44.86,48.16a.33.33,0,0,0,0,.66A.33.33,0,0,0,44.86,48.16Z"/><path d="M44.16,45.91a.33.33,0,0,0,0-.65A.33.33,0,0,0,44.16,45.91Z"/><path d="M45.48,44a.33.33,0,0,0,0,.65A.33.33,0,0,0,45.48,44Z"/><path d="M44.27,49.78a.31.31,0,0,0-.24.12.33.33,0,0,0,.11.63.31.31,0,0,0,.24-.11A.33.33,0,0,0,44.27,49.78Z"/><path d="M45.24,49.55a.33.33,0,0,0,0,.65A.33.33,0,0,0,45.24,49.55Z"/><path d="M44.65,50.47a.33.33,0,0,0,0,.66A.33.33,0,0,0,44.65,50.47Z"/><path d="M46.08,50.19a.33.33,0,0,0,0,.65A.33.33,0,0,0,46.08,50.19Z"/><path d="M47.42,50.36l-.07,0a.33.33,0,0,0-.26-.52h0a.33.33,0,0,0,0,.65h.11a.33.33,0,1,0,.26-.14Z"/><path d="M46.2,48.2a.33.33,0,0,0,0,.66A.33.33,0,0,0,46.2,48.2Z"/><path d="M47,49.22a.33.33,0,0,0,0-.65A.33.33,0,0,0,47,49.22Z"/><path d="M48.33,48.74a.33.33,0,0,0,0,.66A.33.33,0,0,0,48.33,48.74Z"/><path d="M47.26,47.28a.33.33,0,0,0,0-.66A.33.33,0,0,0,47.26,47.28Z"/><path d="M45.78,46.83a.33.33,0,0,0,0-.66A.33.33,0,0,0,45.78,46.83Z"/><path d="M46,45.63A.33.33,0,0,0,46,45,.33.33,0,0,0,46,45.63Z"/><path d="M47.13,44.79c.38-.19,0-.76-.33-.57l-.08,0a.31.31,0,0,0-.31-.31h0a.33.33,0,0,0,0,.66h.09a.34.34,0,0,0,.5.28Z"/><path d="M47.55,43.07a.33.33,0,0,0,0,.65A.33.33,0,0,0,47.55,43.07Z"/><path d="M47.22,41.82a.33.33,0,0,0,0,.66A.33.33,0,0,0,47.22,41.82Z"/><path d="M48.15,41.59a.33.33,0,0,0,0-.65A.33.33,0,0,0,48.15,41.59Z"/><path d="M48.73,38.5a.33.33,0,0,0,0-.66A.33.33,0,0,0,48.73,38.5Z"/><path d="M46.44,42.71l0,0c-.3.31.17.77.46.47l0,0C47.21,42.87,46.74,42.41,46.44,42.71Z"/><path d="M48.67,44.86h0a.33.33,0,0,0,0,.66h0A.33.33,0,0,0,48.67,44.86Z"/><path d="M47.49,46.07v0a.33.33,0,0,0-.66,0v0A.33.33,0,0,0,47.49,46.07Z"/><path d="M46.06,47.7l.09-.1c.3-.3-.17-.76-.46-.46l-.1.1A.33.33,0,0,0,46.06,47.7Z"/><path d="M45.65,48.53a.33.33,0,0,0,0,.65A.33.33,0,0,0,45.65,48.53Z"/><path d="M48,47.36A.33.33,0,0,0,48,48,.33.33,0,0,0,48,47.36Z"/><path d="M49.8,48.14a.33.33,0,0,0,0-.65A.33.33,0,0,0,49.8,48.14Z"/><path d="M51,47.48a.33.33,0,0,0,0,.65A.33.33,0,0,0,51,47.48Z"/><path d="M49.86,49.1h0a.33.33,0,0,0,0,.66h0A.33.33,0,0,0,49.86,49.1Z"/><path d="M48.62,50.22l0,.05c-.3.3.17.76.47.46l0,0C49.38,50.38,48.91,49.92,48.62,50.22Z"/><path d="M50.28,42.77a.33.33,0,0,0,0,.66A.33.33,0,0,0,50.28,42.77Z"/><path d="M49.08,43a.33.33,0,0,0,0-.66A.33.33,0,0,0,49.08,43Z"/><path d="M49.76,42l.1-.09a.33.33,0,0,0-.47-.46l-.09.09C49,41.79,49.47,42.25,49.76,42Z"/><path d="M50.67,39.86a.33.33,0,0,0,0,.66A.33.33,0,0,0,50.67,39.86Z"/><path d="M50.44,38.9a.33.33,0,0,0,0-.65A.33.33,0,0,0,50.44,38.9Z"/><path d="M51,37.46a.33.33,0,0,0,0,.65A.33.33,0,0,0,51,37.46Z"/><path d="M52.79,38.79a.33.33,0,0,0,0-.65A.33.33,0,0,0,52.79,38.79Z"/><path d="M49.7,39.69h0a.33.33,0,0,0,0-.65h0A.33.33,0,0,0,49.7,39.69Z"/><path d="M52.35,41.37a.33.33,0,0,0,0,.66A.33.33,0,0,0,52.35,41.37Z"/><path d="M49.82,43.47a.33.33,0,0,0,0,.65A.33.33,0,0,0,49.82,43.47Z"/><path d="M51.73,45.87a.33.33,0,0,0,0-.66A.33.33,0,0,0,51.73,45.87Z"/><path d="M53.06,44.65a.33.33,0,0,0,0,.65A.33.33,0,0,0,53.06,44.65Z"/><path d="M49.56,45.55a.33.33,0,0,0,0,.65A.33.33,0,0,0,49.56,45.55Z"/><path d="M49.7,46.84c.3-.3-.17-.76-.46-.46l-.05,0a.33.33,0,0,0,.47.46Z"/><path d="M53,46.26a.33.33,0,0,0,0,.66A.33.33,0,0,0,53,46.26Z"/><path d="M52,47.71c-.3-.3-.76.17-.46.46l.05,0a.33.33,0,0,0,.46-.47Z"/><path d="M50.78,49.23h0a.33.33,0,0,0,0,.66h0A.33.33,0,0,0,50.78,49.23Z"/><path d="M55.79,44.87,55.7,45c-.3.3.17.76.47.46l.09-.09A.33.33,0,0,0,55.79,44.87Z"/><path d="M55.44,41.86a.33.33,0,0,0,0,.66A.33.33,0,0,0,55.44,41.86Z"/><path d="M56.68,40.37a.33.33,0,0,0,0,.66A.33.33,0,0,0,56.68,40.37Z"/><path d="M57.87,39.35a.33.33,0,0,0,0,.66A.33.33,0,0,0,57.87,39.35Z"/><path d="M57.44,37.09a.33.33,0,0,0,0,.66A.33.33,0,0,0,57.44,37.09Z"/><path d="M59.24,37a.33.33,0,0,0,0,.65A.33.33,0,0,0,59.24,37Z"/><path d="M55.29,38.86a.33.33,0,0,0,0,.66A.33.33,0,0,0,55.29,38.86Z"/><path d="M42.39,47a.33.33,0,0,0,0,.65A.33.33,0,0,0,42.39,47Z"/><path d="M45.34,46.19l0,0c.19-.37-.38-.7-.56-.32l0,0C44.58,46.24,45.15,46.57,45.34,46.19Z"/><path d="M44.31,48.13a.33.33,0,0,0,0-.65A.33.33,0,0,0,44.31,48.13Z"/><path d="M46.8,46.3v0a.33.33,0,0,0-.66,0v0A.33.33,0,0,0,46.8,46.3Z"/><path d="M44.37,49.57a.33.33,0,0,0,0-.66A.33.33,0,0,0,44.37,49.57Z"/><path d="M48.19,46.31v0a.33.33,0,0,0,.66,0v0A.33.33,0,0,0,48.19,46.31Z"/><path d="M50.86,45.23a.33.33,0,0,0,0-.65A.33.33,0,0,0,50.86,45.23Z"/><path d="M52.57,43.08a.33.33,0,0,0,0,.66A.33.33,0,0,0,52.57,43.08Z"/><path d="M29.9,24.54a.33.33,0,0,0-.46-.46l0,0a.32.32,0,0,0,.09.51.33.33,0,1,0,.27,0l.11-.07Z"/><path d="M30.55,24.5a.33.33,0,0,0,0,.66A.33.33,0,0,0,30.55,24.5Z"/><path d="M28.79,24.63h0a.33.33,0,0,0,0,.66h0A.33.33,0,0,0,28.79,24.63Z"/><path d="M28.11,23.32a.33.33,0,0,0,0,.65A.33.33,0,0,0,28.11,23.32Z"/><path d="M29.27,23.64a.33.33,0,0,0,0-.65l-.11,0a.33.33,0,0,0-.27-.49.33.33,0,0,0,0,.66.35.35,0,0,0,.11,0,.37.37,0,0,0,0,.31.29.29,0,0,0-.21.1l-.12.11a.33.33,0,0,0,.47.46l.12-.11A.29.29,0,0,0,29.27,23.64Z"/><path d="M27.77,24.37a.33.33,0,0,0,0,.66A.33.33,0,0,0,27.77,24.37Z"/><path d="M32.14,24.38a.33.33,0,0,0,0,.65A.33.33,0,0,0,32.14,24.38Z"/><path d="M32.63,23.67a.33.33,0,0,0,0,.65A.33.33,0,0,0,32.63,23.67Z"/><path d="M31.85,26a.39.39,0,0,0-.14-.08.3.3,0,0,0,.2-.3v0a.33.33,0,0,0-.65,0v0a.3.3,0,0,0,.27.3.33.33,0,0,0-.14.54h0l.06,0a.32.32,0,0,0-.22.43.33.33,0,0,0-.14,0c-.29-.12-.63.27-.36.53l0,0a.28.28,0,0,0,.36.06.32.32,0,0,0,.46-.29v-.06a.36.36,0,0,0,0-.11.29.29,0,0,0,.28-.27l0,.06.06,0a.19.19,0,0,0,0,.15v0a.29.29,0,0,0,.06.19l-.08,0a.33.33,0,1,0,.25.13.33.33,0,0,0,.42-.31h0a.27.27,0,0,0-.13-.25l.06-.05a.33.33,0,0,0-.14-.63.28.28,0,0,0-.24.12l-.07,0-.15.12a.3.3,0,0,0-.08.17.28.28,0,0,0-.1-.09.33.33,0,0,0,.16-.54Z"/><path d="M34.24,24.17a.33.33,0,0,0,0-.66A.33.33,0,0,0,34.24,24.17Z"/><path d="M30.75,23.15a.3.3,0,0,0-.31.32.3.3,0,0,0-.31-.22.33.33,0,0,0,0,.65.3.3,0,0,0,.31-.32.31.31,0,0,0,.3.23A.33.33,0,0,0,30.75,23.15Z"/><path d="M31.75,24.79l0-.11a.32.32,0,0,0-.19-.38.32.32,0,0,0-.22-.56.33.33,0,0,0-.14.62.24.24,0,0,0-.08.15l0,.11A.33.33,0,0,0,31.75,24.79Z"/><path d="M32,23.43l0-.06c.19-.37-.38-.7-.57-.32l0,.05C31.24,23.48,31.81,23.81,32,23.43Z"/><path d="M32.85,22.08a.33.33,0,0,0,0,.66A.33.33,0,0,0,32.85,22.08Z"/><path d="M33.23,22.56v0a.31.31,0,0,0,.17.28.33.33,0,0,0,.08.64.33.33,0,0,0,.16-.61.31.31,0,0,0,.25-.31v0A.33.33,0,0,0,33.23,22.56Z"/><path d="M33.48,23.72a.33.33,0,0,0,0,.66A.33.33,0,0,0,33.48,23.72Z"/><path d="M35.69,21.54a.33.33,0,0,0,0,.65A.33.33,0,0,0,35.69,21.54Z"/><path d="M34.26,21.87a.33.33,0,0,0,0,.65A.33.33,0,0,0,34.26,21.87Z"/><path d="M33.53,22a.33.33,0,0,0,0-.65A.33.33,0,0,0,33.53,22Z"/><path d="M33.19,20.35a.33.33,0,0,0,0,.66A.33.33,0,0,0,33.19,20.35Z"/><path d="M35.19,20.63a.33.33,0,0,0,0,.66A.33.33,0,0,0,35.19,20.63Z"/><path d="M34.51,20.52a.33.33,0,0,0,0,.65A.33.33,0,0,0,34.51,20.52Z"/><path d="M37,20.33a.28.28,0,0,0-.28.19l-.1,0a.33.33,0,0,0,0,.66A.3.3,0,0,0,37,21L37,21A.33.33,0,0,0,37,20.33Z"/><path d="M42.46,24.75a.32.32,0,0,0-.26.51.32.32,0,1,0,.32.13A.32.32,0,0,0,42.46,24.75Z"/><path d="M43.9,25a.31.31,0,0,0-.29.19.32.32,0,0,0-.3-.42.33.33,0,0,0,0,.66.32.32,0,0,0,.29-.19.32.32,0,0,0,.3.42A.33.33,0,0,0,43.9,25Z"/><path d="M44.51,24.15a.33.33,0,0,0,0,.65A.33.33,0,0,0,44.51,24.15Z"/><path d="M43.22,24.78a.32.32,0,0,0,.27-.49.32.32,0,1,0-.37-.14A.32.32,0,0,0,43.22,24.78Z"/><path d="M41.45,24.91a.33.33,0,1,0-.16,0,.29.29,0,0,0-.19.29h0a.33.33,0,0,0,.66,0h0A.31.31,0,0,0,41.45,24.91Z"/><path d="M40,24.74a.33.33,0,0,0,0-.65A.33.33,0,0,0,40,24.74Z"/><path d="M39.91,23.42a.32.32,0,0,0-.22-.56.29.29,0,0,0-.27.16.3.3,0,0,0-.2-.07.33.33,0,0,0,0,.66.28.28,0,0,0,.13,0,.31.31,0,0,0,.31.38A.33.33,0,0,0,39.91,23.42Z"/><path d="M46.12,24.11a.33.33,0,0,0,0,.65A.33.33,0,0,0,46.12,24.11Z"/><path d="M45.15,24a.33.33,0,0,0,0,.65A.33.33,0,0,0,45.15,24Z"/><path d="M45.44,23.2a.33.33,0,0,0,0,.66A.33.33,0,0,0,45.44,23.2Z"/><path d="M44.56,23a.33.33,0,0,0,0,.65A.33.33,0,0,0,44.56,23Z"/><path d="M45,22.24a.33.33,0,0,0,0,.65A.33.33,0,0,0,45,22.24Z"/><path d="M45.76,22.35a.33.33,0,0,0,0,.66A.33.33,0,0,0,45.76,22.35Z"/><path d="M46.46,23a.33.33,0,0,0,0,.66A.33.33,0,0,0,46.46,23Z"/><path d="M40.58,23.69a.32.32,0,0,0,.31-.32.31.31,0,0,0,.24.11.33.33,0,0,0,0-.65.33.33,0,0,0-.25-.54.33.33,0,0,0,0,.65.36.36,0,0,0-.06.2.34.34,0,0,0-.25-.11A.33.33,0,0,0,40.58,23.69Z"/><path d="M39.31,22.52v0a.3.3,0,0,0-.27-.31.33.33,0,0,0-.3-.46h0a.33.33,0,0,0,0,.65.43.43,0,0,0,0,.12v0A.33.33,0,0,0,39.31,22.52Z"/><path d="M38.66,21.7a.33.33,0,0,0,0-.65A.33.33,0,0,0,38.66,21.7Z"/><path d="M37.83,20.82a.33.33,0,0,0,0,.65A.33.33,0,0,0,37.83,20.82Z"/><path d="M37.88,19.91a.33.33,0,0,0,0,.66A.33.33,0,0,0,37.88,19.91Z"/><path d="M39.06,20.7a.33.33,0,0,0,0-.65A.33.33,0,0,0,39.06,20.7Z"/><path d="M39.68,21.49a.33.33,0,0,0,0-.65A.33.33,0,0,0,39.68,21.49Z"/><path d="M39.89,22.25a.33.33,0,0,0,0-.65A.33.33,0,0,0,39.89,22.25Z"/><path d="M40.67,24.59a.33.33,0,0,0,0-.65h0a.33.33,0,0,0,0,.65Z"/><path d="M42,23.44v0a.33.33,0,0,0,.65,0v0A.33.33,0,0,0,42,23.44Z"/><path d="M40.76,24.61a.33.33,0,0,0,0,.66A.33.33,0,0,0,40.76,24.61Z"/><path d="M43.25,22.83a.33.33,0,1,0-.37,0,.33.33,0,0,0,.16.62A.34.34,0,0,0,43.25,22.83Z"/><path d="M41.55,20.88a.33.33,0,0,0,0,.66A.33.33,0,0,0,41.55,20.88Z"/><path d="M43.16,19.49a.33.33,0,0,0-.12.63.33.33,0,1,0,.19,0A.33.33,0,0,0,43.16,19.49Z"/><path d="M43.81,20.55h0a.33.33,0,0,0,0,.65h0A.33.33,0,0,0,43.81,20.55Z"/><path d="M40.47,20.4a.33.33,0,0,0,0-.65A.33.33,0,0,0,40.47,20.4Z"/><path d="M40.62,21.93a.33.33,0,0,0,0-.66A.33.33,0,0,0,40.62,21.93Z"/><path d="M42.73,21.52a.33.33,0,0,0,0,.66A.33.33,0,0,0,42.73,21.52Z"/><path d="M41.61,22.63l.06,0c.37.19.7-.38.32-.56l-.06,0C41.56,21.88,41.23,22.45,41.61,22.63Z"/><path d="M44.35,22.19a.33.33,0,0,0,0-.65A.33.33,0,0,0,44.35,22.19Z"/><path d="M45.57,20.53a.33.33,0,0,0,0,.66A.33.33,0,0,0,45.57,20.53Z"/><path d="M46.51,21.24h0a.33.33,0,1,0,.27.15h0a.33.33,0,1,0-.27-.15Z"/><path d="M47,22.73a.33.33,0,0,0,0-.65A.33.33,0,0,0,47,22.73Z"/><path d="M46.11,18.28a.33.33,0,0,0,0-.65A.33.33,0,0,0,46.11,18.28Z"/><path d="M45.44,19.43a.33.33,0,0,0,0-.65A.33.33,0,0,0,45.44,19.43Z"/><path d="M46.27,20.66a.33.33,0,0,0,0-.66A.33.33,0,0,0,46.27,20.66Z"/><path d="M44.72,19.71a.32.32,0,0,0-.15-.36.33.33,0,1,0-.33,0,.33.33,0,0,0,.18.6.69.69,0,0,0,.17,0,.3.3,0,0,0,.3.39.33.33,0,0,0,0-.65A.31.31,0,0,0,44.72,19.71Z"/><path d="M44.87,21a.33.33,0,0,0,0,.65l.14,0a.33.33,0,1,0,.15,0,.28.28,0,0,0-.13,0A.33.33,0,0,0,44.87,21Z"/><path d="M43.7,22.39a.33.33,0,0,0,0,.66A.33.33,0,0,0,43.7,22.39Z"/><path d="M42.19,24.7a.33.33,0,0,0,0-.65A.33.33,0,0,0,42.19,24.7Z"/><path d="M41.87,20.33v0a.33.33,0,0,0,.65,0v0A.33.33,0,0,0,41.87,20.33Z"/><path d="M41.45,19a.33.33,0,0,0,0,.65A.33.33,0,0,0,41.45,19Z"/><path d="M43.14,20.78a.33.33,0,0,0,0,.66A.33.33,0,0,0,43.14,20.78Z"/><path d="M44.26,18.14v0a.33.33,0,0,0,.65,0v0A.33.33,0,0,0,44.26,18.14Z"/><path d="M45.52,17.58a.33.33,0,0,0,0-.65A.33.33,0,0,0,45.52,17.58Z"/><path d="M43.51,19a.33.33,0,0,0,0-.65A.33.33,0,0,0,43.51,19Z"/><path d="M42.36,19.3a.33.33,0,0,0,0-.65A.33.33,0,0,0,42.36,19.3Z"/><path d="M30.89,21.61a.33.33,0,0,0,0-.66A.33.33,0,0,0,30.89,21.61Z"/><path d="M30.28,22.76a.33.33,0,0,0,0-.66A.33.33,0,0,0,30.28,22.76Z"/><path d="M31.16,22.69a.33.33,0,0,0,0-.65A.33.33,0,0,0,31.16,22.69Z"/><path d="M32.46,21.25l-.06,0c-.37-.2-.7.37-.33.56l.06,0C32.51,22,32.83,21.44,32.46,21.25Z"/><path d="M32.23,20.69a.33.33,0,0,0,0-.65A.33.33,0,0,0,32.23,20.69Z"/><path d="M32.42,22.38v0a.33.33,0,0,0-.66,0v0A.33.33,0,0,0,32.42,22.38Z"/><path d="M27.82,23v0a.33.33,0,0,0-.65,0v0A.33.33,0,0,0,27.82,23Z"/><path d="M28,20.12H28a.3.3,0,0,0-.3-.21.33.33,0,0,0,0,.65h.06a.29.29,0,0,0,.3.22A.33.33,0,0,0,28,20.12Z"/><path d="M28.25,21.54a.33.33,0,0,0,0-.66A.33.33,0,0,0,28.25,21.54Z"/><path d="M29,20.86a.32.32,0,0,0,.07-.64.33.33,0,0,0-.22-.57.32.32,0,0,0-.06.64A.33.33,0,0,0,29,20.86Z"/><path d="M27.47,19.84a.33.33,0,0,0,0-.65A.33.33,0,0,0,27.47,19.84Z"/><path d="M27.8,21.19l0,0c-.3-.3-.76.17-.46.46l0,0C27.64,22,28.1,21.48,27.8,21.19Z"/><path d="M28.28,22.14a.33.33,0,0,0,0,.66A.33.33,0,0,0,28.28,22.14Z"/><path d="M29.77,20.84a.33.33,0,0,0,0,.66A.33.33,0,0,0,29.77,20.84Z"/><path d="M29.1,22.53a.33.33,0,0,0,0-.66A.33.33,0,0,0,29.1,22.53Z"/><path d="M30,20H30a.33.33,0,0,0,.17-.6.29.29,0,0,0-.26-.14.32.32,0,0,0-.27.49A.31.31,0,0,0,30,20Z"/><path d="M30.67,20.58a.33.33,0,0,0,0-.65A.33.33,0,0,0,30.67,20.58Z"/><path d="M31,19.08v0a.33.33,0,0,0,.66,0v0A.33.33,0,0,0,31,19.08Z"/><path d="M29.17,19.24a.33.33,0,0,0,0-.65A.33.33,0,0,0,29.17,19.24Z"/><path d="M28.41,18.83v0a.33.33,0,0,0-.66,0v0A.33.33,0,0,0,28.41,18.83Z"/><path d="M28.22,18a.31.31,0,0,0,.3-.21h0a.33.33,0,0,0,0-.65.3.3,0,0,0-.3.21h0A.33.33,0,0,0,28.22,18Z"/><path d="M31.47,21.11a.33.33,0,0,0,0-.66A.33.33,0,0,0,31.47,21.11Z"/><path d="M32.86,19.13a.33.33,0,0,0,0-.65A.33.33,0,0,0,32.86,19.13Z"/><path d="M33.8,19.44h0a.33.33,0,0,0,0,.65h0A.33.33,0,0,0,33.8,19.44Z"/><path d="M35.13,20a.33.33,0,0,0,0-.66A.33.33,0,0,0,35.13,20Z"/><path d="M36,19.83a.33.33,0,0,0,0,.66A.33.33,0,0,0,36,19.83Z"/><path d="M37.18,19v0a.33.33,0,0,0-.66,0v0A.33.33,0,0,0,37.18,19Z"/><path d="M35.09,18.23l0,0c.3.3.76-.17.46-.47l0,0A.33.33,0,0,0,35.09,18.23Z"/><path d="M35.68,19.47h0a.33.33,0,0,0,0-.66h0A.33.33,0,0,0,35.68,19.47Z"/><path d="M34.27,18.41a.33.33,0,0,0,0,.65h0a.33.33,0,0,0,0-.65Z"/><path d="M38.66,18a.33.33,0,0,0,0,.66A.33.33,0,0,0,38.66,18Z"/><path d="M39,19.83h0a.33.33,0,0,0,0-.65h0A.33.33,0,0,0,39,19.83Z"/><path d="M37.64,18.65a.33.33,0,0,0,0,.66A.33.33,0,0,0,37.64,18.65Z"/><path d="M39.79,19.73a.33.33,0,0,0,0-.65A.33.33,0,0,0,39.79,19.73Z"/><path d="M40.74,18h0a.33.33,0,0,0,0,.65h0A.33.33,0,0,0,40.74,18Z"/><path d="M40.64,19.43h0a.33.33,0,0,0,0-.65h0A.33.33,0,0,0,40.64,19.43Z"/><path d="M41.17,20.72a.33.33,0,0,0,0-.66A.33.33,0,0,0,41.17,20.72Z"/><path d="M33.21,25.93h0a.33.33,0,0,0-.65,0v0A.33.33,0,0,0,33.21,25.93Z"/><path d="M44.09,24.16a.33.33,0,0,0,0-.65A.33.33,0,0,0,44.09,24.16Z"/><path d="M41.5,23.43a.33.33,0,0,0,0,.66A.33.33,0,0,0,41.5,23.43Z"/><path d="M32.57,23.53a.33.33,0,0,0,0-.66A.33.33,0,0,0,32.57,23.53Z"/><path d="M36.69,19.83v0a.33.33,0,0,0,.66,0v0A.33.33,0,0,0,36.69,19.83Z"/><path d="M30.12,18.22l.07,0c.38-.19,0-.76-.33-.56l-.07,0C29.41,17.85,29.75,18.41,30.12,18.22Z"/><path d="M31.18,17.68a.33.33,0,0,0,0,.65A.33.33,0,0,0,31.18,17.68Z"/><path d="M31.43,16.43l0,0c-.29.3.17.77.47.46l0,0A.33.33,0,0,0,31.43,16.43Z"/><path d="M30.44,17.25a.33.33,0,0,0,0-.65A.33.33,0,0,0,30.44,17.25Z"/><path d="M29.27,16.59a.33.33,0,0,0,0-.66A.33.33,0,0,0,29.27,16.59Z"/><path d="M31.53,14a.33.33,0,0,0,0-.65A.33.33,0,0,0,31.53,14Z"/><path d="M31,12.88a.33.33,0,0,0,0-.65A.33.33,0,0,0,31,12.88Z"/><path d="M34,12.45a.33.33,0,0,0,0-.66A.33.33,0,0,0,34,12.45Z"/><path d="M31,15a.33.33,0,0,0,0-.65A.33.33,0,0,0,31,15Z"/><path d="M34.94,15.32a.33.33,0,0,0,0-.66A.33.33,0,0,0,34.94,15.32Z"/><path d="M33.5,17.08a.33.33,0,0,0,0-.65A.33.33,0,0,0,33.5,17.08Z"/><path d="M33.33,15.07a.33.33,0,0,0,0-.66A.33.33,0,0,0,33.33,15.07Z"/><path d="M37,16.14a.33.33,0,0,0,0,.66A.33.33,0,0,0,37,16.14Z"/><path d="M36.64,17.45a.33.33,0,0,0,0,.66A.33.33,0,0,0,36.64,17.45Z"/><path d="M39.58,17.16a.33.33,0,0,0,0-.66A.33.33,0,0,0,39.58,17.16Z"/><path d="M38.41,14.81a.33.33,0,0,0,0-.65A.33.33,0,0,0,38.41,14.81Z"/><path d="M37.17,12.82a.33.33,0,0,0,0,.66A.33.33,0,0,0,37.17,12.82Z"/><path d="M40.57,14.13a.33.33,0,0,0,0-.66A.33.33,0,0,0,40.57,14.13Z"/><path d="M41.44,16a.33.33,0,0,0,0-.65A.33.33,0,0,0,41.44,16Z"/><path d="M42.76,16.74a.33.33,0,0,0,0,.66A.33.33,0,0,0,42.76,16.74Z"/><path d="M42.1,18.41a.33.33,0,0,0,0-.65A.33.33,0,0,0,42.1,18.41Z"/><path d="M44.44,16.86a.33.33,0,0,0,0-.65A.33.33,0,0,0,44.44,16.86Z"/><path d="M43.2,15.27a.33.33,0,0,0,0-.66A.33.33,0,0,0,43.2,15.27Z"/><path d="M42.7,13.14a.33.33,0,0,0,0-.66A.33.33,0,0,0,42.7,13.14Z"/><path d="M42,14.53a.33.33,0,0,0,0-.66A.33.33,0,0,0,42,14.53Z"/><path d="M44.16,14.66a.33.33,0,0,0,0-.65A.33.33,0,0,0,44.16,14.66Z"/><path d="M44.07,17.8a.33.33,0,0,0,0-.66A.33.33,0,0,0,44.07,17.8Z"/><path d="M41.08,17.22a.33.33,0,0,0,0-.65A.33.33,0,0,0,41.08,17.22Z"/><path d="M38.94,16.15a.33.33,0,0,0,0-.65A.33.33,0,0,0,38.94,16.15Z"/><path d="M38.2,17.07a.33.33,0,0,0,0,.66A.33.33,0,0,0,38.2,17.07Z"/><path d="M16.59,43.73l-.05.05a.33.33,0,0,0,.47.46l0-.05C17.35,43.89,16.88,43.43,16.59,43.73Z"/><path d="M17.27,42.08a.33.33,0,0,0,0,.66A.33.33,0,0,0,17.27,42.08Z"/><path d="M15.71,41.17a.33.33,0,0,0,0,.66A.33.33,0,0,0,15.71,41.17Z"/><path d="M16.28,39.07a.33.33,0,0,0,0,.66A.33.33,0,0,0,16.28,39.07Z"/><path d="M14.3,37.57h0a.33.33,0,0,0,0,.66h0A.33.33,0,0,0,14.3,37.57Z"/><path d="M17.32,36.76a.33.33,0,0,0,0,.65A.33.33,0,0,0,17.32,36.76Z"/><path d="M18.18,39.92a.33.33,0,0,0,0-.65A.33.33,0,0,0,18.18,39.92Z"/><path d="M19,40.73a.33.33,0,0,0,0,.65A.33.33,0,0,0,19,40.73Z"/><path d="M21.4,38.85a.33.33,0,0,0,0-.65A.33.33,0,0,0,21.4,38.85Z"/><path d="M19.66,37.91v0a.33.33,0,0,0-.65,0v0A.33.33,0,0,0,19.66,37.91Z"/><path d="M11.12,37.55a.33.33,0,0,0,0,.66A.33.33,0,0,0,11.12,37.55Z"/><path d="M13.31,39.68a.33.33,0,0,0,0,.65A.33.33,0,0,0,13.31,39.68Z"/><path d="M16,37.59a.33.33,0,0,0,0-.66A.33.33,0,0,0,16,37.59Z"/><path d="M20.19,39.74a.33.33,0,0,0,0-.65A.33.33,0,0,0,20.19,39.74Z"/><path d="M58.29,42.28h-.11a.33.33,0,0,0,0,.66h.11A.33.33,0,0,0,58.29,42.28Z"/><path d="M61.6,37.19a.33.33,0,0,0,0,.66A.33.33,0,0,0,61.6,37.19Z"/><line class="cls-1" x1="37.4" y1="56.87" x2="37.4" y2="114.44"/><path d="M36.21,49.07l0,7.89"/><path d="M37.89,57l-.06-7.93"/><path d="M37.43,64.55,29.12,74.73a.92.92,0,0,0,0,1.17l8.34,10.15"/><path d="M37.46,86.06,45.77,75.9a1,1,0,0,0,0-1.21L37.43,64.55"/><polygon class="cls-2" points="44.05 75.48 37.46 83.54 30.85 75.5 37.44 67.44 44.05 75.48"/><polygon points="37.43 79.65 40.82 74.83 37.41 70.24 34.02 74.85 37.43 79.65"/><path d="M37.41,91.08l-6.46,8a.72.72,0,0,0,0,.92l6.57,7.9"/><path d="M37.46,107.89,44,100A.73.73,0,0,0,44,99l-6.51-7.94"/><polygon class="cls-2" points="42.62 99.62 37.46 105.92 32.3 99.63 37.46 93.33 42.62 99.62"/><polygon points="37.46 102.91 39.98 99.36 37.47 95.95 34.95 99.35 37.46 102.91"/><path d="M37.42,113l-4.11,5.07a.48.48,0,0,0,0,.59l4.17,5"/><path d="M37.49,123.69l4.1-5.07a.47.47,0,0,0,0-.6l-4.16-5"/><polygon class="cls-2" points="40.73 118.42 37.48 122.44 34.18 118.46 37.42 114.44 40.73 118.42"/><polygon points="37.38 120.54 38.95 118.38 37.44 116.27 35.87 118.34 37.38 120.54"/></g></g></svg>