<svg xmlns="http://www.w3.org/2000/svg" viewBox="0 0 113.72 203.5"><g id="Layer_2" data-name="Layer 2"><g id="Dream_Catcher" data-name="Dream Catcher"><path d="M56.81,200.5a1.51,1.51,0,1,0,1.75,1.24A1.52,1.52,0,0,0,56.81,200.5Z"/><path d="M56.69,195.76a1.6,1.6,0,1,0,1.84,1.31A1.6,1.6,0,0,0,56.69,195.76Z"/><path d="M56.78,190.9a1.72,1.72,0,1,0,2,1.41A1.73,1.73,0,0,0,56.78,190.9Z"/><path d="M57.57,145.8l.13-4.53A13.44,13.44,0,0,0,70.37,128a13.12,13.12,0,0,0-1.57-6.18l20.49-12a13.25,13.25,0,1,0,11.6-20.34l-.12-23.69A13.25,13.25,0,1,0,89,45.58L68.44,33.85a13.22,13.22,0,0,0-11-19.16V11.35h0A5.07,5.07,0,0,0,62,7.14l.12,0C71,8.54,76.58,13.13,82.45,18l2,1.69c2.6,2.12,5.09,3.18,7.43,3.16a7.45,7.45,0,0,0,2.34-.38,6.87,6.87,0,0,0,4.57-7.63c-.44-2.59-2.59-5.31-7.31-5.21-1.85,0-4.41,1.27-5.27,3.06a4,4,0,0,0,0,3.66,4.6,4.6,0,0,0,3.45,2.28,3.49,3.49,0,0,0,2.73-.69,2.77,2.77,0,0,0-1-4.64,1.49,1.49,0,0,0-1.73.62.49.49,0,0,0,.8.56.52.52,0,0,1,.65-.24,1.84,1.84,0,0,1,1.15,1.45,1.88,1.88,0,0,1-.55,1.52,2.47,2.47,0,0,1-1.94.46,3.66,3.66,0,0,1-2.73-1.78,3,3,0,0,1,0-2.78,5.66,5.66,0,0,1,4.42-2.51c5.14-.11,6.15,3.34,6.33,4.4A5.9,5.9,0,0,1,94,21.54c-2.66.88-5.64,0-8.84-2.61l-2.05-1.69c-6-4.95-11.63-9.62-20.8-11a.45.45,0,0,0-.2,0,5.07,5.07,0,0,0-10.14.09c0,.07,0,.14,0,.21a.48.48,0,0,0-.5-.26c-9.17,1.49-14.77,6.22-20.7,11.23l-2,1.7c-3.18,2.65-6.14,3.56-8.82,2.7a5.89,5.89,0,0,1-4-6.5c.17-1.07,1.13-4.52,6.28-4.47a5.69,5.69,0,0,1,4.45,2.47,3,3,0,0,1,.08,2.78A3.71,3.71,0,0,1,24,18a2.52,2.52,0,0,1-2-.44A1.91,1.91,0,0,1,21.5,16a1.83,1.83,0,0,1,1.13-1.45.53.53,0,0,1,.66.23.48.48,0,1,0,.79-.56,1.47,1.47,0,0,0-1.74-.6A2.77,2.77,0,0,0,20.53,16a2.8,2.8,0,0,0,.89,2.27,3.52,3.52,0,0,0,2.74.67,4.56,4.56,0,0,0,3.42-2.33A3.93,3.93,0,0,0,27.51,13c-.88-1.78-3.46-3-5.31-3-4.7-.05-6.83,2.69-7.25,5.28a6.88,6.88,0,0,0,4.65,7.59,7.73,7.73,0,0,0,2.34.36c2.34,0,4.82-1.09,7.39-3.24l2-1.71c5.82-4.92,11.33-9.56,20.22-11A.48.48,0,0,0,52,6.91,5.08,5.08,0,0,0,57,11.37h0v3.32c-.18,0-.35,0-.53,0A13.29,13.29,0,0,0,43.34,28a13.14,13.14,0,0,0,1.48,6L24.44,45.87A13.25,13.25,0,1,0,12.81,66.2L12.92,90a13.25,13.25,0,1,0,11.84,20.22L45.36,122a13.24,13.24,0,0,0,11.35,19.36l-.11,4.46m0,0c0,1.34-.05,3.17-.08,6.15l-5.41,7.24a.5.5,0,0,0,0,.57l5.38,7.71-.11,18.8a.49.49,0,0,0,1,0l.11-18.9,5.41-7.55a.48.48,0,0,0,0-.57l-5.37-7.37c0-2.93.06-4.75.08-6.07m4.29,13.71-4.92,6.89-4.85-6.92,4.91-6.6ZM100.15,40.33a12.28,12.28,0,0,1,.62,24.54l-.06-12.32a.48.48,0,0,0-.25-.42L89.84,46.06A12.26,12.26,0,0,1,100.15,40.33ZM74.54,102.75a12.38,12.38,0,0,1-2.19-1.08l1.94-3.39,12.84,2.28a12.41,12.41,0,0,1-3.61,2.14Zm8,.28a12.53,12.53,0,0,1-3.54.54,12.9,12.9,0,0,1-3.55-.5Zm-12.7.07h1.29l-1.41,2.46a13.73,13.73,0,0,0,.15-1.94C69.91,103.44,69.89,103.27,69.88,103.1Zm0-.33a12.84,12.84,0,0,0-.7-3.41,12.71,12.71,0,0,0,2.75,2.42l-.56,1Zm-4.28,10.1a12.88,12.88,0,0,1-3.88,2.49L66,103.11h3.61c0,.17,0,.34,0,.51a12.57,12.57,0,0,1-.31,2.77Zm3.35-5.21a12.55,12.55,0,0,1-2.44,4.26Zm-18.16,9.91,5.58,9.54-9.66-5.51A12.57,12.57,0,0,1,50.77,117.57Zm-.21-1L49,113.8a13.17,13.17,0,0,0,3.36,1.93A12.72,12.72,0,0,0,50.56,116.56Zm.49.84a12.36,12.36,0,0,1,1.81-.84l3.52,10Zm-2.61-4.47-3.74-6.4a12.24,12.24,0,0,1-.33-2.79c0-.18,0-.35,0-.52l3.76,0,4.32,12.24A12.66,12.66,0,0,1,48.44,112.93Zm-.93-1a12.63,12.63,0,0,1-2.43-4.17Zm-3.29-6.29-1.44-2.46h1.29c0,.17,0,.34,0,.52A13.72,13.72,0,0,0,44.22,105.69Zm-.14-2.79H42.59l-.51-.87A13.11,13.11,0,0,0,44.59,100,12.92,12.92,0,0,0,44.08,102.9ZM31,103a12.66,12.66,0,0,1-3.82-2.17l12.48-2.33,2,3.46a13.05,13.05,0,0,1-2.1,1Zm7.56.29a13,13,0,0,1-3.26.46,12.58,12.58,0,0,1-3.27-.43Zm5.28-50.6H42.53L44,50.08a12.67,12.67,0,0,0-.21,2.32C43.79,52.48,43.8,52.57,43.8,52.65Zm0,.33A12.92,12.92,0,0,0,45,57.67a12.93,12.93,0,0,0-3.5-3.13L42.34,53Zm4-9.53a12.56,12.56,0,0,1,4.28-2.82l-4,12-3.89,0c0-.09,0-.17,0-.26a13,13,0,0,1,.43-3.26ZM45,47.59a12.8,12.8,0,0,1,1.61-2.81ZM65.6,43.38,68.87,49a12.33,12.33,0,0,1,.46,3.29c0,.09,0,.17,0,.26l-3.75,0L61.35,40.61A12.61,12.61,0,0,1,65.6,43.38Zm-4.23-3.11a13,13,0,0,0,1.88-.9l1.81,3.09A13.2,13.2,0,0,0,61.37,40.27Zm5.39,4.47a12.26,12.26,0,0,1,1.58,2.69Zm2.66,5.2,1.51,2.58H69.65c0-.09,0-.18,0-.26A12.69,12.69,0,0,0,69.42,49.94Zm.21,2.91h1.49l.94,1.6a12.93,12.93,0,0,0-3.63,3.36A12.78,12.78,0,0,0,69.63,52.85ZM91.54,63l.18-.21A13.69,13.69,0,0,0,93.49,64l-1.85,3.24a11.68,11.68,0,0,0-.1-4.27Zm.81-1,7-8.19L94,63.18A12.5,12.5,0,0,1,92.35,62Zm-.24-.22A12.55,12.55,0,0,1,90.8,60.5a11.44,11.44,0,0,0-.87-1.71l9.43-5.51Zm-.63.74,0,0v0ZM87.42,74.65a12.84,12.84,0,0,1-2.22,1.66l-2-3.47,8.1-9.53a12.6,12.6,0,0,1,.19,2,12.13,12.13,0,0,1-.29,2.72Zm3.41-5.32a12.53,12.53,0,0,1-2.51,4.39Zm1,23.37-.07-.08a14.09,14.09,0,0,0,.12-1.73,13.33,13.33,0,0,0-.43-3.18l2.16,3.71A12.55,12.55,0,0,0,91.86,92.7Zm2.27-.44,5.35,9.16-7-8A12.43,12.43,0,0,1,94.13,92.26ZM91.58,90.9a10.85,10.85,0,0,1-.07,1.4l-8.35-9.55,1.69-2.94a12.74,12.74,0,0,1,3.84,3.12l2,3.48A12.41,12.41,0,0,1,91.58,90.9ZM89.9,96.53a12.49,12.49,0,0,1,1-1.41,12.91,12.91,0,0,1-.67,1.58ZM90,97a13,13,0,0,1-1.18,1.77,13.15,13.15,0,0,1,.87-2Zm-1-.94-9.91-5.66v-.6L83,83.05l8.46,9.67c0,.14,0,.27-.07.41A13.73,13.73,0,0,0,89.05,96.05ZM79.33,78.37a12.38,12.38,0,0,1,5.22,1.3l-1.61,2.82Zm3.44,4.42-3.63,6.35-.06-10.56ZM80.9,78.18a12.92,12.92,0,0,0,4.18-1.42l.58,1-1,1.64A12.94,12.94,0,0,0,80.9,78.18ZM79.08,78v-.37L83,73.1l2,3.38A12.52,12.52,0,0,1,79.08,78Zm0-.87L79,66.38l3.76,6.42ZM79,65.73v-.31a0,0,0,0,1,0,0,.08.08,0,0,0,0,0,0,0,0,0,0,0,0,0,0,0,0,0,0,0l0,0h0l-.07,0,10-5.83A13.54,13.54,0,0,0,91,62.14c.07.25.14.49.19.75L83,72.54Zm6,13.79.83-1.46L88,81.66A13.18,13.18,0,0,0,85,79.52Zm.35-2.93a12.86,12.86,0,0,0,1.57-1.08l-1.09,1.9Zm4.4-18.08a13.33,13.33,0,0,0-.93-1.3,11.74,11.74,0,0,1-.64-2.06l11.16-2.24Zm-1.62-3.68a12.74,12.74,0,0,1-.21-2.07l10.78,0Zm.54,4.31L78.61,65l-4.15-7.11,12.11-2.43c.31.24.62.5.91.77A13.14,13.14,0,0,0,88.68,59.14ZM75.81,81.51l2.66-3.14h.29l0,11.35-.06.12Zm2.89,9.3h-.14l.07-.13ZM44.24,81.15,42.6,78.33l1.68-3a12.94,12.94,0,0,0-.36,3.06A12.55,12.55,0,0,0,44.24,81.15ZM44.55,93,46,97l-.13,0L36.11,91.5Zm-7.48-1.66,6.88,0,.48,1.35Zm9,6.12,0,0c-.11.19-.22.38-.34.56C45.81,97.85,45.91,97.65,46,97.46Zm-.7-.39-5.54,1-3.62-6.2Zm.4.26a12.83,12.83,0,0,0-.85,1.84,12.61,12.61,0,0,1-3,2.58L40,98.4Zm-.57,2a13.93,13.93,0,0,0,1.09-1.55l1.8,5.09H44.41A12.33,12.33,0,0,1,45.15,99.34Zm1.24-2.47h0l.09-.14Zm-.23-.28-1.24-3.53,2.65.47A13.52,13.52,0,0,1,47,95.44,13.76,13.76,0,0,0,46.16,96.59Zm1.14-1a13.5,13.5,0,0,1,1.4-1.43l1.69,1.95-3.6.67C47,96.41,47.15,96,47.3,95.61Zm1-2,.24.29a12.46,12.46,0,0,0-.91.87c.12-.4.22-.81.3-1.22ZM48,92.87a13.82,13.82,0,0,0,.13-1.59h1.61l.72,1.24a14.81,14.81,0,0,0-1.39,1l-.64-.12Zm-.28-.33-1.08-1.25h1.16A10.36,10.36,0,0,1,47.71,92.54Zm-.06.43a2,2,0,0,1,0,.24l-2.82-.5L44.3,91.3h1.9Zm-3.47-2L43,87.57,45.92,91Zm-.34,0-8.19,0-.09-.15.3-.53,6.33-3.69.21.25Zm6.59-31.12-4-.77L56,53.38ZM55.9,54l-3.51,6.26-1.6-.31Zm-7.29,8a12.89,12.89,0,0,1-2.32-2.57l3.89.74Zm0,.45.36.27-.71.14ZM36,65.31,45.7,59.5l-1.39,4.13ZM44.19,64l-.49,1.45-6.89,0Zm-4.87,9.32,1.09,1.89-.65,1.94-.4.16-1-2.86Zm-1.1.78-2.4-6.8L39.14,73Zm1.51,5.26.75,2.1-.93,1.66-1-1.21.9-2.67C39.51,79.27,39.62,79.3,39.73,79.35Zm-.23-.43,0-.12.05.15Zm0-1.11-.07-.2.16-.06Zm-.16.5-.17.5A13.4,13.4,0,0,0,37,78.3a12.17,12.17,0,0,0,2.17-.58Zm-.28.81-.84,2.49-2.68-3.1A12.09,12.09,0,0,1,39.09,79.12Zm-.71,3.13,1,1.16-3.48,6.2Zm1.23,1.42L42,86.4l-5.8,3.39Zm.16-.3.85-1.51,1.48,4.2Zm.36-3.87c.39.17.77.35,1.13.55l-.57,1ZM40,79.09l-.28-.79.31-.92a13.85,13.85,0,0,0,1.27-.66l.94,1.61-.81,1.44A14.41,14.41,0,0,0,40,79.09Zm.18-2.15.46-1.36.5.86C40.82,76.62,40.5,76.79,40.17,76.94Zm.38-2.14-1-1.75L42.17,70Zm-1.18-2-4-7h.11l6.63,3.79Zm6.57-13a12.66,12.66,0,0,1,1.16,3.26l-2.42.49Zm.35-1,2-5.81,7.87,0Zm-.36,0A12.5,12.5,0,0,1,44.15,53l3.76,0Zm-.44.43L35.3,65.32l4.12-7.23Zm-5.9-1.46,1.7-3a12.68,12.68,0,0,1,4.13,4.08ZM38,74.38l-2.69,3.13L35.23,66.6Zm.12.35.95,2.68a12.32,12.32,0,0,1-3.76.75V78Zm0,7.24-2.78,8.25-.06-11.53Zm2.7-.49.71-1.26a13,13,0,0,1,3.24,2.7,12.72,12.72,0,0,0,.65,1.46l-3,1.73Zm.87-1.54.72-1.28,1.9,3.28A13.08,13.08,0,0,0,41.7,79.94ZM42.41,78l-.84-1.46a13.29,13.29,0,0,0,3.21-2.82,1.15,1.15,0,0,0-.06.17Zm-1-1.74-.63-1.1,1.79-5.31,3.2,1.83A12.76,12.76,0,0,1,41.4,76.27Zm1.05-7.11-.15.18L36.1,65.8l7.49,0Zm1.49-3.4h1.43L43,68.5Zm.11-.33.51-1.52,2.59-.52a2,2,0,0,0,0,.24l-1.54,1.8Zm3.2-1.38a12.44,12.44,0,0,1,.1,1.37H46.08Zm-.74-3.81a13.11,13.11,0,0,0,1.89,2l-.61.71-.37.08A13,13,0,0,0,46.51,60.24Zm1.45,3,1.4-.28a12.8,12.8,0,0,0,1.11.69l-1,1.77H47.67a13.28,13.28,0,0,0-.14-1.69Zm1.84-.37,1.25-.25-.42.75C50.35,63.2,50.07,63,49.8,62.86Zm-.36-.26c-.2-.14-.39-.27-.58-.42l1.69-2,1.67.32-1,1.71Zm3.11-2,3.55.67-4.42.89Zm.17-.3,4-7.18.27.46v7.51l-.07,0Zm4.09-7.7a.17.17,0,0,0-.1,0l-8.35,0,4.09-12.14a13.1,13.1,0,0,0,4.22.68l.37,0,0,11.44Zm8.88,10.17-.55-.63a13,13,0,0,0,2-2.18,12.68,12.68,0,0,0-1,2.9Zm.43.41a.15.15,0,0,1,0,.07L66,63.16Zm6.43,13.54a15.14,15.14,0,0,0,1.46.71l.26.73L74,79a12.1,12.1,0,0,0-1.35.67l-.9-1.55Zm-1,1.12L69.46,74.3a13.25,13.25,0,0,0,2.81,2.24Zm2.93.81.06.19-.15.06Zm0-1.08.06,0,0,.07Zm.21,1.58.82,2.3-1.08,1.27-.83-1.43.69-2C74.35,79.23,74.49,79.19,74.62,79.14Zm0-1,.15-.46a13.18,13.18,0,0,0,2.15.51,13.43,13.43,0,0,0-2.1.52Zm0-.88-.31-.11L73.51,75l1-1.71,1,1.19Zm-1.21-2.65-1.53-4.33,2.43,2.78Zm.5,2.38a11.34,11.34,0,0,1-1.16-.57l.59-1Zm-.05,2.46-.51,1.45L72.78,80A11.26,11.26,0,0,1,73.82,79.46Zm-.43,2.22L74.14,83l-2,2.39Zm.92,1.59,3.8,6.53-6.29-3.6Zm.23-.26,1-1.21,2.68,7.57Zm.39-4A12.63,12.63,0,0,1,78,78.4l-2.35,2.76Zm-.05-1.64.9-2.59,2.69,3.08-.12.14A12.52,12.52,0,0,1,74.88,77.38Zm.78-3.22-1-1.13L78.16,67Zm-1.22-1.39L71.58,69.5l6.69-3.91h.3Zm-5-9.3L68,59.36l10,5.73Zm7.72,1.8-7.07,0-.53-1.48Zm-8.89-6.12L74.12,58l4,6.83Zm-.15-.3a12.77,12.77,0,0,1,4.11-4.13l1.73,3Zm-.42-.31-2-5.67,3.63,0A12.61,12.61,0,0,1,67.69,58.54Zm0,1,1.36,3.85-2.56-.49A12.58,12.58,0,0,1,67.7,59.55Zm-2.53,3.11-.55-.1.28-.22Zm-1.78-2.53,3.79-.76a13.18,13.18,0,0,1-2.25,2.52ZM66.33,64l1.17,1.33H66.25A11.73,11.73,0,0,1,66.33,64Zm.06-.43c0-.11,0-.22,0-.33l2.74.53.55,1.55h-1.8Zm3.46,2.07L71,68.8l-2.76-3.16Zm.34,0,7.43,0L71.45,69.2Zm3,9.36-.73,1.27a12.69,12.69,0,0,1-4-3.79l-.2-.35,0,0-.26-.44,3.37-2Zm-1.82,3.17-2,3.46a13.34,13.34,0,0,0,.44-3.36,13.09,13.09,0,0,0-.59-3.77Zm.19.32.81,1.4a12.68,12.68,0,0,0-3.12,2.62Zm1,1.68.67,1.15L71.53,86l-3.18-1.82.09-.18A12.55,12.55,0,0,1,72.5,80.16Zm-1.18,6.13-3.88,4.57H66.37a12.69,12.69,0,0,1,1.3-5.47c.19-.29.37-.59.54-.89ZM61.45,96l1.41.25L58,101.94Zm-.17-.36L58,95.05l4.11-.77Zm.34.06.86-1.5,2.29-.42a.94.94,0,0,1,.12.09L63.1,96Zm5.18-.42a13.32,13.32,0,0,0-1.46-1.45l.16-.19.8-.15A11.83,11.83,0,0,0,66.8,95.28Zm-.43-4.09h.79l-.74.87C66.4,91.77,66.38,91.48,66.37,91.19Zm-.53,2.06.35-.42c0,.12,0,.23,0,.34Zm-.51.09-.48.09a14,14,0,0,0-1.39-.93l.75-1.3h1.84c0,.4,0,.81.07,1.21Zm-2.15-1a13,13,0,0,0-2.75-1.11h3.4Zm.12.45c.38.23.75.47,1.11.73l-1.72.32Zm1.83,1.3a12.84,12.84,0,0,1,2.12,2.3,3.78,3.78,0,0,0,.17.35l-4-.7Zm1.48-.65L69.13,93l-1.29,3.71c-.1-.16-.21-.31-.32-.47A12.94,12.94,0,0,1,66.61,93.43Zm0-.32c0-.2-.07-.4-.09-.61l1.12-1.31h2.16l-.5,1.43Zm3.53-1.93,7.06,0-7.53,1.4Zm-.23-.33h-2l3.38-4Zm-3.81,0H64.39l2.35-4.08A12.78,12.78,0,0,0,66.05,90.87Zm-2,0-4.18,0A12.93,12.93,0,0,0,66,87.49Zm-1,1.74-.75,1.29-5,.93v-3.6h1.61A12.57,12.57,0,0,1,63,92.62ZM57,40.18l-.38,0a12.68,12.68,0,0,1-2.4-.23,12.69,12.69,0,0,1,2.4-.25l.38,0Zm.26,55.08,3.81.68-3.82,6.63Zm5.93,1.06,4.36.77.06.11-9.92,5.63h0Zm4.27,1.35-1.78,5.12-7.32,0Zm.37-.1c.18.29.36.57.56.85a12.68,12.68,0,0,1,1.11,4.35l-3.48,0Zm.33-.3.09,0,5.66,1-1.88,3.28a12.86,12.86,0,0,1-3.37-3.25C68.55,97.91,68.38,97.59,68.2,97.27Zm.53-.31,8.78-5-3.39,5.94Zm-.5-.08-.11,0,1.37-4,8.39-1.57,0,.1Zm2-6,1.5-4.34,6.73,3.85h0l-.26.45Zm8.47-13.23L75.9,74.44l2.8-8.06,0,11.16ZM87,55.39l.24,0c0,.12.06.23.08.34Zm-.35-.26a13,13,0,0,0-5.06-2.34l5.37,0A12.81,12.81,0,0,0,87.19,55Zm-.43.09L74.28,57.61,72.5,54.55a12.52,12.52,0,0,1,13.72.67Zm-13.89-.95-.83-1.43,4.49,0A13,13,0,0,0,72.33,54.27Zm-5,4.38-10-5.74,7.94,0Zm0,.36-4.2.84L57.42,53.3Zm-4.57.91-1.51.31-3.54-6.09ZM62,62.05l-4.17-.79,3.32-.67Zm-.52-1.53L63,60.2l1.65,1.9-.49.37-1.81-.34Zm2.4,2.22c-.27.18-.54.34-.82.5l-.42-.74Zm.43.08,1.25.24.53.61a14.88,14.88,0,0,0-.13,1.66H64.24l-1-1.81C63.56,63.3,63.92,63.07,64.27,62.82Zm2,6.73a12.93,12.93,0,0,0-6.78-3.87l4.52,0Zm-1.89-3.89h1.5a13.07,13.07,0,0,0,.54,3.51Zm1.82,0h1.53l3.3,3.77-3.33,2-.12-.22A12.49,12.49,0,0,1,66.25,65.65ZM68,72.37a12.6,12.6,0,0,1,1.5,5.9,12.44,12.44,0,0,1-.89,4.7L68,84,57.32,77.92v-.1l10.29-6C67.72,72,67.84,72.19,68,72.37Zm-.15,11.92-1,1.79a12.57,12.57,0,0,1-8.35,4.75c-.37,0-.75-.06-1.13-.07l0-12.47ZM57,39.41h-.38a12.58,12.58,0,0,0-3.09.4c-.28-.07-.54-.14-.81-.23l3.82-11.34,0,0,0,0,.42,1.19Zm-4.58.05a12.15,12.15,0,0,1-1.9-.87l5.35-9.37Zm-2.18-1a12.21,12.21,0,0,1-4.14-4.1l9.72-5.67ZM52,40.32a13,13,0,0,0-3.65,2.2l1.76-3.08A14.73,14.73,0,0,0,52,40.32Zm-10.79,14A12.86,12.86,0,0,0,37.73,53L42,53Zm-.16.29-1.75,3.07-12-2.28A12.6,12.6,0,0,1,33.63,53h2.1A12.38,12.38,0,0,1,41,54.66Zm-14.17.71-.53-.1a13.45,13.45,0,0,0,.2-2.21l5.12,0A12.81,12.81,0,0,0,26.84,55.37Zm-.35.26-.31.28c0-.11.06-.21.08-.32Zm.43.08L39.09,58,35,65.17,24.86,59.38A13.47,13.47,0,0,0,26,56.49,11,11,0,0,1,26.92,55.71Zm-4,38.16a11,11,0,0,1-.2-1.17l8.06-9.41,4.2,7.2-10.1,5.9A13.4,13.4,0,0,0,22.9,93.87Zm1.57,3.83c-.11-.17-.22-.34-.32-.52l0,0C24.29,97.34,24.38,97.52,24.47,97.7ZM24,96.88h0L24,96.78A.61.61,0,0,0,24,96.88Zm-1.76-5.72a13.93,13.93,0,0,0,.09,1.45L22,93a12.46,12.46,0,0,0-1.79-1.25L23,86.93A12.9,12.9,0,0,0,22.26,91.16Zm.23,2.33-.26-.24.19-.22C22.44,93.18,22.46,93.34,22.49,93.49Zm-1.14.28-6.87,8,5.23-9.16A12.61,12.61,0,0,1,21.35,93.77Zm7.58-13.61L30.59,83l-7.94,9.26c0-.36-.06-.73-.07-1.1A12.64,12.64,0,0,1,28.93,80.16Zm-6.45-11.7a12.51,12.51,0,0,1-.35-2.82,12.77,12.77,0,0,1,.16-2l8.18,9.45-1.95,3.41a13.05,13.05,0,0,1-2.33-1.71Zm2.77,5.39a12.62,12.62,0,0,1-2.39-4.09Zm9.17,4.68-3.61,4.21L29.21,80A12.6,12.6,0,0,1,34.42,78.53Zm-5.37,1.19-1-1.71.59-1A12.68,12.68,0,0,0,33,78.37,13,13,0,0,0,29.05,79.72Zm-.25-3,1.9-3.32,4.08,4.72-.07.08A12.57,12.57,0,0,1,28.8,76.7Zm1.84-3.88-8.28-9.58c.05-.28.12-.56.19-.83a13.34,13.34,0,0,0,2.14-2.76l10.16,5.81Zm-2.28,4-.5.88-1.16-2A12.38,12.38,0,0,0,28.36,76.81Zm.41,3.07a13.17,13.17,0,0,0-3.39,2.82l2.49-4.36ZM31,83l3.87-4.52H35L35,90Zm-.12-10,4-7.07L35,77.81Zm-5.52-18L15,53.12l10.52,0A12.12,12.12,0,0,1,25.35,55.08Zm-.05.32a11.69,11.69,0,0,1-.62,2.06,13.15,13.15,0,0,0-.91,1.3l-9.56-5.47ZM23.61,59a12,12,0,0,0-.86,1.72,11.74,11.74,0,0,1-1.35,1.38l-7.47-8.63Zm-1.49,3.77a.53.53,0,0,0,0,.12l-.05,0ZM22,67.62l-1.93-3.29A13.31,13.31,0,0,0,21.8,63.1l.21.25a12.35,12.35,0,0,0-.2,2.29A11.76,11.76,0,0,0,22,67.62Zm-2.42-4.13-5.31-9.11,6.9,8A12,12,0,0,1,19.57,63.49Zm-.27.17a12.32,12.32,0,0,1-5.52,1.57l-.06-11.12Zm.49.84,2.38,4.09A13,13,0,0,0,25.93,75l1.75,3L19.91,91.62a13.16,13.16,0,0,0-6-1.64L13.78,66.2A13.17,13.17,0,0,0,19.79,64.5Zm-.36,28L14,102.05,13.9,91A12.17,12.17,0,0,1,19.43,92.46ZM21.59,94A12.76,12.76,0,0,1,23,95.48a13.76,13.76,0,0,0,.68,1.57l-9.51,5.56Zm2.28,3.35a13,13,0,0,0,1.22,1.81,12.21,12.21,0,0,1,.45,1.6l-11,2.06Zm1.73,3.74a13.15,13.15,0,0,1,.19,1.91L15.06,103ZM25,96.67l10-5.84v.36h0v0a.13.13,0,0,0,.11.11l.44.25,3.84,6.59-12.6,2.34c-.15-.13-.31-.26-.45-.4A13.56,13.56,0,0,0,25,96.67Zm1.71,4.19a12.67,12.67,0,0,0,3.33,2.1l-3.31,0a13,13,0,0,0-.21-2.08ZM41.8,102.2l.41.71H40.44A13.49,13.49,0,0,0,41.8,102.2Zm4.78-4.42,9,5.06-7.17,0Zm-.08-.42a2,2,0,0,0,.11-.2l4-.75,5.55,6.42Zm4.5-1,1.5-.28L56,102.17Zm.85-2,4.28.76-3.46.64Zm.48,1.46-1.57.3L48.94,94c.07-.06.14-.1.2-.16l2.3.41ZM49.5,93.55a10.32,10.32,0,0,1,1.12-.74l.6,1Zm.6-2.28h3.3a13,13,0,0,0-2.67,1.09ZM49.91,91l-1.8-3.12A12.93,12.93,0,0,0,54,90.93Zm-.37,0H48.12a12.88,12.88,0,0,0-.46-3.25ZM47.8,91H46.35l-3.67-4.24-.1-.3,3-1.76a12.68,12.68,0,0,0,1.4,2A12.66,12.66,0,0,1,47.8,91Zm-2.35-7.71-.58-1A12.42,12.42,0,0,1,45,74l1.18-2.1,10.39,5.93L46,84C45.84,83.77,45.65,83.51,45.45,83.25Zm.47-11.84-3.26-1.86.08-.23,3.06-3.57h1.54A12.46,12.46,0,0,1,45.92,71.41Zm1.75-5.67H49.3L46.84,70.1A12.65,12.65,0,0,0,47.67,65.74Zm2,0,4.37,0a13,13,0,0,0-6.29,3.44Zm.18-.32.91-1.61a12.86,12.86,0,0,0,6,1.47l.22,0v.12Zm6.94-.47a12.53,12.53,0,0,1-5.88-1.43l.56-1,5.47-1.1H57v3.49Zm.48,50.86a12.71,12.71,0,0,1,2.25.22,12.7,12.7,0,0,1-2.25.25Zm0-1V103.46l.53-.31,7.78,0L61.3,115.5A13.39,13.39,0,0,0,57.28,114.82Zm5.76,2.5-5.15,9,3.4-9.8A12.5,12.5,0,0,1,63,117.32Zm.27.17a12.31,12.31,0,0,1,4.16,4l-9.66,5.65Zm-1.53-1.82a12.82,12.82,0,0,0,3.3-1.93l-1.56,2.73A13.69,13.69,0,0,0,61.78,115.67ZM72.19,102a12,12,0,0,0,1.5.8h-2Zm15.18-1.17a12,12,0,0,0-.16,1.91H84.37A12.88,12.88,0,0,0,87.37,100.78ZM74.46,98l3.61-6.31,1-.56h0l0,0,0,0s0,0,0,0l0-.05s0,0,0,0v-.21l9.75,5.56a13.19,13.19,0,0,0-1.45,4v0Zm13.89,2.8,10.41,1.85-10.58.05A13.16,13.16,0,0,1,88.35,100.78Zm.05-.32c.06-.31.14-.61.22-.92a13,13,0,0,0,1.7-2.39l9.29,5.3Zm2.07-3.6a12.86,12.86,0,0,0,.94-2.37c.27-.29.55-.57.85-.84l7.38,8.44Zm3.94-4.77a12.12,12.12,0,0,1,5.51-1.58l.06,11.11Zm-.49-.84-2.9-5A13.34,13.34,0,0,0,89,82.75l-2.93-5,1.64-2.87a13,13,0,0,0,3.81-6.65l2.29-4a13.26,13.26,0,0,0,6,1.66l.12,23.69A13,13,0,0,0,93.92,91.25Zm.33-27.91,5.49-9.6.06,11.13A12.15,12.15,0,0,1,94.25,63.34ZM89.34,46.9,99,52.38l-11,.06A12.29,12.29,0,0,1,89.34,46.9Zm-.84-.48a13.15,13.15,0,0,0-1.54,6l-15.65.08-2.14-3.67a13,13,0,0,0-3.31-5.66l-2.33-4A13.36,13.36,0,0,0,68,34.7ZM57.39,15.67A12.25,12.25,0,0,1,67.6,33.37L57.38,27.53Zm9.74,18.55A12.55,12.55,0,0,1,63,38.36l-5.66-9.71Zm-9.76-4.93,5.39,9.24a11.92,11.92,0,0,1-1.84.87l-3.55-10Zm0,1.05,3.25,9.17c-.29.1-.57.18-.86.26a12.74,12.74,0,0,0-2.4-.34Zm0,9.41a12.1,12.1,0,0,1,1.71.2,13.77,13.77,0,0,1-1.71.21Zm0,1.38a13.38,13.38,0,0,0,3.54-.68l.05,0,4.27,12.08-7.87,0Zm0,13,3.59,6.16L57.34,61Zm0,7.37,4.83.92.58,1a12.61,12.61,0,0,1-5.42,1.5Zm0,3.74a13,13,0,0,0,5.58-1.55l1,1.65-6.54,0Zm0,.5a12.59,12.59,0,0,1,10.12,5.79L57.32,77.44ZM44.32,28A12.29,12.29,0,0,1,56.54,15.63l.52,0v11.7l-.21-.12a.46.46,0,0,0-.48,0l-10.7,6.24A12.21,12.21,0,0,1,44.32,28Zm1,6.84a13.24,13.24,0,0,0,4.5,4.46l-2.28,4A13,13,0,0,0,44.24,49l-2.09,3.66-6.42,0c-.35,0-.7,0-1,0s-.7,0-1,.06l-7.12,0a13.18,13.18,0,0,0-1.57-6ZM25.54,52.74l-11,.06,9.59-5.6A12.32,12.32,0,0,1,25.54,52.74ZM1,53A12.28,12.28,0,0,1,23.6,46.36L13,52.56a.49.49,0,0,0-.24.42l.06,12.25A12.3,12.3,0,0,1,1,53Zm12.6,62.48A12.28,12.28,0,0,1,12.93,91L13,103.21a.48.48,0,0,0,.25.42l10.68,6.09A12.31,12.31,0,0,1,13.57,115.51Zm10.84-6.63-9.67-5.52,11,0A12.14,12.14,0,0,1,24.41,108.88Zm.84.49a13.07,13.07,0,0,0,1.51-6.06l4.14,0a12.75,12.75,0,0,0,8.7-.05h2.8l2,3.43a12.9,12.9,0,0,0,3.79,6.48l2.09,3.59a13.38,13.38,0,0,0-4.43,4.39Zm19.58,18.76a12.19,12.19,0,0,1,1.37-5.68l10.41,5.94.32,12A12.3,12.3,0,0,1,44.83,128.13Zm12.11-1-3.77-10.67c.24-.08.49-.16.74-.22a13.25,13.25,0,0,0,3,.38Zm0-10.84a12.47,12.47,0,0,1-2.38-.23,12.48,12.48,0,0,1,2.38-.26Zm0-1.46a13.21,13.21,0,0,0-4.1.71L48.49,103.2l7.63,0,.69.39h0s0,0,0,0l0,0h0a.05.05,0,0,0,0,0h0Zm0-12H56.8l-4-6.83L57,95.23Zm0-8-5.33-.94-.75-1.29a12.36,12.36,0,0,1,4-1.39h1.55l.45,0H57Zm0-4.13h-.07a10.84,10.84,0,0,0-1.51.11,12.62,12.62,0,0,1-7.94-4.14l-.31-.54a14.09,14.09,0,0,0-1-1.85l10.72-6.26.08,0Zm-.07-13.06-10.56-6L47,70.43a12.61,12.61,0,0,1,9.76-4.71H57l0,11.9Zm.36,38.92a13.35,13.35,0,0,0,2.92-.41l.79.23-3.72,10.72ZM69.4,128a12.48,12.48,0,0,1-11.67,12.34l-.14-12L68,122.32A12.16,12.16,0,0,1,69.4,128Zm-1.09-7a13.4,13.4,0,0,0-4.51-4.35l2-3.57a13,13,0,0,0,3.75-6.56l2-3.42,2.94,0a12.74,12.74,0,0,0,9.1,0l3.63,0a13.19,13.19,0,0,0,1.58,6Zm19.88-18,11-.06-9.57,5.59A12.15,12.15,0,0,1,88.19,103Zm12.33,12a12.26,12.26,0,0,1-10.39-5.67l10.59-6.18a.5.5,0,0,0,.24-.43l-.06-12.26a12.27,12.27,0,0,1-.38,24.54Z"/><path d="M63.58,11.67a1,1,0,1,0,1-1A1,1,0,0,0,63.58,11.67Z"/><path d="M51.2,11.62a1,1,0,1,0-2.06,0,1,1,0,0,0,1,1A1,1,0,0,0,51.2,11.62Z"/><path d="M64.65,2.12a1,1,0,1,0-1-1A1,1,0,0,0,64.65,2.12Z"/><path d="M50.21,2.06a1,1,0,1,0-1-1A1,1,0,0,0,50.21,2.06Z"/><path d="M29.6,122.46a.73.73,0,0,0-.72-.73.72.72,0,0,0-.72.72.73.73,0,0,0,.72.73A.72.72,0,0,0,29.6,122.46Z"/><path d="M28,139.28l0,10.53a.49.49,0,1,0,1,0l0-10.55a13.08,13.08,0,0,0-.13-1.78,4,4,0,0,0,1-1l.24-.31.13-.15.6.33,0,0a1,1,0,0,0,1.09-.11.89.89,0,0,0,.24-.94,1.11,1.11,0,0,0-1-.75,1.65,1.65,0,0,0-1.11.27,8.32,8.32,0,0,1-.87-.67,2,2,0,0,0-.33-.25l.32-.5.12-.21a2.41,2.41,0,0,0,.93.51,1.47,1.47,0,0,0,1.21-.2,1.17,1.17,0,0,0,.48-.87,1.28,1.28,0,0,0-.31-.91,1.4,1.4,0,0,0-1-.48,1.93,1.93,0,0,0-1.42.52,5.24,5.24,0,0,1-1.27-2.07,2.72,2.72,0,0,1,.61-2.7,1.79,1.79,0,0,1,1.36-.41,1.32,1.32,0,0,1,1,.53,1,1,0,0,1,0,1.15.69.69,0,0,1-.5.25.51.51,0,0,1-.41-.13.49.49,0,0,0-.69,0,.48.48,0,0,0,0,.69,1.48,1.48,0,0,0,1.15.41,1.67,1.67,0,0,0,1.21-.62,2,2,0,0,0,0-2.31,2.29,2.29,0,0,0-1.64-.93,2.77,2.77,0,0,0-2.14.65A3.59,3.59,0,0,0,27,130a6.2,6.2,0,0,0,1.57,2.55.8.8,0,0,0-.09.14l-.15.25c-.12.19-.23.38-.35.55a2.64,2.64,0,0,0-2-.22.77.77,0,0,0-.38.83,1.09,1.09,0,0,0,.61.88,2,2,0,0,0,1.74-.13l.24-.17.34.23a7.18,7.18,0,0,0,.77.62l0,0-.25.32a4.6,4.6,0,0,1-.52.61h0a1.26,1.26,0,0,0-.68-.42.86.86,0,0,0-.45,1.65,2.07,2.07,0,0,0,.5.06C27.92,138.23,28,138.79,28,139.28Zm2.58-7a.42.42,0,0,1,.31.15.27.27,0,0,1,.08.2.2.2,0,0,1-.08.15.5.5,0,0,1-.4,0,1.55,1.55,0,0,1-.55-.32A.88.88,0,0,1,30.55,132.24Z"/><path d="M28.43,151.72a.72.72,0,1,0,.72.72A.72.72,0,0,0,28.43,151.72Z"/><path d="M28.42,154.16a.73.73,0,0,0-.73.72.72.72,0,0,0,.72.72.72.72,0,1,0,0-1.44Z"/><path d="M28.41,156.6a.72.72,0,0,0-.72.72.71.71,0,0,0,.71.72.72.72,0,0,0,.73-.71A.73.73,0,0,0,28.41,156.6Z"/><path d="M28.4,159.05a.71.71,0,0,0-.72.71.72.72,0,0,0,.71.73.73.73,0,0,0,.73-.72A.72.72,0,0,0,28.4,159.05Z"/><path d="M28.39,161.49a.72.72,0,0,0-.72.72.71.71,0,0,0,.71.72.73.73,0,0,0,.73-.72A.72.72,0,0,0,28.39,161.49Z"/><path d="M28.38,163.93a.72.72,0,0,0-.72.72.71.71,0,0,0,.71.72.72.72,0,0,0,.73-.71A.73.73,0,0,0,28.38,163.93Z"/><path d="M28.37,166.37a.73.73,0,0,0,0,1.45.73.73,0,1,0,0-1.45Z"/><path d="M29.08,169.54a.72.72,0,1,0-.72.72A.72.72,0,0,0,29.08,169.54Z"/><path d="M21.29,118a.72.72,0,1,0-.72.72A.72.72,0,0,0,21.29,118Z"/><path d="M22.85,130.07a1.65,1.65,0,0,0-1.11.27,7.13,7.13,0,0,1-.87-.67,1.57,1.57,0,0,0-.33-.24c.11-.17.22-.34.32-.51l.12-.21a2.42,2.42,0,0,0,.93.52,1.47,1.47,0,0,0,1.21-.21,1.16,1.16,0,0,0,.48-.86,1.29,1.29,0,0,0-.31-.92,1.4,1.4,0,0,0-1-.48,1.93,1.93,0,0,0-1.42.52,5.24,5.24,0,0,1-1.27-2.07,2.71,2.71,0,0,1,.6-2.69,1.79,1.79,0,0,1,1.37-.41,1.28,1.28,0,0,1,1,.52,1,1,0,0,1,0,1.16.72.72,0,0,1-.5.24.51.51,0,0,1-.41-.13.49.49,0,0,0-.69.7,1.54,1.54,0,0,0,1.16.4,1.67,1.67,0,0,0,1.21-.62,2,2,0,0,0,0-2.31,2.29,2.29,0,0,0-1.65-.93,2.76,2.76,0,0,0-2.13.65,3.6,3.6,0,0,0-.88,3.69A6.13,6.13,0,0,0,20.26,128l-.09.15-.15.24c-.12.2-.23.39-.35.56a2.6,2.6,0,0,0-2-.23.75.75,0,0,0-.38.83,1.08,1.08,0,0,0,.61.88,1.93,1.93,0,0,0,1.74-.13l.24-.17a2.5,2.5,0,0,1,.34.24c.31.27.55.46.77.62l0,0-.25.33a4.49,4.49,0,0,1-.52.6h0a1.26,1.26,0,0,0-.68-.42.84.84,0,0,0-1,.62.83.83,0,0,0,.58,1,1.4,1.4,0,0,0,.5.06c.05.44.09,1,.1,1.49l0,6.89a.49.49,0,0,0,.49.49.5.5,0,0,0,.49-.49l0-6.9A14.59,14.59,0,0,0,20.5,133a4.24,4.24,0,0,0,1-1l.24-.3a1.53,1.53,0,0,1,.13-.16l.6.33.05,0a1,1,0,0,0,1.09-.12.9.9,0,0,0,.24-.94A1.11,1.11,0,0,0,22.85,130.07Zm-.61-2.34a.44.44,0,0,1,.31.15.27.27,0,0,1,.08.2.19.19,0,0,1-.08.15.5.5,0,0,1-.4.05,1.55,1.55,0,0,1-.55-.32A.88.88,0,0,1,22.24,127.73Z"/><path d="M20,143.61a.72.72,0,1,0,.72.72A.72.72,0,0,0,20,143.61Z"/><path d="M20,146.05a.72.72,0,1,0,.72.72A.72.72,0,0,0,20,146.05Z"/><path d="M20,148.49a.72.72,0,0,0-.72.72.73.73,0,0,0,.72.73.72.72,0,0,0,.72-.72A.73.73,0,0,0,20,148.49Z"/><path d="M20,150.94a.71.71,0,0,0-.72.71.72.72,0,1,0,1.44,0A.72.72,0,0,0,20,150.94Z"/><path d="M19.94,153.38a.72.72,0,1,0,.72.72A.72.72,0,0,0,19.94,153.38Z"/><path d="M19.93,155.82a.72.72,0,1,0,0,1.44.71.71,0,0,0,.72-.71A.73.73,0,0,0,19.93,155.82Z"/><path d="M19.92,158.27a.71.71,0,0,0-.72.71.73.73,0,0,0,.72.73.72.72,0,0,0,0-1.44Z"/><path d="M19.91,160.71a.72.72,0,1,0,.72.72A.72.72,0,0,0,19.91,160.71Z"/><path d="M36.9,129.81a.72.72,0,1,0-.72.72A.72.72,0,0,0,36.9,129.81Z"/><path d="M35.72,166.2a.72.72,0,1,0,.72.72A.72.72,0,0,0,35.72,166.2Z"/><path d="M35.71,168.64a.72.72,0,1,0,.72.73A.73.73,0,0,0,35.71,168.64Z"/><circle cx="35.7" cy="171.81" r="0.72"/><path d="M35.69,173.53a.72.72,0,1,0,.72.72A.72.72,0,0,0,35.69,173.53Z"/><circle cx="35.68" cy="176.69" r="0.72" transform="translate(-141.45 210.16) rotate(-89.28)"/><circle cx="35.67" cy="179.14" r="0.72"/><path d="M35.66,180.86a.72.72,0,1,0,.72.72A.72.72,0,0,0,35.66,180.86Z"/><path d="M35.65,183.3a.72.72,0,1,0,.72.72A.72.72,0,0,0,35.65,183.3Z"/><path d="M35.63,140.28a6,6,0,0,1-.36.56,2.62,2.62,0,0,0-2-.23.77.77,0,0,0-.38.83,1.06,1.06,0,0,0,.61.88,1.93,1.93,0,0,0,1.74-.13l.24-.17a2.5,2.5,0,0,1,.34.24,7.18,7.18,0,0,0,.77.62l0,0-.25.33a6.6,6.6,0,0,1-.52.61h0a1.29,1.29,0,0,0-.68-.43.86.86,0,0,0-.45,1.66,1.67,1.67,0,0,0,.5,0c0,.44.09,1,.1,1.49L35.2,164.7a.49.49,0,0,0,1,0l.07-18.08a14.59,14.59,0,0,0-.13-1.77,3.9,3.9,0,0,0,1-1l.23-.3.14-.16.6.34,0,0a1,1,0,0,0,1.09-.12.9.9,0,0,0,.24-.94,1.16,1.16,0,0,0-1-.75,1.74,1.74,0,0,0-1.11.27,5.69,5.69,0,0,1-.87-.67,2,2,0,0,0-.33-.24c.11-.17.22-.34.31-.5a2.39,2.39,0,0,0,.13-.21,2.4,2.4,0,0,0,.93.51,1.47,1.47,0,0,0,1.2-.2,1.18,1.18,0,0,0,.49-.87,1.3,1.3,0,0,0-.31-.92,1.44,1.44,0,0,0-1-.48,1.93,1.93,0,0,0-1.42.52,5.24,5.24,0,0,1-1.27-2.07,2.69,2.69,0,0,1,.6-2.69A1.79,1.79,0,0,1,37.2,134a1.33,1.33,0,0,1,1,.52,1,1,0,0,1,0,1.16.73.73,0,0,1-.5.25.6.6,0,0,1-.41-.13.49.49,0,0,0-.69.69,1.55,1.55,0,0,0,1.16.41,1.69,1.69,0,0,0,1.2-.62,2,2,0,0,0,0-2.31,2.27,2.27,0,0,0-1.65-.94,2.75,2.75,0,0,0-2.13.66,3.6,3.6,0,0,0-.89,3.68,6.16,6.16,0,0,0,1.58,2.55l-.09.15Zm2.22-.69a.48.48,0,0,1,.31.15.28.28,0,0,1,.08.21.17.17,0,0,1-.08.14.54.54,0,0,1-.4.06,1.44,1.44,0,0,1-.55-.33A.92.92,0,0,1,37.85,139.59Z"/><path d="M86.19,123.4a.72.72,0,1,0-.72-.72A.72.72,0,0,0,86.19,123.4Z"/><path d="M89,133.51a2.58,2.58,0,0,0-2,.21c-.12-.18-.24-.37-.35-.56l-.15-.25a.8.8,0,0,0-.09-.14A6.23,6.23,0,0,0,88,130.23a3.61,3.61,0,0,0-.85-3.7,2.8,2.8,0,0,0-2.13-.67,2.28,2.28,0,0,0-1.65.92,2,2,0,0,0,0,2.32,1.67,1.67,0,0,0,1.2.62,1.47,1.47,0,0,0,1.16-.39.49.49,0,0,0-.68-.7.53.53,0,0,1-.4.12.66.66,0,0,1-.5-.25,1,1,0,0,1,0-1.15,1.35,1.35,0,0,1,1-.52,1.82,1.82,0,0,1,1.37.42,2.7,2.7,0,0,1,.58,2.7A5.1,5.1,0,0,1,85.79,132a1.89,1.89,0,0,0-1.41-.53,1.39,1.39,0,0,0-1,.47,1.25,1.25,0,0,0-.32.92,1.14,1.14,0,0,0,.48.87,1.44,1.44,0,0,0,1.2.21,2.41,2.41,0,0,0,.93-.51,2.39,2.39,0,0,1,.13.21c.1.17.2.34.31.51a2.78,2.78,0,0,0-.34.24,5.51,5.51,0,0,1-.87.66,1.61,1.61,0,0,0-1.1-.27,1.1,1.1,0,0,0-1,.74.9.9,0,0,0,.23.94,1,1,0,0,0,1.09.12l0,0,.6-.33.14.16.23.3a4,4,0,0,0,1,1,14.72,14.72,0,0,0-.15,1.79L86,150a.49.49,0,0,0,.49.49.48.48,0,0,0,.49-.48l0-10.53c0-.5.06-1.06.11-1.5a1.57,1.57,0,0,0,.49-.05.83.83,0,0,0,.6-1,.85.85,0,0,0-1-.63,1.3,1.3,0,0,0-.68.42h0a5.31,5.31,0,0,1-.51-.61l-.26-.33,0,0a8.7,8.7,0,0,0,.77-.62,2.12,2.12,0,0,1,.35-.23l.23.17a2,2,0,0,0,1.74.15,1.12,1.12,0,0,0,.62-.88A.76.76,0,0,0,89,133.51ZM84.53,133a.49.49,0,0,1-.4-.05.2.2,0,0,1-.08-.15.27.27,0,0,1,.08-.2.44.44,0,0,1,.31-.15h0a1,1,0,0,1,.59.23A1.3,1.3,0,0,1,84.53,133Z"/><circle cx="86.41" cy="152.67" r="0.72"/><circle cx="86.4" cy="155.11" r="0.72" transform="translate(-69.05 240.9) rotate(-89.77)"/><path d="M86.39,156.83a.72.72,0,1,0,.72.73A.73.73,0,0,0,86.39,156.83Z"/><path d="M86.38,159.27a.72.72,0,0,0-.72.72.73.73,0,0,0,.72.73.72.72,0,0,0,.72-.72A.73.73,0,0,0,86.38,159.27Z"/><path d="M86.37,161.72a.72.72,0,1,0,.72.72A.72.72,0,0,0,86.37,161.72Z"/><path d="M86.36,164.16a.72.72,0,1,0,.72.72A.72.72,0,0,0,86.36,164.16Z"/><path d="M86.35,166.6a.72.72,0,0,0-.72.72.73.73,0,0,0,.72.73.72.72,0,0,0,.72-.72A.73.73,0,0,0,86.35,166.6Z"/><path d="M86.34,169.05a.71.71,0,0,0-.72.71.73.73,0,0,0,.72.73.72.72,0,0,0,0-1.44Z"/><path d="M94.53,119a.73.73,0,0,0,.73-.72.72.72,0,0,0-.72-.72.73.73,0,0,0-.73.72A.72.72,0,0,0,94.53,119Z"/><path d="M97.34,129.06a2.6,2.6,0,0,0-2,.22c-.12-.18-.23-.37-.35-.57l-.14-.24a1,1,0,0,1-.09-.15,6.24,6.24,0,0,0,1.59-2.53,3.62,3.62,0,0,0-.86-3.7,2.78,2.78,0,0,0-2.12-.67,2.26,2.26,0,0,0-1.65.92,2,2,0,0,0,0,2.31,1.64,1.64,0,0,0,1.2.63,1.47,1.47,0,0,0,1.16-.4.48.48,0,1,0-.68-.69.54.54,0,0,1-.41.12.69.69,0,0,1-.5-.25,1,1,0,0,1,0-1.15,1.3,1.3,0,0,1,1-.52,1.8,1.8,0,0,1,1.36.42,2.68,2.68,0,0,1,.59,2.7,5.28,5.28,0,0,1-1.29,2.06,1.92,1.92,0,0,0-1.42-.53,1.43,1.43,0,0,0-1,.47,1.24,1.24,0,0,0-.31.91,1.16,1.16,0,0,0,.47.88,1.49,1.49,0,0,0,1.21.21A2.28,2.28,0,0,0,94,129l.12.21c.1.17.2.34.31.51a1.88,1.88,0,0,0-.33.24,6.2,6.2,0,0,1-.88.66,1.67,1.67,0,0,0-1.1-.28,1.13,1.13,0,0,0-1,.75.9.9,0,0,0,.23.94,1,1,0,0,0,1.1.12l0,0,.6-.33.13.16.23.3a4.28,4.28,0,0,0,1,1,14.72,14.72,0,0,0-.15,1.79l0,6.89a.49.49,0,0,0,.49.48.48.48,0,0,0,.49-.48l0-6.88c0-.5.06-1.06.11-1.5a1.64,1.64,0,0,0,.5-.05.86.86,0,0,0-.43-1.66,1.2,1.2,0,0,0-.68.42h0a5.31,5.31,0,0,1-.51-.61l-.25-.33,0,0a8.27,8.27,0,0,0,.78-.61,1.83,1.83,0,0,1,.34-.23,2.07,2.07,0,0,0,.24.17,1.94,1.94,0,0,0,1.73.14,1.05,1.05,0,0,0,.62-.87A.78.78,0,0,0,97.34,129.06Zm-4.47-.5a.47.47,0,0,1-.39-.05.18.18,0,0,1-.08-.15.26.26,0,0,1,.07-.2.46.46,0,0,1,.31-.15h.06a.92.92,0,0,1,.59.23A1.38,1.38,0,0,1,92.87,128.56Z"/><path d="M94.92,143.9a.72.72,0,0,0-.72.72.73.73,0,0,0,.72.73.73.73,0,0,0,0-1.45Z"/><path d="M94.91,146.35a.71.71,0,0,0-.72.71.73.73,0,0,0,.72.73.72.72,0,0,0,0-1.44Z"/><path d="M94.9,148.79a.72.72,0,1,0,.72.72A.72.72,0,0,0,94.9,148.79Z"/><path d="M94.89,151.23a.72.72,0,0,0,0,1.44.71.71,0,0,0,.72-.71A.73.73,0,0,0,94.89,151.23Z"/><path d="M94.88,153.68a.71.71,0,0,0-.72.71.73.73,0,0,0,.72.73.72.72,0,1,0,0-1.44Z"/><path d="M94.87,156.12a.72.72,0,1,0,.72.72A.72.72,0,0,0,94.87,156.12Z"/><path d="M94.86,158.56a.72.72,0,1,0,0,1.44.71.71,0,0,0,.72-.71A.73.73,0,0,0,94.86,158.56Z"/><path d="M94.85,161a.72.72,0,0,0-.72.72.73.73,0,0,0,.72.73.72.72,0,0,0,.72-.72A.73.73,0,0,0,94.85,161Z"/><path d="M78.83,130.7a.72.72,0,0,0,.72-.72.71.71,0,0,0-.71-.72.72.72,0,1,0,0,1.44Z"/><path d="M79,166.37a.72.72,0,1,0,.72.72A.72.72,0,0,0,79,166.37Z"/><path d="M79,168.81a.73.73,0,0,0-.73.72.72.72,0,0,0,.72.72.7.7,0,0,0,.72-.71A.72.72,0,0,0,79,168.81Z"/><path d="M79,171.26a.72.72,0,0,0-.73.71.73.73,0,0,0,.72.73.72.72,0,0,0,.72-.72A.71.71,0,0,0,79,171.26Z"/><path d="M79,173.7a.73.73,0,0,0-.73.72.72.72,0,0,0,1.44,0A.71.71,0,0,0,79,173.7Z"/><path d="M79,176.14a.73.73,0,0,0-.73.72.72.72,0,0,0,.72.72.71.71,0,0,0,.72-.71A.72.72,0,0,0,79,176.14Z"/><path d="M79,178.58A.73.73,0,1,0,79,180a.73.73,0,0,0,0-1.45Z"/><path d="M79,181a.72.72,0,1,0,.72.72A.72.72,0,0,0,79,181Z"/><path d="M78.94,183.47a.73.73,0,0,0-.73.72.72.72,0,0,0,.72.72.73.73,0,0,0,.73-.72A.72.72,0,0,0,78.94,183.47Z"/><path d="M79.42,142.2a2.49,2.49,0,0,0,.24.17,1.94,1.94,0,0,0,1.73.14,1.05,1.05,0,0,0,.62-.87.78.78,0,0,0-.37-.84,2.63,2.63,0,0,0-2,.21c-.12-.17-.23-.36-.35-.56l-.15-.24-.09-.15a6.17,6.17,0,0,0,1.6-2.53,3.62,3.62,0,0,0-.86-3.7,2.79,2.79,0,0,0-2.13-.67,2.3,2.3,0,0,0-1.65.92,2,2,0,0,0,0,2.31,1.64,1.64,0,0,0,1.2.63,1.51,1.51,0,0,0,1.16-.4.49.49,0,0,0,0-.68.48.48,0,0,0-.69,0,.54.54,0,0,1-.41.12.69.69,0,0,1-.5-.25,1,1,0,0,1,0-1.15,1.28,1.28,0,0,1,1-.52,1.8,1.8,0,0,1,1.36.42,2.68,2.68,0,0,1,.59,2.7,5.28,5.28,0,0,1-1.29,2.06,1.88,1.88,0,0,0-1.42-.53,1.41,1.41,0,0,0-1,.47,1.2,1.2,0,0,0-.31.91,1.13,1.13,0,0,0,.47.87,1.5,1.5,0,0,0,1.21.22,2.4,2.4,0,0,0,.93-.51l.12.21c.1.16.2.34.31.51a1.88,1.88,0,0,0-.33.24,6.83,6.83,0,0,1-.88.66,1.67,1.67,0,0,0-1.1-.28,1.13,1.13,0,0,0-1,.75.9.9,0,0,0,.23.94,1,1,0,0,0,1.09.12l0,0,.6-.33.14.16.23.3a4.23,4.23,0,0,0,1,1,16.87,16.87,0,0,0-.14,1.79l-.07,18.06a.49.49,0,1,0,1,0l.07-18.05c0-.5.06-1.07.11-1.5a1.67,1.67,0,0,0,.5,0,.86.86,0,0,0-.44-1.66,1.22,1.22,0,0,0-.68.42h0a5.31,5.31,0,0,1-.51-.61l-.25-.33,0-.05a9.8,9.8,0,0,0,.78-.61A1.55,1.55,0,0,1,79.42,142.2Zm-2.25-1.9a.54.54,0,0,1-.4-.05.17.17,0,0,1-.07-.15.28.28,0,0,1,.07-.21.5.5,0,0,1,.31-.14h0a.93.93,0,0,1,.6.23A1.52,1.52,0,0,1,77.17,140.3Z"/><polygon points="57.06 163.25 59.71 159.54 57.09 155.95 54.44 159.51 57.06 163.25"/></g></g></svg>