<svg xmlns="http://www.w3.org/2000/svg" viewBox="0 0 113.47 186.72"><g id="Layer_2" data-name="Layer 2"><g id="Dream_Catcher" data-name="Dream Catcher"><path d="M57.5,146v-4.75a13.23,13.23,0,0,0,11-19.41L89,110a13.25,13.25,0,1,0,11.71-20.28V66A13.25,13.25,0,1,0,89,45.68L68.54,33.85a13.22,13.22,0,0,0-11-19.21l0-3.34h0a5.05,5.05,0,0,0,4.63-4.18l.12,0c8.9,1.4,14.42,6,20.27,10.91.68.57,1.35,1.13,2,1.7,2.58,2.13,5.06,3.2,7.41,3.2a7.53,7.53,0,0,0,2.34-.37A6.88,6.88,0,0,0,99,15c-.43-2.59-2.57-5.32-7.28-5.25-1.85,0-4.42,1.26-5.3,3a4,4,0,0,0,0,3.65,4.57,4.57,0,0,0,3.44,2.31,3.51,3.51,0,0,0,2.73-.68,2.77,2.77,0,0,0-.94-4.64,1.49,1.49,0,0,0-1.74.61.49.49,0,0,0,.8.56.53.53,0,0,1,.65-.24,1.84,1.84,0,0,1,1.14,1.45,1.86,1.86,0,0,1-.56,1.53,2.5,2.5,0,0,1-1.94.45A3.69,3.69,0,0,1,87.26,16a3,3,0,0,1,.07-2.77,5.65,5.65,0,0,1,4.43-2.49c5.14-.09,6.13,3.37,6.3,4.43a5.87,5.87,0,0,1-3.94,6.52c-2.67.87-5.64,0-8.83-2.65l-2-1.69c-6-5-11.58-9.69-20.75-11.13a.45.45,0,0,0-.2,0,5.07,5.07,0,0,0-10.14,0c0,.07,0,.14,0,.21a.47.47,0,0,0-.5-.26c-9.17,1.44-14.8,6.15-20.75,11.12l-2,1.7c-3.19,2.63-6.16,3.52-8.83,2.65a5.88,5.88,0,0,1-3.95-6.52c.17-1.06,1.15-4.52,6.3-4.43a5.62,5.62,0,0,1,4.43,2.49A2.93,2.93,0,0,1,26.9,16a3.69,3.69,0,0,1-2.72,1.8,2.51,2.51,0,0,1-1.94-.45,1.9,1.9,0,0,1-.56-1.53,1.84,1.84,0,0,1,1.14-1.45.53.53,0,0,1,.65.24.49.49,0,0,0,.68.12.49.49,0,0,0,.12-.68,1.48,1.48,0,0,0-1.73-.61,2.77,2.77,0,0,0-.95,4.64,3.53,3.53,0,0,0,2.74.68,4.55,4.55,0,0,0,3.43-2.31,4,4,0,0,0-.05-3.65,6.58,6.58,0,0,0-5.29-3c-4.7-.07-6.85,2.66-7.28,5.25a6.87,6.87,0,0,0,4.61,7.61,7.44,7.44,0,0,0,2.34.37c2.34,0,4.82-1.07,7.41-3.2l2-1.7c5.85-4.89,11.37-9.51,20.28-10.91a.5.5,0,0,0,.38-.32,5.07,5.07,0,0,0,5,4.48h0l0,3.31-.52,0A13.23,13.23,0,0,0,44.92,33.85L24.47,45.65A13.25,13.25,0,1,0,12.74,65.93V89.72A13.25,13.25,0,1,0,24.48,110L45,121.85A13.09,13.09,0,0,0,43.48,128a13.27,13.27,0,0,0,13,13.24V146m0-.23c0,1.33,0,3.17,0,6.14l-5.36,7.27a.48.48,0,0,0,0,.57l5.43,7.68v18.81a.49.49,0,0,0,.49.49.48.48,0,0,0,.48-.49v-18.9l5.36-7.59a.48.48,0,0,0,0-.57l-5.41-7.33c0-2.93,0-4.75,0-6.07m4.38,13.7L57,166.38l-4.88-6.91L57,152.85Zm38.34-119a12.27,12.27,0,0,1,.5,24.54V52.71a.47.47,0,0,0-.24-.42l-10.6-6.12A12.27,12.27,0,0,1,100.21,40.49ZM74.29,102.78a13.45,13.45,0,0,1-2.18-1.09l2-3.38,12.83,2.34a12.74,12.74,0,0,1-3.61,2.13Zm8,.32a12.34,12.34,0,0,1-7.09,0Zm-12.7,0h1.29l-1.42,2.46a12.39,12.39,0,0,0,.16-1.94C69.66,103.45,69.64,103.28,69.63,103.1Zm0-.32a13.31,13.31,0,0,0-.69-3.42,12.75,12.75,0,0,0,2.74,2.44l-.56,1Zm-4.34,10.08a12.75,12.75,0,0,1-3.89,2.47L65.7,103.1h3.61c0,.18,0,.35,0,.52a12.65,12.65,0,0,1-.32,2.77Zm3.38-5.2a12.63,12.63,0,0,1-2.46,4.25Zm-18.21,9.82L56,127.05l-9.63-5.55A12.41,12.41,0,0,1,50.45,117.48Zm-.2-1-1.6-2.76A13.14,13.14,0,0,0,52,115.65,12.66,12.66,0,0,0,50.25,116.47Zm.48.84a13,13,0,0,1,1.82-.83l3.47,10Zm-2.58-4.48-3.71-6.42a12.24,12.24,0,0,1-.32-2.79c0-.17,0-.34,0-.52H47.9l4.26,12.26A12.41,12.41,0,0,1,48.15,112.83Zm-.93-1a12.55,12.55,0,0,1-2.41-4.18ZM44,105.58l-1.43-2.48h1.29c0,.18,0,.35,0,.52A12.64,12.64,0,0,0,44,105.58Zm-.13-2.8H42.34l-.51-.88a13.2,13.2,0,0,0,2.53-2.05A12.75,12.75,0,0,0,43.83,102.78Zm-13.12,0a12.66,12.66,0,0,1-3.81-2.19l12.49-2.27,2,3.47a12.91,12.91,0,0,1-2.09,1Zm7.56.32a12.65,12.65,0,0,1-3.27.44,12.51,12.51,0,0,1-3.26-.44ZM43.8,52.53H42.53L44,50a12.59,12.59,0,0,0-.22,2.32C43.79,52.36,43.8,52.45,43.8,52.53Zm0,.33a13,13,0,0,0,1.11,4.7,13,13,0,0,0-3.49-3.15l.9-1.55Zm4-9.51a12.6,12.6,0,0,1,4.29-2.8l-4.1,12H44.13c0-.08,0-.17,0-.25A12.53,12.53,0,0,1,44.56,49Zm-2.76,4.13a12.84,12.84,0,0,1,1.62-2.81Zm20.58-4.11L68.88,49a12.35,12.35,0,0,1,.46,3.3c0,.08,0,.17,0,.25H65.57l-4.16-12A12.62,12.62,0,0,1,65.65,43.37Zm-4.22-3.13a12.6,12.6,0,0,0,1.89-.9l1.79,3.11A13,13,0,0,0,61.43,40.24Zm5.37,4.49a12.53,12.53,0,0,1,1.57,2.7Zm2.64,5.21,1.49,2.59H69.65c0-.08,0-.17,0-.25A12.89,12.89,0,0,0,69.44,49.94Zm.19,2.92h1.49l.93,1.6a13,13,0,0,0-3.65,3.35A12.9,12.9,0,0,0,69.63,52.86ZM91.49,63.1l.18-.21a13.17,13.17,0,0,0,1.77,1.26l-1.87,3.23a13.17,13.17,0,0,0,.15-1.9A12.47,12.47,0,0,0,91.49,63.1Zm.81-.94,7-8.15L93.92,63.3A13.1,13.1,0,0,1,92.3,62.16Zm-.24-.22a12.57,12.57,0,0,1-1.3-1.33,12,12,0,0,0-.86-1.72l9.46-5.45Zm-.63.74,0,0a.09.09,0,0,0,0-.05ZM87.31,74.75a12.81,12.81,0,0,1-2.23,1.64l-2-3.48,8.15-9.49a12.21,12.21,0,0,1-.12,4.78Zm3.44-5.31a12.45,12.45,0,0,1-2.53,4.38Zm.91,23.37-.07-.08A12.1,12.1,0,0,0,91.72,91a12.83,12.83,0,0,0-.41-3.18l2.14,3.71A14.12,14.12,0,0,0,91.66,92.81Zm2.28-.42,5.3,9.18-6.94-8A11.83,11.83,0,0,1,93.94,92.39ZM91.4,91a13,13,0,0,1-.09,1.4L83,82.82l1.69-2.93A12.67,12.67,0,0,1,88.54,83l2,3.49A12.65,12.65,0,0,1,91.4,91Zm-1.72,5.63a14.05,14.05,0,0,1,1-1.41A10.94,10.94,0,0,1,90,96.8Zm.14.45a11.85,11.85,0,0,1-1.18,1.77,11.36,11.36,0,0,1,.87-2Zm-1-.94L79,90.44v-.59l3.88-6.73,8.41,9.71-.06.41A13.16,13.16,0,0,0,88.84,96.15ZM79.21,78.42a12.36,12.36,0,0,1,5.21,1.33l-1.63,2.81Zm3.41,4.44L79,89.2V78.63Zm-1.85-4.61A13,13,0,0,0,85,76.84l.56,1-1,1.64A13,13,0,0,0,80.77,78.25ZM79,78.08v-.37l3.89-4.54,2,3.39A12.52,12.52,0,0,1,79,78.08Zm0-.87V66.43l3.72,6.45Zm0-11.43v-.3s0,0,0,0a0,0,0,0,0,0,0s0,0,0,0,0,0,0,0l0,0h0l-.07,0,10-5.78A13.5,13.5,0,0,0,91,62.25c.07.25.14.5.19.75L82.9,72.62Zm5.92,13.83.84-1.46,2.08,3.61A12.59,12.59,0,0,0,84.88,79.61Zm.36-2.94a12.06,12.06,0,0,0,1.57-1.07l-1.09,1.9Zm4.49-18.05a11.74,11.74,0,0,0-.92-1.3,13.37,13.37,0,0,1-.63-2.07l11.17-2.19Zm-1.6-3.69a12.74,12.74,0,0,1-.2-2.07H98.71Zm.52,4.31-10.1,5.83-4.12-7.13,12.13-2.37a10.92,10.92,0,0,1,.9.78A12.65,12.65,0,0,0,88.65,59.24Zm-13,22.31,2.69-3.13h.28V89.76l-.07.12Zm2.85,9.31h-.14l.07-.12ZM44.1,81l-1.63-2.82,1.7-3a12.8,12.8,0,0,0-.38,3A12.55,12.55,0,0,0,44.1,81Zm.25,11.85,1.38,4-.13,0-9.68-5.53Zm-7.47-1.7h6.88l.47,1.35Zm8.92,6.17,0,0c-.11.19-.22.38-.34.56C45.59,97.74,45.69,97.54,45.8,97.35ZM45.11,97l-5.55,1L36,91.74Zm.39.25a13.41,13.41,0,0,0-.86,1.84,12.59,12.59,0,0,1-3,2.57l-1.94-3.36Zm-.58,2A12,12,0,0,0,46,97.68l1.77,5.1H44.16A12.35,12.35,0,0,1,44.92,99.22Zm1.26-2.46h0l.08-.15ZM46,96.48,44.72,93l2.64.48a11.88,11.88,0,0,1-.55,1.9A11.86,11.86,0,0,0,46,96.48Zm1.14-1a11.74,11.74,0,0,1,1.41-1.41l1.67,2-3.6.65A11.56,11.56,0,0,0,47.09,95.5ZM48,93.56l.25.28a10.77,10.77,0,0,0-.92.87,10.38,10.38,0,0,0,.31-1.22Zm-.25-.79a11.89,11.89,0,0,0,.14-1.59h1.61l.72,1.26a13.07,13.07,0,0,0-1.4.93l-.64-.11Zm-.27-.33-1.08-1.26H47.6C47.59,91.61,47.57,92,47.52,92.44Zm-.07.42a1.87,1.87,0,0,1,0,.25L44.6,92.6l-.49-1.42H46Zm-3.46-2-1.18-3.41,2.92,3.41Zm-.34,0H35.46l-.08-.15.3-.52L42,86.52l.21.25Zm6.74-31.09-4-.79L56,53.32Zm5.5-5.86-3.54,6.24-1.59-.31Zm-7.32,8a12.94,12.94,0,0,1-2.32-2.58l3.9.76Zm0,.46.36.26-.71.14ZM35.89,65.15l9.78-5.76-1.41,4.12Zm8.25-1.28-.5,1.45h-6.9Zm-4.92,9.3,1.08,1.9L39.64,77l-.4.16-1-2.86Zm-1.1.77-2.37-6.81L39,72.87Zm1.48,5.27.74,2.11L39.4,83l-1-1.22.91-2.67Zm-.23-.43,0-.12.06.15Zm0-1.11-.07-.21.16,0Zm-.17.49-.17.5a13.4,13.4,0,0,0-2.21-.51A13.17,13.17,0,0,0,39,77.58ZM39,79l-.85,2.49-2.67-3.11A12.38,12.38,0,0,1,39,79Zm-.73,3.14,1,1.16-3.51,6.18Zm1.22,1.42,2.35,2.74L36,89.63Zm.17-.3.86-1.51,1.46,4.21ZM40,79.36c.39.17.76.36,1.13.56l-.58,1ZM39.86,79l-.28-.79.32-.92a13.85,13.85,0,0,0,1.27-.66l.93,1.63-.81,1.43A12.54,12.54,0,0,0,39.86,79Zm.19-2.14.47-1.37.49.86Q40.55,76.57,40.05,76.81Zm.39-2.15-1-1.75,2.65-3.06Zm-1.17-2-4-7h.12L42,69.46ZM45.91,59.7A12.55,12.55,0,0,1,47.05,63l-2.42.47Zm.35-1,2-5.8h7.87Zm-.36.05a12.43,12.43,0,0,1-1.75-5.85h3.76Zm-.44.42-10.22,6L39.4,58Zm-5.89-1.48,1.71-3a12.58,12.58,0,0,1,4.11,4.1Zm-1.7,16.58-2.7,3.12V66.43Zm.13.35.93,2.69a12.37,12.37,0,0,1-3.76.73v-.15Zm0,7.24-2.82,8.24V78.53Zm2.7-.47.72-1.26a12.72,12.72,0,0,1,3.22,2.71,12.13,12.13,0,0,0,.65,1.47L42.3,86Zm.88-1.54.72-1.28,1.88,3.29A12.72,12.72,0,0,0,41.57,79.81Zm.72-1.93-.84-1.47a12.86,12.86,0,0,0,3.22-2.8l-.06.17Zm-1-1.75L40.66,75l1.81-5.3,3.2,1.85A12.73,12.73,0,0,1,41.29,76.13ZM42.37,69l-.15.18L36,65.64h7.49Zm1.5-3.39h1.44l-2.37,2.74Zm.11-.32.52-1.52,2.6-.51,0,.24-1.54,1.79ZM47.2,64a12.3,12.3,0,0,1,.08,1.37H46Zm-.72-3.82a12.21,12.21,0,0,0,1.88,2l-.62.71-.37.08A13.67,13.67,0,0,0,46.48,60.13Zm1.43,3,1.4-.27c.36.25.72.48,1.11.7l-1,1.76H47.61a13.3,13.3,0,0,0-.13-1.69Zm1.84-.36L51,62.53l-.42.74C50.29,63.11,50,63,49.75,62.77Zm-.36-.26c-.19-.14-.39-.28-.57-.43l1.69-2,1.67.33-1,1.7Zm3.13-2,3.54.7-4.43.86Zm.17-.29,4.06-7.17.27.47L57,61H56.9Zm4.12-7.69H48.36l4.15-12.11a13.38,13.38,0,0,0,4.22.7l.36,0L57,52.53Zm8.83,10.22-.54-.63a12.94,12.94,0,0,0,2-2.17,13,13,0,0,0-1,2.89Zm.43.41a.15.15,0,0,1,0,.07L66,63.15Zm6.36,13.57a11.56,11.56,0,0,0,1.46.71l.26.74-.32.89a12,12,0,0,0-1.35.66l-.89-1.55Zm-1,1.12-2-3.55a12.92,12.92,0,0,0,2.79,2.26Zm2.92.82.07.19-.16.06Zm0-1.08.06,0,0,.08Zm.2,1.58.81,2.31-1.09,1.26-.82-1.44.7-2C74.22,79.26,74.36,79.22,74.49,79.17Zm0-1,.16-.46a11.83,11.83,0,0,0,2.15.52,13.53,13.53,0,0,0-2.11.51Zm0-.87-.3-.12-.75-2.14,1-1.7,1,1.2Zm-1.19-2.66L71.75,70.3l2.42,2.79ZM73.75,77a12.55,12.55,0,0,1-1.16-.58l.6-1Zm-.07,2.46-.51,1.44L72.64,80C73,79.82,73.33,79.65,73.68,79.49Zm-.43,2.22L74,83l-2,2.38Zm.91,1.59,3.77,6.55-6.27-3.63Zm.23-.26,1-1.21,2.64,7.59Zm.41-4a12.18,12.18,0,0,1,3.1-.61l-2.36,2.74Zm0-1.64.91-2.59,2.68,3.09-.12.14A12.46,12.46,0,0,1,74.76,77.42Zm.79-3.22-1-1.14,3.53-6Zm-1.21-1.4L71.5,69.51l6.71-3.87h.29Zm-5-9.32L68,59.36l9.93,5.78Zm7.71,1.84H70l-.52-1.49Zm-8.86-6.17L74.09,58l4,6.85Zm-.15-.3a12.67,12.67,0,0,1,4.13-4.11l1.71,3Zm-.42-.31-2-5.68h3.63A12.6,12.6,0,0,1,67.66,58.54Zm0,1L69,63.4l-2.56-.5A12.22,12.22,0,0,1,67.67,59.55Zm-2.54,3.1-.56-.11.28-.21Zm-1.77-2.54,3.78-.74a12.48,12.48,0,0,1-2.26,2.5ZM66.28,64l1.15,1.34H66.19A9.83,9.83,0,0,1,66.28,64Zm.06-.42c0-.11,0-.23,0-.34l2.74.54.54,1.56H67.86Zm3.45,2.08,1.1,3.17-2.75-3.17Zm.34,0h7.43l-6.19,3.57ZM73.05,75l-.74,1.26a12.74,12.74,0,0,1-4-3.8l-.21-.36,0,0-.26-.45,3.37-1.94Zm-1.84,3.15-2,3.45a13.21,13.21,0,0,0,.45-3.35,13,13,0,0,0-.56-3.77Zm.19.33.8,1.4a13.06,13.06,0,0,0-3.13,2.6Zm1,1.68L73,81.34l-1.66,4.71L68.2,84.22l.09-.18A12.73,12.73,0,0,1,72.36,80.18Zm-1.2,6.13-3.91,4.55H66.18a12.67,12.67,0,0,1,1.33-5.46c.19-.29.37-.59.54-.89ZM61.23,96l1.42.25-4.86,5.66Zm-.16-.36L57.74,95l4.11-.75Zm.34.06.86-1.49,2.29-.42.12.09-1.79,2.09Zm5.18-.4a13.23,13.23,0,0,0-1.45-1.45l.16-.19.79-.15A11.83,11.83,0,0,0,66.59,95.27Zm-.41-4.09H67l-.74.87C66.21,91.76,66.19,91.47,66.18,91.18Zm-.54,2.06.35-.42.06.34Zm-.51.09-.48.09a11.69,11.69,0,0,0-1.39-.94l.76-1.3h1.84c0,.41,0,.82.07,1.22Zm-2.14-1a13,13,0,0,0-2.75-1.13h3.4Zm.11.45a13.26,13.26,0,0,1,1.11.73l-1.72.32Zm1.83,1.3A12.52,12.52,0,0,1,67,96.38c.06.11.11.23.17.35L63.26,96Zm1.48-.63L68.93,93l-1.31,3.71c-.1-.16-.2-.32-.31-.47A12.55,12.55,0,0,1,66.41,93.43Zm0-.33-.09-.6,1.13-1.32h2.16l-.51,1.44Zm3.54-1.92H77l-7.54,1.37Zm-.23-.32h-2l3.39-4Zm-3.81,0H64.2l2.37-4.07A13.08,13.08,0,0,0,65.86,90.86Zm-2,0H59.66a13,13,0,0,0,6.14-3.38Zm-1,1.73-.75,1.29-5,.9,0-3.59h1.61A12.46,12.46,0,0,1,62.82,92.59ZM57.1,40.12l-.37,0a11.94,11.94,0,0,1-2.41-.24,12.71,12.71,0,0,1,2.41-.23h.37Zm0,55.09,3.8.69L57,102.52ZM63,96.29l4.35.8.06.11-9.94,5.58h0Zm4.25,1.37-1.8,5.12H58.15Zm.38-.1c.18.3.36.58.55.86a12.49,12.49,0,0,1,1.09,4.36H65.81Zm.33-.29.09,0,5.66,1-1.9,3.27a12.7,12.7,0,0,1-3.35-3.27C68.33,97.92,68.16,97.59,68,97.27Zm.53-.3L77.32,92,73.9,98Zm-.5-.1-.11,0,1.4-3.95,8.39-1.52,0,.1Zm2-6,1.52-4.33,6.71,3.88h0l-.26.45Zm8.54-13.18-2.76-3.2,2.83-8V77.59ZM87,55.48l.23,0,.09.33Zm-.35-.26a12.82,12.82,0,0,0-5-2.36H87a13,13,0,0,0,.21,2.26Zm-.43.09L74.26,57.64l-1.77-3.07a12.51,12.51,0,0,1,13.72.74Zm-13.88-1-.83-1.43H76A12.8,12.8,0,0,0,72.33,54.29Zm-5,4.35L57.4,52.86h7.94Zm0,.36-4.21.82-5.69-6.58Zm-4.57.9-1.52.29-3.51-6.1ZM61.91,62l-4.16-.81,3.32-.65Zm-.5-1.53L63,60.18l1.65,1.9c-.16.13-.33.25-.5.37l-1.81-.35Zm2.38,2.23c-.26.17-.54.34-.82.49l-.42-.74Zm.43.08,1.25.24.53.62a12.81,12.81,0,0,0-.14,1.66H64.18l-1-1.83A12.32,12.32,0,0,0,64.22,62.8Zm2,6.74a12.92,12.92,0,0,0-6.76-3.9H64Zm-1.87-3.9h1.49a13.06,13.06,0,0,0,.53,3.51Zm1.82,0h1.53L71,69.43l-3.33,1.92-.12-.21A12.41,12.41,0,0,1,66.19,65.64Zm1.67,6.73a12.5,12.5,0,0,1,1.48,5.9A12.71,12.71,0,0,1,68.42,83l-.6,1L57.19,77.86v-.09l10.33-6Zm-.2,11.91-1,1.79a12.57,12.57,0,0,1-8.37,4.71c-.37,0-.75-.06-1.12-.07l.07-12.47ZM57.1,39.36l-.37,0a13.16,13.16,0,0,0-3.1.39l-.8-.23,3.88-11.33h0l.41,1.2Zm-4.58,0a11.61,11.61,0,0,1-1.89-.88L56,29.16Zm-2.17-1a12.42,12.42,0,0,1-4.12-4.13L56,28.59ZM52,40.24a13,13,0,0,0-3.66,2.19l1.78-3.08A14.06,14.06,0,0,0,52,40.24Zm-10.85,14a12.59,12.59,0,0,0-3.44-1.38H42Zm-.17.28-1.77,3.07-12-2.34a12.42,12.42,0,0,1,6.38-2.39h2.1A12.46,12.46,0,0,1,41,54.52Zm-14.18.64-.52-.1a13.33,13.33,0,0,0,.21-2.2h5.12A12.91,12.91,0,0,0,26.82,55.16Zm-.35.26c-.11.09-.2.19-.31.29,0-.11.06-.22.08-.33Zm.43.09,12.16,2.37L35,65,24.82,59.16A12.76,12.76,0,0,0,26,56.28C26.3,56,26.59,55.75,26.9,55.51ZM22.7,93.65c-.09-.39-.15-.78-.2-1.17l8.11-9.37,4.17,7.22L24.64,96.18A13.38,13.38,0,0,0,22.7,93.65Zm1.55,3.83c-.11-.17-.22-.34-.32-.52l0,0C24.07,97.12,24.16,97.3,24.25,97.48Zm-.45-.82h0l-.06-.11A.61.61,0,0,1,23.8,96.66Zm-1.73-5.73a11.64,11.64,0,0,0,.09,1.45l-.37.43A13.11,13.11,0,0,0,20,91.55l2.79-4.84A12.85,12.85,0,0,0,22.07,90.93Zm.22,2.34c-.09-.08-.17-.17-.26-.24l.19-.23C22.24,93,22.26,93.11,22.29,93.27Zm-1.14.27-6.91,8,5.27-9.13A11.77,11.77,0,0,1,21.15,93.54ZM28.8,80l1.64,2.84-8,9.23c0-.37-.06-.73-.06-1.11A12.61,12.61,0,0,1,28.8,80ZM22.4,68.24a12.59,12.59,0,0,1-.33-2.83,12.88,12.88,0,0,1,.17-2l8.13,9.49-2,3.41a12.47,12.47,0,0,1-2.33-1.73Zm2.74,5.4a12.59,12.59,0,0,1-2.36-4.1Zm9.15,4.72-3.63,4.19-1.58-2.74A12.58,12.58,0,0,1,34.29,78.36Zm-5.37,1.17-1-1.72.59-1a13,13,0,0,0,4.3,1.41A12.77,12.77,0,0,0,28.92,79.53Zm-.23-3,1.91-3.31,4.06,4.75-.07.08A12.5,12.5,0,0,1,28.69,76.5Zm1.86-3.87L22.3,63c.06-.29.13-.56.21-.84a13.34,13.34,0,0,0,2.15-2.74l10.12,5.85Zm-2.3,4-.51.87-1.15-2A12.76,12.76,0,0,0,28.25,76.62Zm.39,3.07a13,13,0,0,0-3.41,2.8l2.51-4.35Zm2.2,3.16,3.9-4.51h.1V89.79Zm-.07-9.95,4.07-7.06V77.65Zm-5.43-18L15,52.86H25.54A12.12,12.12,0,0,1,25.34,54.87Zm-.05.32a12,12,0,0,1-.63,2.06,15,15,0,0,0-.92,1.29L14.21,53Zm-1.71,3.63a12.06,12.06,0,0,0-.87,1.72,12.48,12.48,0,0,1-1.35,1.37l-7.43-8.67Zm-1.51,3.76a.53.53,0,0,0,0,.12L22,62.65Zm-.16,4.81L20,64.09a13.24,13.24,0,0,0,1.74-1.22l.21.25a13.27,13.27,0,0,0-.21,2.29A12.8,12.8,0,0,0,21.91,67.39Zm-2.39-4.14-5.27-9.13,6.87,8A12.74,12.74,0,0,1,19.52,63.25Zm-.28.17A12.25,12.25,0,0,1,13.72,65V53.84Zm.49.84,2.37,4.1a13,13,0,0,0,3.72,6.45l1.73,3L19.72,91.38a13.27,13.27,0,0,0-6-1.67V65.93A13.18,13.18,0,0,0,19.73,64.26Zm-.5,28-5.51,9.56V90.69A12.11,12.11,0,0,1,19.23,92.22Zm2.16,1.54a12.76,12.76,0,0,1,1.44,1.5,12.19,12.19,0,0,0,.68,1.57L14,102.34Zm2.26,3.36a13.07,13.07,0,0,0,1.21,1.82,12.21,12.21,0,0,1,.45,1.6l-11.06,2Zm1.71,3.75a11.89,11.89,0,0,1,.18,1.91H14.82Zm-.55-4.42,10-5.78V91s0,0,0,0v0a.15.15,0,0,0,.11.11l.44.25L39.22,98,26.6,100.31a5.62,5.62,0,0,1-.44-.41A13.39,13.39,0,0,0,24.81,96.45Zm1.69,4.21a13.22,13.22,0,0,0,3.32,2.12H26.51a14.37,14.37,0,0,0-.19-2.09Zm15.06,1.41.4.71H40.19A14.82,14.82,0,0,0,41.56,102.07Zm4.8-4.4,8.94,5.11H48.13Zm-.08-.42.12-.2,4-.73,5.52,6.45Zm4.51-1,1.5-.28,3.51,6.13Zm.86-2.05,4.28.79-3.47.62Zm.47,1.48L50.54,96l-1.8-2.1.2-.15,2.29.42ZM49.3,93.45a12,12,0,0,1,1.12-.73l.6,1Zm.61-2.27h3.3a13.1,13.1,0,0,0-2.68,1.09Zm-.18-.32-1.8-3.13a12.93,12.93,0,0,0,5.87,3.13Zm-.38,0H47.94a12.88,12.88,0,0,0-.45-3.25Zm-1.74,0H46.16l-3.64-4.25-.11-.31,3-1.74a13.31,13.31,0,0,0,1.39,2A12.47,12.47,0,0,1,47.61,90.86ZM45.3,83.14l-.57-1a12.47,12.47,0,0,1,.18-8.22l1.19-2.09,10.36,6-10.6,6.11C45.69,83.66,45.5,83.4,45.3,83.14Zm.53-11.84-3.25-1.88.07-.22,3.09-3.56h1.54A12.7,12.7,0,0,1,45.83,71.3Zm1.77-5.66h1.63L46.76,70A12.66,12.66,0,0,0,47.6,65.64Zm2,0H54a12.93,12.93,0,0,0-6.3,3.41Zm.18-.32.91-1.61a12.88,12.88,0,0,0,6,1.5H57v.12Zm6.94-.44a12.62,12.62,0,0,1-5.87-1.45l.56-1,5.48-1.07H57l0,3.49ZM57,115.74a12.81,12.81,0,0,1,2.25.24,12.81,12.81,0,0,1-2.25.24Zm0-1L57,103.4l.53-.3h7.78L61,115.47A13,13,0,0,0,57,114.77Zm5.75,2.52-5.19,9L61,116.5A12,12,0,0,1,62.72,117.29Zm.28.17a12.4,12.4,0,0,1,4.13,4l-9.69,5.59Zm-1.53-1.82a12.56,12.56,0,0,0,3.31-1.92l-1.57,2.73A13.75,13.75,0,0,0,61.47,115.64ZM72,102a13.5,13.5,0,0,0,1.5.81h-2Zm15.18-1.09a13.16,13.16,0,0,0-.17,1.9H84.12A13.21,13.21,0,0,0,87.13,100.88ZM74.24,98l3.64-6.29,1-.55s0,0,0,0h0l0,0a0,0,0,0,1,0,0,.08.08,0,0,0,0,0s0,0,0,0v-.21l9.71,5.62a13.32,13.32,0,0,0-1.46,3.94h0Zm13.87,2.87,10.41,1.9H87.94A13.16,13.16,0,0,1,88.11,100.88Zm0-.32a9.32,9.32,0,0,1,.23-.91,13.55,13.55,0,0,0,1.72-2.39l9.25,5.34ZM90.26,97a13.82,13.82,0,0,0,.94-2.36,9.73,9.73,0,0,1,.86-.84l7.34,8.48Zm4-4.75a12,12,0,0,1,5.52-1.55v11.11Zm-.49-.85-2.88-5a13,13,0,0,0-2-3.54l-2.9-5L87.56,75a12.91,12.91,0,0,0,3.84-6.63l2.31-4a13.13,13.13,0,0,0,6,1.7V89.69A13.28,13.28,0,0,0,93.73,91.37Zm.47-27.9,5.54-9.57V65A12.23,12.23,0,0,1,94.2,63.47ZM89.37,47,99,52.53h-11A12.23,12.23,0,0,1,89.37,47Zm-.84-.49a13,13,0,0,0-1.56,6H71.31l-2.12-3.67a13,13,0,0,0-3.28-5.68l-2.31-4a13.33,13.33,0,0,0,4.46-4.47Zm-31-30.91A12.3,12.3,0,0,1,69,27.86a12.13,12.13,0,0,1-1.32,5.5L57.5,27.48Zm9.65,18.6a12.27,12.27,0,0,1-4.11,4.12L57.5,28.6Zm-9.73-5,5.34,9.26a11,11,0,0,1-1.84.86l-3.5-10Zm0,1.05,3.2,9.19-.86.25a12.52,12.52,0,0,0-2.39-.35Zm0,9.41a12,12,0,0,1,1.7.2,13.54,13.54,0,0,1-1.71.21Zm0,1.38A13,13,0,0,0,61,40.41l0,0,4.21,12.1H57.35Zm-.08,13,3.56,6.18-3.6.7Zm-.05,7.37,4.84.94.56,1a12.51,12.51,0,0,1-5.42,1.48Zm0,3.73a12.77,12.77,0,0,0,5.59-1.52l1,1.66H57.27Zm0,.51a12.58,12.58,0,0,1,10.09,5.84L57.2,77.39ZM44.44,27.86A12.3,12.3,0,0,1,56.73,15.57l.52,0-.07,11.69L57,27.17a.53.53,0,0,0-.49,0L45.76,33.36A12.13,12.13,0,0,1,44.44,27.86Zm1,6.84a13.39,13.39,0,0,0,4.47,4.48l-2.29,4a13,13,0,0,0-3.31,5.74l-2.11,3.64H35.73c-.35,0-.69-.05-1-.05s-.7,0-1,.05H26.51a13.23,13.23,0,0,0-1.54-6ZM25.54,52.53h-11L24.12,47A12.22,12.22,0,0,1,25.54,52.53ZM1,52.7a12.28,12.28,0,0,1,22.66-6.56L13,52.29a.46.46,0,0,0-.25.42V65A12.3,12.3,0,0,1,1,52.7Zm12.29,62.53a12.28,12.28,0,0,1-.52-24.54v12.24a.48.48,0,0,0,.25.43l10.65,6.15A12.29,12.29,0,0,1,13.26,115.23Zm10.87-6.56-9.64-5.57h11A12.17,12.17,0,0,1,24.13,108.67Zm.84.48a13.16,13.16,0,0,0,1.55-6.05h4.14a12.64,12.64,0,0,0,8.69,0h2.8l2,3.44a12.83,12.83,0,0,0,3.75,6.5l2.08,3.6A13.31,13.31,0,0,0,45.51,121ZM44.46,128a12.21,12.21,0,0,1,1.4-5.68l10.38,6,.26,12A12.29,12.29,0,0,1,44.46,128Zm12.11-1-3.71-10.7c.24-.08.49-.15.74-.21a13.17,13.17,0,0,0,3,.39Zm.07-10.84a12.39,12.39,0,0,1-2.38-.25,12.47,12.47,0,0,1,2.38-.24Zm0-1.47a13.25,13.25,0,0,0-4.1.69L48.25,103.1h7.62l.69.4h0l0,0h.09Zm.08-12h-.16l-3.93-6.86,4.13-.75Zm.05-8-5.33-1-.74-1.3a12.56,12.56,0,0,1,4-1.37h1.55l.45,0h.06Zm0-4.13h-.06a12.66,12.66,0,0,0-1.52.09,12.58,12.58,0,0,1-7.92-4.17L47,86.07A12.52,12.52,0,0,0,46,84.21L56.79,78l.08,0Zm0-13.06L46.26,71.54,47,70.33a12.55,12.55,0,0,1,9.78-4.67h.21l-.07,11.91ZM57,116.54a12.68,12.68,0,0,0,2.91-.39c.27.07.54.15.8.24l-3.78,10.7ZM69,128a12.29,12.29,0,0,1-11.56,12.24l-.25-11.93,10.4-6A12.18,12.18,0,0,1,69,128ZM68,121a13.31,13.31,0,0,0-4.49-4.37l2.06-3.56a12.87,12.87,0,0,0,3.78-6.55l2-3.41h2.95a12.72,12.72,0,0,0,9.09,0H87a13.24,13.24,0,0,0,1.55,6Zm20-17.89H99l-9.6,5.55A12.21,12.21,0,0,1,87.94,103.1Zm12.27,12.11a12.27,12.27,0,0,1-10.36-5.72l10.62-6.13a.5.5,0,0,0,.24-.43V90.67a12.27,12.27,0,0,1-.5,24.54Z"/><path d="M63.51,11.61a1,1,0,1,0,1-1A1,1,0,0,0,63.51,11.61Z"/><path d="M51.13,11.61a1,1,0,1,0-1,1A1,1,0,0,0,51.13,11.61Z"/><path d="M64.54,2.06a1,1,0,1,0-1-1A1,1,0,0,0,64.54,2.06Z"/><path d="M50.1,2.06a1,1,0,1,0-1-1A1,1,0,0,0,50.1,2.06Z"/><path d="M30,122.54a.72.72,0,1,0-.72.72A.72.72,0,0,0,30,122.54Z"/><path d="M28.4,139.36V149.9a.49.49,0,0,0,1,0V139.35a14.59,14.59,0,0,0-.13-1.77,4.39,4.39,0,0,0,1-1l.24-.31.13-.15.6.33.05,0a1,1,0,0,0,1.09-.12.9.9,0,0,0,.24-.94,1.13,1.13,0,0,0-1-.75,1.67,1.67,0,0,0-1.1.28,6.43,6.43,0,0,1-.87-.67,2,2,0,0,0-.34-.24c.11-.17.22-.35.31-.51a2.39,2.39,0,0,0,.13-.21,2.41,2.41,0,0,0,.93.51,1.44,1.44,0,0,0,1.2-.21,1.11,1.11,0,0,0,.48-.87,1.2,1.2,0,0,0-.31-.91,1.44,1.44,0,0,0-1-.48,1.93,1.93,0,0,0-1.42.53,5.24,5.24,0,0,1-1.27-2.07,2.66,2.66,0,0,1,.59-2.69,1.82,1.82,0,0,1,1.37-.42,1.31,1.31,0,0,1,.95.52,1,1,0,0,1,0,1.16.73.73,0,0,1-.5.25.55.55,0,0,1-.41-.13.49.49,0,0,0-.68.7,1.51,1.51,0,0,0,1.15.4,1.68,1.68,0,0,0,1.21-.63,2,2,0,0,0,0-2.31,2.29,2.29,0,0,0-1.65-.93,2.76,2.76,0,0,0-2.13.67,3.62,3.62,0,0,0-.87,3.69A6.27,6.27,0,0,0,29,132.62l-.1.15c0,.08-.09.16-.14.24s-.23.39-.35.56a2.64,2.64,0,0,0-2-.22.77.77,0,0,0-.38.83,1.09,1.09,0,0,0,.62.88,1.91,1.91,0,0,0,1.73-.14,1.46,1.46,0,0,0,.24-.17A2,2,0,0,1,29,135a8.27,8.27,0,0,0,.78.61l0,.05-.25.33a5.35,5.35,0,0,1-.52.61h0a1.22,1.22,0,0,0-.68-.43.85.85,0,0,0-1,.63.82.82,0,0,0,.59,1,2.05,2.05,0,0,0,.49.06A13.52,13.52,0,0,1,28.4,139.36ZM31,132.31a.48.48,0,0,1,.31.15.27.27,0,0,1,.07.21.16.16,0,0,1-.08.14.51.51,0,0,1-.39.06,1.48,1.48,0,0,1-.56-.33A.93.93,0,0,1,31,132.31Z"/><path d="M28.91,151.8a.72.72,0,1,0,.72.72A.72.72,0,0,0,28.91,151.8Z"/><path d="M28.91,154.24a.73.73,0,1,0,.72.73A.73.73,0,0,0,28.91,154.24Z"/><path d="M28.91,156.69a.72.72,0,1,0,.72.72A.72.72,0,0,0,28.91,156.69Z"/><path d="M28.91,159.13a.72.72,0,1,0,.72.72A.72.72,0,0,0,28.91,159.13Z"/><path d="M28.91,161.57a.73.73,0,1,0,.72.72A.72.72,0,0,0,28.91,161.57Z"/><path d="M28.91,164a.72.72,0,1,0,.72.72A.72.72,0,0,0,28.91,164Z"/><path d="M28.91,166.46a.72.72,0,1,0,.72.72A.72.72,0,0,0,28.91,166.46Z"/><path d="M29.63,169.62a.72.72,0,1,0-.72.72A.72.72,0,0,0,29.63,169.62Z"/><path d="M21.64,118.06a.72.72,0,1,0-.72.73A.72.72,0,0,0,21.64,118.06Z"/><path d="M23.24,130.18a1.61,1.61,0,0,0-1.1.27,5.69,5.69,0,0,1-.87-.67l-.34-.24c.12-.17.22-.34.32-.5l.12-.21a2.54,2.54,0,0,0,.93.51,1.46,1.46,0,0,0,1.21-.21,1.18,1.18,0,0,0,.48-.87,1.23,1.23,0,0,0-.32-.91,1.4,1.4,0,0,0-1-.48,1.9,1.9,0,0,0-1.41.52A5.06,5.06,0,0,1,20,125.33a2.71,2.71,0,0,1,.59-2.7,1.78,1.78,0,0,1,1.37-.41,1.28,1.28,0,0,1,.95.52,1,1,0,0,1,0,1.15.69.69,0,0,1-.5.25A.51.51,0,0,1,22,124a.5.5,0,0,0-.69,0,.49.49,0,0,0,0,.69,1.47,1.47,0,0,0,1.15.4,1.67,1.67,0,0,0,1.21-.62,2,2,0,0,0,0-2.31,2.27,2.27,0,0,0-1.65-.93,2.73,2.73,0,0,0-2.12.66,3.6,3.6,0,0,0-.88,3.69,6.3,6.3,0,0,0,1.59,2.55.8.8,0,0,0-.09.14l-.15.25c-.12.19-.23.38-.35.56a2.59,2.59,0,0,0-2-.22.78.78,0,0,0-.38.83,1.12,1.12,0,0,0,.62.88,2,2,0,0,0,1.74-.14l.23-.17a2.2,2.2,0,0,1,.34.23,8.26,8.26,0,0,0,.78.62l0,0-.25.33a4.6,4.6,0,0,1-.52.61h0a1.26,1.26,0,0,0-.68-.42.86.86,0,0,0-.44,1.66,1.67,1.67,0,0,0,.5.05c.05.44.09,1,.1,1.49v6.89a.49.49,0,1,0,1,0v-6.9a17.1,17.1,0,0,0-.14-1.78,4,4,0,0,0,1-1l.24-.3.13-.16.6.33,0,0a1,1,0,0,0,1.09-.13.89.89,0,0,0,.24-.94A1.13,1.13,0,0,0,23.24,130.18Zm-.61-2.34a.44.44,0,0,1,.31.15.26.26,0,0,1,.07.2.17.17,0,0,1-.07.15.5.5,0,0,1-.4,0,1.4,1.4,0,0,1-.56-.32A.91.91,0,0,1,22.63,127.84Z"/><path d="M20.43,143.73a.72.72,0,1,0,.72.72A.72.72,0,0,0,20.43,143.73Z"/><path d="M20.43,146.17a.72.72,0,1,0,.72.72A.72.72,0,0,0,20.43,146.17Z"/><path d="M20.43,148.61a.72.72,0,1,0,.72.72A.72.72,0,0,0,20.43,148.61Z"/><path d="M20.43,151.05a.73.73,0,1,0,.72.73A.73.73,0,0,0,20.43,151.05Z"/><path d="M20.43,153.5a.72.72,0,1,0,.72.72A.72.72,0,0,0,20.43,153.5Z"/><path d="M20.43,155.94a.72.72,0,1,0,.72.72A.72.72,0,0,0,20.43,155.94Z"/><path d="M20.43,158.38a.73.73,0,1,0,.72.72A.72.72,0,0,0,20.43,158.38Z"/><path d="M20.43,160.83a.72.72,0,1,0,.72.72A.72.72,0,0,0,20.43,160.83Z"/><path d="M37.3,129.87a.73.73,0,1,0-.73.72A.73.73,0,0,0,37.3,129.87Z"/><path d="M36.26,166.26A.72.72,0,1,0,37,167,.72.72,0,0,0,36.26,166.26Z"/><path d="M36.26,168.7a.72.72,0,1,0,.72.72A.72.72,0,0,0,36.26,168.7Z"/><circle cx="36.26" cy="171.86" r="0.72"/><path d="M36.26,173.58a.73.73,0,1,0,.72.73A.73.73,0,0,0,36.26,173.58Z"/><circle cx="36.26" cy="176.75" r="0.72" transform="matrix(0.01, -1, 1, 0.01, -140.79, 211.49)"/><circle cx="36.26" cy="179.19" r="0.72"/><path d="M36.26,180.91a.73.73,0,1,0,.72.72A.72.72,0,0,0,36.26,180.91Z"/><path d="M36.26,183.36a.72.72,0,1,0,.72.72A.72.72,0,0,0,36.26,183.36Z"/><path d="M36.06,140.34a6,6,0,0,1-.35.56,2.59,2.59,0,0,0-2-.22.76.76,0,0,0-.37.83,1.07,1.07,0,0,0,.62.88,1.94,1.94,0,0,0,1.73-.14,2.07,2.07,0,0,0,.24-.17,2.5,2.5,0,0,1,.34.24,8.33,8.33,0,0,0,.77.61l0,0c-.09.1-.17.21-.26.32a4.57,4.57,0,0,1-.51.61h0a1.34,1.34,0,0,0-.68-.42.86.86,0,0,0-.44,1.66,1.6,1.6,0,0,0,.49,0c.05.44.09,1,.11,1.49v18.06a.49.49,0,1,0,1,0V146.68a13.08,13.08,0,0,0-.14-1.78,3.9,3.9,0,0,0,1-1l.23-.3.14-.16.6.33.05,0a1,1,0,0,0,1.09-.13.88.88,0,0,0,.23-.93,1.1,1.1,0,0,0-1-.75,1.66,1.66,0,0,0-1.1.27,5.68,5.68,0,0,1-.88-.67,2.87,2.87,0,0,0-.33-.24l.31-.5a2.39,2.39,0,0,1,.13-.21,2.33,2.33,0,0,0,.93.51,1.44,1.44,0,0,0,1.2-.21,1.11,1.11,0,0,0,.48-.87,1.28,1.28,0,0,0-.31-.91,1.4,1.4,0,0,0-1-.48,1.91,1.91,0,0,0-1.42.52,5.06,5.06,0,0,1-1.28-2.06,2.67,2.67,0,0,1,.6-2.69,1.72,1.72,0,0,1,1.36-.42,1.31,1.31,0,0,1,1,.52,1,1,0,0,1,0,1.15.68.68,0,0,1-.5.25.52.52,0,0,1-.4-.12.49.49,0,0,0-.69.69,1.55,1.55,0,0,0,1.16.41,1.68,1.68,0,0,0,1.2-.63,2,2,0,0,0,0-2.31,2.29,2.29,0,0,0-1.65-.93,2.74,2.74,0,0,0-2.13.66,3.6,3.6,0,0,0-.87,3.69A6.16,6.16,0,0,0,36.3,140l-.09.15Zm2.23-.7a.46.46,0,0,1,.31.15.31.31,0,0,1,.07.2.2.2,0,0,1-.08.15.51.51,0,0,1-.39.06,1.41,1.41,0,0,1-.56-.33A.93.93,0,0,1,38.29,139.64Z"/><path d="M86.55,123.26a.72.72,0,1,0-.72-.72A.73.73,0,0,0,86.55,123.26Z"/><path d="M89.4,133.35a2.61,2.61,0,0,0-2,.22,6,6,0,0,1-.36-.56c0-.08-.09-.16-.14-.24l-.1-.15a6.06,6.06,0,0,0,1.59-2.54,3.6,3.6,0,0,0-.87-3.69,2.76,2.76,0,0,0-2.13-.67,2.29,2.29,0,0,0-1.65.93,2,2,0,0,0,0,2.31,1.68,1.68,0,0,0,1.21.63,1.51,1.51,0,0,0,1.15-.4.49.49,0,0,0-.68-.7.55.55,0,0,1-.41.13.73.73,0,0,1-.5-.25,1,1,0,0,1,0-1.16,1.31,1.31,0,0,1,1-.52,1.81,1.81,0,0,1,1.36.42,2.69,2.69,0,0,1,.6,2.69,5.39,5.39,0,0,1-1.28,2.07,1.92,1.92,0,0,0-1.42-.53,1.44,1.44,0,0,0-1,.48,1.2,1.2,0,0,0-.31.91,1.11,1.11,0,0,0,.48.87,1.44,1.44,0,0,0,1.2.21,2.41,2.41,0,0,0,.93-.51l.13.21c.1.17.2.34.31.51a1.57,1.57,0,0,0-.33.24,7.09,7.09,0,0,1-.88.67,1.67,1.67,0,0,0-1.1-.28,1.13,1.13,0,0,0-1,.75.92.92,0,0,0,.24.94,1,1,0,0,0,1.09.12l.05,0,.6-.33.14.15.23.3a4.23,4.23,0,0,0,1,1,14.61,14.61,0,0,0-.13,1.78V149.9a.48.48,0,0,0,.48.49.49.49,0,0,0,.49-.49V139.38a13.71,13.71,0,0,1,.11-1.5,2.05,2.05,0,0,0,.49-.06.82.82,0,0,0,.59-1,.84.84,0,0,0-1-.63,1.25,1.25,0,0,0-.68.43h0a5.31,5.31,0,0,1-.51-.61l-.26-.33,0-.05a8.33,8.33,0,0,0,.77-.61,2.5,2.5,0,0,1,.34-.24,1.46,1.46,0,0,0,.24.17,1.91,1.91,0,0,0,1.73.14,1.07,1.07,0,0,0,.62-.88A.77.77,0,0,0,89.4,133.35Zm-4.47-.48a.51.51,0,0,1-.39-.06.16.16,0,0,1-.08-.14.27.27,0,0,1,.07-.21.51.51,0,0,1,.31-.15h.06a.94.94,0,0,1,.59.24A1.51,1.51,0,0,1,84.93,132.87Z"/><circle cx="86.89" cy="152.52" r="0.72"/><circle cx="86.89" cy="154.97" r="0.72"/><path d="M86.89,156.69a.72.72,0,1,0,.72.72A.72.72,0,0,0,86.89,156.69Z"/><path d="M86.89,159.13a.72.72,0,1,0,.72.72A.72.72,0,0,0,86.89,159.13Z"/><path d="M86.89,161.57a.73.73,0,1,0,.72.72A.72.72,0,0,0,86.89,161.57Z"/><path d="M86.89,164a.72.72,0,1,0,.72.72A.72.72,0,0,0,86.89,164Z"/><path d="M86.89,166.46a.72.72,0,1,0,.72.72A.72.72,0,0,0,86.89,166.46Z"/><path d="M86.89,168.9a.72.72,0,1,0,.72.72A.72.72,0,0,0,86.89,168.9Z"/><path d="M94.88,118.79a.73.73,0,1,0-.72-.73A.73.73,0,0,0,94.88,118.79Z"/><path d="M97.73,128.88a2.6,2.6,0,0,0-2,.22c-.12-.18-.23-.37-.35-.56l-.14-.25-.1-.14a6.3,6.3,0,0,0,1.59-2.55,3.62,3.62,0,0,0-.87-3.69,2.75,2.75,0,0,0-2.13-.66,2.29,2.29,0,0,0-1.65.93,2,2,0,0,0,0,2.31,1.67,1.67,0,0,0,1.21.62,1.47,1.47,0,0,0,1.15-.4.49.49,0,0,0,0-.69.5.5,0,0,0-.69,0,.51.51,0,0,1-.41.13.69.69,0,0,1-.5-.25,1,1,0,0,1,0-1.15,1.28,1.28,0,0,1,1-.52,1.78,1.78,0,0,1,1.37.41,2.68,2.68,0,0,1,.59,2.7,5.14,5.14,0,0,1-1.27,2.06,1.94,1.94,0,0,0-1.42-.52,1.4,1.4,0,0,0-1,.48,1.18,1.18,0,0,0-.31.91,1.14,1.14,0,0,0,.47.87,1.47,1.47,0,0,0,1.21.21,2.54,2.54,0,0,0,.93-.51l.12.21c.1.16.2.33.32.5l-.34.24a5.69,5.69,0,0,1-.87.67,1.61,1.61,0,0,0-1.1-.27,1.13,1.13,0,0,0-1,.74.9.9,0,0,0,.24.94,1,1,0,0,0,1.09.13l0,0,.6-.33.13.16.24.3a4,4,0,0,0,1,1,17.3,17.3,0,0,0-.14,1.79v6.89a.49.49,0,0,0,1,0V134.9c0-.5,0-1.06.1-1.5a1.67,1.67,0,0,0,.5-.05.86.86,0,0,0-.44-1.66,1.26,1.26,0,0,0-.68.42h0a4.6,4.6,0,0,1-.52-.61l-.25-.33,0,0a8.26,8.26,0,0,0,.78-.62,2.83,2.83,0,0,1,.34-.23l.23.17a2,2,0,0,0,1.74.14,1.12,1.12,0,0,0,.62-.88A.75.75,0,0,0,97.73,128.88Zm-4.47-.49a.47.47,0,0,1-.39,0,.16.16,0,0,1-.08-.15.26.26,0,0,1,.07-.2.44.44,0,0,1,.31-.15h0a.93.93,0,0,1,.6.23A1.33,1.33,0,0,1,93.26,128.39Z"/><path d="M95.37,143.73a.72.72,0,1,0,.72.72A.72.72,0,0,0,95.37,143.73Z"/><path d="M95.37,146.17a.72.72,0,1,0,.72.72A.72.72,0,0,0,95.37,146.17Z"/><path d="M95.37,148.61a.72.72,0,1,0,.72.72A.72.72,0,0,0,95.37,148.61Z"/><path d="M95.37,151.05a.73.73,0,1,0,.72.73A.73.73,0,0,0,95.37,151.05Z"/><path d="M95.37,153.5a.72.72,0,1,0,.72.72A.72.72,0,0,0,95.37,153.5Z"/><path d="M95.37,155.94a.72.72,0,1,0,.72.72A.72.72,0,0,0,95.37,155.94Z"/><path d="M95.37,158.38a.73.73,0,1,0,.72.72A.72.72,0,0,0,95.37,158.38Z"/><path d="M95.37,160.83a.72.72,0,1,0,.72.72A.72.72,0,0,0,95.37,160.83Z"/><path d="M79.23,130.59a.73.73,0,1,0-.72-.72A.72.72,0,0,0,79.23,130.59Z"/><path d="M79.54,166.26a.72.72,0,1,0,.72.72A.72.72,0,0,0,79.54,166.26Z"/><path d="M79.54,168.7a.72.72,0,1,0,.72.72A.72.72,0,0,0,79.54,168.7Z"/><path d="M79.54,171.14a.72.72,0,1,0,.72.72A.72.72,0,0,0,79.54,171.14Z"/><path d="M79.54,173.58a.73.73,0,1,0,.72.73A.73.73,0,0,0,79.54,173.58Z"/><path d="M79.54,176a.72.72,0,1,0,.72.72A.72.72,0,0,0,79.54,176Z"/><path d="M79.54,178.47a.72.72,0,1,0,.72.72A.72.72,0,0,0,79.54,178.47Z"/><path d="M79.54,180.91a.73.73,0,1,0,.72.72A.72.72,0,0,0,79.54,180.91Z"/><path d="M79.54,183.36a.72.72,0,1,0,.72.72A.72.72,0,0,0,79.54,183.36Z"/><path d="M79.86,142.08l.24.17a2,2,0,0,0,1.74.14,1.08,1.08,0,0,0,.61-.88.76.76,0,0,0-.37-.83,2.59,2.59,0,0,0-2,.22c-.12-.17-.24-.37-.35-.56l-.15-.24L79.5,140a6.16,6.16,0,0,0,1.58-2.55,3.6,3.6,0,0,0-.87-3.69,2.74,2.74,0,0,0-2.13-.66,2.31,2.31,0,0,0-1.65.93,2,2,0,0,0,0,2.31,1.68,1.68,0,0,0,1.2.63,1.5,1.5,0,0,0,1.16-.41.49.49,0,0,0,0-.69.48.48,0,0,0-.68,0,.55.55,0,0,1-.41.12.69.69,0,0,1-.5-.25,1,1,0,0,1,0-1.15,1.33,1.33,0,0,1,1-.52,1.76,1.76,0,0,1,1.37.42,2.68,2.68,0,0,1,.59,2.69,5.06,5.06,0,0,1-1.28,2.06,1.93,1.93,0,0,0-1.42-.52,1.42,1.42,0,0,0-1,.48,1.28,1.28,0,0,0-.31.91,1.17,1.17,0,0,0,.48.87,1.46,1.46,0,0,0,1.21.21,2.29,2.29,0,0,0,.92-.51,2.39,2.39,0,0,1,.13.21l.31.5c-.13.09-.25.17-.33.24a6.23,6.23,0,0,1-.87.67A1.69,1.69,0,0,0,76.9,142a1.11,1.11,0,0,0-1,.75.88.88,0,0,0,.23.93,1,1,0,0,0,1.09.13l.05,0,.6-.33.14.16.23.3a4.07,4.07,0,0,0,1,1,13.1,13.1,0,0,0-.14,1.79v18.06a.49.49,0,0,0,.49.49.48.48,0,0,0,.48-.49V146.7c0-.5.06-1.06.11-1.5a1.6,1.6,0,0,0,.49,0,.86.86,0,0,0-.44-1.66,1.34,1.34,0,0,0-.68.42h0a4.57,4.57,0,0,1-.51-.61c-.09-.11-.17-.22-.26-.32l0,0a8.33,8.33,0,0,0,.77-.61A2.5,2.5,0,0,1,79.86,142.08Zm-2.25-1.88a.53.53,0,0,1-.4-.06.2.2,0,0,1-.08-.15.31.31,0,0,1,.07-.2.46.46,0,0,1,.32-.15h0a1,1,0,0,1,.59.23A1.44,1.44,0,0,1,77.61,140.2Z"/><polygon points="57.09 163.22 59.72 159.5 57.09 155.93 54.45 159.5 57.09 163.22"/></g></g></svg>