<svg xmlns="http://www.w3.org/2000/svg" viewBox="0 0 68.07 142.86"><defs><style>.cls-1,.cls-2,.cls-3{stroke:#000;stroke-miterlimit:10;}.cls-1{stroke-width:0.34px;}.cls-2{fill:#fff;stroke-width:0.25px;}.cls-3{stroke-width:0.4px;}</style></defs><g id="Layer_2" data-name="Layer 2"><g id="Dream_Catcher" data-name="Dream Catcher"><path d="M25.62,136.41A26.34,26.34,0,0,1,9.83,121.65a.5.5,0,0,0-.93.39,27.31,27.31,0,0,0,16.39,15.33.35.35,0,0,0,.17,0,.5.5,0,0,0,.48-.34A.51.51,0,0,0,25.62,136.41Z"/><path d="M59.49,120a.51.51,0,0,0-.64.31,26.33,26.33,0,0,1-15,15.6.51.51,0,0,0-.29.65.53.53,0,0,0,.48.32.57.57,0,0,0,.18,0,27.32,27.32,0,0,0,15.53-16.2A.51.51,0,0,0,59.49,120Z"/><path d="M8,102.77a.51.51,0,0,0,.21,0,.5.5,0,0,0,.43-.34A26.43,26.43,0,0,1,22.49,87.31a.51.51,0,0,0-.42-.93A27.46,27.46,0,0,0,7.7,102.12.5.5,0,0,0,8,102.77Z"/><path d="M26.33,132a22,22,0,0,1-12.57-12.36.51.51,0,1,0-.94.38A22.94,22.94,0,0,0,26,132.93a.39.39,0,0,0,.18,0,.53.53,0,0,0,.47-.33A.5.5,0,0,0,26.33,132Z"/><path d="M55.51,119.56a.5.5,0,0,0-.29-.65.51.51,0,0,0-.66.29,22,22,0,0,1-11.73,12.38.51.51,0,0,0,.21,1,.48.48,0,0,0,.2,0A23,23,0,0,0,55.51,119.56Z"/><path d="M55.38,102.82a.53.53,0,0,0,.43.37.41.41,0,0,0,.19,0,.51.51,0,0,0,.36-.62,23,23,0,0,0-11-14.07.5.5,0,0,0-.69.2.51.51,0,0,0,.19.69A22,22,0,0,1,55.38,102.82Z"/><path d="M25,90.52a23,23,0,0,0-12.61,13.69.52.52,0,0,0,.32.65l.17,0a.49.49,0,0,0,.47-.34,21.94,21.94,0,0,1,12-13.09.51.51,0,1,0-.4-.93Z"/><path d="M15.21,111.76a7.61,7.61,0,1,0-7.51,7.69A7.61,7.61,0,0,0,15.21,111.76Zm-7.53,6.68a6.59,6.59,0,1,1,6.52-6.67A6.61,6.61,0,0,1,7.68,118.44Z"/><path d="M11.66,107.92l-8.4.1a.49.49,0,0,0-.42.24.5.5,0,0,0,0,.49l4.31,8.74a.5.5,0,0,0,.91,0l4.1-8.84a.53.53,0,0,0,0-.49A.49.49,0,0,0,11.66,107.92Zm-4.1,8.17L4.08,109l6.79-.08Z"/><path d="M60.38,103.61a7.61,7.61,0,1,0,7.69,7.52A7.61,7.61,0,0,0,60.38,103.61Zm.17,14.2a6.59,6.59,0,1,1,6.51-6.67A6.6,6.6,0,0,1,60.55,117.81Z"/><path d="M60.76,105.59a.47.47,0,0,0-.46-.28.49.49,0,0,0-.45.29l-4.1,8.85a.49.49,0,0,0,0,.48.5.5,0,0,0,.43.24l8.4-.1a.52.52,0,0,0,.42-.25.48.48,0,0,0,0-.48ZM57,114.14,60.32,107l3.48,7.07Z"/><path d="M34.27,127.65a7.61,7.61,0,1,0,7.7,7.51A7.61,7.61,0,0,0,34.27,127.65Zm.17,14.2A6.6,6.6,0,1,1,41,135.18,6.61,6.61,0,0,1,34.44,141.85Z"/><path d="M38.42,130.94,30,131a.49.49,0,0,0-.42.24.5.5,0,0,0,0,.49l2.1,4.27H30.52a.52.52,0,0,0-.5.52.5.5,0,0,0,.51.5l1.64,0,1.7,3.46a.51.51,0,0,0,.92,0l1.62-3.5,1.52,0a.5.5,0,0,0,.5-.51.51.51,0,0,0-.51-.51l-1,0,2-4.32a.5.5,0,0,0,0-.49A.49.49,0,0,0,38.42,130.94Zm-4.11,8.17-1-2.08,2,0ZM35.76,136l-3,0-2-4,6.8-.08Z"/><path class="cls-1" d="M34.47,36.2l1.62-3.46-3-4.56,1.78-4.61-.29-5.28v-.93a3.78,3.78,0,1,0-.66,0v.93l.31,5.3L32.5,28.21l3,4.56L33.9,36.22"/><path class="cls-2" d="M31.05,13.53a3.14,3.14,0,1,1,3.19,3.1,3.14,3.14,0,0,1-3.19-3.1h0"/><circle cx="34.25" cy="1.26" r="1.26"/><circle cx="34.25" cy="4.49" r="1.26"/><circle cx="34.3" cy="7.75" r="1.26"/><path class="cls-3" d="M34,36.16a14.13,14.13,0,0,1-1.68,2.32c-1-.25-1.63-.29-2,0a.76.76,0,0,0,.11,1.22A1.77,1.77,0,0,0,32,39.35a2.63,2.63,0,0,0,.39-.29c.81.22,1.76.54,2.55.81l.63.21c-.82.22-1.73.48-2.76.78l-2.29.65c-1.81-.52-3.06-.68-3.65-.26a.84.84,0,0,0-.36.74.56.56,0,0,0,.23.46c.49.37,1.77.15,3.78-.38,1.72.51,3.81,1.29,5.56,1.94l1.48.55-2.72.79c-1.64.46-3.55,1-5.21,1.43-2.1-.66-3.45-.88-4.09-.44a.84.84,0,0,0-.38.83.59.59,0,0,0,.23.46c.56.41,2,.24,4.16-.28,1.65.53,3.64,1.29,5.5,2,1.43.55,2.83,1.12,4.14,1.55l-.79.34a47.35,47.35,0,0,1-11,3.58,19.13,19.13,0,0,0-4.73-1.43,1.31,1.31,0,0,0-1.26.51A1.05,1.05,0,0,0,21.33,55a1.4,1.4,0,0,0,1.24.69,24.67,24.67,0,0,0,4.78-.29L30,56.49a70,70,0,0,0,7.8,3c-3.23,1-7.12,2.12-10.54,3a22.17,22.17,0,0,0-6-1.14h0a1.62,1.62,0,0,0-1.45,1.29A1.23,1.23,0,0,0,20.54,64a1.89,1.89,0,0,0,1,.11,53.53,53.53,0,0,0,5.73-1.21c2.59.79,5.45,1.86,8.07,2.87l3.53,1.3c-2.13.56-4.48,1.21-6.78,1.94-1.86.57-3.83,1.2-5.59,1.61-2.86-.84-5.09-1.21-6-.57a1.13,1.13,0,0,0-.46,1,.89.89,0,0,0,.36.71c.81.6,3.08.21,6.08-.57,2.16.64,4.61,1.52,7,2.35,2,.69,3.9,1.38,5.66,2-1.35.4-2.79.87-4.31,1.36-.83.27-1.62.53-2.29.73s-1.37.46-2.17.73l-2.23.74c-3.14-1.19-5.77-1.79-6.91-1a1.57,1.57,0,0,0-.64,1.51,1.15,1.15,0,0,0,.52,1c1.16.75,3.73.14,7-.91,2.3.87,4.61,2,6.31,2.75,1,.48,1.93.9,2.5,1.12s1,.44,1.64.75l.95.44c-1.14.32-2.38.69-3.61,1.06s-2.61.79-3.89,1.14c-3.06-1.37-5.77-2.13-7.11-1.51A1.48,1.48,0,0,0,24,86.87,1.38,1.38,0,0,0,24.57,88c1.16.85,4,.34,7.33-.58a55.1,55.1,0,0,1,11.38,6.92,22.33,22.33,0,0,1,6.45,9A15.69,15.69,0,0,1,50.17,114a15.24,15.24,0,0,1-7.85,9.28,18.69,18.69,0,0,1-14.56,1.14,14.29,14.29,0,0,1-9.91-12.18,14.83,14.83,0,0,1,7.86-14.73,13.55,13.55,0,0,1,8.57-1.1,13,13,0,0,1,7.51,4.29,12.82,12.82,0,0,1,3,7.51,11.83,11.83,0,0,1-5.22,10.56,10,10,0,0,1-11.49-.68,8.56,8.56,0,0,1-1.5-11.06,7.52,7.52,0,0,1,5.32-3,6.92,6.92,0,0,1,5.4,1.61,5.74,5.74,0,0,1,1.89,5.08,5.21,5.21,0,0,1-4.9,4.52,3.43,3.43,0,0,1-2.56-1.11,3,3,0,0,1-.81-2.29,2.72,2.72,0,0,1,1.66-2.08,2.38,2.38,0,0,1,2.3.13.28.28,0,0,0,.37,0,.28.28,0,0,0-.07-.38,2.94,2.94,0,0,0-2.87-.17,3.26,3.26,0,0,0-2,2.51,3.49,3.49,0,0,0,.94,2.71A4,4,0,0,0,34.18,116h0A5.82,5.82,0,0,0,39.66,111a6.26,6.26,0,0,0-2.06-5.55,7.47,7.47,0,0,0-5.77-1.76,8.05,8.05,0,0,0-5.7,3.17,9.11,9.11,0,0,0,1.6,11.67,10.32,10.32,0,0,0,12.1.77,12.25,12.25,0,0,0,5.48-11A13.21,13.21,0,0,0,34.39,96a14.22,14.22,0,0,0-9,1.1,15.39,15.39,0,0,0-8.1,15.24A14.76,14.76,0,0,0,27.68,125a19.21,19.21,0,0,0,15-1.13,15.71,15.71,0,0,0,8.11-9.57,16.22,16.22,0,0,0-.45-11A22.86,22.86,0,0,0,43.7,94a55.08,55.08,0,0,0-10.92-6.76c1.07-.3,2.18-.64,3.3-1,1.4-.42,2.85-.86,4.22-1.2.93.42,1.88.79,2.85,1.12,1.9.64,3.18.73,3.87.27a1.49,1.49,0,0,0,.67-1.36A1.31,1.31,0,0,0,47.13,84c-1.06-.78-3.63-.35-6.75.49l-1.53-.7c-.67-.32-1.25-.6-1.66-.75s-1.46-.65-2.48-1.12c-2-.91-3.93-1.79-5.77-2.52l1.63-.55c.79-.27,1.53-.52,2.15-.71L35,77.39c1.52-.5,3.32-1.08,5.07-1.59,3.37,1,6.07,1.58,7.14.84a1.27,1.27,0,0,0,.24-1.77,1.38,1.38,0,0,0-.27-.27c-1.06-.76-3.71-.31-7.13.65-2-.63-4.29-1.43-6.42-2.22s-4.29-1.51-6.18-2.1c1.46-.41,3.08-.89,4.76-1.39,2.51-.76,5.17-1.56,7.53-2.14,3.88,1.37,6.35,2,7.37,1.33a1.14,1.14,0,0,0,.47-1A1.37,1.37,0,0,0,47,66.62c-1.1-.82-3.83-.48-7.2.33-1.37-.48-2.82-1-4.26-1.58-2.4-.9-4.94-1.85-7.33-2.61,3.52-.9,7.41-2,10.53-3a17,17,0,0,0,8,.48,1.35,1.35,0,0,0,1-.92,1.47,1.47,0,0,0-.37-1.48,2.75,2.75,0,0,0-2.8-.52h0c-.07,0-2.48.81-5.81,1.83A62,62,0,0,1,30.23,56l-1.86-.78a49.58,49.58,0,0,0,10.29-3.44L40,51.16c2.7.93,4.85,1.42,5.68.81a1,1,0,0,0,.38-.92h0a1.94,1.94,0,0,0-.93-1.4c-1-.55-2.79,0-5.13,1-1.54-.52-3.19-1.11-4.71-1.73-1.83-.67-3.38-1.33-4.73-1.78,1.28-.33,2.76-.75,4.42-1.2,1.14-.35,2.38-.7,3.43-1a20.75,20.75,0,0,0,3.46,1,1.55,1.55,0,0,0,1.55-.59.91.91,0,0,0,.07-1c-.15-.26-.57-.69-1.71-.65a19.39,19.39,0,0,0-3.29.67c-.7-.24-1.43-.52-2.18-.81-1.84-.68-3.46-1.27-4.8-1.7L33,41.43c1.14-.33,2.43-.71,3.57-1,1.61.52,2.67.73,3.14.37a.59.59,0,0,0,.23-.55.63.63,0,0,0-.28-.5c-.46-.34-1.5-.24-3.07.13l-1.42-.47c-.88-.3-1.65-.55-2.31-.74a12.19,12.19,0,0,0,1.58-2.55m4.88,4.23c-.2.16-.89,0-1.71-.19a8.8,8.8,0,0,1,1.15-.13,1,1,0,0,1,.59.12.12.12,0,0,1,0,.09v.11m2.53,5a16.78,16.78,0,0,1-2.62-.67,15.32,15.32,0,0,1,2.43-.46h.12c.54,0,1,.13,1.09.37a.43.43,0,0,1,0,.45,1,1,0,0,1-1,.35m3.52,6.16c-.59.43-2.41,0-4.6-.68,1.87-.74,3.34-1.19,4.11-.77a1.38,1.38,0,0,1,.66,1,.46.46,0,0,1-.17.44m1.25,8.15a15.32,15.32,0,0,1-6.9-.26c2.81-.86,4.79-1.52,5-1.58a5.16,5.16,0,0,1,.88-.1,1.75,1.75,0,0,1,1.38.47,1,1,0,0,1,.25.92.83.83,0,0,1-.62.55m.21,8.6c-.78.54-3.15-.06-6-1.08A21.24,21.24,0,0,1,45,66.64a3.08,3.08,0,0,1,1.81.38.84.84,0,0,1,.34.73.56.56,0,0,1-.23.54m.09,8c-.82.56-3.07.15-5.86-.67a19.86,19.86,0,0,1,4.46-.78,2.48,2.48,0,0,1,1.41.28.66.66,0,0,1,.28.56.72.72,0,0,1-.29.61m-.19,9.84c-.93.61-3.45-.26-5.61-1.21a20,20,0,0,1,4.2-.72,2.49,2.49,0,0,1,1.46.3.87.87,0,0,1,.33.69,1,1,0,0,1-.39.93m-21.61-.16c1-.49,3.33.1,6,1.25-2.85.75-5.33,1.22-6.23.5a.85.85,0,0,1-.35-.75,1,1,0,0,1,.55-1m-3.53-7.36c.93-.63,3.22,0,5.75.82-2.49.76-5,1.35-5.88.77a.65.65,0,0,1-.3-.55,1.07,1.07,0,0,1,.41-1m-.71-8c.65-.46,2.4-.2,4.6.41-2.29.58-4.17.85-4.74.43a.31.31,0,0,1-.15-.29.61.61,0,0,1,.24-.55m.38-8.74a18.79,18.79,0,0,1,5,.86,45.87,45.87,0,0,1-4.78.94,1.33,1.33,0,0,1-.69-.07.72.72,0,0,1-.5-.84,1.15,1.15,0,0,1,1-.89h0m1.41-7.92A15.12,15.12,0,0,1,26.38,55a23.48,23.48,0,0,1-3.75.15.91.91,0,0,1-.79-.38.51.51,0,0,1,.06-.53.77.77,0,0,1,.75-.29m3.2-7.1c.37-.27,1.39-.13,2.71.25a5.09,5.09,0,0,1-2.79.09.2.2,0,0,1-.06-.11.34.34,0,0,1,.14-.3m1.32-5.09a3.59,3.59,0,0,1,2.29.1,4.6,4.6,0,0,1-2.38.24h0a.34.34,0,0,1,.13-.3m3.41-2.81a1.74,1.74,0,0,1,1.15,0h0a1.31,1.31,0,0,1-1.14.28.17.17,0,0,1-.1-.18v-.12"/><path d="M36.83,11.93h0a3.39,3.39,0,0,0-2.68-1.5h0a3.32,3.32,0,0,0-1.5.48A3.43,3.43,0,0,0,31.51,12h0a3.62,3.62,0,0,0-.35,1.55,3.45,3.45,0,0,0,.33,1.49h0a3.52,3.52,0,0,0,1.16,1.08,3.41,3.41,0,0,0,1.52.43h0a3.38,3.38,0,0,0,1.55-.41,3.49,3.49,0,0,0,1.13-1.1h0a3.42,3.42,0,0,0,.34-1.53A3.48,3.48,0,0,0,36.81,12ZM35.59,11a3.18,3.18,0,0,1,1,.9,3.37,3.37,0,0,1-2.35-1.31A3.19,3.19,0,0,1,35.59,11Zm-.73,2.47a3,3,0,0,0,.82-.34,3.34,3.34,0,0,0,.82-.68,3.75,3.75,0,0,0-.15,1.05,3.66,3.66,0,0,0,.18,1,3.51,3.51,0,0,0-.84-.65,3.13,3.13,0,0,0-.83-.33Zm.75-.47a3.12,3.12,0,0,1-.77.34.77.77,0,0,0-.19-.3,3.18,3.18,0,0,1,.67-.54,3.33,3.33,0,0,1,1.3-.43A3.32,3.32,0,0,1,35.61,13Zm-1.23-2.06a3.31,3.31,0,0,0,.85.68,3.26,3.26,0,0,0,1,.37,3.29,3.29,0,0,0-1.7,1h-.08a3.37,3.37,0,0,0,.12-.9A3.24,3.24,0,0,0,34.38,10.93Zm.11,3.23h.08a3.41,3.41,0,0,0,.71.54,3.24,3.24,0,0,0,1,.36,3.57,3.57,0,0,0-1,.41,2.81,2.81,0,0,0-.82.67,3.77,3.77,0,0,0,.15-1.06A3.08,3.08,0,0,0,34.49,14.16Zm-.34-3.5a3.32,3.32,0,0,1,.2,2.19H34a3,3,0,0,1-.12-.85A3.09,3.09,0,0,1,34.15,10.66Zm-.67,2.91a4,4,0,0,0-.8.34,3.25,3.25,0,0,0-.83.7A3.26,3.26,0,0,0,32,13.54a3.11,3.11,0,0,0-.17-1,3.25,3.25,0,0,0,1.65,1Zm-.73.47a3,3,0,0,1,.76-.32.67.67,0,0,0,.19.31,3.18,3.18,0,0,1-.65.51,3.38,3.38,0,0,1-1.31.43,3.61,3.61,0,0,1,1-.93Zm.37.63a3.57,3.57,0,0,0,.69-.54h.08a3.11,3.11,0,0,0-.1.86A3.51,3.51,0,0,0,34,16.05a3.1,3.1,0,0,0-.83-.66,3.62,3.62,0,0,0-1-.38,3.34,3.34,0,0,0,.93-.34Zm.75-1.77h0a4.56,4.56,0,0,0-.85-.51A3.78,3.78,0,0,0,32,12a3.21,3.21,0,0,0,1-.44,3.61,3.61,0,0,0,.8-.65,3.27,3.27,0,0,0,0,1.91ZM32.7,11a3.14,3.14,0,0,1,1.3-.44,3.1,3.1,0,0,1-1,.93A3.2,3.2,0,0,1,31.7,12a3,3,0,0,1,1-.93Zm.32,1.5a3.42,3.42,0,0,1,.69.51.65.65,0,0,0-.18.31,3.81,3.81,0,0,1-.79-.31,3.41,3.41,0,0,1-1-.91A3.29,3.29,0,0,1,33,12.52Zm-1.72,1a3.32,3.32,0,0,1,.27-1.35,3.28,3.28,0,0,1,0,2.69,3,3,0,0,1-.35-1.34Zm1.49,2.51a3.21,3.21,0,0,1-1-.91,3.19,3.19,0,0,1,1.31.41,3.22,3.22,0,0,1,1,.91,3.46,3.46,0,0,1-1.36-.41Zm1.45.31A3.34,3.34,0,0,1,33.89,15a3.15,3.15,0,0,1,.1-.81h.36a3.78,3.78,0,0,1,.12.82,3.19,3.19,0,0,1-.25,1.36ZM35.69,16a3.14,3.14,0,0,1-1.3.44,3.45,3.45,0,0,1,1-.93,3.18,3.18,0,0,1,1.31-.44,3.66,3.66,0,0,1-1.06.94Zm-.35-1.51a5.12,5.12,0,0,1-.66-.49.73.73,0,0,0,.16-.33,4.09,4.09,0,0,1,.78.31,3.63,3.63,0,0,1,1,.91A3.27,3.27,0,0,1,35.34,14.51Zm1.45.32a3.32,3.32,0,0,1,0-2.69A3.24,3.24,0,0,1,36.79,14.83Z"/><path d="M59,101a.5.5,0,0,0,.41.39.61.61,0,0,0,.19,0,.51.51,0,0,0,.39-.61A23,23,0,0,0,49.6,86.27a.5.5,0,0,0-.7.16.51.51,0,0,0,.17.7A22,22,0,0,1,59,101Z"/></g></g></svg>