<svg xmlns="http://www.w3.org/2000/svg" viewBox="0 0 68.37 142.87"><defs><style>.cls-1,.cls-2,.cls-3{stroke:#000;stroke-miterlimit:10;}.cls-1{stroke-width:0.34px;}.cls-2{fill:#fff;stroke-width:0.25px;}.cls-3{stroke-width:0.4px;}</style></defs><g id="Layer_2" data-name="Layer 2"><g id="Dream_Catcher" data-name="Dream Catcher"><path d="M25.86,136.39A26.3,26.3,0,0,1,10.11,121.6a.51.51,0,0,0-.94.39,27.28,27.28,0,0,0,16.36,15.36l.17,0a.5.5,0,0,0,.48-.34A.51.51,0,0,0,25.86,136.39Z"/><path d="M59.77,120.07a.49.49,0,0,0-.64.31,26.29,26.29,0,0,1-15,15.55.51.51,0,0,0,.19,1,.39.39,0,0,0,.18,0,27.27,27.27,0,0,0,15.57-16.15A.51.51,0,0,0,59.77,120.07Z"/><path d="M8.33,102.71a.39.39,0,0,0,.21,0,.51.51,0,0,0,.44-.33A26.41,26.41,0,0,1,22.85,87.28a.49.49,0,0,0,.25-.67.5.5,0,0,0-.67-.25A27.44,27.44,0,0,0,8,102.07.5.5,0,0,0,8.33,102.71Z"/><path d="M26.58,132A21.93,21.93,0,0,1,14,119.59a.51.51,0,1,0-.94.37,23,23,0,0,0,13.12,13,.57.57,0,0,0,.18,0,.51.51,0,0,0,.18-1Z"/><path d="M55.8,119.62a.52.52,0,0,0-.3-.66.51.51,0,0,0-.65.3A22,22,0,0,1,43.09,131.6a.51.51,0,0,0-.27.67.53.53,0,0,0,.47.31.46.46,0,0,0,.2-.05A23,23,0,0,0,55.8,119.62Z"/><path d="M55.7,102.87a.5.5,0,0,0,.43.37.41.41,0,0,0,.19,0,.5.5,0,0,0,.36-.62,23,23,0,0,0-10.93-14.1.5.5,0,0,0-.69.2.51.51,0,0,0,.2.69A22,22,0,0,1,55.7,102.87Z"/><path d="M25.35,90.5a22.93,22.93,0,0,0-12.64,13.67.5.5,0,0,0,.32.64.47.47,0,0,0,.17,0,.51.51,0,0,0,.47-.35,21.92,21.92,0,0,1,12.08-13,.51.51,0,0,0-.4-.94Z"/><path d="M15.51,111.72a7.61,7.61,0,0,0-7.68-7.53A7.61,7.61,0,1,0,8,119.4,7.62,7.62,0,0,0,15.51,111.72ZM8,118.38a6.6,6.6,0,1,1-.13-13.18A6.59,6.59,0,1,1,8,118.38Z"/><path d="M12,107.87l-8.7.1a.52.52,0,0,0-.43.24.5.5,0,0,0,0,.49l4.59,8.73a.5.5,0,0,0,.46.29.51.51,0,0,0,.45-.29l4.12-8.84a.51.51,0,0,0,0-.49A.49.49,0,0,0,12,107.87ZM7.85,116,4.38,109l6.8-.06Z"/><path d="M60.7,103.68a7.61,7.61,0,1,0,7.67,7.53A7.61,7.61,0,0,0,60.7,103.68Zm.13,14.2a6.6,6.6,0,1,1,6.53-6.66A6.6,6.6,0,0,1,60.83,117.88Z"/><path d="M61.08,105.66a.51.51,0,0,0-.92,0L56,114.5a.51.51,0,0,0,0,.49.47.47,0,0,0,.43.23l8.4-.08a.5.5,0,0,0,.45-.73ZM57.3,114.2l3.33-7.14,3.47,7.08Z"/><path d="M34.54,127.65a7.61,7.61,0,1,0,7.67,7.54A7.62,7.62,0,0,0,34.54,127.65Zm.13,14.2a6.59,6.59,0,1,1,6.53-6.65A6.59,6.59,0,0,1,34.67,141.85Z"/><path d="M38.67,131l-8.4.08a.5.5,0,0,0-.45.73L31.91,136H30.76a.5.5,0,0,0-.5.51.5.5,0,0,0,.51.5h1.64l1.69,3.47a.53.53,0,0,0,.46.28.5.5,0,0,0,.46-.29l1.63-3.5,1.52,0a.5.5,0,0,0,.5-.51.5.5,0,0,0-.51-.5h-1l2-4.32a.51.51,0,0,0-.47-.72Zm-4.12,8.17-1-2.08,2,0ZM36,136l-3,0-2-4,6.8-.07Z"/><path class="cls-1" d="M35,36.21l1.63-3.46-3-4.57,1.79-4.61-.28-5.28v-.93a3.76,3.76,0,1,0-.65,0v.93l.29,5.3L33,28.21l3,4.57-1.62,3.44"/><path class="cls-2" d="M31.59,13.53a3.13,3.13,0,1,1,3.17,3.1,3.14,3.14,0,0,1-3.17-3.1h0"/><circle cx="34.39" cy="1.26" r="1.26"/><circle cx="34.39" cy="4.49" r="1.26"/><circle cx="34.45" cy="7.75" r="1.26"/><path class="cls-3" d="M34.43,36.17a14.55,14.55,0,0,1-1.69,2.31c-1-.26-1.63-.3-2,0a.66.66,0,0,0-.27.57.7.7,0,0,0,.37.65,1.77,1.77,0,0,0,1.64-.31,2.19,2.19,0,0,0,.39-.29c.81.22,1.76.55,2.55.82l.63.21c-.82.21-1.73.47-2.76.77L31,41.5c-1.81-.52-3.06-.68-3.66-.26A.87.87,0,0,0,27,42a.57.57,0,0,0,.24.46c.48.37,1.77.15,3.77-.37,1.73.51,3.81,1.29,5.56,2l1.48.55-2.73.78c-1.63.47-3.55,1-5.21,1.42-2.09-.66-3.45-.89-4.09-.44a.83.83,0,0,0-.38.83.6.6,0,0,0,.23.45c.56.41,2,.25,4.16-.26,1.66.53,3.64,1.29,5.49,2,1.43.55,2.84,1.12,4.14,1.56l-.79.34a47.43,47.43,0,0,1-11,3.55,18.74,18.74,0,0,0-4.73-1.44,1.28,1.28,0,0,0-1.26.51,1,1,0,0,0-.1,1.06,1.38,1.38,0,0,0,1.24.69,24,24,0,0,0,4.79-.27l2.62,1.12a70.77,70.77,0,0,0,7.79,3c-3.22,1-7.12,2.11-10.54,2.94a22.59,22.59,0,0,0-6-1.16h0a1.64,1.64,0,0,0-1.46,1.29A1.23,1.23,0,0,0,21,64a1.76,1.76,0,0,0,1,.12,53.53,53.53,0,0,0,5.73-1.21c2.59.81,5.45,1.88,8.07,2.9l3.52,1.31c-2.13.55-4.48,1.19-6.78,1.92-1.86.56-3.83,1.19-5.6,1.6-2.85-.85-5.08-1.23-6-.59a1.11,1.11,0,0,0-.46,1,.84.84,0,0,0,.36.71c.81.6,3.08.22,6.08-.55,2.15.64,4.6,1.53,7,2.37,2,.69,3.89,1.38,5.65,2-1.35.41-2.79.87-4.31,1.35l-2.29.74c-.68.2-1.37.45-2.18.72l-2.23.73c-3.13-1.2-5.76-1.8-6.9-1a1.58,1.58,0,0,0-.65,1.51,1.14,1.14,0,0,0,.53,1c1.15.74,3.72.14,7-.9,2.31.88,4.61,2,6.31,2.77,1,.48,1.93.9,2.5,1.12s1,.44,1.64.76l.94.43c-1.14.32-2.38.69-3.61,1.06s-2.61.78-3.9,1.13c-3.05-1.37-5.76-2.14-7.09-1.53a1.48,1.48,0,0,0-.86,1.49A1.38,1.38,0,0,0,24.93,88c1.16.85,4,.35,7.33-.56a54.83,54.83,0,0,1,11.36,6.95,22.32,22.32,0,0,1,6.43,9,15.69,15.69,0,0,1,.41,10.66,15.2,15.2,0,0,1-7.87,9.27A18.72,18.72,0,0,1,28,124.44a14.29,14.29,0,0,1-9.88-12.2A14.85,14.85,0,0,1,26,97.52a13.65,13.65,0,0,1,8.58-1.08,12.93,12.93,0,0,1,7.49,4.32,12.74,12.74,0,0,1,3,7.51,11.84,11.84,0,0,1-5.25,10.55,10,10,0,0,1-11.49-.71A8.57,8.57,0,0,1,26.87,107a7.55,7.55,0,0,1,5.33-2.93,6.87,6.87,0,0,1,5.39,1.63,5.73,5.73,0,0,1,1.89,5.08,5.24,5.24,0,0,1-4.92,4.51A3.47,3.47,0,0,1,32,114.21a3,3,0,0,1-.8-2.29,2.69,2.69,0,0,1,1.67-2.07,2.36,2.36,0,0,1,2.29.12.27.27,0,0,0,.37,0,.27.27,0,0,0-.06-.38,2.91,2.91,0,0,0-2.87-.18,3.27,3.27,0,0,0-2,2.5,3.42,3.42,0,0,0,.93,2.71A4,4,0,0,0,34.47,116h0A5.81,5.81,0,0,0,40,111.05a6.27,6.27,0,0,0-2.05-5.56,7.45,7.45,0,0,0-5.76-1.77,8,8,0,0,0-5.71,3.16A9.1,9.1,0,0,0,28,118.55a10.34,10.34,0,0,0,12.1.8,12.25,12.25,0,0,0,5.51-11A13.22,13.22,0,0,0,34.73,96a14.26,14.26,0,0,0-9,1.09,15.37,15.37,0,0,0-8.13,15.22A14.79,14.79,0,0,0,28,125a19.26,19.26,0,0,0,15-1.09,15.73,15.73,0,0,0,8.13-9.55,16.24,16.24,0,0,0-.42-11,22.92,22.92,0,0,0-6.58-9.29,55.14,55.14,0,0,0-10.91-6.79c1.07-.3,2.18-.63,3.3-1,1.4-.42,2.85-.85,4.23-1.19a27.92,27.92,0,0,0,2.84,1.12c1.9.65,3.18.74,3.87.29a1.49,1.49,0,0,0,.67-1.37A1.29,1.29,0,0,0,47.5,84c-1.07-.78-3.63-.35-6.76.48l-1.52-.71c-.67-.31-1.25-.6-1.66-.75s-1.46-.65-2.48-1.13c-2-.91-3.92-1.8-5.77-2.52L31,78.84c.79-.27,1.53-.52,2.15-.71l2.29-.73c1.52-.5,3.32-1.08,5.07-1.58,3.38,1.06,6.07,1.6,7.14.85a1.26,1.26,0,0,0,.25-1.77,1.33,1.33,0,0,0-.27-.26c-1.06-.77-3.71-.32-7.14.63-2-.63-4.28-1.44-6.41-2.23s-4.29-1.52-6.18-2.13c1.47-.4,3.08-.87,4.77-1.37,2.52-.75,5.17-1.55,7.53-2.12,3.88,1.38,6.35,2,7.37,1.34a1.15,1.15,0,0,0,.48-1,1.44,1.44,0,0,0-.57-1.14c-1.09-.82-3.82-.48-7.19.32-1.37-.49-2.82-1-4.26-1.59-2.4-.9-4.94-1.87-7.32-2.62,3.52-.9,7.41-2,10.53-3a16.94,16.94,0,0,0,8,.5,1.35,1.35,0,0,0,1-.92,1.46,1.46,0,0,0-.37-1.47,2.75,2.75,0,0,0-2.8-.53h0c-.07,0-2.48.81-5.81,1.82A63,63,0,0,1,30.66,56l-1.85-.79a50.59,50.59,0,0,0,10.3-3.41l1.35-.57c2.69.93,4.84,1.43,5.67.82a1,1,0,0,0,.39-.92h0a2,2,0,0,0-.94-1.4c-1-.56-2.79,0-5.13,1-1.53-.52-3.18-1.11-4.7-1.74-1.83-.67-3.38-1.34-4.73-1.79,1.29-.33,2.76-.74,4.42-1.19,1.15-.35,2.39-.69,3.44-1a20,20,0,0,0,3.45,1,1.58,1.58,0,0,0,1.56-.58.93.93,0,0,0,.07-1c-.15-.27-.57-.7-1.7-.65a18.66,18.66,0,0,0-3.31.66c-.69-.25-1.42-.53-2.17-.82-1.84-.68-3.46-1.27-4.8-1.71l1.52-.43c1.14-.33,2.42-.7,3.57-1,1.61.52,2.67.74,3.14.38a.59.59,0,0,0,.23-.55.63.63,0,0,0-.28-.5c-.46-.34-1.5-.24-3.07.12l-1.42-.47c-.88-.3-1.65-.56-2.3-.75A13,13,0,0,0,35,36.15m4.87,4.24c-.2.16-.89,0-1.71-.19a6.33,6.33,0,0,1,1.15-.13,1,1,0,0,1,.58.12.1.1,0,0,1,.06.09v.1m2.53,5a16.78,16.78,0,0,1-2.62-.67,14.25,14.25,0,0,1,2.43-.45h.12a1.27,1.27,0,0,1,1.09.36.45.45,0,0,1,0,.45,1.07,1.07,0,0,1-1,.36m3.5,6.16c-.59.43-2.41,0-4.6-.69,1.88-.74,3.34-1.18,4.12-.76a1.39,1.39,0,0,1,.65,1,.45.45,0,0,1-.17.43m1.23,8.15a15.42,15.42,0,0,1-6.89-.27c2.8-.86,4.78-1.51,5-1.57a5.16,5.16,0,0,1,.88-.1,1.83,1.83,0,0,1,1.38.47,1,1,0,0,1,.24.93.83.83,0,0,1-.62.55m.19,8.59c-.78.54-3.15-.06-6-1.09a22.12,22.12,0,0,1,4.13-.6,3.09,3.09,0,0,1,1.81.39.82.82,0,0,1,.34.73.6.6,0,0,1-.24.54m.08,8c-.83.56-3.08.15-5.87-.67A20,20,0,0,1,46,74.83a2.59,2.59,0,0,1,1.42.28.69.69,0,0,1,.28.56.72.72,0,0,1-.29.61m-.22,9.85c-.94.6-3.45-.27-5.6-1.22a19.87,19.87,0,0,1,4.19-.72,2.47,2.47,0,0,1,1.46.31.79.79,0,0,1,.33.68,1,1,0,0,1-.39.93m-21.61-.2c1-.49,3.33.1,6,1.26-2.85.74-5.33,1.2-6.23.49A.87.87,0,0,1,25,86.9a1,1,0,0,1,.55-1M22,78.54c.94-.63,3.23,0,5.75.83-2.48.75-5,1.34-5.88.75a.61.61,0,0,1-.29-.55,1.06,1.06,0,0,1,.41-1m-.69-8c.65-.47,2.39-.2,4.59.41-2.29.57-4.17.85-4.74.43a.36.36,0,0,1-.15-.3.62.62,0,0,1,.25-.54m.4-8.74a18.47,18.47,0,0,1,5,.87,48.78,48.78,0,0,1-4.79.93,1.36,1.36,0,0,1-.69-.08.72.72,0,0,1-.49-.84,1.14,1.14,0,0,1,1-.88h0m1.43-7.92A15.27,15.27,0,0,1,26.82,55a22.48,22.48,0,0,1-3.76.13.84.84,0,0,1-.78-.38.53.53,0,0,1,0-.53.76.76,0,0,1,.76-.28m3.21-7.09c.38-.27,1.39-.13,2.71.25a5,5,0,0,1-2.78.08.11.11,0,0,1-.06-.1.3.3,0,0,1,.13-.3m1.33-5.09a3.56,3.56,0,0,1,2.3.11,4.74,4.74,0,0,1-2.39.23h0a.33.33,0,0,1,.14-.3m3.41-2.8a1.68,1.68,0,0,1,1.15,0h0a1.31,1.31,0,0,1-1.14.28A.17.17,0,0,1,31,39v-.13"/><path d="M37.38,11.84h0a3.25,3.25,0,0,0-1.16-1.08,3.34,3.34,0,0,0-1.52-.43h0a3.47,3.47,0,0,0-1.5.47,3.36,3.36,0,0,0-1.14,1.11h0a3.59,3.59,0,0,0-.35,1.55A3.52,3.52,0,0,0,32,15h0A3.6,3.6,0,0,0,33.19,16a3.41,3.41,0,0,0,1.52.43h0a3.47,3.47,0,0,0,1.55-.4A3.56,3.56,0,0,0,37.4,15h0a3.49,3.49,0,0,0,.34-1.53,3.61,3.61,0,0,0-.38-1.54Zm-1.24-.95a3.22,3.22,0,0,1,1,.91,3.19,3.19,0,0,1-1.31-.41,3.22,3.22,0,0,1-1-.91A3.19,3.19,0,0,1,36.14,10.89Zm-.73,2.48a3.46,3.46,0,0,0,.82-.34,3.58,3.58,0,0,0,.82-.68,3.49,3.49,0,0,0,0,2.09,3.55,3.55,0,0,0-.83-.66,3.48,3.48,0,0,0-.83-.32Zm.75-.47a3.39,3.39,0,0,1-.78.33.71.71,0,0,0-.18-.3,3.48,3.48,0,0,1,.67-.53,3.17,3.17,0,0,1,1.3-.43A3.45,3.45,0,0,1,36.16,12.9Zm-1.22-2.07a2.89,2.89,0,0,0,.84.68,3,3,0,0,0,1,.37,4.43,4.43,0,0,0-1,.39,3.55,3.55,0,0,0-.71.57H35a3.35,3.35,0,0,0,.12-.89A3.55,3.55,0,0,0,34.94,10.83Zm.1,3.23h.08a3,3,0,0,0,.7.53,3.26,3.26,0,0,0,1,.37,3.55,3.55,0,0,0-1,.4A2.94,2.94,0,0,0,35,16,3.75,3.75,0,0,0,35.16,15,3.57,3.57,0,0,0,35,14.06Zm-.34-3.5A3.12,3.12,0,0,1,35,11.9a3,3,0,0,1-.1.85h-.35a3,3,0,0,1-.12-.84A3.26,3.26,0,0,1,34.7,10.56ZM34,13.47a3.32,3.32,0,0,0-.8.34,3,3,0,0,0-.83.7,3.89,3.89,0,0,0,.15-1.07,3.29,3.29,0,0,0-.17-1,3.27,3.27,0,0,0,.83.65,3.07,3.07,0,0,0,.82.33Zm-.73.47a3,3,0,0,1,.76-.32.61.61,0,0,0,.18.31,2.93,2.93,0,0,1-.65.51,3.33,3.33,0,0,1-1.3.43,3.35,3.35,0,0,1,1-.93Zm.36.63a3.35,3.35,0,0,0,.7-.54h.08a3.12,3.12,0,0,0-.11.86A3.79,3.79,0,0,0,34.5,16a3.1,3.1,0,0,0-.83-.66,3.28,3.28,0,0,0-1-.38,3.4,3.4,0,0,0,.92-.34Zm.76-1.77h0a4.56,4.56,0,0,0-.85-.51,4.2,4.2,0,0,0-1-.37,3.18,3.18,0,0,0,1-.43,3.35,3.35,0,0,0,.8-.65,3.31,3.31,0,0,0,0,1.92Zm-1.17-1.88a3.19,3.19,0,0,1,1.3-.44,3.1,3.1,0,0,1-1,.93,3.47,3.47,0,0,1-1.29.44,3,3,0,0,1,1-.93Zm.32,1.5a3.42,3.42,0,0,1,.69.51.65.65,0,0,0-.18.31,3.61,3.61,0,0,1-.79-.31,3.41,3.41,0,0,1-1-.91A3.29,3.29,0,0,1,33.57,12.42Zm-1.72,1a3.26,3.26,0,0,1,.27-1.35,3.28,3.28,0,0,1,0,2.69,3.33,3.33,0,0,1-.35-1.34ZM33.33,16a3.45,3.45,0,0,1-1-.91,3.19,3.19,0,0,1,1.31.41,3.22,3.22,0,0,1,1,.91A3.37,3.37,0,0,1,33.29,16Zm1.45.32a3.17,3.17,0,0,1-.34-1.35,2.83,2.83,0,0,1,.09-.82h.37a3.1,3.1,0,0,1,.11.81,3.16,3.16,0,0,1-.25,1.36Zm1.46-.35a3.39,3.39,0,0,1-1.31.44A3.3,3.3,0,0,1,37.25,15a3.49,3.49,0,0,1-1.06.93Zm-.35-1.51a4.09,4.09,0,0,1-.66-.5.65.65,0,0,0,.16-.32,3.73,3.73,0,0,1,.78.31,3.45,3.45,0,0,1,1,.91A3.33,3.33,0,0,1,35.89,14.42Zm1.45.32a3.32,3.32,0,0,1,0-2.69A3.32,3.32,0,0,1,37.34,14.74Z"/><path d="M59.31,101.06a.51.51,0,0,0,.42.39.41.41,0,0,0,.19,0,.5.5,0,0,0,.38-.6A23,23,0,0,0,50,86.31a.51.51,0,0,0-.54.86A22,22,0,0,1,59.31,101.06Z"/></g></g></svg>