<svg xmlns="http://www.w3.org/2000/svg" viewBox="0 0 91.44 151.3"><title>discipline2</title><path d="M46.58,143.29a1.3,1.3,0,0,0-.82-2.46,1.28,1.28,0,0,0-.82,1.63A1.3,1.3,0,0,0,46.58,143.29Z"/><path d="M46.58,147.24a1.3,1.3,0,1,0-1.64-.82A1.3,1.3,0,0,0,46.58,147.24Z"/><path d="M46.58,151.24a1.3,1.3,0,1,0-1.64-.82A1.3,1.3,0,0,0,46.58,151.24Z"/><path d="M45.13,79.83c0,6,0,10.56.17,18.22a8.12,8.12,0,0,0,1.11,3.32,8.35,8.35,0,0,0,2.28,2.57c-.88.42-1.84.9-2.86,1.41s-1.82.91-2.67,1.32A23.94,23.94,0,0,0,39.64,105a2.71,2.71,0,0,0-2.85.56,1.89,1.89,0,0,0-.48,2c.19.51.78,1.38,2.64,1.56a10.05,10.05,0,0,0,4.17-1.29c.8.45,1.64.94,2.5,1.44,1.72,1,3.27,1.9,4.64,2.62-1,.61-2,1.3-3.09,2s-2,1.33-3,2a18.73,18.73,0,0,0-4-.46,3.72,3.72,0,0,0-2.54,1.08,1.36,1.36,0,0,0-.33,1.15,1.73,1.73,0,0,0,1,1.39c1.29.54,3.44-.49,6.05-2.11a15.05,15.05,0,0,1,4.49,1.94,12.41,12.41,0,0,1,5.81,10.75c-.24,4.32-3.55,8.27-7.54,9A8.24,8.24,0,0,1,40.93,137a7.16,7.16,0,0,1-3-4.83,7.05,7.05,0,0,1,11-6.7,6,6,0,0,1,2.59,6.06,4.74,4.74,0,0,1-2.53,3.1,3.7,3.7,0,0,1-3.24.12,3.65,3.65,0,0,1-2-2.91,2.5,2.5,0,0,1,2.09-3.06c1.34-.24,3,.35,3.34,1.74a.49.49,0,0,0,.59.36.49.49,0,0,0,.37-.59c-.48-2-2.66-2.81-4.48-2.48A3.49,3.49,0,0,0,42.79,132a4.57,4.57,0,0,0,2.54,3.68,4.72,4.72,0,0,0,4.08-.12,5.77,5.77,0,0,0,3.05-3.77,7,7,0,0,0-3-7.08,8,8,0,0,0-12.54,7.63,8.06,8.06,0,0,0,3.41,5.49,9.32,9.32,0,0,0,5.47,1.84,8.11,8.11,0,0,0,1.47-.13,10.71,10.71,0,0,0,8.34-9.91A13.42,13.42,0,0,0,49.38,118a15.74,15.74,0,0,0-3.92-1.81c.73-.47,1.48-1,2.26-1.49,1.14-.76,2.39-1.59,3.58-2.32,2.47,1.21,4.27,1.72,5.33,1.09a2.45,2.45,0,0,0-.07-3.79c-1.12-.58-3,.21-5.31,1.58-1.7-.85-3.55-1.94-5.14-2.87l-1.91-1.11,2.07-1c1-.53,2.24-1.13,3.4-1.66a9.27,9.27,0,0,0,2.16.87c2,.54,3.07.72,3.79.19a2.13,2.13,0,0,0,.66-1.73,1.69,1.69,0,0,0-.72-1.6c-1.07-.67-3-.1-5.83,1.16A7.72,7.72,0,0,1,46.28,98c-.14-7.66-.16-12.21-.16-18.22M39,108.09c-1-.09-1.62-.43-1.8-.91a.91.91,0,0,1,.26-1,1.5,1.5,0,0,1,1.1-.43,2.17,2.17,0,0,1,.73.13,19,19,0,0,1,2.72,1.26A7.7,7.7,0,0,1,39,108.09Zm-.35,10c-.15-.06-.34-.19-.43-.66,0,0,0-.16.12-.34a2.68,2.68,0,0,1,1.76-.72h0a16.7,16.7,0,0,1,2.77.23C41.07,117.66,39.44,118.39,38.69,118.07Zm17.42-7.53c.25.13.39.48.4,1,0,.8-.28,1-.38,1-.65.39-2.09,0-3.81-.84C54,110.8,55.46,110.19,56.11,110.54ZM55,103.13c.07.05.29.18.27.75s-.1.83-.27,1c-.4.3-1.65,0-2.94-.34a10.32,10.32,0,0,1-1.26-.45C52.73,103.24,54.39,102.73,55,103.13Z"/><path d="M59.24,39.21h0a17.75,17.75,0,0,0-13.9-8h-.15a17.77,17.77,0,0,0-13.82,8h0a17.81,17.81,0,0,0,0,16.05s0,0,.05,0,0,0,0,0a17.83,17.83,0,0,0,13.9,8h0a17.83,17.83,0,0,0,13.9-8,.34.34,0,0,0,.05-.17,17.81,17.81,0,0,0,0-16Zm-6.39-5A16.86,16.86,0,0,1,58.15,39a17.1,17.1,0,0,1-12.09-7A16.81,16.81,0,0,1,52.85,34.17ZM48.93,47a17.85,17.85,0,0,0,4.3-1.78,17.3,17.3,0,0,0,4.28-3.46,17.78,17.78,0,0,0-.85,5.44,17.57,17.57,0,0,0,.86,5.46,18,18,0,0,0-4.28-3.46,17.42,17.42,0,0,0-4.3-1.77v-.14C48.94,47.24,48.94,47.14,48.93,47Zm3.92-2.43a17.1,17.1,0,0,1-4.06,1.69,3.63,3.63,0,0,0-.93-1.57,16.76,16.76,0,0,1,10.29-4.9A17,17,0,0,1,52.85,44.61Zm-6.28-10.8A17.7,17.7,0,0,0,51,37.41a17.89,17.89,0,0,0,5.14,2,17.33,17.33,0,0,0-5.14,2,17.81,17.81,0,0,0-3.73,2.87l-.4-.22a17.68,17.68,0,0,0-.28-10.21ZM47,50.6a3.26,3.26,0,0,0,.4-.24A17.47,17.47,0,0,0,51,53.14a18,18,0,0,0,5.22,2,17.79,17.79,0,0,0-9.51,5.45,17.84,17.84,0,0,0,.26-10ZM45.22,32.4a17.13,17.13,0,0,1,.92,11.37,3.6,3.6,0,0,0-.88-.11,3.42,3.42,0,0,0-1,.13,17.1,17.1,0,0,1-.57-4.41A16.9,16.9,0,0,1,45.22,32.4ZM41.59,47.49A17.65,17.65,0,0,0,33,52.79a17.57,17.57,0,0,0,.89-5.55,17.78,17.78,0,0,0-.85-5.44,17.3,17.3,0,0,0,4.28,3.46A17.54,17.54,0,0,0,41.6,47c0,.1,0,.2,0,.3S41.59,47.44,41.59,47.49ZM37.76,49.9a16.75,16.75,0,0,1,3.94-1.66,3.64,3.64,0,0,0,.93,1.66,16.91,16.91,0,0,1-10.17,4.78A16.86,16.86,0,0,1,37.76,49.9Zm1.87,3.24a18,18,0,0,0,3.6-2.74,3.3,3.3,0,0,0,.41.23,18,18,0,0,0-.58,4.53,17.67,17.67,0,0,0,.85,5.43,17.79,17.79,0,0,0-9.51-5.45A17.9,17.9,0,0,0,39.63,53.14Zm4-9.08-.3.17a17.69,17.69,0,0,0-8.85-4.84,17.89,17.89,0,0,0,5.14-2A17.68,17.68,0,0,0,43.79,34a17.75,17.75,0,0,0-.19,10Zm-5.88-9.89A16.81,16.81,0,0,1,44.51,32a17.1,17.1,0,0,1-12.09,7A16.86,16.86,0,0,1,37.72,34.17ZM39.21,42a17.29,17.29,0,0,1,3.48,2.69,3.65,3.65,0,0,0-.95,1.58,16.79,16.79,0,0,1-4-1.68,17,17,0,0,1-5.3-4.78A17,17,0,0,1,39.21,42Zm-9,5.22a16.85,16.85,0,0,1,1.49-7,17.07,17.07,0,0,1,0,13.95A16.87,16.87,0,0,1,30.17,47.24Zm7.59,13.13a16.75,16.75,0,0,1-5.3-4.78,17,17,0,0,1,6.79,2.2,16.72,16.72,0,0,1,5.29,4.78A16.82,16.82,0,0,1,37.76,60.37Zm7.54,1.76a16.85,16.85,0,0,1-1.49-7,17.27,17.27,0,0,1,.54-4.26,3.83,3.83,0,0,0,1.9,0,16.91,16.91,0,0,1,.55,4.28A16.71,16.71,0,0,1,45.3,62.13Zm7.55-1.76a16.81,16.81,0,0,1-6.79,2.2,17.1,17.1,0,0,1,12.09-7A16.75,16.75,0,0,1,52.85,60.37Zm-1.48-7.89a16.71,16.71,0,0,1-3.43-2.63,3.57,3.57,0,0,0,.89-1.63,17,17,0,0,1,9.32,6.46A16.72,16.72,0,0,1,51.37,52.48Zm7.54,1.74a17,17,0,0,1,0-13.95,17.07,17.07,0,0,1,0,13.95Z"/><path d="M46.49,80A33.64,33.64,0,0,0,65.16,73.9h0l25.93.16h0a.34.34,0,0,0,.29-.52L78.9,53.21a34.44,34.44,0,0,0,.75-7.13A34,34,0,0,0,54.36,13.25h0L46.28.16A.34.34,0,0,0,46,0h0a.34.34,0,0,0-.29.16l-8.09,13h0a34,34,0,0,0-25.85,33,34.74,34.74,0,0,0,.73,7.06L.05,73a.36.36,0,0,0,0,.35.37.37,0,0,0,.3.18l25.58.15.4.3A33.79,33.79,0,0,0,45.7,80h.11M79,46.08a33.51,33.51,0,0,1-1.43,9.71.28.28,0,0,0,0,.12,33.06,33.06,0,0,1-8.41,13.82H67.94A32.53,32.53,0,0,0,78.17,46.08a32.14,32.14,0,0,0-6.46-19.43A32.66,32.66,0,0,0,55.48,15.12l-.63-1A33.28,33.28,0,0,1,79,46.08ZM45.7,76a29.87,29.87,0,0,0,11.19-2.16l0,0h.81a30.09,30.09,0,0,1-30.16-3.62A30.82,30.82,0,0,1,16.75,54.89l.23-.38A30,30,0,0,0,45.7,76Zm-9.56-2.3L55,73.83a29.26,29.26,0,0,1-18.82-.11ZM6.9,69.52a.34.34,0,0,0,0,.34.35.35,0,0,0,.3.18l14.55.09c.37.37.76.73,1.15,1.08L4.47,71.1,37.45,18c.51-.15,1-.28,1.55-.4ZM14.27,58.9a33.89,33.89,0,0,0,6.8,10.54L7.8,69.36Zm1.5-12.82c0,.58,0,1.17.05,1.75l-.28.45c-.06-.73-.09-1.47-.09-2.2A30.27,30.27,0,0,1,51.2,16.33l.23.38a29.74,29.74,0,0,0-17,1.64.4.4,0,0,0-.18.07A30,30,0,0,0,15.77,46.08ZM33.6,19.46,16.47,46.79c0-.24,0-.47,0-.71A29.31,29.31,0,0,1,33.6,19.46ZM14.93,49.25l-.71,1.13a30.23,30.23,0,0,1-.3-4.3A31.82,31.82,0,0,1,45.7,14.3a31.39,31.39,0,0,1,4.45.31l.58,1a30.94,30.94,0,0,0-36,30.52A30.31,30.31,0,0,0,14.93,49.25ZM46.24,6.85A.37.37,0,0,0,46,6.68h0a.34.34,0,0,0-.29.17l-3.38,5.46-1.38.17L46,4.33,74.51,51.14c-.1.57-.22,1.14-.36,1.7Zm2.5,5.43c-1-.09-2-.14-3-.14s-1.72,0-2.58.11L46,7.68ZM75.19,51.16v0A29.7,29.7,0,0,0,75.57,48a.28.28,0,0,0,0-.09c0-.61.06-1.22.06-1.84a29.93,29.93,0,0,0-18-27.46l-.29-.47a30.26,30.26,0,0,1,7.35,51.49l0,.06h-.56A30.11,30.11,0,0,0,75.19,51.16Zm-.25-4.39L58.27,19.66A29.26,29.26,0,0,1,75,46.08C75,46.31,74.94,46.54,74.94,46.77Zm-18.2-29.6L56,16a32.1,32.1,0,0,1,15.14,11A31.78,31.78,0,0,1,67,69.72H65.66a30.94,30.94,0,0,0-8.92-52.54Zm6.34,52.44-.07.08-34.84-.21A29.18,29.18,0,0,1,17.46,53.73L39.93,17.41a29.23,29.23,0,0,1,12,.08l22,36.26A29.39,29.39,0,0,1,63.08,69.61Zm-46.8-14A31.65,31.65,0,0,0,27.15,70.78,30.85,30.85,0,0,0,59.27,73.9l0,0h1.83A31.82,31.82,0,0,1,15.68,56.61ZM29.13,70.17l55.12.33h0a.35.35,0,0,0,.3-.17.34.34,0,0,0,0-.34L77.41,58.23c.19-.48.36-1,.52-1.46L87,71.6l-56.15-.34C30.25,70.92,29.68,70.55,29.13,70.17ZM70,69.74A34,34,0,0,0,77.1,59l6.54,10.79ZM46,1l8.94,14.54a.43.43,0,0,0,0,.07L74.89,48c0,.71-.13,1.41-.23,2.1L46.26,3.5A.34.34,0,0,0,46,3.33h0a.34.34,0,0,0-.29.17L40,12.63c-.49.08-1,.17-1.46.27ZM12.44,46.08A33.3,33.3,0,0,1,45.7,12.82a33.65,33.65,0,0,1,3.48.18l.52.87a31.36,31.36,0,0,0-4-.25A32.49,32.49,0,0,0,13.24,46.08a30.57,30.57,0,0,0,.42,5.17h0l-.64,1A33.74,33.74,0,0,1,12.44,46.08ZM1,72.83,34.71,19c.57-.23,1.15-.44,1.75-.64L3.56,71.26a.34.34,0,0,0,0,.34.33.33,0,0,0,.29.18l19.82.12c.43.37.87.72,1.32,1.07ZM45.7,79.35a33.26,33.26,0,0,1-31-21.17l.52-.83A32.5,32.5,0,0,0,62.39,73.94l.06-.06H64A33,33,0,0,1,45.7,79.35ZM34.35,73q-1.17-.5-2.28-1.08l55.51.33h0a.32.32,0,0,0,.29-.17.34.34,0,0,0,0-.34L78.21,55.91c.17-.58.33-1.16.47-1.75l11.81,19.2Z"/></svg>