<?xml version="1.0" standalone="no"?>
<!DOCTYPE svg PUBLIC "-//W3C//DTD SVG 20010904//EN"
 "http://www.w3.org/TR/2001/REC-SVG-20010904/DTD/svg10.dtd">
<svg version="1.0" xmlns="http://www.w3.org/2000/svg"
 width="1218.000000pt" height="1218.000000pt" viewBox="0 0 1218.000000 1218.000000"
 preserveAspectRatio="xMidYMid meet">
<metadata>
Created by potrace 1.11, written by Peter Selinger 2001-2013
</metadata>
<g transform="translate(0.000000,1218.000000) scale(0.100000,-0.100000)"
fill="#000000" stroke="none">
<path d="M5870 12170 c-36 -4 -101 -11 -145 -15 -44 -4 -89 -9 -100 -11 -11
-2 -42 -6 -70 -10 -27 -3 -59 -7 -70 -9 -11 -1 -45 -7 -75 -11 -30 -4 -57 -9
-60 -9 -3 -1 -27 -5 -55 -9 -27 -4 -66 -12 -85 -16 -19 -5 -53 -11 -75 -15
-22 -3 -67 -12 -101 -20 -61 -14 -87 -20 -141 -30 -16 -3 -46 -11 -68 -17 -22
-5 -47 -12 -55 -14 -297 -70 -731 -223 -1115 -392 -82 -36 -448 -222 -513
-261 -29 -17 -55 -31 -58 -31 -3 0 -25 -13 -49 -30 -24 -16 -46 -30 -49 -30
-16 0 -510 -327 -549 -364 -7 -6 -39 -31 -72 -55 -334 -247 -702 -595 -1054
-996 -93 -105 -306 -386 -423 -556 -91 -130 -198 -347 -299 -604 -22 -55 -46
-113 -53 -130 -24 -52 -123 -344 -165 -485 -40 -135 -125 -464 -136 -530 -3
-19 -10 -51 -15 -70 -5 -19 -11 -51 -14 -70 -3 -30 -14 -89 -30 -175 -5 -29
-15 -94 -21 -135 -2 -19 -9 -69 -14 -110 -6 -41 -13 -106 -17 -145 -4 -38 -8
-83 -10 -100 -26 -266 -26 -973 1 -1191 2 -16 6 -58 10 -94 5 -56 16 -148 31
-255 2 -16 6 -48 9 -70 3 -22 7 -47 10 -55 2 -8 6 -33 10 -55 50 -339 193
-869 335 -1244 157 -415 292 -686 453 -914 34 -49 240 -321 246 -327 3 -3 35
-41 70 -85 36 -44 72 -87 80 -96 9 -10 45 -50 81 -90 112 -128 302 -321 475
-484 126 -119 410 -350 606 -493 116 -84 462 -312 474 -312 2 0 28 -15 57 -34
142 -90 481 -263 716 -365 305 -133 752 -289 962 -336 8 -1 40 -10 70 -18 58
-17 354 -83 405 -90 17 -3 41 -8 55 -11 28 -6 37 -7 230 -35 151 -22 202 -29
275 -36 317 -31 438 -28 825 21 138 17 140 18 225 33 33 6 74 13 90 16 17 2
39 6 50 9 11 2 36 6 55 10 51 9 117 23 280 61 8 1 44 11 80 20 36 9 72 18 81
20 9 2 49 13 90 25 792 231 1453 550 2109 1017 46 34 275 206 280 212 3 3 25
22 50 42 25 20 56 46 70 58 14 12 50 43 80 69 345 295 735 719 1011 1097 104
143 219 316 219 331 0 7 16 46 35 86 31 62 101 218 165 363 116 264 266 728
344 1066 37 160 38 166 56 264 6 33 15 80 20 105 5 25 11 61 14 80 3 19 12 85
21 145 18 128 22 157 30 245 3 36 8 81 10 100 27 239 28 901 1 1185 -15 156
-19 193 -22 210 -2 11 -6 45 -9 75 -3 30 -8 66 -10 80 -3 14 -7 39 -9 55 -11
70 -17 101 -21 125 -3 14 -7 39 -10 55 -3 17 -7 41 -10 55 -3 14 -9 48 -14 75
-79 411 -238 923 -410 1322 -90 210 -167 370 -183 379 -7 5 -33 38 -57 74
-565 836 -1276 1511 -2136 2027 -706 424 -1528 728 -2315 858 -14 2 -38 6 -55
9 -66 11 -92 15 -130 20 -22 3 -59 8 -82 11 -69 10 -95 13 -170 20 -40 4 -85
9 -100 11 -51 8 -387 11 -453 4z m-86 -312 c-17 -28 -157 -210 -241 -313 -221
-270 -472 -527 -779 -795 -149 -130 -409 -327 -607 -459 -117 -78 -363 -231
-371 -231 -2 0 -43 -23 -92 -51 -103 -59 -360 -189 -484 -244 -150 -67 -163
-72 -275 -115 -60 -23 -119 -46 -130 -51 -36 -16 -248 -87 -371 -124 -271 -83
-670 -171 -929 -205 -44 -6 -91 -13 -105 -15 -14 -3 -56 -7 -94 -11 -56 -5
-67 -4 -61 7 18 31 229 300 300 384 168 196 362 397 551 571 53 49 102 94 108
99 118 110 461 371 676 515 519 347 1229 678 1780 829 230 63 514 129 630 146
24 4 47 8 50 10 3 1 25 6 50 9 25 3 54 8 65 10 11 2 45 7 75 11 30 4 63 9 74
11 10 2 51 6 90 10 39 3 73 8 75 10 10 9 21 3 15 -8z m701 -3 c95 -11 210 -26
235 -31 14 -2 41 -7 60 -10 19 -2 46 -7 60 -10 14 -2 34 -6 45 -8 20 -3 76
-14 124 -22 13 -3 92 -21 175 -40 83 -19 158 -37 166 -39 8 -1 78 -21 156 -44
611 -176 1189 -441 1739 -796 87 -56 384 -266 406 -287 8 -7 32 -26 54 -43 52
-38 275 -226 340 -285 102 -93 404 -398 476 -480 41 -47 76 -87 79 -90 22 -21
176 -212 251 -311 l91 -121 -78 6 c-44 4 -86 9 -94 11 -8 2 -37 6 -65 10 -27
3 -93 13 -145 22 -52 8 -104 17 -115 18 -25 4 -62 11 -95 19 -14 3 -36 8 -50
10 -197 33 -667 167 -940 269 -159 60 -205 79 -360 147 -628 279 -1205 654
-1730 1125 -24 22 -119 114 -210 205 -149 148 -202 204 -305 321 -53 60 -180
212 -215 259 -19 25 -37 47 -40 50 -11 10 -110 148 -110 153 0 3 10 4 23 2 12
-2 45 -6 72 -10z m-340 -345 c115 -278 265 -736 300 -918 1 -9 8 -35 14 -57
20 -78 64 -304 86 -445 8 -52 17 -106 19 -120 2 -14 8 -52 12 -85 4 -33 8 -67
9 -75 1 -8 5 -53 9 -100 4 -47 9 -96 11 -110 24 -156 24 -807 -1 -1068 -11
-117 -13 -139 -19 -196 -4 -34 -8 -68 -10 -76 -1 -8 -6 -40 -10 -70 -21 -167
-80 -482 -122 -645 -14 -55 -26 -106 -26 -112 0 -16 -9 -16 -130 5 -148 27
-322 22 -496 -14 -40 -8 -74 -14 -75 -12 -3 3 -74 313 -82 353 -2 11 -8 43
-14 70 -11 60 -18 98 -26 145 -3 19 -7 46 -10 60 -2 14 -7 45 -10 70 -3 25 -8
52 -9 60 -2 9 -6 43 -10 75 -4 33 -8 70 -10 82 -2 12 -6 57 -10 100 -4 43 -9
94 -11 113 -18 170 -24 689 -10 905 13 214 17 253 37 410 20 161 22 177 39
275 5 30 12 72 16 94 3 21 7 46 9 55 2 9 13 62 25 118 11 57 34 156 51 220 16
65 32 128 35 140 11 54 117 389 154 488 23 61 42 115 44 120 2 6 8 23 14 38 7
16 12 30 12 32 0 2 21 53 46 112 26 59 51 119 56 133 9 24 10 23 29 -20 11
-25 40 -92 64 -150z m935 -856 c195 -178 549 -453 785 -610 647 -431 1329
-733 2088 -924 103 -26 190 -49 192 -52 2 -2 -66 -21 -153 -42 -961 -234
-1859 -682 -2652 -1325 -77 -62 -292 -252 -365 -322 -38 -37 -87 -83 -108
-103 l-38 -37 -42 26 c-23 15 -53 31 -67 38 -37 17 -39 23 -18 95 18 68 82
351 91 407 3 17 13 71 21 120 16 87 39 246 51 350 3 28 8 66 11 85 2 20 6 58
8 85 3 28 8 88 11 135 4 47 9 110 11 140 5 91 5 599 -1 685 -3 44 -7 116 -10
160 -6 98 -15 202 -20 235 -2 14 -7 52 -11 85 -3 33 -8 67 -9 76 -2 9 -6 40
-10 70 -3 30 -11 79 -16 109 -6 30 -12 66 -14 80 -31 207 -168 765 -223 909
-3 8 93 -84 214 -205 120 -121 244 -242 274 -270z m-1565 409 c-6 -16 -91
-315 -100 -353 -45 -186 -98 -444 -110 -530 -3 -25 -8 -56 -10 -70 -13 -70
-22 -137 -30 -218 -3 -23 -7 -55 -9 -70 -4 -26 -15 -130 -21 -202 -26 -308
-26 -903 0 -1105 2 -16 6 -56 9 -87 14 -143 18 -179 32 -273 8 -55 16 -109 18
-120 2 -11 7 -42 11 -70 6 -42 29 -164 65 -341 5 -22 21 -87 35 -145 15 -57
29 -112 31 -122 2 -10 6 -27 9 -38 4 -10 2 -19 -4 -19 -6 0 -34 -14 -62 -31
l-52 -30 -96 93 c-145 142 -249 235 -411 368 -41 34 -84 69 -95 78 -99 82
-369 273 -532 378 -633 407 -1304 695 -2048 879 -71 18 -123 35 -115 38 8 3
76 20 150 37 791 188 1577 545 2265 1028 66 47 141 101 167 121 25 20 61 47
79 61 208 158 423 350 646 576 98 100 180 182 182 183 2 0 0 -7 -4 -16z
m-4150 -2178 c52 -5 109 -13 160 -21 17 -3 46 -7 65 -10 55 -7 284 -52 405
-80 61 -14 119 -27 130 -29 93 -19 540 -154 610 -185 11 -4 65 -25 120 -45
615 -229 1221 -579 1760 -1016 121 -98 131 -107 239 -202 90 -80 246 -229 246
-236 0 -3 -19 -26 -41 -50 -132 -142 -242 -329 -312 -533 -5 -15 -13 -15 -89
8 -203 61 -506 166 -613 213 -11 5 -85 37 -165 72 -80 34 -219 99 -310 145
-147 73 -194 98 -330 177 -19 11 -54 30 -77 43 -284 160 -655 429 -989 719
-85 74 -470 458 -541 540 -165 192 -393 481 -393 499 0 4 17 5 38 2 20 -3 60
-7 87 -11z m9569 -7 c-5 -7 -24 -34 -43 -59 -20 -25 -47 -61 -61 -79 -243
-327 -660 -755 -1035 -1061 -341 -279 -771 -554 -1188 -761 -78 -38 -153 -76
-167 -83 -59 -31 -335 -146 -455 -190 -71 -26 -139 -51 -150 -55 -58 -24 -415
-133 -419 -128 -2 1 -20 47 -41 102 -60 152 -165 319 -269 429 -20 20 -36 41
-36 46 0 10 224 223 345 327 301 260 622 490 970 694 179 104 507 268 700 349
83 34 164 69 180 76 105 45 493 174 635 210 240 62 507 121 635 140 22 3 51 7
65 10 14 2 77 11 140 19 102 14 141 19 188 25 8 0 10 -4 6 -11z m-9950 -228
c15 -36 34 -78 41 -95 82 -187 219 -596 284 -850 34 -131 86 -371 97 -445 3
-19 7 -42 9 -50 2 -8 6 -28 9 -45 10 -64 18 -121 21 -135 3 -16 13 -92 20
-150 2 -19 7 -62 11 -95 28 -232 40 -906 21 -1135 -4 -47 -10 -105 -12 -130
-3 -25 -7 -65 -9 -90 -5 -61 -16 -149 -21 -180 -3 -14 -7 -45 -10 -69 -5 -44
-12 -86 -20 -131 -3 -14 -7 -41 -10 -60 -3 -19 -10 -57 -15 -85 -6 -27 -12
-61 -15 -75 -3 -14 -7 -36 -10 -50 -3 -14 -7 -34 -9 -45 -2 -11 -12 -51 -21
-90 -9 -38 -18 -79 -21 -91 -10 -53 -118 -414 -158 -531 -75 -216 -212 -553
-225 -553 -4 0 -14 19 -23 43 -9 23 -31 76 -48 117 -86 204 -226 610 -255 738
-2 9 -20 78 -39 152 -32 126 -78 340 -91 420 -3 19 -8 42 -10 50 -2 8 -7 38
-10 65 -10 74 -12 83 -23 165 -15 103 -20 143 -27 230 -3 41 -8 93 -11 115
-17 168 -23 668 -10 885 10 173 24 345 31 379 2 9 6 48 11 86 4 39 9 72 9 75
1 3 5 32 9 65 4 33 12 76 16 95 5 19 11 53 14 75 2 22 10 65 16 95 6 30 14 69
16 85 10 59 86 362 120 480 88 302 297 858 315 837 3 -4 18 -36 33 -72z
m10363 -200 c69 -175 151 -415 202 -592 70 -241 144 -583 177 -818 3 -25 7
-54 9 -65 2 -11 6 -45 10 -75 4 -30 8 -65 10 -77 2 -12 7 -60 10 -105 4 -46 9
-94 11 -108 23 -147 22 -862 -1 -1045 -2 -16 -7 -66 -10 -110 -3 -44 -8 -89
-10 -100 -2 -11 -7 -42 -10 -70 -14 -115 -46 -314 -71 -440 -2 -11 -6 -32 -9
-47 -3 -16 -12 -56 -20 -90 -8 -35 -16 -74 -19 -88 -5 -23 -60 -236 -70 -270
-3 -8 -16 -55 -31 -105 -45 -153 -140 -427 -184 -530 -5 -11 -31 -73 -58 -138
l-48 -117 -29 62 c-197 434 -390 1100 -461 1595 -6 46 -10 73 -20 148 -3 28
-8 60 -10 72 -2 12 -7 57 -10 100 -4 43 -9 89 -10 103 -13 106 -20 309 -20
555 1 312 9 491 35 701 22 188 29 240 40 304 5 30 12 72 16 94 7 45 9 57 29
156 8 41 17 84 19 95 57 283 227 835 329 1068 8 17 25 57 37 87 13 30 30 71
38 90 l14 35 25 -55 c14 -30 54 -129 90 -220z m-652 -327 c-4 -10 -8 -25 -11
-33 -2 -8 -19 -69 -39 -135 -19 -66 -37 -129 -39 -140 -3 -11 -12 -48 -21 -82
-20 -77 -16 -59 -64 -288 -22 -104 -42 -210 -46 -235 -3 -25 -8 -52 -10 -60
-2 -8 -7 -37 -10 -65 -4 -27 -8 -63 -10 -80 -3 -16 -7 -50 -10 -75 -3 -25 -7
-58 -10 -75 -2 -16 -7 -61 -10 -100 -3 -38 -8 -88 -10 -110 -24 -225 -24 -946
-1 -1085 3 -14 7 -64 11 -112 3 -48 8 -98 10 -110 2 -13 7 -50 10 -83 9 -75
10 -79 30 -200 9 -55 18 -116 21 -135 5 -30 58 -287 68 -331 25 -104 46 -181
88 -329 28 -96 53 -184 56 -195 4 -15 -1 -12 -19 10 -37 46 -303 309 -419 415
-119 109 -320 277 -407 341 -32 24 -60 46 -63 50 -9 10 -215 156 -320 226
-510 340 -1063 610 -1633 797 -89 29 -208 66 -264 81 l-103 29 0 82 0 81 98
27 c128 36 460 144 494 162 15 8 30 14 33 13 5 -1 141 50 190 72 337 147 496
224 735 359 445 252 785 493 1187 844 45 39 173 164 285 277 111 114 205 207
207 208 2 1 0 -7 -4 -16z m-9156 -47 c95 -107 373 -374 506 -487 22 -19 49
-42 60 -52 11 -11 72 -60 135 -111 548 -438 1156 -785 1820 -1040 118 -46 304
-108 560 -188 l75 -23 0 -74 c0 -40 -4 -79 -10 -86 -5 -7 -68 -30 -140 -50
-358 -103 -722 -248 -1105 -440 -264 -132 -435 -231 -699 -407 -407 -270 -693
-506 -1058 -874 -122 -123 -219 -213 -214 -201 76 202 210 761 246 1032 3 22
8 56 11 75 3 19 8 51 10 70 2 19 6 49 8 65 3 17 8 62 11 100 3 39 8 84 10 100
2 17 7 77 10 135 4 58 8 125 11 150 5 55 5 591 0 675 -4 54 -9 120 -20 255 -9
98 -18 186 -22 210 -2 14 -7 45 -10 70 -3 25 -7 56 -9 70 -2 14 -7 48 -10 75
-4 28 -9 58 -11 68 -3 10 -7 30 -9 45 -5 38 -11 71 -38 207 -3 11 -8 38 -12
60 -26 132 -102 418 -161 609 -8 25 10 13 55 -38z m6031 -2387 c327 -96 679
-236 1010 -400 178 -88 394 -205 460 -249 8 -5 29 -17 45 -26 77 -42 387 -253
519 -353 263 -198 437 -350 676 -590 229 -230 405 -430 550 -626 25 -33 47
-62 50 -65 12 -12 60 -79 60 -84 0 -4 -12 -4 -27 -2 -16 3 -55 8 -88 12 -33 3
-67 7 -75 9 -19 3 -83 13 -135 20 -57 8 -269 46 -275 50 -3 2 -23 6 -44 9
-167 27 -571 139 -820 227 -327 118 -780 322 -999 452 -43 26 -80 47 -83 47
-4 0 -119 69 -174 105 -280 181 -374 246 -545 379 -105 81 -320 263 -379 319
-23 21 -76 71 -118 110 -43 40 -78 75 -78 79 0 4 18 28 40 54 122 140 219 329
286 552 2 8 12 11 21 8 10 -3 65 -19 123 -37z m-2800 -52 c47 -158 170 -372
288 -501 33 -36 39 -52 23 -58 -5 -1 -47 -39 -93 -83 -252 -240 -532 -462
-833 -662 -261 -174 -392 -249 -695 -401 -159 -80 -483 -226 -525 -236 -5 -2
-21 -7 -35 -13 -58 -23 -353 -124 -445 -152 -199 -59 -559 -147 -680 -165 -22
-4 -65 -11 -95 -16 -148 -26 -218 -36 -305 -45 -33 -4 -73 -9 -89 -11 l-28 -5
38 53 c336 462 777 916 1239 1274 352 274 768 530 1160 716 179 84 215 100
390 168 88 34 180 70 205 80 65 25 424 138 445 139 6 1 21 -36 35 -82z m633
-786 c31 -18 57 -36 57 -41 0 -5 -13 -64 -29 -132 -34 -142 -78 -357 -96 -468
-4 -25 -9 -52 -10 -60 -2 -9 -7 -43 -11 -75 -4 -33 -9 -62 -9 -65 -1 -3 -5
-41 -10 -85 -5 -44 -9 -82 -10 -85 -1 -3 -5 -41 -9 -85 -4 -44 -9 -96 -11
-115 -9 -90 -19 -363 -19 -540 1 -265 12 -481 40 -725 2 -22 7 -62 10 -90 5
-45 18 -137 29 -205 2 -14 9 -54 15 -90 37 -233 118 -579 185 -796 19 -62 35
-114 35 -117 0 -3 -26 22 -57 56 -216 229 -461 457 -668 622 -55 44 -102 82
-105 85 -35 39 -416 305 -595 415 -240 149 -569 323 -800 424 -66 29 -133 59
-150 66 -244 109 -725 264 -1047 339 -85 20 -135 36 -123 39 11 3 78 19 148
36 295 71 748 214 932 296 17 7 89 38 160 68 260 110 543 256 805 417 74 45
144 88 155 94 19 11 173 115 285 193 121 84 379 287 505 398 73 63 184 165
244 222 56 54 67 61 80 49 9 -7 42 -27 74 -45z m1554 -21 c44 -41 117 -109
163 -150 47 -41 87 -77 90 -80 8 -8 109 -92 174 -145 166 -135 695 -505 721
-505 4 0 27 -13 52 -30 24 -16 45 -30 47 -30 1 0 57 -31 123 -69 156 -89 471
-242 648 -316 77 -31 149 -61 160 -66 73 -30 103 -42 125 -49 14 -5 66 -23
115 -40 248 -88 704 -215 797 -223 9 -1 15 -4 13 -8 -4 -6 -27 -12 -95 -25
-14 -3 -70 -16 -125 -30 -953 -241 -1829 -678 -2600 -1297 -55 -45 -102 -83
-105 -86 -3 -4 -34 -31 -70 -61 -119 -101 -194 -172 -381 -360 l-185 -187 34
111 c18 61 35 119 37 128 2 10 17 68 33 130 38 144 66 266 91 398 27 140 30
153 42 237 5 39 12 82 14 95 3 13 7 46 10 73 4 28 8 61 10 75 2 14 7 59 11
100 3 41 8 89 10 105 26 243 25 1036 -1 1196 -2 13 -6 56 -10 94 -8 91 -15
153 -21 190 -3 16 -7 48 -9 70 -3 22 -7 51 -10 65 -2 13 -7 42 -10 65 -3 22
-8 51 -10 65 -3 14 -7 36 -10 50 -3 14 -7 36 -10 50 -2 14 -7 39 -10 55 -2 17
-16 82 -31 145 -14 63 -27 120 -28 125 -1 6 -8 36 -16 68 -10 42 -10 61 -2 69
16 16 126 78 134 75 3 -1 42 -36 85 -77z m-907 -163 c103 -1 210 6 265 18 19
5 37 8 111 21 l31 6 12 -63 c7 -35 17 -77 22 -94 4 -16 10 -41 13 -55 2 -14 9
-43 14 -65 6 -22 13 -53 16 -70 3 -16 12 -70 21 -120 21 -118 23 -130 31 -184
4 -25 8 -53 9 -61 2 -9 6 -43 10 -75 4 -33 9 -71 11 -85 2 -14 6 -52 9 -85 3
-33 8 -82 10 -110 26 -291 26 -898 0 -1090 -2 -16 -7 -64 -10 -105 -4 -41 -8
-82 -10 -91 -1 -8 -6 -42 -9 -75 -6 -53 -20 -148 -31 -214 -2 -14 -7 -43 -11
-65 -3 -22 -12 -70 -20 -107 -7 -37 -16 -82 -19 -100 -11 -60 -76 -321 -111
-447 -69 -246 -203 -615 -293 -811 l-29 -65 -17 40 c-10 22 -25 58 -35 80 -99
225 -288 794 -324 975 -2 14 -14 64 -25 112 -11 47 -23 101 -26 120 -3 18 -10
52 -16 75 -9 41 -43 245 -54 326 -3 20 -7 52 -10 70 -10 71 -35 328 -42 432
-14 211 -6 847 11 943 2 9 7 51 11 92 3 41 8 86 10 100 2 14 7 50 10 80 3 30
8 62 10 70 2 8 7 35 9 60 3 25 13 86 22 135 9 50 18 104 21 120 2 17 14 71 25
120 11 50 21 97 23 105 19 88 38 166 41 171 2 3 47 -2 101 -13 56 -11 148 -20
213 -21z m-4595 -1747 c33 -5 78 -11 100 -15 111 -16 181 -28 300 -51 134 -26
357 -78 410 -94 17 -6 64 -19 105 -31 220 -60 560 -182 805 -289 281 -123 717
-358 912 -491 23 -16 44 -29 48 -29 3 0 11 -5 18 -10 7 -6 75 -54 152 -108
177 -123 353 -260 525 -410 151 -131 458 -433 571 -562 41 -47 76 -87 79 -90
40 -38 330 -410 330 -423 0 -4 -15 -5 -32 -2 -18 2 -91 12 -163 20 -71 9 -168
23 -215 31 -47 8 -101 17 -120 20 -19 3 -107 21 -195 40 -88 20 -169 37 -179
39 -11 3 -71 19 -135 36 -599 163 -1175 411 -1676 722 -418 260 -805 567
-1145 907 -235 236 -402 428 -601 691 l-91 121 68 -6 c38 -4 96 -11 129 -16z
m9479 -2 c-37 -60 -266 -346 -388 -482 -471 -531 -967 -933 -1621 -1318 -270
-159 -650 -335 -990 -460 -181 -66 -592 -191 -700 -212 -11 -3 -72 -16 -135
-30 -63 -14 -131 -27 -150 -31 -19 -3 -57 -10 -85 -15 -27 -5 -66 -12 -85 -15
-19 -3 -46 -7 -60 -10 -14 -3 -47 -7 -75 -11 -27 -3 -58 -8 -67 -9 -9 -2 -48
-7 -85 -10 -37 -4 -76 -9 -85 -11 -10 -1 -18 -1 -18 0 0 5 160 217 205 271
170 205 272 320 430 479 141 143 321 310 415 386 30 25 57 47 60 50 3 3 48 40
100 81 298 239 686 491 1035 671 493 255 1031 452 1555 568 88 20 98 22 190
39 30 6 66 13 80 16 92 19 396 62 448 64 24 1 31 -2 26 -11z"/>
</g>
</svg>
