<svg xmlns="http://www.w3.org/2000/svg" viewBox="0 0 41.27 41.88"><defs><style>.a{fill:#fff;}</style></defs><title>whitecatcher</title><path class="a" d="M38.75,10.47h0A23.14,23.14,0,0,0,20.67,0h-.19a23.12,23.12,0,0,0-18,10.41h0a23.13,23.13,0,0,0,0,20.85l.06.07c.06.07,0,0,0,.05a23.11,23.11,0,0,0,18.09,10.5h.05A23.11,23.11,0,0,0,38.74,31.45a.57.57,0,0,0,.07-.22,23.17,23.17,0,0,0,0-20.75Zm-8.3-6.55a21.88,21.88,0,0,1,6.88,6.21,21.86,21.86,0,0,1-8.82-2.85,22.11,22.11,0,0,1-6.88-6.21A21.86,21.86,0,0,1,30.45,3.92ZM25.36,20.64a22.15,22.15,0,0,0,5.58-2.31,22.76,22.76,0,0,0,5.57-4.49,23,23,0,0,0,0,14.16A22.72,22.72,0,0,0,31,23.52a22.15,22.15,0,0,0-5.58-2.31V21C25.37,21,25.37,20.77,25.36,20.64Zm5.09-3.16a21.94,21.94,0,0,1-5.27,2.2,4.79,4.79,0,0,0-1.21-2,21.9,21.9,0,0,1,13.36-6.37A21.74,21.74,0,0,1,30.45,17.48Zm-8.15-14A23.29,23.29,0,0,0,28,8.13a22.9,22.9,0,0,0,6.68,2.57A23.1,23.1,0,0,0,23.18,17a3.81,3.81,0,0,0-.52-.29A23.12,23.12,0,0,0,22.3,3.45Zm.5,21.81.52-.31A23.08,23.08,0,0,0,34.8,31.16a23.21,23.21,0,0,0-12.36,7.09,22.56,22.56,0,0,0,1.11-7.06,22.72,22.72,0,0,0-.75-5.92ZM20.54,1.63a21.81,21.81,0,0,1,1.94,9.07,22.32,22.32,0,0,1-.74,5.69,4.7,4.7,0,0,0-2.39,0,22.56,22.56,0,0,1-.74-5.72A22,22,0,0,1,20.54,1.63Zm-4.71,19.6A23,23,0,0,0,4.7,28.11a23.13,23.13,0,0,0,1.15-7.2,22.91,22.91,0,0,0-1.11-7.07,22.76,22.76,0,0,0,5.57,4.49,23.09,23.09,0,0,0,5.53,2.3V21C15.84,21.17,15.83,21.16,15.83,21.23Zm-5,3.13A22.18,22.18,0,0,1,16,22.2a4.7,4.7,0,0,0,1.21,2.16A22,22,0,0,1,4,30.57a21.74,21.74,0,0,1,6.84-6.21Zm2.43,4.2A22.58,22.58,0,0,0,18,25a3.6,3.6,0,0,0,.54.31,23.07,23.07,0,0,0,.35,12.94,23,23,0,0,0-5.56-4.49,23,23,0,0,0-6.79-2.6,23,23,0,0,0,6.79-2.6Zm5.16-11.79A3.3,3.3,0,0,0,18,17,23.06,23.06,0,0,0,6.55,10.7a22.9,22.9,0,0,0,6.68-2.57,23.07,23.07,0,0,0,5.46-4.38,23.4,23.4,0,0,0-1.07,7,22.7,22.7,0,0,0,.82,6ZM10.8,3.92a21.86,21.86,0,0,1,8.82-2.85,22,22,0,0,1-6.88,6.21,21.86,21.86,0,0,1-8.82,2.85A21.88,21.88,0,0,1,10.8,3.92Zm1.94,10.21a22.5,22.5,0,0,1,4.52,3.48A4.72,4.72,0,0,0,16,19.67a22,22,0,0,1-5.22-2.19,21.76,21.76,0,0,1-6.88-6.21A22.13,22.13,0,0,1,12.74,14.13ZM1,20.91A21.81,21.81,0,0,1,3,11.84a21.81,21.81,0,0,1,1.94,9.07,21.73,21.73,0,0,1-2,9.09A21.92,21.92,0,0,1,1,20.91ZM10.85,38A22,22,0,0,1,4,31.76a22.19,22.19,0,0,1,15.7,9.06A22,22,0,0,1,10.85,38Zm9.8,2.28a22.07,22.07,0,0,1-1.23-14.6,4.54,4.54,0,0,0,2.46,0,22.19,22.19,0,0,1,.71,5.56,22,22,0,0,1-1.94,9ZM30.46,38a21.86,21.86,0,0,1-8.82,2.85,22.14,22.14,0,0,1,15.7-9.06A22,22,0,0,1,30.46,38ZM28.53,27.71a22,22,0,0,1-4.45-3.41,4.82,4.82,0,0,0,1.15-2.13,22,22,0,0,1,5.23,2.19,21.76,21.76,0,0,1,6.88,6.21A22,22,0,0,1,28.53,27.71ZM38.32,30a22.12,22.12,0,0,1,0-18.13A22.12,22.12,0,0,1,38.32,30Z"/></svg>